<svg xmlns="http://www.w3.org/2000/svg" width="120" height="120" viewBox="0 0 23.35 23.35"><path d="M7.13 2.37c.48-.59 1.1-1.03 1.75-1.41.87-.38 1.86-.1 2.48.59.21.41.45.81.68 1.21.01-.09.15-.33.22-.41 1.36-1.5 4.1-1.26 5.04.93.14.34.27 1.49.13 1.84l-.29.71c-.57 1.48-1.53 2.75-2.41 4.06-.16.13-.31.27-.47.41 1.4-.48 2.77-1.04 4.23-1.31.78-.14 1.32-.18 2.44.04 1.24.71 2.36 1.92 2.41 3.42.07.67-.31 1.25-.76 1.7-.49.19-.99.38-1.49.56.49.53.88 1.2.82 1.94-.04 1.26-.62 2.76-1.95 3.12-.69.27-1.43.08-2.11-.1l-.61-.27c-1.98-1.29-3.66-3.01-5-4.95.07 2.2-.01 4.42-.38 6.6-.1.49-.29.96-.44 1.43-.07.02-.21.06-.29.08-.48-.69-1.36-.81-2.14-.71.5-.84 1.05-1.66 1.35-2.6.66-2.01.73-3.48.72-4.91-1.77 1.79-3.29 4.05-5.74 4.98-1.85.89-5.56-1.46-4.38-3.63.25-.49.7-.81 1.15-1.1-.64-.28-1.21-.68-1.61-1.25-.25-.6-.4-1.23-.48-1.87.07-.75.22-1.58.86-2.07 1.26-1.05 3.02-.79 4.5-.48 1.28.44 2.64.79 3.77 1.58-.68-1.1-1.45-2.17-1.89-3.4l-.06-.17c-.41-1.03-.92-2.13-.72-3.25.03-.29.2-.58.33-.8l.34-.51z"/></svg>