<?xml version="1.0" encoding="UTF-8"?>
<!DOCTYPE svg PUBLIC "-//W3C//DTD SVG 1.1//EN" "http://www.w3.org/Graphics/SVG/1.1/DTD/svg11.dtd">
<!-- Creator: CorelDRAW 2018 (64-Bit) -->
<svg xmlns="http://www.w3.org/2000/svg" xml:space="preserve" width="3.5cm" height="3.5cm" version="1.1" style="shape-rendering:geometricPrecision; text-rendering:geometricPrecision; image-rendering:optimizeQuality; fill-rule:evenodd; clip-rule:evenodd"
viewBox="0 0 1580.65 1580.65"
 xmlns:xlink="http://www.w3.org/1999/xlink">
 <defs>
  <style type="text/css">
   <![CDATA[
    .fil0 {fill:#2B2A29}
   ]]>
  </style>
 </defs>
 <g id="Слой_x0020_1">
  <metadata id="CorelCorpID_0Corel-Layer"/>
  <path class="fil0" d="M758.71 63.23l63.23 0 0 63.23c-42.15,0 -84.3,0 -126.45,0l0 -63.23 -63.23 0 0 63.23 -63.23 0 0 -63.23 -63.23 0 0 189.68 63.23 0 0 -63.23 126.45 0 0 63.23 -63.23 0 0 63.23 -63.23 0 0 63.23 -63.23 0 0 252.9 -126.45 0 0 -63.23 63.23 0 0 -63.23 -63.23 0 0 63.23 -189.68 0 0 63.23 126.45 0 0 63.23 -63.23 0 0 126.45 -63.23 0 0 -126.45 -63.23 0 0 -126.45 -63.23 0 0 -63.23 -63.23 0 0 63.23 63.23 0 0 63.23 -63.23 0 0 63.23 63.23 0 0 63.23 -63.23 0 0 316.13 63.23 0 0 -316.13 63.23 0 0 63.23 63.23 0 0 126.45 63.23 0 0 -126.45 63.23 0 0 189.68 63.23 0 0 63.23 126.45 0 0 63.23 189.68 0 0 -126.45 -63.23 0 0 -126.45 -252.9 0 0 -63.23 126.45 0 0 -63.23 63.23 0 0 -189.68 63.23 0 0 63.23 63.23 0 0 63.23 -63.23 0 0 126.45 126.45 0 0 63.23 63.23 0 0 63.23 -63.23 0 0 126.45 63.23 0 0 -63.23 63.23 0 0 63.23 63.23 0 0 -126.45 126.45 0 0 63.23 -63.23 0 0 252.9 -63.23 0 0 -126.45 -189.68 0 0 63.23 -63.23 0 0 63.23 -126.45 0 0 63.23 189.68 0 0 63.23 63.23 0 0 63.23 -63.23 0 0 63.23 -126.45 0 0 -63.23 63.23 0 0 -63.23 -63.23 0 0 63.23 -63.23 0 0 63.23 -63.23 0 0 63.23 379.35 0 0 -126.45 126.45 0 0 126.45 63.23 0 0 -126.45 63.23 0 0 63.23 189.68 0 0 63.23 63.23 0 0 -63.23 -63.23 0 0 -63.23 126.45 0 0 -63.23 63.23 0 0 189.68 63.23 0 0 -442.58 -63.23 0 0 126.45 -126.45 0 0 63.23 63.23 0 0 63.23 -126.45 0 0 63.23 -189.68 0 0 -63.23 63.23 0 0 -63.23 126.45 0 0 -316.13 63.23 0 0 63.23 63.23 0 0 -126.45 63.23 0 0 63.23 63.23 0 0 -126.45 -63.23 0 0 -63.23 63.23 0 0 -189.68 -63.23 0 0 -126.45c-63.23,0 -126.45,0 -189.68,0l0 63.23 -126.45 0 0 -63.23 -126.45 0 0 -316.13 -63.23 0 0 316.13 -189.68 0 0 -126.45 63.23 0 0 63.23 63.23 0 0 -63.23 -63.23 0 0 -63.23 -63.23 0 0 63.23 -63.23 0 0 -63.23 -63.23 0 0 -63.23 63.23 0 0 -63.23 63.23 0 0 63.23 63.23 0 0 -63.23 -63.23 0 0 -63.23c42.15,0 84.3,0 126.45,0l0 -126.45 -63.23 0 0 63.23 -63.23 0 0 -63.23 -63.23 0 0 63.23zm-446.3 1294.27c0,-51.35 -41.63,-92.98 -92.98,-92.98 -51.35,0 -92.98,41.63 -92.98,92.98 0,51.35 41.63,92.98 92.98,92.98 51.35,0 92.98,-41.63 92.98,-92.98zm1138.06 -1138.06c0,-51.35 -41.63,-92.98 -92.98,-92.98 -51.35,0 -92.98,41.63 -92.98,92.98 0,51.35 41.63,92.98 92.98,92.98 51.35,0 92.98,-41.63 92.98,-92.98zm-1138.06 0c0,-51.35 -41.63,-92.98 -92.98,-92.98 -51.35,0 -92.98,41.63 -92.98,92.98 0,51.35 41.63,92.98 92.98,92.98 51.35,0 92.98,-41.63 92.98,-92.98zm130.17 1361.22l0 -442.58 -442.58 0 0.09 291.48c0,83.3 67.01,151.1 149.41,151.1l293.08 0zm-66.39 -66.39l-226.69 0c-45.78,0 -83.02,-38 -83.02,-84.73l-0.07 -225.07 309.79 0 0 309.81zm761.87 -1514.26l0 442.58 442.58 0 -0.09 -291.48c0,-83.3 -67.01,-151.1 -149.42,-151.1l-293.07 0zm66.39 66.39l226.69 0c45.78,0 83.03,38 83.03,84.73l0.07 225.07 -309.79 0 0 -309.81zm-761.87 -66.39l0 442.58 -442.58 0 0.09 -291.48c0,-83.3 67.01,-151.1 149.41,-151.1l293.08 0zm-66.39 66.39l-226.69 0c-45.78,0 -83.02,38 -83.02,84.73l-0.07 225.07 309.79 0 0 -309.81zm572.19 1324.58l-63.23 0 0 -63.23 -126.45 0 0 -126.45 126.45 0 0 63.23 63.23 0 0 63.23 63.23 0 0 63.23 -63.23 0zm252.9 -126.45l-126.45 0 0 -189.68 189.68 0 0 189.68 -63.23 0zm-63.23 -63.23l63.23 0 0 -63.23 -63.23 0 0 63.23zm-569.03 -126.45l-63.23 0 0 -63.23 -126.45 0 0 -63.23 189.68 0 0 63.23 63.23 0 0 63.23 -63.23 0zm695.48 -63.23l0 -63.23 63.23 0 0 63.23 -63.23 0zm-1138.06 63.23l63.23 0 0 -63.23 -63.23 0 0 63.23zm1264.52 -126.45l0 -63.23 -126.45 0 0 -126.45c42.15,0 84.3,0 126.45,0l0 -126.45 63.23 0 0 63.23 63.23 0 0 126.45 -63.23 0 0 126.45 -63.23 0zm-252.9 0l-63.23 0 0 -126.45 -63.23 0 0 -63.23 -63.23 0 0 -63.23 63.23 0 0 -126.45 63.23 0 0 63.23 63.23 0 0 63.23 126.45 0 0 63.23c-42.15,0 -84.3,0 -126.45,0l0 63.23 63.23 0 0 126.45 -63.23 0zm-252.9 -63.23l0 -63.23 63.23 0 0 63.23 -63.23 0zm-126.45 -63.23l0 -63.23 -63.23 0 0 -63.23c42.15,0 84.3,0 126.45,0l0 -63.23 63.23 0 0 -63.23 63.23 0 0 126.45 -63.23 0 0 63.23 -63.23 0 0 63.23 -63.23 0zm-316.13 -63.23l-63.23 0 0 -63.23 126.45 0 0 63.23 -63.23 0zm821.94 -63.23l0 -63.23 63.23 0 0 63.23 -63.23 0zm-126.45 -63.23l0 -63.23 63.23 0 0 63.23 -63.23 0zm-379.35 0l-63.23 0 0 -63.23 -63.23 0 0 -63.23 189.68 0 0 126.45 -63.23 0zm-189.68 -126.45l0 -126.45 63.23 0 0 126.45 -63.23 0zm126.45 -63.23l0 -63.23 63.23 0 0 63.23 -63.23 0zm316.13 -379.35l63.23 0 0 -63.23 -63.23 0 0 63.23z"/>
 </g>
</svg>
