<?xml version="1.0" encoding="UTF-8"?>
<!DOCTYPE svg PUBLIC "-//W3C//DTD SVG 1.1//EN" "http://www.w3.org/Graphics/SVG/1.1/DTD/svg11.dtd">
<!-- Creator: CorelDRAW 2018 (64-Bit) -->
<svg xmlns="http://www.w3.org/2000/svg" xml:space="preserve" width="120.109mm" height="75.2958mm" version="1.1" style="shape-rendering:geometricPrecision; text-rendering:geometricPrecision; image-rendering:optimizeQuality; fill-rule:evenodd; clip-rule:evenodd"
viewBox="0 0 12010.96 7529.59"
 xmlns:xlink="http://www.w3.org/1999/xlink">
 <defs>
  <style type="text/css">
   <![CDATA[
    .fil0 {fill:black}
    .fil14 {fill:#070204}
    .fil8 {fill:#8596A2}
    .fil12 {fill:#9BBACE}
    .fil7 {fill:#A2B1B9}
    .fil5 {fill:#BDD6E3}
    .fil4 {fill:#C2C4C9}
    .fil3 {fill:#D2E0E7}
    .fil11 {fill:#E5C184}
    .fil9 {fill:#F5B12D}
    .fil16 {fill:#F5B137}
    .fil10 {fill:#F7EEA2}
    .fil13 {fill:#F8D394}
    .fil15 {fill:#F9ECD3}
    .fil6 {fill:#FDD30E}
    .fil2 {fill:white}
    .fil1 {fill:white;fill-rule:nonzero}
   ]]>
  </style>
 </defs>
 <g id="Слой_x0020_1">
  <metadata id="CorelCorpID_0Corel-Layer"/>
  <g id="_2926665330192">
   <polygon class="fil0" points="5496.85,1010.87 6468.32,3084.72 5534.43,3503.07 4562.97,1429.22 "/>
   <polygon class="fil0" points="6061.55,2985.93 6600.81,404.62 7494.69,591.37 6955.43,3172.68 "/>
   <path class="fil1" d="M6529.05 2343.9l10.46 -50.07 205.46 42.92 20.13 -96.35 -205.46 -42.92 10.46 -50.07 205.46 42.92 4.33 -20.72 95.65 19.98 -8.73 41.79 -53.86 -11.25 -36.65 175.42 -247.25 -51.65zm299.81 -199.92l-247.26 -51.65 38.24 -183.03 41.79 8.73 -27.78 132.95 54.91 11.47 25.82 -123.62 41.78 8.73 -25.82 123.62 66.99 13.99 28.78 -137.78 41.79 8.73 -39.24 187.86zm48.11 -230.33l-247.25 -51.65 10.46 -50.08 97.38 20.35 20.34 -97.38 -97.37 -20.35 10.46 -50.06 247.25 51.65 -10.46 50.07 -108.09 -22.58 -20.34 97.38 108.09 22.58 -10.47 50.07zm-120.45 -322.2l-21.57 46.32c-38.1,-18.9 -52.03,-52.86 -41.79,-101.9 6.06,-29 17.04,-49.59 32.9,-61.71 15.87,-12.12 32.43,-16.36 49.7,-12.75 11.79,2.46 21.73,8.08 29.88,16.82 8.09,8.71 14.32,20.58 18.76,35.56 9.05,-15.16 19.57,-25.82 31.58,-31.84 12.07,-6.01 25.59,-7.45 40.72,-4.29 21.75,4.55 37.65,16.16 47.73,34.9 10.09,18.69 11.85,43.92 5.22,75.64 -5.4,25.84 -13.98,45.37 -25.74,58.53 -11.76,13.16 -30.27,21 -55.57,23.59l-5.32 -48.69c15.89,-1.6 26.88,-5.91 32.89,-12.82 6.06,-6.91 10.28,-16.11 12.68,-27.63 3.29,-15.77 2.3,-27.99 -3.03,-36.67 -5.34,-8.63 -12.42,-13.89 -21.28,-15.75 -10.13,-2.11 -19.21,0.26 -27.14,7.14 -7.91,6.81 -13.59,18.48 -17.02,34.88l-2.37 11.34 -37.29 -7.79 1.19 -5.7c3.18,-15.25 2.18,-27.66 -2.99,-37.15 -5.16,-9.54 -13.47,-15.48 -24.8,-17.85 -9.04,-1.88 -17.32,-0.19 -24.91,5.07 -7.52,5.27 -12.6,14.01 -15.14,26.2 -4.37,20.89 3.2,36.42 22.71,46.55zm-37.56 -156.63l11.75 -56.23 140.02 -30.81 -117.7 -76.01 10.88 -52.09 170.44 122.89c18.47,13.35 32.02,25.84 40.7,37.5 8.68,11.68 11.44,24.92 8.31,39.89 -3.08,14.73 -6.46,26.04 -10.09,33.93l-37.19 -7.77c1.94,-6.98 3.51,-13.32 4.7,-19.02 2.4,-11.51 2,-20.25 -1.15,-26.13 -3.22,-5.84 -11.37,-12.59 -24.41,-20.05l-196.26 53.9zm297.43 -188.52l-247.25 -51.65 16.72 -80.06c6.34,-30.33 11.67,-49.82 16.07,-58.51 6.7,-13.38 17.24,-23.56 31.67,-30.51 14.42,-6.96 31.48,-8.38 51.16,-4.27 15.19,3.17 27.34,8.6 36.55,16.23 9.21,7.69 15.87,16.35 20.03,26.04 4.11,9.7 6.21,19.15 6.28,28.28 -0.13,12.41 -2.51,29.87 -7.22,52.44l-6.78 32.45 93.23 19.48 -10.46 50.08zm-195 -93l70.44 14.71 5.68 -27.22c4.1,-19.62 5.51,-32.96 4.3,-40.12 -1.2,-7.16 -4.15,-13.18 -8.95,-18.09 -4.74,-4.89 -10.73,-8.13 -18.11,-9.67 -9.03,-1.88 -17,-0.79 -23.97,3.22 -6.98,4.07 -12.04,9.92 -15.24,17.72 -2.33,5.7 -5.39,17.49 -9.14,35.46l-5.01 23.99zm283.31 -329.73l-11.26 53.93 -60.75 9.59 -20.72 99.17 52 32.31 -11.06 52.95 -227.2 -147.66 11.05 -52.89 267.94 -47.4zm-117.19 71.02l-98.69 15.24 84.54 52.5 14.15 -67.74z"/>
   <path class="fil1" d="M5298.28 1485.89l21.7 46.32 -190.08 89.04 41.76 89.13 190.08 -89.04 21.69 46.32 -190.07 89.04 8.98 19.17 -88.49 41.46 -18.11 -38.66 49.83 -23.34 -76.02 -162.29 228.73 -107.15zm-119.71 339.88l228.73 -107.15 79.32 169.32 -38.65 18.11 -57.62 -122.99 -50.79 23.79 53.57 114.36 -38.65 18.11 -53.57 -114.37 -61.98 29.04 59.71 127.47 -38.66 18.1 -81.41 -173.79zm99.82 213.08l228.73 -107.15 21.7 46.33 -90.08 42.2 42.2 90.08 90.08 -42.2 21.7 46.32 -228.73 107.15 -21.7 -46.32 99.99 -46.84 -42.2 -90.08 -99.99 46.84 -21.7 -46.33zm289.78 185.33l-10.56 -49.99c41.81,-7.76 73.34,11.03 94.59,56.4 12.57,26.83 16.16,49.88 10.76,69.1 -5.42,19.23 -16.12,32.55 -32.09,40.03 -10.91,5.12 -22.24,6.59 -34,4.5 -11.7,-2.12 -23.81,-7.86 -36.36,-17.18 1.87,17.56 -0.14,32.4 -6.13,44.43 -6.04,12.05 -15.99,21.31 -29.99,27.87 -20.12,9.43 -39.8,9.69 -59.12,0.75 -19.29,-8.88 -35.85,-28 -49.59,-57.34 -11.2,-23.91 -16.06,-44.68 -14.56,-62.27 1.5,-17.58 11.6,-34.97 30.27,-52.22l33.5 35.73c-11.75,10.83 -17.96,20.87 -18.61,30.01 -0.7,9.16 1.46,19.05 6.45,29.7 6.83,14.59 14.96,23.77 24.44,27.51 9.45,3.69 18.27,3.65 26.47,-0.19 9.37,-4.39 15.21,-11.74 17.42,-21.99 2.23,-10.2 -0.22,-22.95 -7.33,-38.12l-4.92 -10.49 34.51 -16.16 2.46 5.27c6.61,14.11 14.87,23.43 24.7,27.91 9.85,4.54 20.06,4.29 30.55,-0.62 8.36,-3.91 13.96,-10.24 16.87,-19 2.86,-8.74 1.67,-18.77 -3.62,-30.05 -9.05,-19.33 -24.42,-27.2 -46.11,-23.59zm124.08 102.7l24.37 52.03 -93.47 108.71 139.76 -9.9 22.57 48.2 -210.08 4.06c-22.79,0.42 -41.13,-1.44 -55.07,-5.55 -13.94,-4.13 -24.1,-13.06 -30.59,-26.91 -6.38,-13.62 -10.47,-24.7 -12.3,-33.19l34.4 -16.12c2.64,6.75 5.19,12.77 7.66,18.04 4.99,10.65 10.56,17.39 16.61,20.2 6.09,2.73 16.65,3.24 31.56,1.38l124.58 -160.95zm-124.66 329.35l228.74 -107.16 34.7 74.07c13.14,28.05 20.58,46.84 22.28,56.44 2.68,14.71 0.36,29.18 -7,43.41 -7.36,14.22 -20.14,25.6 -38.36,34.13 -14.05,6.58 -27.02,9.54 -38.97,8.97 -11.98,-0.63 -22.5,-3.55 -31.65,-8.8 -9.11,-5.29 -16.46,-11.58 -22.01,-18.85 -7.34,-10 -15.92,-25.39 -25.7,-46.26l-14.07 -30.03 -86.25 40.4 -21.71 -46.32zm211.79 -42.72l-65.17 30.53 11.8 25.18c8.5,18.16 15.39,29.67 20.65,34.66 5.27,5.01 11.24,8.06 18.02,9.1 6.73,1.06 13.47,0.05 20.29,-3.14 8.35,-3.92 14.07,-9.58 17.24,-16.97 3.13,-7.44 3.67,-15.16 1.54,-23.32 -1.56,-5.96 -6.19,-17.23 -13.98,-33.84l-10.39 -22.2zm-28.59 433.79l-23.37 -49.89 42.82 -44.15 -42.98 -91.74 -60.97 5.38 -22.95 -48.98 270.34 -18.34 22.92 48.94 -185.81 198.78zm51.07 -127.16l69.77 -71.45 -99.12 8.78 29.35 62.67z"/>
   <path class="fil2" d="M4731.06 2338.38c33.95,-71.91 103.8,-115.93 168.96,-156.63 30.23,47.25 59.28,95.19 85.8,144.69 -91.67,-2.54 -168.28,61.54 -211.13,137.75 -17.22,-2.93 -34.34,-5.38 -51.55,-7.43 -8.91,-39.04 -11.84,-82.08 7.92,-118.38zm-1401.94 223.06c57.91,-161.92 257.79,-240.77 415.79,-184.71 119.06,37.57 221.1,151.25 214.84,280.88 -19.47,3.72 -36.89,12.62 -53.03,23.77 -8.02,21.82 -9.29,44.51 0.29,66.23 11.45,8.02 22.6,16.44 33.85,24.85 -7.92,12.04 -15.65,24.27 -23.57,36.3 -66.53,-23.09 -136.09,1.47 -202.22,13.4 -79.44,20.55 -158.3,44.71 -239.5,57.82 -1.17,-109.67 -47.15,-219.44 -130.8,-291.44 -5.48,-8.42 -23.29,-15.07 -15.65,-27.1zm-397.4 -13.11c81.59,-27.3 171.5,-33.46 253.97,-6.36 119.16,36.39 214.94,140.88 241.26,262.68 12.81,81.2 3.23,167.98 -40.7,238.91 -52.24,84.23 -138.34,150.07 -236.85,168.37 -159.08,36 -341.63,-41.48 -413.44,-190.78 -47.94,-96.36 -46.57,-216.79 7.04,-310.62 40.5,-75.03 109.18,-132.26 188.72,-162.2zm343 253.78c-13.6,28.27 -20.84,64.57 1.37,90.79 17.41,21.81 46.96,15.55 71.22,13.99 26.91,-22.51 46.08,-63.6 19.86,-94.12 -21.62,-30.82 -63.2,-27.3 -92.45,-10.66zm1995.5 340.94c13.59,-9.78 62.72,-43.77 79.06,-45.92 -1.86,56.94 77.83,107 94.17,161.59 -94.13,76.49 -277.43,89.85 -297.48,-31.63 41.38,-28.08 82.28,-56.84 124.25,-84.04zm-2225.11 824.64c-25.15,-61.25 5.18,-149.2 72.3,-167.49 32.67,9.1 64.66,21.03 98.02,27.98 -2.15,53.41 -3.42,106.83 -6.55,160.25 -6.46,34.63 -5.19,70.14 -7.24,105.27 -63.69,-22.7 -130.22,-59.98 -156.53,-126.01zm197.03 -134.62c65.84,7.14 131.49,17.12 197.92,16.93 -0.1,93.52 -9.3,186.76 -11.55,280.28 -65.94,-2.64 -132.27,-8.51 -195.56,-27.88 -5.97,-88.63 9.1,-179.62 9.19,-269.33zm463.14 20.74c60.36,-6.55 120.73,-12.03 180.99,-19.57 -27.19,90.99 -51.36,182.76 -78.75,273.74 -45.2,4.11 -89.71,13.7 -135.11,14.77 12.72,-89.42 21.72,-179.33 32.87,-268.94zm-244.38 142.84c6.65,-47.65 5.67,-95.78 8.51,-143.72 69.07,0.78 138.04,2.25 207.11,1.95 -8.51,90.79 -18.78,181.58 -31.89,271.88 -63.01,2.25 -126.11,5.48 -189.21,4.41 1.27,-44.91 3.13,-89.72 5.48,-134.52zm-980.97 895.07c48.42,-136.97 95.19,-274.52 140.58,-412.56 162.31,98.32 347.51,147.33 526.83,204.66 72.4,17.91 143.72,40.21 216.9,54.98 24.95,2.35 31.31,28.87 42.46,46.67 52.24,90.79 100.47,184.32 162.69,269.04 28.77,37.08 59,74.84 101.55,96.95 39.53,-94.31 72.99,-191.26 113.1,-285.28 54.2,97.25 105.27,196.26 153.21,296.93 85.99,203.88 156.53,415.39 195.76,633.66 7.82,34.73 7.04,71.42 19.08,105.27 40.99,40.21 90.39,71.32 131.68,111.53 142.64,136.57 270.6,288.9 374.11,457.36 81.98,139.81 155.65,284.7 215.82,435.26 20.94,74.85 51.85,146.65 71.71,221.89 7.63,25.83 -12.42,48.72 -28.96,66.13 -37.76,37.47 -87.75,71.91 -143.13,68.29 -342.61,-25.63 -684.53,-59.38 -1027.14,-83.94 -26.42,-44.61 -65.45,-80.12 -108.3,-108.5 -121.9,-78.75 -262.49,-120.04 -397.4,-169.15 -12.91,-16.44 -25.05,-33.56 -39.33,-48.92 -111.92,-110.45 -226.88,-218.26 -352.78,-312.86 -26.62,-23.88 -69.57,-43.74 -65.55,-85.8 -2.15,-90.5 3.62,-181.09 3.13,-271.59 33.46,-25.43 38.64,-68.77 51.95,-105.56 57.72,-175.02 88.93,-361.59 67.01,-545.71 -21.62,-157.9 -92.16,-312.87 -211.61,-420.58 -42.46,-34.05 -84.04,-75.04 -139.71,-85.31 -74.15,-20.94 -151.73,-24.37 -228.24,-20.26 15.65,-44.41 29.55,-89.51 48.33,-132.76 11.15,8.42 22.4,16.73 33.66,25.25 257.59,160.34 553.14,242.52 839.5,334.78 2.83,0.68 8.51,2.25 11.35,2.94 29.44,-149.89 79.34,-295.07 113.09,-443.77 5.38,-24.56 -34.73,-27.99 -37.96,-5.39 -40.01,130.51 -67.4,264.35 -103.21,395.93 -197.04,-57.13 -392.8,-120.82 -581.22,-202.51 -56.65,-28.28 -115.94,-52.05 -168.96,-87.07zm1593.79 -389.47c27.59,5.28 55.47,8.7 83.45,11.54 -16.83,15.95 -33.94,31.7 -50.68,47.74 -14.38,-11.25 -31.79,-31.89 -44.61,-6.55 -1.76,54.2 11.25,107.52 19.47,160.83 21.53,97.45 47.65,194.99 92.16,284.8 32.58,67.89 77.48,128.84 119.65,190.97 42.75,65.05 90.69,126.69 142.64,184.7 -55.86,60.56 -114.46,121.41 -188.43,159.77 -38.35,20.44 -80.32,32.48 -121.99,43.73 -54.11,-190.97 -120.34,-379.4 -210.15,-556.87 41.78,-13.99 82.57,-30.52 124.05,-45.1 -18.29,-126.3 -74.45,-242.82 -122.68,-359.73 9.1,-13.3 23.78,-21.33 36.89,-30.23 42.16,-25.54 80.32,-56.84 120.23,-85.6zm-354.74 51.46c40.8,16.33 82.86,29.25 125.22,40.99 -29.74,73.08 -52.83,149.58 -89.61,219.44 -18.2,-85.8 -30.52,-172.87 -35.61,-260.43zm81.49 264.83c25.34,-62.81 49.02,-126.3 74.46,-189.11 47.84,103.31 93.82,208.28 119.84,319.52 -32.09,16.04 -66.43,28.37 -101.75,35.02 -29.25,-56.05 -57.03,-112.99 -92.55,-165.43zm-1438.92 228.14c44.42,-7.62 89.42,-0.97 133.34,5.88 44.13,9.39 91.18,18.09 125.82,49.4 117.99,87.86 198.4,221.1 230.69,363.84 48.72,214.74 3.62,438.29 -66.92,642.96 -142.54,-96.27 -297.21,-172.97 -458.93,-231.67 -122.69,-47.25 -250.65,-78.95 -378.13,-110.35 2.64,-65.75 -2.35,-132.57 13.7,-197.04 31.01,-155.46 134.03,-284.3 245.27,-392.02 47.54,-48.81 109.77,-80.12 155.16,-131z"/>
   <path class="fil0" d="M5489.04 3251.08l-77.95 57.48c-12.15,0.05 29.52,28.82 16.34,49.03 -14.94,22.9 -35.19,58.99 -43.24,67.52 -12.91,21.13 -41.09,35.71 -37.96,63.69 5.48,169.64 -8.61,338.99 -21.32,508.04 -16.83,125.42 -35.32,250.65 -64.58,373.82 -21.13,59.78 -33.65,122 -51.36,182.75 -36.19,92.26 -66.33,187.25 -111.82,275.6 -27.59,65.64 -65.06,126.3 -96.37,190.09 -41.87,67.21 -91.37,129.14 -137.94,193.12 -22.89,32.28 -54.1,57.33 -78.07,88.73 -14.97,22.41 -39.62,35.32 -58.8,53.71 4.01,37.18 8.9,74.36 13.11,111.63 -76.8,87.95 -183.44,140.78 -281.07,201.83 -91.77,50.68 -187.74,93.43 -283.82,135.11 3.13,25.33 6.95,50.67 10.38,76.11 36.49,31.7 76.89,58.99 111.72,92.75 181.38,168.27 338.99,363.93 454.82,583.08 51.07,97.24 103.71,194.49 140.1,298.58 37.86,93.24 71.62,188.24 98.81,285.19 -6.46,59.87 -60.65,96.85 -103.21,132.66 53.51,7.14 107.32,11.54 161.13,16.24 447.98,36.69 895.66,75.43 1343.73,112.9 90.89,12.72 183.24,9.19 273.93,23.67 200.66,15.17 400.83,35.13 601.48,49.8 184.42,18.78 369.81,26.22 553.83,49.11 19.47,-65.55 30.72,-133.34 47.26,-199.67 57.13,-259.26 116.51,-518.03 175.31,-776.9 52.05,-253.18 122.1,-502.27 170.72,-756.14 -63.98,-70.93 -120.14,-151.25 -146.07,-244.49 -55.27,-33.16 -102.62,-78.46 -159.75,-108.1 -25.15,-41.19 -68.68,-64.96 -101.75,-98.62 -95.49,-88.54 -180.5,-188.13 -254.95,-294.57 -100.38,-134.92 -190.88,-277.26 -268.85,-426.36 -23.57,-43.05 -53.81,-82.76 -68.87,-130.02 -38.84,-79.44 -78.17,-158.98 -108.6,-242.13 -111.53,-274.23 -212.55,-563.51 -268.6,-853.97 -8.61,-25.93 -32.13,-67.13 -46.61,-90.12 -64.49,-93.22 -119.66,-192.76 -184.81,-285.38 0.88,-6.95 4.67,-29.58 5.65,-36.53 -3.03,-4.01 -70.42,-18.75 -73.35,-22.76 -64.86,-24.75 -126.5,-59.58 -177.37,-107.22 -20.15,-18.49 -40.34,-37.94 -54.89,-60.36 -32.4,-39.24 -69.32,-197.63 54.88,-221.68l70.94 -4.61c12.72,0.78 25.53,1.56 38.45,2.25l12.13 4.01c20.44,6.46 40.7,13.89 61.73,18.59l147.24 93.04 111.14 39.62c29.54,4.89 61.63,5.48 88.24,-10.57 46.96,-26.5 108.79,-49.14 161.62,-59.51 3.51,-0.69 76.4,-398.33 79.93,-398.96 66.13,9.1 141.37,48.45 169.25,110.09 54.1,104.09 26.02,223.45 7.44,332.73 30.52,14.18 60.16,30.23 89.02,47.74 -8.51,147.73 -13.99,295.75 -14.67,443.77 -2.84,56.75 27.78,107.42 34.05,162.99 17.02,108.6 51.94,213.67 64.86,322.75 31.01,128.55 72.49,254.46 118.28,378.52 57.13,145.57 115.93,291.73 199.38,424.69 97.83,168.27 221.79,322.75 370.89,448.47 40.11,19.85 76.31,46.56 116.12,66.91 19.86,-5.38 38.16,-15.36 57.53,-22.6 36,-14.67 76.31,-18.78 109.38,-40.79 35.51,-24.36 72.29,-47.06 107.9,-71.42 157.12,-92.26 332.74,-148.9 511.77,-179.52 22.01,-59.1 22.3,-125.04 51.26,-181.68 35.12,-36 88.74,-38.55 135.89,-34.73 34.44,-102.14 63.59,-205.94 95.1,-308.96 -82.48,-48.62 -167.49,-93.52 -248.3,-144.79 -10.86,-70.63 22.21,-139.7 38.93,-207.31 -75.13,-61.93 -161.32,-108.79 -234.5,-173.16 -78.36,-76.02 -146.65,-171.01 -161.82,-281.66 -13.3,-108.89 26.81,-215.53 76.61,-310.33 62.02,-116.22 172.77,-202.41 294.87,-247.81 142.54,-17.51 286.25,-25.24 429.19,-40.79 12.13,-33.56 15.94,-69.46 26.31,-103.61 24.85,-84.72 61.64,-165.92 106.74,-241.84 67.41,-117.79 166.31,-219.54 290.66,-276.77 54.79,-26.03 114.27,-39.43 172.38,-55.77 35.32,-4.4 71.03,0 106.54,-3.03 22.7,-2.15 44.52,-11.15 67.6,-10.17 29.16,-0.2 46.31,0.49 73.21,9.58 23.38,-23.48 58.57,-31.5 69.24,-64.18 39.23,-27.68 88.05,-33.06 134.62,-36.68 67.01,-154.18 138.82,-306.12 204.57,-460.89 -27.99,-38.25 -47.45,-86 -37.18,-134.03 8.8,-73.08 79.93,-131.98 153.3,-127.67 37.28,-1.37 69.76,18.88 99.4,39.03 18.53,29.48 45.19,66.59 42.72,115.9 -2.94,29.25 1,61.29 -20.12,87.5 -25.83,29.74 -61.34,46.47 -94.41,66.03 -42.07,162.7 -75.62,327.84 -112.21,492 76.31,46.86 125.62,135.31 110.55,225.9 31.89,20.74 62.42,43.53 91.37,68.29 7.24,32.87 37.96,50.77 63.6,68.58 121.21,145.18 144.01,347.4 113.38,528.49 -19.76,128.46 -67.8,249.86 -110.74,371.86 -13.41,41.19 -39.53,76.9 -51.27,118.77 -14.38,51.76 -50.58,97.84 -48.91,153.5 -0.59,20.64 -8.61,40.11 -14.78,59.58 -39.42,111.82 -76.31,224.63 -117.3,335.96 -69.26,198.5 -134.03,398.67 -207.11,595.8 -5.09,4.21 -15.26,12.72 -20.35,16.93 -27.59,60.36 -40.01,126.2 -53.32,190.77 -12.91,33.07 -15.65,74.74 -47.35,96.37 -10.86,50.97 -15.26,103.4 -38.25,151.15 165.92,176.39 316.49,382.13 368.44,623 4.5,33.65 18.29,69.16 5.97,102.62 -21.43,62.32 -43.25,124.55 -64.38,186.96 22.31,15.26 44.71,31.02 63.69,50.68 65.94,64.67 83.35,161.33 90.89,249.57 244.58,39.53 486.62,117.6 694.81,254.56 147.72,101.06 273.63,244.09 325.19,418.14 49.21,207.01 18,428.9 -69.36,621.43l-39.43 0c6.07,-22.11 19.86,-45.78 8.02,-68.38 -26.41,-63.1 -70.04,-121.8 -131.39,-154.38 -67.99,-36.88 -148.12,-41.97 -223.64,-33.17 -39.13,7.05 -78.56,14.68 -115.64,29.35 -18.78,4.41 -24.07,24.07 -31.7,39.04 -20.84,48.72 -44.12,96.36 -72.49,141.17 39.43,0.69 79.44,1.37 118.18,10.18 31.5,8.7 61.05,22.89 90.89,36.19l-61.15 0c-62.81,-16.92 -134.13,-35.31 -194.1,0l-38.25 0c54.2,-68.09 106.44,-140.87 131.09,-225.4 29.26,-78.27 38.26,-169.25 0.59,-246.25 -32.87,-80.61 -111.72,-128.45 -186.18,-165.63 -81.29,-41.48 -171.98,-56.45 -260.43,-74.64 -50.87,-12.92 -103.11,-19.28 -154.87,-27.1 -87.46,81.1 -197.23,155.75 -321.37,153.2 -42.86,112.8 -70.93,230.2 -112.61,343.49 -29.06,80.52 -51.36,163.77 -85.8,242.33l-40.11 0c30.13,-71.61 51.07,-146.65 77.38,-219.73 41.29,-123.86 85.61,-246.83 121.31,-372.45 -75.52,-33.06 -135.69,-97.34 -160.44,-176.39 -32.58,-112.02 -26.61,-233.14 1.66,-345.45 37.18,-144.2 113.2,-279.02 217.88,-384.87 85.11,-77.78 201.73,-139.81 320.01,-110.45 18.39,-52.83 36.49,-105.66 55.37,-158.3 -115.83,40.89 -235.48,70.15 -356.6,90.01 -93.53,12.52 -187.06,27.39 -281.47,29.44 -416.56,10.08 -830.79,-107.12 -1193.16,-309.64 -98.23,-47.15 -188.82,-108.3 -276.58,-172.38 -122.68,-94.31 -232.84,-210.14 -299.07,-351.32 -67.02,304.17 -138.53,607.45 -204.96,911.81 -38.64,167.68 -74.94,335.86 -117.01,502.66 -62.51,285.87 -130.21,570.66 -192.43,856.63 -16.64,70.14 -30.24,140.97 -49.7,210.43l-559.8 0c-790.39,-63.1 -1580.3,-133.34 -2370.59,-198.3 -388.2,-33.76 -776.6,-64.67 -1164.7,-98.91 1.96,49.01 -17.51,94.6 -46.96,132.95 31.7,48.33 45.49,109.58 20.64,164.26l-48.72 0c22.99,-29.93 28.57,-71.61 12.92,-106.05 -19.08,-42.36 -55.57,-73.86 -92.65,-100.28 -86.09,-56.35 -181.77,-97.04 -280,-127.18 -17.9,-5.97 -36.39,-10.66 -53.03,-19.66 -7.62,-9.88 -4.69,-24.46 -7.72,-35.81 53.02,0.1 100.77,24.95 149.29,42.75 97.93,36.89 193.71,83.26 273.35,152.23 22.99,-37.08 43.73,-84.14 22.01,-126.69 -40.51,-82.87 -128.16,-125.42 -207.21,-163.77 -209.76,-94.22 -434.28,-150.96 -659.49,-194.1 -95.19,-17.61 -201.05,-16.44 -281.47,-77.98 -71.9,-52.53 -99.98,-145.87 -96.17,-231.67 6.26,-172.48 79.25,-332.73 157.71,-483.29 -65.94,-37.18 -134.33,-70.05 -204.86,-97.64 -220.52,-90.88 -452.19,-160.44 -689.63,-186.66 -24.36,37.17 -34.92,81.2 -51.26,122.19 -85.21,216.11 -147.53,442.6 -170.03,674.27 -12.14,171.01 -8.22,355.52 85.99,505.3 78.27,117.21 194.98,203.3 317.96,269.14 163.09,89.81 342.9,144.3 523.79,184.9l-166.02 0c-154.96,-42.65 -305.43,-103.7 -443.08,-187.05 -117.11,-72.4 -226.29,-164.36 -292.43,-287.34 -377.43,-35.22 -755.17,-66.13 -1132.7,-100.18 -1.27,-3.52 -403.92,-30.41 -405.19,-33.93l0 -48.33c143.23,13.89 686.55,61.91 829.78,75.71 88.74,2.35 176.39,19.27 265.23,21.13 58.5,4.79 116.91,11.05 175.12,18.29 85.4,0.1 169.44,19.18 254.85,19.77 -26.61,-94.41 -48.52,-190.48 -51.17,-289.2 0.89,-240.96 57.24,-478.11 132.96,-705.76 13.6,-42.66 31.99,-83.75 40.89,-127.77 -40.5,-28.18 -87.36,-51.37 -115.54,-93.24 -10.27,-12.42 -1.07,-27 3.92,-39.23 38.64,-76.99 76.11,-155.36 130.31,-222.86 46.37,-72.99 100.18,-140.78 156.82,-205.94 29.45,-33.66 64.48,-62.22 91.48,-98.03 17.12,-24.55 45.1,-37.76 66.72,-57.62 87.46,-69.37 189.8,-124.54 300.64,-143.33 15.36,-39.23 31.21,-78.56 40.8,-119.74 13.01,-17.91 25.92,-37.67 27.29,-60.37 -19.86,-25.04 -46.66,-43.24 -70.24,-64.27 46.66,-155.95 99.4,-310.53 141.37,-467.55 39.42,-35.22 96.07,-45.2 147.73,-45.1 -0.5,-150.17 7.72,-301.71 -15.37,-450.62 -39.13,-4.5 -80.51,-5.28 -115.63,-25.14 -65.36,-32.67 -110.16,-103.02 -111.63,-176 8.61,-48.43 21.33,-96.66 49.01,-137.94 -104.19,-72.79 -208.87,-144.7 -313.36,-217 44.71,103.12 91.38,205.26 137.07,307.88 7.24,15.27 8.51,32.38 9.59,49.12 -11.16,-5.29 -27.01,-5.58 -31.51,-19.38 -53.22,-114.07 -103.21,-229.9 -156.92,-343.78 8.12,-13.7 16.24,-27.39 24.56,-40.99 112.31,66.04 213.86,148.9 324.51,217.58 -5.77,-15.07 -12.13,-29.84 -19.28,-44.22 -35.8,-70.44 -84.13,-133.35 -122.09,-202.42 -94.12,-166.02 -192.63,-329.79 -282.54,-498.16 -65.26,-116.03 -112.8,-246.64 -110.36,-381.26 -3.42,-150.37 65.16,-293.3 157.32,-408.64 -23.09,-85.22 -59.48,-172.39 -39.82,-262 19.76,-41.78 46.18,-81.2 78.27,-114.37 49.7,-33.55 103.9,-60.07 156.73,-88.25 28.86,-16.92 66.33,-3.12 93.52,-24.06 54.59,-33.85 109.48,-72.3 173.95,-83.84 44.02,-9.4 91.86,-3.53 132.37,16.04 65.35,39.92 106.54,107.91 137.26,176.2 63.2,-8.22 126.98,-7.24 190.58,-5.87 110.25,12.42 219.04,54.78 301.71,130.21 44.52,41.49 105.56,61.93 142.45,112.02 108.4,108.6 185.98,241.45 267.08,370.3 36.39,21.42 87.46,19.66 115.93,56.55 48.14,45.19 47.55,113.97 50.48,174.82 35.32,23.58 74.55,42.27 104.29,73.48 74.55,66.82 104.88,171.3 99.69,269.04 -6.06,48.42 -31.2,91.57 -54.49,133.54 32.87,35.71 55.47,78.46 76.8,121.7 -0.49,23.09 0.39,46.28 -2.74,69.27 -7.53,36.29 -30.62,66.33 -49.5,97.24 147.14,58.41 257.49,194.59 290.86,348.58 8.12,50.87 67.2,75.33 71.12,128.75 14.77,55.57 -26.22,108.89 -75.53,129.53 -37.47,16.63 -71.32,41.19 -111.23,52.44 -71.71,22.3 -145.87,35.42 -219.83,47.94 -13.8,0 -14.78,14.58 -18.2,24.55 -15.75,61.25 -36.3,121.22 -51.95,182.56 32.29,11.64 74.65,16.63 89.81,52.44 20.15,34.04 7.04,74.06 -5.48,108.3 -10.27,32.38 -37.37,54.39 -60.07,78.27 -18.2,2.54 -36.2,6.45 -53.71,12.32 -15.94,57.14 -54.3,103.51 -95.38,144.7 -23.19,20.25 -23.09,52.04 -24.17,80.32 65.06,27.78 131.29,54 198.99,74.06 56.35,-31.6 106.44,-73.87 156.83,-114.37 42.07,5.09 83.84,15.46 126.4,15.65 36.39,-29.15 59.38,-71.51 85.9,-109.18 96.95,-157.8 168.85,-329.6 230.98,-503.64 16.92,-64.67 46.57,-125.62 54.78,-192.34 38.26,-149.68 64.97,-305.24 48.43,-459.91 -11.54,-67.12 -72.88,-106.05 -104.68,-162.4 -56.06,-93.43 -88.44,-208.1 -63.59,-316.3 49.9,-114.37 133.93,-222.86 252.21,-271.09 -6.65,-38.65 -14.09,-78.66 -0.88,-116.91 28.28,-94.22 156.56,-173.87 238.25,-219.95l562.29 1118.07zm5369.09 -1954.23c-60.26,32.29 -72.79,124.44 -25.34,172.87 18.89,20.94 46.38,30.23 72.89,37.47 26.51,-4.5 55.37,-7.34 76.31,-26.41 28.17,-19.57 36.59,-54.3 45.98,-85.31 -6.85,-22.7 -10.86,-46.87 -24.07,-67.02 -13.3,-19.96 -35.31,-31.01 -54.79,-43.53 -30.62,-2.55 -64.27,-6.46 -90.98,11.93zm-8539.05 125.71c65.84,18.89 108.6,76.41 141.56,132.86 7.05,8.51 9.98,23.09 21.63,26.52 67.5,-24.86 135.4,-49.7 205.93,-64.87 -27,-59.77 -65.25,-120.53 -125.03,-151.54 -85.31,-37.08 -172.97,11.74 -244.09,57.03zm-208.78 88.84c-26.02,15.55 -57.72,25.34 -74.93,52.24 -23.97,34.93 -56.65,70.05 -54.5,115.44 -7.92,60.86 23.48,116.52 34.54,175.03 52.63,-49.12 109.67,-93.44 170.23,-132.37 -28.57,-89.42 -13.41,-193.02 41.87,-269.34 -41.97,13.21 -78.17,39.33 -117.21,59zm162.41 -55.96c-14.97,21.42 -31.6,41.87 -45.4,64.08 -21.81,58.99 -26.71,124.44 -10.17,185.59 64.47,-36.4 136.28,-56.74 203.39,-87.56 10.27,-4.6 18.69,-14.29 20.45,-25.64 -16.04,-38.74 -44.61,-70.24 -71.03,-102.13 -23.28,-28.08 -62.22,-36.88 -97.24,-34.34zm8563.8 69.07c-69.56,168.47 -148.8,332.73 -219.34,500.9 20.64,20.94 44.02,40.6 72.59,49.6 34.63,14.87 94.7,13.89 101.26,-33.06 37.76,-164.95 71.32,-330.97 112.7,-495.14 -12.33,-2.74 -24.46,-5.38 -36.49,-8.02 -10.47,-4.79 -20.64,-9.59 -30.72,-14.28zm-8405.61 121.51c-64.47,28.08 -129.53,55.76 -190.09,91.57 -19.46,6.36 -8.41,25.34 -4.59,38.74 14.47,44.71 50.87,79.15 60.75,125.52 -10.66,-3.23 -24.07,-3.03 -30.04,-14.28 -28.47,-38.65 -47.54,-83.06 -66.82,-126.8 -27.78,19.38 -55.66,38.55 -82.66,59l-1.47 4.01c-35.61,22.3 -64.37,53.22 -94.31,82.28 11.44,22.99 23.58,45.68 36.78,67.79 14.48,20.25 28.38,41.48 35.22,65.75 -12.81,-2.35 -25.53,-4.6 -38.35,-6.75l4.89 -9c-24.65,-27.01 -33.36,-68.88 -62.61,-89.81 -50.48,72.49 -95.09,151.44 -115.25,238.22 -33.75,135.99 -11.34,280.68 41.78,408.75 62.03,143.91 151.64,273.24 225.11,411.19 59.68,99.2 112.9,202.41 178.16,297.99 -6.95,-77.19 -32.39,-152.81 -25.15,-230.88 1.67,-15.16 15.66,-24.85 23.68,-36.59 19.17,12.03 38.74,24.36 53.8,41.58 70.64,78.66 124.94,169.93 183.44,257.59 18.1,31.11 44.32,59.97 46.77,97.64 -42.76,-15.07 -51.85,-64.67 -77.29,-97.15 -63.69,-91.18 -117.6,-192.14 -201.73,-266.69 -7.83,100.37 20.74,198.21 41.09,295.45 6.75,35.52 27.98,65.45 47.94,94.71 64.37,-38.25 146.65,-37.18 211.02,0.68 7.83,7.44 15.95,14.58 24.46,21.43 0,9.68 -0.1,19.47 -0.2,29.35 -19.66,0.29 -36.39,-9.3 -52.83,-18.69 -74.84,-45.69 -181.28,-13.01 -223.15,62.71 -40.41,68.78 -19.08,165.93 47.74,210.24 54.1,38.84 132.76,39.63 188.62,3.82 24.17,-19.17 40.99,-45.59 63.89,-66.04 4.2,2.55 12.62,7.54 16.82,9.98 9.2,32.19 -21.91,53.61 -40.21,74.84 -22.5,16.15 -46.27,30.43 -71.42,41.97 18.4,98.91 11.26,199.88 18.69,299.76 -3.72,99.79 -7.14,200.07 -4.6,299.96 24.85,21.33 54.2,36.59 82.67,52.63 99.79,49.61 202.03,96.27 310.23,124.25 138.14,46.28 279.22,82.87 420.68,117.3 65.45,119.55 128.16,242.04 213.28,349.17 7.73,11.35 18.88,19.17 31.21,24.85 20.05,-70.73 56.84,-135.89 75.03,-207.02 -41.28,-129.04 -49.11,-265.51 -61.73,-399.55 -52.44,26.52 -109.38,46.08 -168.66,46.86 -61.44,0.59 -123.66,2.84 -184.22,-9.19 -104.1,-23.28 -201.54,-78.36 -271.2,-159.66 -87.75,-103.41 -142.93,-233.34 -162.5,-367.17 -7.63,-218.56 101.75,-434.67 275.99,-565.18 86.58,-63.79 180.89,-120.24 285.67,-147.83 75.73,-26.31 153.9,-44.8 233.24,-56.15 86.77,-22.31 172.87,-55.86 243.4,-112.31 47.85,-38.06 76.71,-103.61 56.45,-163.78 -17.02,-49.89 -56.54,-105.07 -114.95,-103.8 -134.32,7.24 -258.96,66.82 -392.31,80.03 -19.86,166.32 -159.56,305.73 -322.95,334.49 -117.1,21.72 -243.79,-6.95 -338.01,-80.42 -89.32,-68.19 -148.21,-177.27 -148.31,-290.56 -3.92,-77.39 18.68,-155.26 62.42,-219.24 116.03,-181.19 386.14,-233.73 564.69,-116.33 35.61,-83.74 100.57,-155.06 184.12,-192.53 87.46,-42.07 188.32,-42.36 281.17,-20.16 -0.29,-46.76 -2.45,-100.28 -40.8,-133.34 -26.71,-29.55 -68.19,-28.67 -103.99,-36.1 -57.43,-83.26 -102.14,-175.03 -164.07,-255.35 -56.45,-78.66 -124.64,-147.53 -194.2,-214.45 -85.99,-70.63 -184.41,-133.05 -296.63,-148.99 -180.2,-30.63 -360.51,27.39 -523.6,99.69zm7991.78 464.31c4.89,26.61 31.01,44.22 49.79,62.32 92.16,72.4 207.9,119.26 326.28,116.23 36.19,-5.19 73.76,-13.41 103.21,-36.49 14.19,-67.22 -25.83,-132.18 -79.25,-169.74 -18.68,16.43 -39.42,30.22 -61.14,42.06 -75.43,3.23 -176.1,-31.7 -186.47,-117.5 -64.08,5.87 -129.92,39.33 -152.42,103.12zm-327.55 1.47c-163.08,36.59 -305.14,149.58 -384.09,296.04 -66.53,105.76 -108.2,225.6 -131.09,348.09 120.23,124.64 271.19,217.38 432.12,279.8 116.03,43.64 235.68,77.88 357.78,100.28 57.91,12.33 118.57,16.44 172.97,41.97 85.99,38.25 152.71,119.55 168.46,212.88 16.34,96.17 -9.19,192.25 -38.83,283.13 -28.28,76.6 -53.91,155.36 -100.38,223.35 -63.59,90.01 -150.18,166.52 -254.37,205.26 -106.44,37.56 -221.78,27.1 -331.26,10.96 -177.57,-25.83 -346.91,-89.62 -509.32,-163.97 -102.82,-37.47 -196.25,-95.1 -293.2,-144.8 -17.42,59 -35.91,118.19 -42.95,179.43 167.59,97.05 336.35,193.12 516.07,266.3 115.44,53.91 243.5,69.85 369.42,76.12 103.11,12.42 219.53,11.64 301.81,84.82 65.74,57.72 59.68,153.59 52.54,232.74 -2.84,71.52 -29.94,143.42 -82.67,193.12 -70.05,65.35 -167.59,93.14 -261.8,93.53 -159.86,5.77 -314.64,-43.53 -461.97,-100.57 -129.53,-55.67 -258.38,-121.22 -359.54,-221.4 8.91,-37.37 21.33,-73.76 31.7,-110.65 -30.62,0.39 -65.25,-2.74 -89.81,19.38 -26.22,66.23 -45.59,135 -68.29,202.61 179.53,156.14 394.66,269.82 622.91,336.15 181.18,52.63 373.62,65.16 560.28,38.55 59.1,-10.57 118.48,-21.62 175.42,-40.99 15.94,-23.09 21.03,-51.96 31.21,-77.88 111.53,-335.96 234.21,-667.81 347.6,-1003.08 76.6,-209.26 141.85,-422.54 220.22,-631.02 33.95,-96.56 69.95,-192.44 99.3,-290.37 44.02,-160.15 61.14,-336.64 -1.27,-494.35 -42.56,-110.55 -127.97,-201.83 -231.18,-258.18 -29.35,6.75 -56.26,21.43 -84.92,30.23 -103.31,10.18 -205.74,-20.05 -295.85,-69.07 -66.23,-37.08 -137.55,-83.35 -158.68,-161.23 -92.55,-10.17 -187.65,-10.27 -278.34,12.82zm-5364.07 226.58c-19.76,36.3 -16.83,79.34 -7.92,118.38 17.21,2.05 34.33,4.5 51.55,7.43 42.85,-76.21 119.46,-140.29 211.13,-137.75 -26.52,-49.5 -55.57,-97.44 -85.8,-144.69 -65.16,40.7 -135.01,84.72 -168.96,156.63zm2396.31 49.31c-17.21,87.36 -31.99,175.12 -48.81,262.58 41.48,-1.27 82.96,-0.1 124.34,3.72 25.73,5.97 51.56,12.23 77.19,19.17 15.26,-88.83 34.24,-182.26 5.38,-270.41 -17.31,-62.51 -72,-111.72 -136.96,-119.06 -9.2,34.14 -15.95,68.97 -21.14,104zm-3798.25 173.75c-7.64,12.03 10.17,18.68 15.65,27.1 83.65,72 129.63,181.77 130.8,291.44 81.2,-13.11 160.06,-37.27 239.5,-57.82 66.13,-11.93 135.69,-36.49 202.22,-13.4 7.92,-12.03 15.65,-24.26 23.57,-36.3 -11.25,-8.41 -22.4,-16.83 -33.85,-24.85 -9.58,-21.72 -8.31,-44.41 -0.29,-66.23 16.14,-11.15 33.56,-20.05 53.03,-23.77 6.26,-129.63 -95.78,-243.31 -214.84,-280.88 -158,-56.06 -357.88,22.79 -415.79,184.71zm1556.03 -164.56c-27.89,21.82 -52.83,48.24 -69.96,79.44 0.2,13.01 13.9,19.76 21.33,28.86 43.34,36.98 62.23,92.46 84.72,143.03 49.8,-46.76 111.05,-85.21 181,-89.51 -29.26,-64.47 -62.03,-127.38 -93.82,-190.68 -42.66,-2.64 -88.05,2.55 -123.27,28.86zm-256.52 145.38c-70.25,57.82 -130.12,131.88 -160.84,218.27 -15.55,93.53 11.06,190.48 57.82,271.68 27.98,51.95 81.1,86.97 100.67,143.91 18.39,53.32 22.7,110.65 21.62,166.71 -10.47,174.73 -47.25,347.79 -104.87,512.94 -51.37,153.3 -113.98,302.98 -189.61,446.01 -63.98,115.35 -138.33,232.16 -250.25,306.42 21.43,136.57 52.93,274.03 117.69,397.3 49.11,82.47 103.8,161.52 159.37,239.79 48.04,61.34 96.66,123.66 157.22,173.35 16.63,15.46 36.59,-1.66 51.75,-10.36 126.11,-83.16 234.31,-192.93 317.96,-318.45 101.84,-139.41 177.08,-296.53 236.85,-457.95 140.98,-372.36 173.75,-775.82 165.14,-1170.97 25.15,-34.14 58.31,-62.41 79.64,-99.2 -7.14,-12.91 -17.22,-23.87 -26.22,-35.32 -10.17,4.11 -20.25,8.32 -30.33,12.53 -85.11,15.16 -172.28,-23.68 -222.76,-92.65 -31.02,6.46 -63.89,14.97 -94.12,0.39 -56.64,-26.61 -85.5,-89.91 -94.02,-149 -77.09,-20.25 -130.41,-90.1 -143.32,-166.8 -85.41,-34.54 -111.43,-132.67 -125.62,-214.65 0.39,-20.64 -14.67,-52.15 11.64,-61.83 15.27,-5.87 22.51,12.13 24.27,23.58 10.37,62.41 17.7,130.21 58.6,181.38 19.47,25.44 53.22,42.65 85.31,32.19 35.51,-9.3 76.11,-26.81 89.42,-63.99 10.07,-50.09 -20.35,-95.58 -31.01,-142.93 -16.64,-68.68 -51.86,-138.24 -114.18,-175.51 -50.38,-27.89 -107.61,0.88 -147.82,33.16zm-1696.91 6.07c-79.54,29.94 -148.22,87.17 -188.72,162.2 -53.61,93.83 -54.98,214.26 -7.04,310.62 71.81,149.3 254.36,226.78 413.44,190.78 98.51,-18.3 184.61,-84.14 236.85,-168.37 43.93,-70.93 53.51,-157.71 40.7,-238.91 -26.32,-121.8 -122.1,-226.29 -241.26,-262.68 -82.47,-27.1 -172.38,-20.94 -253.97,6.36zm2003.71 146.65c15.65,46.96 39.72,96.85 23.87,147.14 -20.35,57.43 -83.74,81.01 -138.04,94.02 12.13,54.69 49.6,108.98 107.81,119.75 10.96,-39.23 31.6,-75.04 58.21,-105.66 61.25,-66.92 142.06,-119.75 231.87,-137.46 -34.44,-69.17 -62.81,-141.17 -95.88,-210.83 -75.04,-11.35 -140.29,40.89 -187.84,93.04zm1402.44 -59.09c-20.94,49.7 -16.73,109.08 17.61,151.84 67.7,90.2 178.83,128.16 279.89,167.68 22.9,-30.04 45.5,-60.26 68.98,-89.81 33.06,-36.2 68.19,-70.54 105.36,-102.63 -48.52,-8.21 -95.87,-23.28 -139.51,-46.17 -65.25,-30.63 -113.87,-92.06 -186.96,-106.35 -49.7,-15.85 -102.92,-2.84 -145.37,25.44zm655.57 71.91c-108.98,32.38 -197.03,109.96 -267.57,196.35 -25.34,31.6 -51.17,63.49 -69.46,99.78 -7.05,11.26 4.4,21.72 9,31.31 63.3,99.3 128.36,197.72 188.43,299.08 7.14,9.1 10.95,23.18 23.28,27 25.63,-22.5 45.29,-50.68 69.75,-74.35 69.27,-60.17 149.59,-111.04 242.34,-123.18 54,-5.86 108.2,1.47 159.86,17.61 3.61,-142.25 10.66,-284.39 13.3,-426.74 -110.06,-64.08 -246.54,-83.75 -368.93,-46.86zm2152.62 104.58c-42.17,1.66 -77.68,26.22 -113.19,46.08 -132.57,76.8 -220.32,218.26 -245.96,367.65 -19.86,91.67 -1.56,190.39 49.9,268.85 69.26,107.22 177.08,180.7 284.79,245.07 137.46,73.08 271.78,153.7 417.94,208.48 138.43,59.78 281.56,112.7 431.35,135.01 94.99,15.26 193.51,27.88 288.7,6.95 95.29,-18.2 176.98,-77.49 242.23,-146.95 78.86,-81.88 115.84,-192.14 151.55,-297.51 30.13,-98.81 50.67,-208.19 13.89,-308.17 -13.79,-41.58 -46.27,-72.3 -77.29,-101.55 -49.7,-37.86 -110.06,-55.77 -171.11,-64.38 -92.64,-14.28 -183.24,-38.74 -274.42,-60.16 -137.16,-44.32 -272.95,-98.52 -392.8,-179.82 -65.74,-46.67 -132.76,-93.33 -185.59,-154.87 -140.19,8.51 -279.99,23.78 -419.99,35.32zm-3970.55 54.1c-62.41,26.61 -121.11,65.16 -163.67,118.77 -30.23,36.49 -54.88,83.84 -45.89,132.76 9.4,35.02 29.06,69.46 59.98,89.61 50.68,18.88 99.3,-14.28 138.82,-42.46 49.7,-31.99 97.25,-79.83 160.84,-76.3 -27.59,-78.17 -53.32,-157.61 -90.01,-232.06 -20.54,-4.31 -41.38,1.37 -60.07,9.68zm94.71 276.57c-41.97,27.2 -82.87,55.96 -124.25,84.04 49.31,95.71 215.46,91.06 277.56,32.68l-88.93 -142.73c-16.34,2.15 -50.79,16.23 -64.38,26.01zm-1358.8 21.13c-64.96,43.84 -139.22,71.62 -214.35,92.07 -79.05,16.63 -160.35,24.45 -236.47,52.53 -150.86,52.15 -294.96,137.26 -396.12,262.59 -85.31,110.45 -136.58,248 -141.27,387.71 0.1,65.06 24.85,126.3 46.18,186.76 26.9,66.72 60.75,131.98 109.27,185.69 76.9,87.46 189.02,144.01 305.44,151.74 90.49,6.55 187.44,5.38 267.77,-42.46 75.03,-41.58 124.83,-115.54 155.06,-194.01 19.66,-2.83 40.9,-1.95 59.09,-11.25 40.99,-23.97 55.86,-76.99 49.7,-121.7 -8.61,-30.13 -41.97,-41.48 -70.24,-34.93 -11.65,20.74 -7.14,53.52 -29.06,66.53 -61.83,13.21 -125.32,16.04 -188.03,22.21 -148.81,6.16 -302.41,11.93 -445.14,-38.06 -68.58,-24.16 -136.58,-65.94 -169.74,-133.05 -36.89,-73.08 -13.31,-170.13 52.92,-218.07 21.43,-14.29 48.72,-24.65 73.87,-13.99 68.87,24.56 141.76,33.85 214.15,40.8 110.65,7.82 221.69,11.15 332.63,8.51 110.95,-8.42 221.79,-20.65 331.17,-41.88 80.42,-16.53 162.3,-36.88 232.16,-81.78 24.06,-17.13 50.28,-41.68 47.35,-74.07 -1.47,-43.63 -37.28,-74.05 -67.11,-101.15 -13.8,-72.99 -36.89,-145.38 -79.05,-207.12 -51.07,-68.97 -119.56,-126.88 -200.95,-155.94 -14.77,-7.63 -27.2,5.97 -39.23,12.32zm3258.61 30.24c-79.83,14.87 -147.04,63.1 -208.68,113.29 -28.08,31.69 -57.33,62.71 -78.85,99.49 27.69,112.71 52.24,226.19 84.04,337.82 28.37,-20.15 55.96,-41.38 84.53,-61.34l-0.3 -1.37c57.62,-35.71 117.79,-68.09 181.97,-90.5 61.54,-21.62 127.67,-22.01 191.95,-16.53 -29.15,-120.73 -51.46,-242.92 -73.67,-365.02 -57.82,-20.74 -120.53,-28.86 -180.99,-15.84zm-112.6 516.55c-28.18,20.25 -55.48,41.78 -81.99,64.08 35.91,122.2 78.17,242.43 122.88,361.69 26.61,-32.58 54,-64.67 85.6,-92.64 94.21,-83.95 225.02,-110.46 347.99,-96.67 -38.64,-113.58 -70.73,-229.22 -103.41,-344.56 -133.15,-22.41 -262.97,35.71 -371.07,108.1zm-4012.32 256.72c26.31,66.03 92.84,103.31 156.53,126.01 2.05,-35.13 0.78,-70.64 7.24,-105.27 3.13,-53.42 4.4,-106.84 6.55,-160.25 -33.36,-6.95 -65.35,-18.88 -98.02,-27.98 -67.12,18.29 -97.45,106.24 -72.3,167.49zm197.03 -134.62c-0.09,89.71 -15.16,180.7 -9.19,269.33 63.29,19.37 129.62,25.24 195.56,27.88 2.25,-93.52 11.45,-186.76 11.55,-280.28 -66.43,0.19 -132.08,-9.79 -197.92,-16.93zm463.14 20.74c-11.15,89.61 -20.15,179.52 -32.87,268.94 45.4,-1.07 89.91,-10.66 135.11,-14.77 27.39,-90.98 51.56,-182.75 78.75,-273.74 -60.26,7.54 -120.63,13.02 -180.99,19.57zm-244.38 142.84c-2.35,44.8 -4.21,89.61 -5.48,134.52 63.1,1.07 126.2,-2.16 189.21,-4.41 13.11,-90.3 23.38,-181.09 31.89,-271.88 -69.07,0.3 -138.04,-1.17 -207.11,-1.95 -2.84,47.94 -1.86,96.07 -8.51,143.72zm3728.5 77.48l0.69 1.56c-28.37,29.55 -62.42,57.92 -76.61,97.35 49.9,131.48 108.99,259.74 172.97,385.07 21.33,-40.7 46.57,-79.34 78.27,-112.8 84.13,-82.18 203,-120.73 318.93,-123.37 -54,-112.8 -98.91,-229.61 -142.34,-346.72 -42.07,-2.74 -84.34,-6.07 -126.4,-2.45 -83.95,7.64 -162.99,45.5 -225.51,101.36zm2185.59 89.61c-11.94,39.72 -23.78,79.44 -35.42,119.26 51.46,39.04 107.71,71.13 163.19,103.9 18.88,-45.98 34.33,-93.53 45.59,-141.95 -59.19,-24.17 -113.69,-58.41 -173.36,-81.21zm194.58 96.57c-14.37,46.07 -30.81,91.57 -43.04,138.33 76.41,38.35 155.26,72.2 236.66,98.32 15.06,-52.34 33.95,-103.6 49.21,-155.85 -84.24,-16.04 -162.41,-52.53 -242.83,-80.8zm-7124.87 70.53c-39.53,133.64 -81.6,266.69 -123.08,399.75 -3.23,12.91 -9.29,25.82 -7.53,39.62 46.86,50.58 106.44,87.36 165.83,121.51 53.02,35.02 112.31,58.79 168.96,87.07 188.42,81.69 384.18,145.38 581.22,202.51 35.81,-131.58 63.2,-265.42 103.21,-395.93 3.23,-22.6 43.34,-19.17 37.96,5.39 -33.75,148.7 -83.65,293.88 -113.09,443.77 -2.84,-0.69 -8.52,-2.26 -11.35,-2.94 -286.36,-92.26 -581.91,-174.44 -839.5,-334.78 -11.26,-8.52 -22.51,-16.83 -33.66,-25.25 -18.78,43.25 -32.68,88.35 -48.33,132.76 76.51,-4.11 154.09,-0.68 228.24,20.26 55.67,10.27 97.25,51.26 139.71,85.31 119.45,107.71 189.99,262.68 211.61,420.58 21.92,184.12 -9.29,370.69 -67.01,545.71 -13.31,36.79 -18.49,80.13 -51.95,105.56 -57.04,16.14 -117.21,12.62 -174.63,0.3 -42.17,82.96 -71.32,172.28 -90.6,263.26 -12.23,73.48 -20.35,153.31 11.94,223.06 26.9,63.5 91.57,104.2 157.8,116.13 117.11,19.57 232.94,46.27 350.05,65.84 67.21,14.58 132.86,35.81 199.97,50.58 134.91,49.11 275.5,90.4 397.4,169.15 42.85,28.38 81.88,63.89 108.3,108.5 342.61,24.56 684.53,58.31 1027.14,83.94 55.38,3.62 105.37,-30.82 143.13,-68.29 16.54,-17.41 36.59,-40.3 28.96,-66.13 -19.86,-75.24 -50.77,-147.04 -71.71,-221.89 -60.17,-150.56 -133.84,-295.45 -215.82,-435.26 -103.51,-168.46 -231.47,-320.79 -374.11,-457.36 -41.29,-40.21 -90.69,-71.32 -131.68,-111.53 -12.04,-33.85 -11.26,-70.54 -19.08,-105.27 -39.23,-218.27 -109.77,-429.78 -195.76,-633.66 -47.94,-100.67 -99.01,-199.68 -153.21,-296.93 -40.11,94.02 -73.57,190.97 -113.1,285.28 -42.55,-22.11 -72.78,-59.87 -101.55,-96.95 -62.22,-84.72 -110.45,-178.25 -162.69,-269.04 -11.15,-17.8 -17.51,-44.32 -42.46,-46.67 -73.18,-14.77 -144.5,-37.07 -216.9,-54.98 -179.32,-57.33 -364.52,-106.34 -526.83,-204.66 -43.63,-27.59 -87.26,-56.06 -125.81,-90.5 -13.7,-10.17 -18.98,-25.63 -19.27,-42.07 7.04,-1.37 21.03,-4.3 28.08,-5.77 17.21,16.63 34.92,32.77 53.51,47.94 1.47,-30.33 1.95,-60.66 1.66,-90.98 -39.52,2.54 -81.88,8.31 -113.97,33.06zm6886.06 -20.64c-14.18,49.6 -31.01,98.32 -44.12,148.22 52.64,34.63 107.13,66.23 164.07,93.33 16.34,-47.55 31.4,-95.58 46.86,-143.42 -58.01,-28.77 -110.45,-66.92 -166.81,-98.13zm-1800.02 65.65c-59.29,19.17 -113,52.92 -156.24,97.73 -29.64,33.46 -52.24,72.2 -71.91,112.22 70.25,132.66 147.44,262.48 237.44,382.72 12.63,-51.46 34.25,-100.09 65.94,-142.54 68.39,-88.25 167.3,-144.21 268.16,-187.85 -71.61,-90.1 -126.1,-191.55 -181.18,-292.03 -54.4,7.93 -110.45,9.49 -162.21,29.75zm2306.11 -30.33c-17.41,53.41 -38.74,105.76 -50.67,160.83 90.3,21.04 180.79,43.34 273.63,49.31 18.79,-59.78 37.28,-119.65 53.62,-180.2 -91.97,-12.82 -185.4,-12.43 -276.58,-29.94zm298.4 42.75c-16.34,56.35 -34.83,112.22 -49.21,169.15 87.46,5.29 175.41,3.23 262.38,-8.61 -2.25,-38.74 -15.75,-77.68 -43.73,-105.36 -36.59,-35.81 -87.66,-50.88 -136.38,-61.05 -10.76,-0.69 -29.35,-9.39 -33.06,5.87zm-663.41 173.46c79.15,34.63 159.08,68.58 242.14,93.04 13.69,-44.91 25.33,-90.4 40.5,-134.82 -80.13,-30.32 -159.96,-61.44 -236.95,-99.1 -14.97,47.06 -30.72,93.82 -45.69,140.88zm-191.46 -81.59c-13.21,34.82 -23.77,70.53 -34.04,106.34 45.1,43.93 97.73,79.05 149.78,114.27 21.72,-39.62 32.38,-83.84 46.37,-126.5 -55.37,-29.06 -111.14,-57.72 -162.11,-94.11zm-5206.66 22.11c-39.91,28.76 -78.07,60.06 -120.23,85.6 -13.11,8.9 -27.79,16.93 -36.89,30.23 48.23,116.91 104.39,233.43 122.68,359.73 -41.48,14.58 -82.27,31.11 -124.05,45.1 89.81,177.47 156.04,365.9 210.15,556.87 15.36,59.38 30.72,118.86 40.01,179.62 107.23,-35.81 207.31,-90.69 305.83,-145.48 51.26,-34.14 107.9,-60.17 156.14,-98.71 -78.37,-22.7 -136.97,-81.69 -191.56,-138.93 -51.95,-58.01 -99.89,-119.65 -142.64,-184.7 -42.17,-62.13 -87.07,-123.08 -119.65,-190.97 -44.51,-89.81 -70.63,-187.35 -92.16,-284.8 -8.22,-53.31 -21.23,-106.63 -19.47,-160.83 12.82,-25.34 30.23,-4.7 44.61,6.55 16.74,-16.04 33.85,-31.79 50.68,-47.74 -27.98,-2.84 -55.86,-6.26 -83.45,-11.54zm5703.65 24.84c-15.26,45.2 -34.14,89.42 -44.02,136.29 89.71,25.63 180.99,46.96 274.03,56.94 13.79,-47.36 28.86,-94.32 41.38,-141.96 -92.06,-7.24 -182.36,-27.69 -271.39,-51.27zm-6058.4 26.62c5.09,87.56 17.41,174.63 35.61,260.43 36.78,-69.86 59.87,-146.36 89.61,-219.44 -42.36,-11.74 -84.42,-24.66 -125.22,-40.99zm6356.6 27.78c-12.52,48.13 -31.6,94.31 -44.42,142.44 97.05,10.18 194.79,10.08 292.23,5.48 19.56,-48.91 22.5,-101.84 30.13,-153.4 -92.55,4.7 -185.2,7.05 -277.94,5.48zm-654.8 131.19c76.12,41.68 154.38,80.81 237.44,106.84 16.63,-47.06 33.85,-94.02 45.98,-142.35 -81.1,-27.98 -161.72,-58.11 -238.32,-96.95 -16.92,43.54 -30.42,88.24 -45.1,132.46zm-5620.3 105.86c35.52,52.44 63.3,109.38 92.55,165.43 35.32,-6.65 69.66,-18.98 101.75,-35.02 -26.02,-111.24 -72,-216.21 -119.84,-319.52 -25.44,62.81 -49.12,126.3 -74.46,189.11zm3820.96 29.94c-31.5,46.56 -53.61,99.79 -59.28,156.04 73.86,95.09 149.58,189.11 234.79,274.22 5.48,-55.57 21.04,-109.96 47.26,-159.36 59.87,-100.09 162.3,-168.08 272.66,-201.35 -81.5,-79.73 -158.98,-163.38 -226.68,-255.14 -102.92,38.74 -200.85,97.44 -268.75,185.59zm2058.4 -23.09c87.95,34.92 182.56,55.66 276.97,60.56 16.14,-47.45 33.46,-95.39 39.13,-145.48 -91.18,-6.26 -179.82,-30.43 -267.57,-54.59 -17.22,46.08 -30.23,93.72 -48.53,139.51zm-1238.66 145.57c24.36,102.92 92.94,187.55 161.43,265.33 108.59,117.2 244.28,204.96 381.74,284.59 120.53,61.54 241.26,123.66 368.24,171.4 367.56,141.86 773.47,184.71 1161.28,111.83 112.11,-21.63 223.74,-48.43 329.79,-91.57 -22.11,-151.65 -87.66,-294.38 -175.12,-419.22 -51.75,-79.24 -109.47,-154.28 -174.04,-223.35 -11.25,9.59 -22.11,20.54 -37.08,23.68 -55.96,17.31 -113.29,29.05 -170.62,40.69 -211.32,29.65 -429.59,13.99 -632.49,-53.12 -154.77,-51.36 -306.02,-118.57 -439.17,-213.47 -58.31,-38.25 -114.37,-79.93 -162.99,-130.02 -1.86,-6.65 -5.38,-19.86 -7.14,-26.42 -218.37,36.98 -428.02,124.45 -603.83,259.65zm1540.77 -81.59c57.13,0.1 115.44,0.49 170.82,-16.14 65.93,-17.42 128.35,-57.53 160.44,-119.36 -96.17,4.31 -192.83,3.62 -288.61,-7.53 -15.35,47.35 -30.13,94.9 -42.65,143.03zm-2117 245.75c-19.28,42.66 -37.96,86.98 -37.67,134.72 0.69,15.26 -4.69,35.22 9.88,45.88 68,62.62 139.9,121.32 216.8,172.58 -1.27,-54.29 -0.69,-108.89 8.9,-162.4 16.24,-67.6 39.43,-133.93 77.49,-192.44 26.12,-47.25 68.67,-81.2 106.83,-117.98 -34.83,-24.36 -68.29,-50.68 -103.21,-74.75 -113.88,23.19 -217.49,95.49 -279.02,194.39zm294.47 46.87c-36.98,77.87 -68.19,161.62 -65.35,249.38 0,114.95 53.91,226.67 131.59,309.73 15.55,-63.1 28.66,-126.79 43.63,-190.09 44.61,-186.76 82.37,-375.28 127.87,-561.85 -99.99,30.33 -191.26,97.83 -237.74,192.83zm-5797.86 -135.31c-134.52,2.55 -259.94,65.95 -365.02,146.07 -94.89,84.72 -183.92,176.88 -257.39,281.27 -57.33,80.71 -115.25,161.62 -157.81,251.43 123.47,-4.21 245.27,19.17 366.09,41.29 127.48,31.4 255.44,63.1 378.13,110.35 161.72,58.7 316.39,135.4 458.93,231.67 70.54,-204.67 115.64,-428.22 66.92,-642.96 -32.29,-142.74 -112.7,-275.98 -230.69,-363.84 -34.64,-31.31 -81.69,-40.01 -125.82,-49.4 -43.92,-6.85 -88.92,-13.5 -133.34,-5.88zm2226.97 409.63c34.83,18.69 83.45,34.34 110.55,-5.09 -3.82,-21.62 -7.14,-43.24 -10.08,-64.86 -32.38,24.85 -65.84,48.23 -100.47,69.95zm-3037.03 318.45c27.79,33.55 64.67,57.13 102.53,77.68 11.84,-28.18 22.41,-56.84 33.36,-85.31 -45.29,-0.49 -91.96,-6.85 -135.89,7.63zm9121.65 182.36c-75.43,13.3 -140.68,58.11 -195.67,109.47 -93.04,89.52 -154.18,207.41 -192.53,329.5 -34.24,116.81 -44.32,245.17 -6.75,362.38 21.52,62.12 68.48,114.75 130.12,138.53 68.38,20.35 138.62,-7.44 198.11,-40.21 33.56,-19.37 70.44,-38.25 93.23,-70.73 -48.33,-21.62 -93.43,-50.29 -128.84,-90.01 -58.7,-79.64 -66.14,-187.55 -33.17,-279.02 23.68,-71.91 81.2,-127.97 147.34,-162.21 46.57,-16.73 93.43,-37.27 143.81,-37.37 32.68,1.47 65.06,6.16 97.74,8.71 -6.07,-69.17 -21.53,-140.69 -64.67,-196.84 -41.97,-57.62 -119.06,-87.46 -188.72,-72.2zm-8048.03 186.17c41.58,8.61 84.43,14.39 126.79,8.03 0.78,-2.55 2.35,-7.64 3.13,-10.18 -29.64,-24.26 -63.2,-43.04 -95.38,-63.49 -11.35,21.91 -22.9,43.73 -34.54,65.64zm7970.94 243.12c-39.92,67.41 -46.28,151.64 -25.24,226.38 28.37,70.93 94.21,128.26 171.3,137.26 52.83,6.46 105.56,14.78 158.3,22.9 -24.76,-73.09 -24.95,-150.37 -17.32,-226.2 12.42,-43.14 25.53,-87.07 51.16,-124.53 31.7,-54.3 82.67,-91.58 133.06,-127.09 -78.76,-16.53 -158.39,-32.48 -238.81,-36.2 -90.01,6.56 -183.83,48.23 -232.45,127.48zm364.91 43.04c-40.99,57.92 -55.86,129.34 -58.11,199.19 2.15,51.46 10.66,102.73 27.98,151.35 101.45,21.43 202.03,50.68 296.24,94.41 6.85,-54.49 14.67,-109.18 33.56,-161.03 22.89,-55.87 54.98,-108.31 97.93,-150.96 50.87,-50.48 117.98,-78.85 186.56,-95.98 -135.59,-75.82 -283.81,-125.91 -434.08,-163.28 -56.74,32.87 -114.56,69.46 -150.08,126.3zm460.31 117.8c-67.31,39.13 -108.01,109.18 -137.36,178.93 -17.51,53.81 -29.15,109.77 -28.96,166.61 59.88,33.66 104.68,86.88 138.73,145.67 41.58,-35.12 75.04,-80.71 120.92,-112.01 60.95,-39.43 131.29,-67.71 204.96,-66.34 82.57,-3.62 161.23,27.69 231.77,67.8 -51.76,-192.04 -200.95,-339.48 -366.78,-439.95 -57.72,9 -114.66,26.12 -163.28,59.29zm106.83 402.77c-46.08,32.97 -85.11,74.26 -118.97,119.46 18.3,68.29 16.74,140.09 0.79,208.67 43.44,-16.72 89.02,-29.15 135.99,-29.25l-0.79 -5.97c85.21,-5.87 175.81,6.17 247.52,55.77 53.03,34.34 88.25,88.44 116.13,143.81 59.38,-150.37 78.26,-316.88 52.05,-476.54 -47.75,-30.04 -98.33,-56.74 -153.5,-69.75 -95.39,-25.73 -199,-1.87 -279.22,53.8zm-8253.38 -4147.91c29.25,-16.64 70.83,-20.16 92.45,10.66 26.22,30.52 7.05,71.61 -19.86,94.12 -24.26,1.56 -53.81,7.82 -71.22,-13.99 -22.21,-26.22 -14.97,-62.52 -1.37,-90.79zm5820.46 108.79c45.5,-13.21 96.76,-24.07 141.47,-2.16 179.82,75.34 361.98,145.19 541.99,220.22 126.99,50 252.61,103.51 381.26,149 54.39,16.44 81.3,73.28 100.67,122.3 54.79,165.92 0.39,355.81 -116.03,482.61 -52.73,52.34 -123.56,82.57 -195.47,97.24 -79.05,14.68 -158,-7.34 -232.26,-32.68 -117.59,-31.2 -227.85,-83.74 -338.2,-133.93 -144.8,-72.2 -286.95,-151.05 -416.67,-248.1 -35.61,-29.35 -56.55,-72.01 -74.16,-113.59 -43.63,-111.23 -28.47,-236.46 13.4,-345.74 34.63,-87.17 103.7,-164.65 194,-195.17zm153.99 105.36c-77.68,26.71 -150.27,78.76 -186.47,154.19 -55.37,94.21 -52.73,217.67 4.21,310.62 84.33,155.85 301.72,212.59 454.63,126.49 -3.23,-48.62 -10.96,-97.73 -0.78,-146.16 10.66,-66.43 47.45,-123.56 86.09,-176.88 -113.58,-81.1 -221.49,-170.03 -325.98,-262.39 -8.02,-10.76 -20.64,-11.05 -31.7,-5.87zm302.31 522.04c3.03,101.26 58.5,198.31 143.12,253.58 135.8,99.59 343.11,71.42 453.66,-53.51 59.28,-63.99 87.36,-153.11 80.32,-239.69 -2.84,-62.62 -17.12,-136.87 -73.87,-172.58 -169.54,-20.74 -340.94,-17.9 -511.37,-23.77 -59.77,62.71 -97.05,148.61 -91.86,235.97zm-388.2 -399.94c40.01,17.9 80.02,35.61 120.53,52.24 -18.1,40.5 -34.44,81.79 -51.46,122.88 -40.99,-16.83 -82.09,-33.46 -121.61,-53.42 19.17,-39.81 35.12,-81.1 52.54,-121.7zm535.04 221.59c39.33,18.29 78.95,35.9 119.55,51.17 -16.72,42.26 -34.43,84.23 -52.04,126.1 -38.84,-19.56 -78.76,-36.59 -119.06,-52.43 15.94,-42.17 33.85,-83.46 51.55,-124.84zm-7215.27 176.88c26.41,-23.77 66.92,-19.57 97.05,-5.67 13.01,7.24 36.59,12.52 27.39,32.38 -23.67,1.37 -47.64,-6.95 -71.03,-1.57 -44.02,20.16 -39.71,93.73 6.76,108.5 38.83,11.55 61.34,-28.47 87.26,-49.01 -3.52,18.78 -1.47,41.77 -17.61,55.47 -30.62,31.5 -87.56,28.27 -114.56,-6.36 -22.11,-24.26 -19.67,-58.8 -22.11,-89.22 -7.34,31.2 -10.66,66.52 -36.59,88.83 -1.47,-6.36 -4.4,-19.18 -5.87,-25.54 6.26,-39.23 17.51,-81.4 49.31,-107.81zm1328.37 894.39c59.97,7.63 120.63,2.64 180.89,5.48 -9.68,9.29 -19.37,18.68 -29.15,27.98 -56.06,-4.8 -112.31,-4.7 -168.57,-4.41 5.58,-9.68 11.26,-19.37 16.83,-29.05zm4617.42 1118.91c31.79,-13.11 67.4,0.1 89.22,25.24 73.47,74.85 155.65,141.18 245.85,194.98 120.92,72.6 245.95,139.03 377.54,190.29 219.83,85.99 450.52,140.58 681.99,184.51 55.96,11.64 116.42,48.72 124.54,110.16 9.79,68.39 -25.14,131.49 -45.88,194.4 -52.54,152.71 -103.8,305.82 -157.02,458.24 -27.1,101.75 -65.26,200.17 -96.37,300.74 -37.37,106.64 -68.29,215.63 -109.28,320.89l-41.09 0c75.43,-217.09 144.01,-436.52 219.05,-653.81 43.73,-144.99 95.09,-287.63 143.72,-430.96 19.27,-61.24 55.27,-121.6 45.59,-188.03 -6.26,-39.33 -43.54,-64.28 -80.72,-69.76 -243.69,-46.47 -486.52,-103.6 -717.3,-195.86 -187.55,-77.97 -370.11,-173.36 -528.11,-302.2 -40.6,-30.72 -70.73,-73.87 -113.48,-101.75 -18.59,-13.7 -33.66,7.34 -34.44,24.85 -60.66,285.48 -122.09,570.85 -184.12,856.14 -66.33,325.49 -142.93,648.72 -211.42,973.73 -10.27,33.26 14.48,61.92 31.9,87.65l-52.25 0c-13.79,-27.68 -28.56,-58.21 -20.35,-89.9 36.99,-170.43 72.3,-341.24 109.38,-511.67 20.16,-78.56 38.16,-157.61 54.3,-237.15 75.23,-356.11 154.28,-711.44 228.44,-1067.74 6.75,-26.91 15.36,-57.43 40.31,-72.99zm839.89 1399.7c70.14,-40.9 174.63,16.92 169.94,99.89 7.33,85.4 -106.05,152.12 -175.71,99.29 -75.33,-41.67 -71.32,-161.61 5.77,-199.18zm17.51 36.59c-44.32,22.89 -51.85,90.39 -11.93,121.21 41.38,38.35 118.37,9.69 122.19,-47.45 9.98,-57.82 -60.75,-104.78 -110.26,-73.76zm-6094.8 328.71c46.48,0.79 90.79,15.95 134.52,30.14 112.81,36.78 233.53,84.23 304.85,184.31l-50.97 0c-102.33,-106.93 -251.92,-142.05 -389.08,-181.47 0.2,-11.06 0.39,-22.12 0.68,-32.98z"/>
   <path class="fil3" d="M10858.14 1296.85c26.71,-18.39 60.36,-14.48 90.98,-11.93 1.96,46.56 6.85,93.91 -2.83,139.99 -6.66,30.33 -25.05,56.06 -40.6,82.28 -26.51,-7.24 -54,-16.53 -72.89,-37.47 -47.45,-48.43 -34.92,-140.58 25.34,-172.87zm-435.45 813.48c22.5,-63.79 88.34,-97.25 152.42,-103.12 10.37,85.8 111.04,120.73 186.47,117.5 21.43,52.34 40.11,106.64 37.18,164.17 -118.38,3.03 -234.12,-43.83 -326.28,-116.23 -18.78,-18.1 -44.9,-35.71 -49.79,-62.32zm-1276.62 702.05c140,-11.54 279.8,-26.81 419.99,-35.32 52.83,61.54 119.85,108.2 185.59,154.87 119.85,81.3 255.64,135.5 392.8,179.82 91.18,21.42 181.78,45.88 274.42,60.16 61.05,8.61 121.41,26.52 171.11,64.38 -143.32,14.28 -287.53,20.94 -430.07,41.67 -128.65,-45.49 -254.27,-99 -381.26,-149 -180.01,-75.03 -362.17,-144.88 -541.99,-220.22 -44.71,-21.91 -95.97,-11.05 -141.47,2.16 -90.3,30.52 -159.37,108 -194,195.17 -41.87,109.28 -57.03,234.51 -13.4,345.74 17.61,41.58 38.55,84.24 74.16,113.59 129.72,97.05 271.87,175.9 416.67,248.1 110.35,50.19 220.61,102.73 338.2,133.93 74.26,25.34 153.21,47.36 232.26,32.68 71.91,-14.67 142.74,-44.9 195.47,-97.24 -33.27,84.82 -102.92,146.84 -173.65,200.65 -149.79,-22.31 -292.92,-75.23 -431.35,-135.01 -146.16,-54.78 -280.48,-135.4 -417.94,-208.48 -107.71,-64.37 -215.53,-137.85 -284.79,-245.07 -51.46,-78.46 -69.76,-177.18 -49.9,-268.85 25.64,-149.39 113.39,-290.85 245.96,-367.65 35.51,-19.86 71.02,-44.42 113.19,-46.08zm-6701.36 1518.46c32.09,-24.75 74.45,-30.52 113.97,-33.06 0.29,30.32 -0.19,60.65 -1.66,90.98 -18.59,-15.17 -36.3,-31.31 -53.51,-47.94 -7.05,1.47 -21.04,4.4 -28.08,5.77 0.29,16.44 5.57,31.9 19.27,42.07 38.55,34.44 82.18,62.91 125.81,90.5 -45.39,138.04 -92.16,275.59 -140.58,412.56 -59.39,-34.15 -118.97,-70.93 -165.83,-121.51 -1.76,-13.8 4.3,-26.71 7.53,-39.62 41.48,-133.06 83.55,-266.11 123.08,-399.75zm5996.46 640.12c175.81,-135.2 385.46,-222.67 603.83,-259.65 1.76,6.56 5.28,19.77 7.14,26.42 48.62,50.09 104.68,91.77 162.99,130.02 133.15,94.9 284.4,162.11 439.17,213.47 202.9,67.11 421.17,82.77 632.49,53.12 -0.78,4.31 -2.35,12.92 -3.13,17.22 40.69,54.4 78.75,110.85 110.25,171.21 49.7,88.64 95.78,180.99 118.19,280.68 14.87,66.04 10.37,134.13 1.76,200.66 -387.81,72.88 -793.72,30.03 -1161.28,-111.83 -126.98,-47.74 -247.71,-109.86 -368.24,-171.4 -137.46,-79.63 -273.15,-167.39 -381.74,-284.59 -68.49,-77.78 -137.07,-162.41 -161.43,-265.33zm-6444.65 221.79c105.08,-80.12 230.5,-143.52 365.02,-146.07 -45.39,50.88 -107.62,82.19 -155.16,131 -111.24,107.72 -214.26,236.56 -245.27,392.02 -16.05,64.47 -11.06,131.29 -13.7,197.04 -120.82,-22.12 -242.62,-45.5 -366.09,-41.29 42.56,-89.81 100.48,-170.72 157.81,-251.43 73.47,-104.39 162.5,-196.55 257.39,-281.27zm2439.27 183.53c54.59,57.24 113.19,116.23 191.56,138.93 -48.24,38.54 -104.88,64.57 -156.14,98.71 -98.52,54.79 -198.6,109.67 -305.83,145.48 -9.29,-60.76 -24.65,-120.24 -40.01,-179.62 41.67,-11.25 83.64,-23.29 121.99,-43.73 73.97,-38.36 132.57,-99.21 188.43,-159.77zm152.72 80.03c34.63,-21.72 68.09,-45.1 100.47,-69.95 2.94,21.62 6.26,43.24 10.08,64.86 -27.1,39.43 -75.72,23.78 -110.55,5.09zm-3037.03 318.45c43.93,-14.48 90.6,-8.12 135.89,-7.63 -10.95,28.47 -21.52,57.13 -33.36,85.31 -37.86,-20.55 -74.74,-44.13 -102.53,-77.68zm1073.62 368.53c11.64,-21.91 23.19,-43.73 34.54,-65.64 32.18,20.45 65.74,39.23 95.38,63.49 -0.78,2.54 -2.35,7.63 -3.13,10.18 -42.36,6.36 -85.21,0.58 -126.79,-8.03zm-13.79 38.75c57.42,12.32 117.59,15.84 174.63,-0.3 0.49,90.5 -5.28,181.09 -3.13,271.59 -4.02,42.06 38.93,61.92 65.55,85.8 125.9,94.6 240.86,202.41 352.78,312.86 14.28,15.36 26.42,32.48 39.33,48.92 -67.11,-14.77 -132.76,-36 -199.97,-50.58 -117.11,-19.57 -232.94,-46.27 -350.05,-65.84 -66.23,-11.93 -130.9,-52.63 -157.8,-116.13 -32.29,-69.75 -24.17,-149.58 -11.94,-223.06 19.28,-90.98 48.43,-180.3 90.6,-263.26z"/>
   <path class="fil4" d="M10949.12 1284.92c19.48,12.52 41.49,23.57 54.79,43.53 13.21,20.15 17.22,44.32 24.07,67.02 -9.39,31.01 -17.81,65.74 -45.98,85.31 -20.94,19.07 -49.8,21.91 -76.31,26.41 15.55,-26.22 33.94,-51.95 40.6,-82.28 9.68,-46.08 4.79,-93.43 2.83,-139.99zm-187.54 839.79c21.72,-11.84 42.46,-25.63 61.14,-42.06 53.42,37.56 93.44,102.52 79.25,169.74 -29.45,23.08 -67.02,31.3 -103.21,36.49 2.93,-57.53 -15.75,-111.83 -37.18,-164.17zm-171.6 1111.58c31.02,29.25 63.5,59.97 77.29,101.55 36.78,99.98 16.24,209.36 -13.89,308.17 -35.71,105.37 -72.69,215.63 -151.55,297.51 -65.25,69.46 -146.94,128.75 -242.23,146.95 -95.19,20.93 -193.71,8.31 -288.7,-6.95 70.73,-53.81 140.38,-115.83 173.65,-200.65 116.42,-126.8 170.82,-316.69 116.03,-482.61 -19.37,-49.02 -46.28,-105.86 -100.67,-122.3 142.54,-20.73 286.75,-27.39 430.07,-41.67zm-95.48 1833.68c64.57,69.07 122.29,144.11 174.04,223.35 87.46,124.84 153.01,267.57 175.12,419.22 -106.05,43.14 -217.68,69.94 -329.79,91.57 8.61,-66.53 13.11,-134.62 -1.76,-200.66 -22.41,-99.69 -68.49,-192.04 -118.19,-280.68 -31.5,-60.36 -69.56,-116.81 -110.25,-171.21 0.78,-4.3 2.35,-12.91 3.13,-17.22 57.33,-11.64 114.66,-23.38 170.62,-40.69 14.97,-3.14 25.83,-14.09 37.08,-23.68z"/>
   <path class="fil5" d="M10836.52 1524.51c10.08,4.69 20.25,9.49 30.72,14.28 -52.83,176.39 -102.43,353.86 -148.51,532.11 -7.24,0.98 -21.72,3.13 -28.96,4.11 -28.57,-9 -51.95,-28.66 -72.59,-49.6 70.54,-168.17 149.78,-332.43 219.34,-500.9zm-741.38 587.29c90.69,-23.09 185.79,-22.99 278.34,-12.82 21.13,77.88 92.45,124.15 158.68,161.23 90.11,49.02 192.54,79.25 295.85,69.07 -2.35,3.43 -6.95,10.18 -9.3,13.6 88.84,92.55 140.98,216.89 150.08,344.37 7.63,111.72 3.13,226.29 -30.23,333.9 -71.61,224.53 -147.24,447.79 -216.99,672.9 -89.23,256.52 -168.86,516.26 -252.31,774.64 -31.41,102.24 -70.74,201.93 -96.86,305.73 -31.89,107.32 -67.7,213.47 -100.77,320.5 -186.66,26.61 -379.1,14.08 -560.28,-38.55 -228.25,-66.33 -443.38,-180.01 -622.91,-336.15 22.7,-67.61 42.07,-136.38 68.29,-202.61 24.56,-22.12 59.19,-18.99 89.81,-19.38 -10.37,36.89 -22.79,73.28 -31.7,110.65 101.16,100.18 230.01,165.73 359.54,221.4 147.33,57.04 302.11,106.34 461.97,100.57 94.21,-0.39 191.75,-28.18 261.8,-93.53 52.73,-49.7 79.83,-121.6 82.67,-193.12 7.14,-79.15 13.2,-175.02 -52.54,-232.74 -82.28,-73.18 -198.7,-72.4 -301.81,-84.82 -125.92,-6.27 -253.98,-22.21 -369.42,-76.12 -179.72,-73.18 -348.48,-169.25 -516.07,-266.3 7.04,-61.24 25.53,-120.43 42.95,-179.43 96.95,49.7 190.38,107.33 293.2,144.8 162.41,74.35 331.75,138.14 509.32,163.97 109.48,16.14 224.82,26.6 331.26,-10.96 104.19,-38.74 190.78,-115.25 254.37,-205.26 46.47,-67.99 72.1,-146.75 100.38,-223.35 29.64,-90.88 55.17,-186.96 38.83,-283.13 -15.75,-93.33 -82.47,-174.63 -168.46,-212.88 -54.4,-25.53 -115.06,-29.64 -172.97,-41.97 -122.1,-22.4 -241.75,-56.64 -357.78,-100.28 -160.93,-62.42 -311.89,-155.16 -432.12,-279.8 22.89,-122.49 64.56,-242.33 131.09,-348.09 78.95,-146.46 221.01,-259.45 384.09,-296.04zm-2967.76 275.89c5.19,-35.03 11.94,-69.86 21.14,-104 64.96,7.34 119.65,56.55 136.96,119.06 28.86,88.15 9.88,181.58 -5.38,270.41 -25.63,-6.94 -51.46,-13.2 -77.19,-19.17 11.74,-71.91 19.77,-151.35 -16.53,-217.88 -11.45,-24.36 -36.98,-35.8 -59,-48.42zm-789.5 248.2c42.45,-28.28 95.67,-41.29 145.37,-25.44 73.09,14.29 121.71,75.72 186.96,106.35 43.64,22.89 90.99,37.96 139.51,46.17 -37.17,32.09 -72.3,66.43 -105.36,102.63 -111.43,-25.53 -229.52,-60.56 -307.98,-149 -22.31,-24.85 -40.01,-53.12 -58.5,-80.71zm655.57 71.91c122.39,-36.89 258.87,-17.22 368.93,46.86 -2.64,142.35 -9.69,284.49 -13.3,426.74 -51.66,-16.14 -105.86,-23.47 -159.86,-17.61 -92.75,12.14 -173.07,63.01 -242.34,123.18 -40.79,-80.52 -90,-156.44 -130.51,-237.05 -28.66,-49.51 -49.89,-104.39 -90.49,-145.77 70.54,-86.39 158.59,-163.97 267.57,-196.35zm1165.97 2474.19c46.48,-95 137.75,-162.5 237.74,-192.83 -45.5,186.57 -83.26,375.09 -127.87,561.85 -30.43,-6.36 -64.28,-8.12 -88.83,-29.35 -32.09,-26.8 -57.43,-60.46 -86.39,-90.29 -2.84,-87.76 28.37,-171.51 65.35,-249.38zm264.74 -133.94c66.23,141.18 176.39,257.01 299.07,351.32 87.76,64.08 178.35,125.23 276.58,172.38 362.37,202.52 776.6,319.72 1193.16,309.64 94.41,-2.05 187.94,-16.92 281.47,-29.44 5.38,0.39 16.24,1.07 21.62,1.47 -15.55,58.6 -37.57,116.12 -40.4,177.27 -104.68,105.85 -180.7,240.67 -217.88,384.87 -28.27,112.31 -34.24,233.43 -1.66,345.45 -39.72,82.47 -63.3,171.3 -94.5,257.11 -55.97,171.4 -118.29,340.55 -175.62,511.46l-426.55 0c40.99,-105.26 71.91,-214.25 109.28,-320.89 31.11,-100.57 69.27,-198.99 96.37,-300.74 53.22,-152.42 104.48,-305.53 157.02,-458.24 20.74,-62.91 55.67,-126.01 45.88,-194.4 -8.12,-61.44 -68.58,-98.52 -124.54,-110.16 -231.47,-43.93 -462.16,-98.52 -681.99,-184.51 -131.59,-51.26 -256.62,-117.69 -377.54,-190.29 -90.2,-53.8 -172.38,-120.13 -245.85,-194.98 -21.82,-25.14 -57.43,-38.35 -89.22,-25.24 -24.95,15.56 -33.56,46.08 -40.31,72.99 -74.16,356.3 -153.21,711.63 -228.44,1067.74 -16.14,79.54 -34.14,158.59 -54.3,237.15 -37.08,170.43 -72.39,341.24 -109.38,511.67 -8.21,31.69 6.56,62.22 20.35,89.9l-156.72 0c19.46,-69.46 33.06,-140.29 49.7,-210.43 62.22,-285.97 129.92,-570.76 192.43,-856.63 42.07,-166.8 78.37,-334.98 117.01,-502.66 66.43,-304.36 137.94,-607.64 204.96,-911.81zm8.51 564.01c0.78,-17.51 15.85,-38.55 34.44,-24.85 42.75,27.88 72.88,71.03 113.48,101.75 158,128.84 340.56,224.23 528.11,302.2 230.78,92.26 473.61,149.39 717.3,195.86 37.18,5.48 74.46,30.43 80.72,69.76 9.68,66.43 -26.32,126.79 -45.59,188.03 -48.63,143.33 -99.99,285.97 -143.72,430.96 -75.04,217.29 -143.62,436.72 -219.05,653.81l-1429.33 0c-17.42,-25.73 -42.17,-54.39 -31.9,-87.65 68.49,-325.01 145.09,-648.24 211.42,-973.73 62.03,-285.29 123.46,-570.66 184.12,-856.14zm836.08 1337.77c-77.09,37.57 -81.1,157.51 -5.77,199.18 69.66,52.83 183.04,-13.89 175.71,-99.29 4.69,-82.97 -99.8,-140.79 -169.94,-99.89zm1016.19 -553.74c38.35,-122.09 99.49,-239.98 192.53,-329.5 52.44,5.68 111.83,9.59 150.57,50.48 37.86,35.71 48.03,88.74 56.94,137.75 -66.14,34.24 -123.66,90.3 -147.34,162.21 -32.97,91.47 -25.53,199.38 33.17,279.02 -31.21,25.44 -63.3,52.83 -103.61,61.44 -62.12,14.28 -126.2,4.21 -189.01,0.98 -37.57,-117.21 -27.49,-245.57 6.75,-362.38zm-998.68 590.33c49.51,-31.02 120.24,15.94 110.26,73.76 -3.82,57.14 -80.81,85.8 -122.19,47.45 -39.92,-30.82 -32.39,-98.32 11.93,-121.21z"/>
   <path class="fil6" d="M2430.91 1646.02c163.09,-72.3 343.4,-130.32 523.6,-99.69 112.22,15.94 210.64,78.36 296.63,148.99 69.56,66.92 137.75,135.79 194.2,214.45 61.93,80.32 106.64,172.09 164.07,255.35 35.8,7.43 77.28,6.55 103.99,36.1 38.35,33.06 40.51,86.58 40.8,133.34 -92.85,-22.2 -193.71,-21.91 -281.17,20.16 -83.55,37.47 -148.51,108.79 -184.12,192.53 -178.55,-117.4 -448.66,-64.86 -564.69,116.33 -43.74,63.98 -66.34,141.85 -62.42,219.24 0.1,113.29 58.99,222.37 148.31,290.56 94.22,73.47 220.91,102.14 338.01,80.42 163.39,-28.76 303.09,-168.17 322.95,-334.49 133.35,-13.21 257.99,-72.79 392.31,-80.03 58.41,-1.27 97.93,53.91 114.95,103.8 20.26,60.17 -8.6,125.72 -56.45,163.78 -70.53,56.45 -156.63,90 -243.4,112.31 -79.34,11.35 -157.51,29.84 -233.24,56.15 -104.78,27.59 -199.09,84.04 -285.67,147.83 -174.24,130.51 -283.62,346.62 -275.99,565.18 19.57,133.83 74.75,263.76 162.5,367.17 69.66,81.3 167.1,136.38 271.2,159.66 60.56,12.03 122.78,9.78 184.22,9.19 59.28,-0.78 116.22,-20.34 168.66,-46.86 12.62,134.04 20.45,270.51 61.73,399.55 -18.19,71.13 -54.98,136.29 -75.03,207.02 -12.33,-5.68 -23.48,-13.5 -31.21,-24.85 -85.12,-107.13 -147.83,-229.62 -213.28,-349.17 -141.46,-34.43 -282.54,-71.02 -420.68,-117.3 -108.2,-27.98 -210.44,-74.64 -310.23,-124.25 9.88,-231.76 -9.98,-463.24 -25.34,-694.32 18.3,-21.23 49.41,-42.65 40.21,-74.84 -4.2,-2.44 -12.62,-7.43 -16.82,-9.98 -22.9,20.45 -39.72,46.87 -63.89,66.04 -67.01,12.42 -160.15,-8.51 -176,-85.21 25.93,-22.31 29.25,-57.63 36.59,-88.83 2.44,30.42 0,64.96 22.11,89.22 27,34.63 83.94,37.86 114.56,6.36 16.14,-13.7 14.09,-36.69 17.61,-55.47 -25.92,20.54 -48.43,60.56 -87.26,49.01 -46.47,-14.77 -50.78,-88.34 -6.76,-108.5 23.39,-5.38 47.36,2.94 71.03,1.57 9.2,-19.86 -14.38,-25.14 -27.39,-32.38 -30.13,-13.9 -70.64,-18.1 -97.05,5.67 -31.8,26.41 -43.05,68.58 -49.31,107.81 -4.7,-11.83 -14.87,-22.3 -14.18,-35.71 3.91,-53.31 37.56,-104.19 86.97,-125.91 30.23,-13.2 64.27,-9 95.87,-4.4 16.44,9.39 33.17,18.98 52.83,18.69 0.1,-9.88 0.2,-19.67 0.2,-29.35 -8.51,-6.85 -16.63,-13.99 -24.46,-21.43 -21.03,-57.33 -28.37,-118.47 -45.98,-176.78 -61.54,-218.07 -150.56,-427.43 -247.22,-632.1 -88.74,-177.57 -183.05,-352.3 -275.11,-528 -9.59,-23.68 -23.77,-52.83 -7.34,-76.8 12.82,2.15 25.54,4.4 38.35,6.75 -6.84,-24.27 -20.74,-45.5 -35.22,-65.75 17.71,-50.67 41,-99.1 57.53,-150.07l1.47 -4.01c27,-20.45 54.88,-39.62 82.66,-59 19.28,43.74 38.35,88.15 66.82,126.8 5.97,11.25 19.38,11.05 30.04,14.28 -9.88,-46.37 -46.28,-80.81 -60.75,-125.52 -3.82,-13.4 -14.87,-32.38 4.59,-38.74 60.56,-35.81 125.62,-63.49 190.09,-91.57zm2454.24 750.86c35.22,-26.31 80.61,-31.5 123.27,-28.86 31.79,63.3 64.56,126.21 93.82,190.68 -69.95,4.3 -131.2,42.75 -181,89.51 -22.49,-50.57 -41.38,-106.05 -84.72,-143.03 -7.43,-9.1 -21.13,-15.85 -21.33,-28.86 17.13,-31.2 42.07,-57.62 69.96,-79.44zm-256.52 145.38c40.21,-32.28 97.44,-61.05 147.82,-33.16 62.32,37.27 97.54,106.83 114.18,175.51 10.66,47.35 41.08,92.84 31.01,142.93 -13.31,37.18 -53.91,54.69 -89.42,63.99 -32.09,10.46 -65.84,-6.75 -85.31,-32.19 -40.9,-51.17 -48.23,-118.97 -58.6,-181.38 -1.76,-11.45 -9,-29.45 -24.27,-23.58 -26.31,9.68 -11.25,41.19 -11.64,61.83 14.19,81.98 40.21,180.11 125.62,214.65 12.91,76.7 66.23,146.55 143.32,166.8 8.52,59.09 37.38,122.39 94.02,149 30.23,14.58 63.1,6.07 94.12,-0.39 50.48,68.97 137.65,107.81 222.76,92.65 -22.11,43.24 -45.78,85.79 -72.98,126.1 -40.9,58.7 -39.72,133.05 -55.18,200.36 -29.25,192.44 -54.3,386.05 -100.67,575.46 -41.48,185.19 -106.64,365.7 -201.54,530.35 -76.11,144.4 -185,272.27 -319.32,365.5 -64.77,40.8 -131.88,78.36 -202.32,108.6 -55.57,-78.27 -110.26,-157.32 -159.37,-239.79 -64.76,-123.27 -96.26,-260.73 -117.69,-397.3 111.92,-74.26 186.27,-191.07 250.25,-306.42 75.63,-143.03 138.24,-292.71 189.61,-446.01 57.62,-165.15 94.4,-338.21 104.87,-512.94 1.08,-56.06 -3.23,-113.39 -21.62,-166.71 -19.57,-56.94 -72.69,-91.96 -100.67,-143.91 -46.76,-81.2 -73.37,-178.15 -57.82,-271.68 30.72,-86.39 90.59,-160.45 160.84,-218.27zm306.8 152.72c47.55,-52.15 112.8,-104.39 187.84,-93.04 33.07,69.66 61.44,141.66 95.88,210.83 -89.81,17.71 -170.62,70.54 -231.87,137.46 -26.61,30.62 -47.25,66.43 -58.21,105.66 -58.21,-10.77 -95.68,-65.06 -107.81,-119.75 54.3,-13.01 117.69,-36.59 138.04,-94.02 15.85,-50.29 -8.22,-100.18 -23.87,-147.14zm240.08 171.5c18.69,-8.31 39.53,-13.99 60.07,-9.68 36.69,74.45 62.42,153.89 90.01,232.06 -63.59,-3.53 -111.14,44.31 -160.84,76.3 -39.52,28.18 -88.14,61.34 -138.82,42.46 -30.92,-20.15 -50.58,-54.59 -59.98,-89.61 -8.99,-48.92 15.66,-96.27 45.89,-132.76 42.56,-53.61 101.26,-92.16 163.67,-118.77zm-3240.22 3086.82c7.24,-17.61 17.22,-39.42 39.92,-37.66 150.56,-3.04 297.41,40.11 447.39,44.8 70.53,27.59 138.92,60.46 204.86,97.64 -78.46,150.56 -151.45,310.81 -157.71,483.29 -3.81,85.8 24.27,179.14 96.17,231.67 80.42,61.54 186.28,60.37 281.47,77.98 225.21,43.14 449.73,99.88 659.49,194.1 79.05,38.35 166.7,80.9 207.21,163.77 21.72,42.55 0.98,89.61 -22.01,126.69 -79.64,-68.97 -175.42,-115.34 -273.35,-152.23 -48.52,-17.8 -96.27,-42.65 -149.29,-42.75 3.03,11.35 0.1,25.93 7.72,35.81 16.64,9 35.13,13.69 53.03,19.66 98.23,30.14 193.91,70.83 280,127.18 37.08,26.42 73.57,57.92 92.65,100.28 15.65,34.44 10.07,76.12 -12.92,106.05l-59.09 0c-71.32,-100.08 -192.04,-147.53 -304.85,-184.31 -43.73,-14.19 -88.04,-29.35 -134.52,-30.14 -0.29,10.86 -0.48,21.92 -0.68,32.98 137.16,39.42 286.75,74.54 389.08,181.47l-576.62 0c-60.17,-37.37 -128.36,-57.62 -195.18,-79.34 -234.31,-69.07 -473.81,-119.45 -706.94,-192.63 -152.23,-47.45 -261.02,-188.72 -296.14,-340.75 -30.52,-106.05 -25.05,-217.48 -22.01,-326.57 18.49,-218.46 75.92,-432.03 152.32,-636.99z"/>
   <path class="fil7" d="M10867.24 1538.79c12.03,2.64 24.16,5.28 36.49,8.02 -41.38,164.17 -74.94,330.19 -112.7,495.14 -6.56,46.95 -66.63,47.93 -101.26,33.06 7.24,-0.98 21.72,-3.13 28.96,-4.11 46.08,-178.25 95.68,-355.72 148.51,-532.11zm-39.23 790.49c28.66,-8.8 55.57,-23.48 84.92,-30.23 103.21,56.35 188.62,147.63 231.18,258.18 62.41,157.71 45.29,334.2 1.27,494.35 -29.35,97.93 -65.35,193.81 -99.3,290.37 -78.37,208.48 -143.62,421.76 -220.22,631.02 -113.39,335.27 -236.07,667.12 -347.6,1003.08 -10.18,25.92 -15.27,54.79 -31.21,77.88 -56.94,19.37 -116.32,30.42 -175.42,40.99 33.07,-107.03 68.88,-213.18 100.77,-320.5 26.12,-103.8 65.45,-203.49 96.86,-305.73 83.45,-258.38 163.08,-518.12 252.31,-774.64 69.75,-225.11 145.38,-448.37 216.99,-672.9 33.36,-107.61 37.86,-222.18 30.23,-333.9 -9.1,-127.48 -61.24,-251.82 -150.08,-344.37 2.35,-3.42 6.95,-10.17 9.3,-13.6zm-3700.63 58.41c22.02,12.62 47.55,24.06 59,48.42 36.3,66.53 28.27,145.97 16.53,217.88 -41.38,-3.82 -82.86,-4.99 -124.34,-3.72 16.82,-87.46 31.6,-175.22 48.81,-262.58zm-771.89 400.04c-34.34,-42.76 -38.55,-102.14 -17.61,-151.84 18.49,27.59 36.19,55.86 58.5,80.71 78.46,88.44 196.55,123.47 307.98,149 -23.48,29.55 -46.08,59.77 -68.98,89.81 -101.06,-39.52 -212.19,-77.48 -279.89,-167.68zm370.39 116.42c40.6,41.38 61.83,96.26 90.49,145.77 40.51,80.61 89.72,156.53 130.51,237.05 -24.46,23.67 -44.12,51.85 -69.75,74.35 -12.33,-3.82 -16.14,-17.9 -23.28,-27 -60.07,-101.36 -125.13,-199.78 -188.43,-299.08 -4.6,-9.59 -16.05,-20.05 -9,-31.31 18.29,-36.29 44.12,-68.18 69.46,-99.78zm1368.19 2527.22c28.96,29.83 54.3,63.49 86.39,90.29 24.55,21.23 58.4,22.99 88.83,29.35 -14.97,63.3 -28.08,126.99 -43.63,190.09 -77.68,-83.06 -131.59,-194.78 -131.59,-309.73zm2380.37 420.58c121.12,-19.86 240.77,-49.12 356.6,-90.01 -18.88,52.64 -36.98,105.47 -55.37,158.3 -118.28,-29.36 -234.9,32.67 -320.01,110.45 2.83,-61.15 24.85,-118.67 40.4,-177.27 -5.38,-0.4 -16.24,-1.08 -21.62,-1.47zm198.7 105.17c69.66,-15.26 146.75,14.58 188.72,72.2 43.14,56.15 58.6,127.67 64.67,196.84 -32.68,-2.55 -65.06,-7.24 -97.74,-8.71 -50.38,0.1 -97.24,20.64 -143.81,37.37 -8.91,-49.01 -19.08,-102.04 -56.94,-137.75 -38.74,-40.89 -98.13,-44.8 -150.57,-50.48 54.99,-51.36 120.24,-96.17 195.67,-109.47zm-205.94 800.37c40.31,-8.61 72.4,-36 103.61,-61.44 35.41,39.72 80.51,68.39 128.84,90.01 -22.79,32.48 -59.67,51.36 -93.23,70.73 -59.49,32.77 -129.73,60.56 -198.11,40.21 -61.64,-23.78 -108.6,-76.41 -130.12,-138.53 62.81,3.23 126.89,13.3 189.01,-0.98zm-231.08 3.52c24.75,79.05 84.92,143.33 160.44,176.39 -35.7,125.62 -80.02,248.59 -121.31,372.45 -26.31,73.08 -47.25,148.12 -77.38,219.73l-231.87 0c57.33,-170.91 119.65,-340.06 175.62,-511.46 31.2,-85.81 54.78,-174.64 94.5,-257.11z"/>
   <path class="fil8" d="M6882.51 3407.2c21.52,-36.78 50.77,-67.8 78.85,-99.49 27.4,125.42 55.08,250.84 89.42,374.6l0.3 1.37c-28.57,19.96 -56.16,41.19 -84.53,61.34 -31.8,-111.63 -56.35,-225.11 -84.04,-337.82zm92.94 367.85c26.51,-22.3 53.81,-43.83 81.99,-64.08 40.79,111.53 71.71,227.17 126.49,333.13 -31.6,27.97 -58.99,60.06 -85.6,92.64 -44.71,-119.26 -86.97,-239.49 -122.88,-361.69zm138.04 397.99c14.19,-39.43 48.24,-67.8 76.61,-97.35 56.15,124.06 107.02,250.95 174.63,369.62 -31.7,33.46 -56.94,72.1 -78.27,112.8 -63.98,-125.33 -123.07,-253.59 -172.97,-385.07zm189.11 412.76c19.67,-40.02 42.27,-78.76 71.91,-112.22 76.31,117.99 145.77,240.86 231.47,352.4 -31.69,42.45 -53.31,91.08 -65.94,142.54 -90,-120.24 -167.19,-250.06 -237.44,-382.72zm259.56 418.72c5.67,-56.25 27.78,-109.48 59.28,-156.04 65.75,96.95 139.71,188.32 222.77,270.9 -26.22,49.4 -41.78,103.79 -47.26,159.36 -85.21,-85.11 -160.93,-179.13 -234.79,-274.22zm265.12 265.32c-0.29,-47.74 18.39,-92.06 37.67,-134.72 58.11,70.84 124.44,135.8 197.91,190.78 -9.59,53.51 -10.17,108.11 -8.9,162.4 -76.9,-51.26 -148.8,-109.96 -216.8,-172.58 -14.57,-10.66 -9.19,-30.62 -9.88,-45.88zm3037.42 1354.89c5.18,-26.32 10.66,-52.44 18.39,-77.98 -7.63,75.83 -7.44,153.11 17.32,226.2 -52.74,-8.12 -105.47,-16.44 -158.3,-22.9 -77.09,-9 -142.93,-66.33 -171.3,-137.26 98.02,-3.81 196.74,-2.93 293.89,11.94zm38.15 3.91c122.78,9.98 242.24,42.95 357.78,84.73 -18.89,51.85 -26.71,106.54 -33.56,161.03 -94.21,-43.73 -194.79,-72.98 -296.24,-94.41 -17.32,-48.62 -25.83,-99.89 -27.98,-151.35zm352.1 264.15c-0.19,-56.84 11.45,-112.8 28.96,-166.61 91.28,46.47 178.84,109.87 230.69,200.27 -45.88,31.3 -79.34,76.89 -120.92,112.01 -34.05,-58.79 -78.85,-112.01 -138.73,-145.67zm154.18 176.69c33.86,-45.2 72.89,-86.49 118.97,-119.46 17.9,57.53 30.23,117.6 25.63,178.16 -1.76,38.25 -14.38,76.21 -8.61,114.75l0.79 5.97c-46.97,0.1 -92.55,12.53 -135.99,29.25 15.95,-68.58 17.51,-140.38 -0.79,-208.67zm7.05 233.52c37.08,-14.67 76.51,-22.3 115.64,-29.35 -30.92,74.55 -59.39,150.57 -101.65,219.74 -38.74,-8.81 -78.75,-9.49 -118.18,-10.18 28.37,-44.81 51.65,-92.45 72.49,-141.17 7.63,-14.97 12.92,-34.63 31.7,-39.04zm-150.37 226.58c59.97,-35.31 131.29,-16.92 194.1,0l-194.1 0z"/>
   <path class="fil9" d="M2021.68 1906.06c29.94,-29.06 58.7,-59.98 94.31,-82.28 -16.53,50.97 -39.82,99.4 -57.53,150.07 -13.2,-22.11 -25.34,-44.8 -36.78,-67.79zm-24.07 27.98c29.25,20.93 37.96,62.8 62.61,89.81l-4.89 9c-16.43,23.97 -2.25,53.12 7.34,76.8 92.06,175.7 186.37,350.43 275.11,528 96.66,204.67 185.68,414.03 247.22,632.1 17.61,58.31 24.95,119.45 45.98,176.78 -64.37,-37.86 -146.65,-38.93 -211.02,-0.68 -19.96,-29.26 -41.19,-59.19 -47.94,-94.71 -20.35,-97.24 -48.92,-195.08 -41.09,-295.45 84.13,74.55 138.04,175.51 201.73,266.69 25.44,32.48 34.53,82.08 77.29,97.15 -2.45,-37.67 -28.67,-66.53 -46.77,-97.64 -58.5,-87.66 -112.8,-178.93 -183.44,-257.59 -15.06,-17.22 -34.63,-29.55 -53.8,-41.58 -8.02,11.74 -22.01,21.43 -23.68,36.59 -7.24,78.07 18.2,153.69 25.15,230.88 -65.26,-95.58 -118.48,-198.79 -178.16,-297.99 -73.47,-137.95 -163.08,-267.28 -225.11,-411.19 -53.12,-128.07 -75.53,-272.76 -41.78,-408.75 20.16,-86.78 64.77,-165.73 115.25,-238.22zm3334.63 1404.88c10.08,-4.21 20.16,-8.42 30.33,-12.53 9,11.45 19.08,22.41 26.22,35.32 -21.33,36.79 -54.49,65.06 -79.64,99.2 8.61,395.15 -24.16,798.61 -165.14,1170.97 -59.77,161.42 -135.01,318.54 -236.85,457.95 -83.65,125.52 -191.85,235.29 -317.96,318.45 -15.16,8.7 -35.12,25.82 -51.75,10.36 -60.56,-49.69 -109.18,-112.01 -157.22,-173.35 70.44,-30.24 137.55,-67.8 202.32,-108.6 134.32,-93.23 243.21,-221.1 319.32,-365.5 94.9,-164.65 160.06,-345.16 201.54,-530.35 46.37,-189.41 71.42,-383.02 100.67,-575.46 15.46,-67.31 14.28,-141.66 55.18,-200.36 27.2,-40.31 50.87,-82.86 72.98,-126.1zm-2952.98 202.41c41.87,-75.72 148.31,-108.4 223.15,-62.71 -31.6,-4.6 -65.64,-8.8 -95.87,4.4 -49.41,21.72 -83.06,72.6 -86.97,125.91 -0.69,13.41 9.48,23.88 14.18,35.71 1.47,6.36 4.4,19.18 5.87,25.54 15.85,76.7 108.99,97.63 176,85.21 -55.86,35.81 -134.52,35.02 -188.62,-3.82 -66.82,-44.31 -88.15,-141.46 -47.74,-210.24zm205.44 274.81c25.15,-11.54 48.92,-25.82 71.42,-41.97 15.36,231.08 35.22,462.56 25.34,694.32 -28.47,-16.04 -57.82,-31.3 -82.67,-52.63 -2.54,-99.89 0.88,-200.17 4.6,-299.96 -7.43,-99.88 -0.29,-200.85 -18.69,-299.76zm-851.73 1957.64c237.44,26.22 469.11,95.78 689.63,186.66 -149.98,-4.69 -296.83,-47.84 -447.39,-44.8 -22.7,-1.76 -32.68,20.05 -39.92,37.66 -76.4,204.96 -133.83,418.53 -152.32,636.99 -3.04,109.09 -8.51,220.52 22.01,326.57 35.12,152.03 143.91,293.3 296.14,340.75 233.13,73.18 472.63,123.56 706.94,192.63 66.82,21.72 135.01,41.97 195.18,79.34l-563.82 0c-180.89,-40.6 -360.7,-95.09 -523.79,-184.9 -122.98,-65.84 -239.69,-151.93 -317.96,-269.14 -94.21,-149.78 -98.13,-334.29 -85.99,-505.3 22.5,-231.67 84.82,-458.16 170.03,-674.27 16.34,-40.99 26.9,-85.02 51.26,-122.19z"/>
   <path class="fil10" d="M9249.18 3016.26c11.06,-5.18 23.68,-4.89 31.7,5.87 104.49,92.36 212.4,181.29 325.98,262.39 -38.64,53.32 -75.43,110.45 -86.09,176.88 -10.18,48.43 -2.45,97.54 0.78,146.16 -152.91,86.1 -370.3,29.36 -454.63,-126.49 -56.94,-92.95 -59.58,-216.41 -4.21,-310.62 36.2,-75.43 108.79,-127.48 186.47,-154.19zm-85.89 122.1c-17.42,40.6 -33.37,81.89 -52.54,121.7 39.52,19.96 80.62,36.59 121.61,53.42 17.02,-41.09 33.36,-82.38 51.46,-122.88 -40.51,-16.63 -80.52,-34.34 -120.53,-52.24zm388.2 399.94c-5.19,-87.36 32.09,-173.26 91.86,-235.97 170.43,5.87 341.83,3.03 511.37,23.77 56.75,35.71 71.03,109.96 73.87,172.58 7.04,86.58 -21.04,175.7 -80.32,239.69 -110.55,124.93 -317.86,153.1 -453.66,53.51 -84.62,-55.27 -140.09,-152.32 -143.12,-253.58zm146.84 -178.35c-17.7,41.38 -35.61,82.67 -51.55,124.84 40.3,15.84 80.22,32.87 119.06,52.43 17.61,-41.87 35.32,-83.84 52.04,-126.1 -40.6,-15.27 -80.22,-32.88 -119.55,-51.17zm-323.33 803.79c59.67,22.8 114.17,57.04 173.36,81.21 -11.26,48.42 -26.71,95.97 -45.59,141.95 -55.48,-32.77 -111.73,-64.86 -163.19,-103.9 11.64,-39.82 23.48,-79.54 35.42,-119.26zm194.58 96.57c80.42,28.27 158.59,64.76 242.83,80.8 -15.26,52.25 -34.15,103.51 -49.21,155.85 -81.4,-26.12 -160.25,-59.97 -236.66,-98.32 12.23,-46.76 28.67,-92.26 43.04,-138.33zm-238.81 49.89c56.36,31.21 108.8,69.36 166.81,98.13 -15.46,47.84 -30.52,95.87 -46.86,143.42 -56.94,-27.1 -111.43,-58.7 -164.07,-93.33 13.11,-49.9 29.94,-98.62 44.12,-148.22zm506.09 35.32c91.18,17.51 184.61,17.12 276.58,29.94 -16.34,60.55 -34.83,120.42 -53.62,180.2 -92.84,-5.97 -183.33,-28.27 -273.63,-49.31 11.93,-55.07 33.26,-107.42 50.67,-160.83zm298.4 42.75c3.71,-15.26 22.3,-6.56 33.06,-5.87 48.72,10.17 99.79,25.24 136.38,61.05 27.98,27.68 41.48,66.62 43.73,105.36 -86.97,11.84 -174.92,13.9 -262.38,8.61 14.38,-56.93 32.87,-112.8 49.21,-169.15zm-663.41 173.46c14.97,-47.06 30.72,-93.82 45.69,-140.88 76.99,37.66 156.82,68.78 236.95,99.1 -15.17,44.42 -26.81,89.91 -40.5,134.82 -83.06,-24.46 -162.99,-58.41 -242.14,-93.04zm-191.46 -81.59c50.97,36.39 106.74,65.05 162.11,94.11 -13.99,42.66 -24.65,86.88 -46.37,126.5 -52.05,-35.22 -104.68,-70.34 -149.78,-114.27 10.27,-35.81 20.83,-71.52 34.04,-106.34zm496.99 46.95c89.03,23.58 179.33,44.03 271.39,51.27 -12.52,47.64 -27.59,94.6 -41.38,141.96 -93.04,-9.98 -184.32,-31.31 -274.03,-56.94 9.88,-46.87 28.76,-91.09 44.02,-136.29zm298.2 54.4c92.74,1.57 185.39,-0.78 277.94,-5.48 -7.63,51.56 -10.57,104.49 -30.13,153.4 -97.44,4.6 -195.18,4.7 -292.23,-5.48 12.82,-48.13 31.9,-94.31 44.42,-142.44zm-654.8 131.19c14.68,-44.22 28.18,-88.92 45.1,-132.46 76.6,38.84 157.22,68.97 238.32,96.95 -12.13,48.33 -29.35,95.29 -45.98,142.35 -83.06,-26.03 -161.32,-65.16 -237.44,-106.84zm259.06 112.71c18.3,-45.79 31.31,-93.43 48.53,-139.51 87.75,24.16 176.39,48.33 267.57,54.59 -5.67,50.09 -22.99,98.03 -39.13,145.48 -94.41,-4.9 -189.02,-25.64 -276.97,-60.56zm302.11 63.98c12.52,-48.13 27.3,-95.68 42.65,-143.03 95.78,11.15 192.44,11.84 288.61,7.53 -32.09,61.83 -94.51,101.94 -160.44,119.36 -55.38,16.63 -113.69,16.24 -170.82,16.14z"/>
   <path class="fil11" d="M3911.42 3164.18c12.03,-6.35 24.46,-19.95 39.23,-12.32 81.39,29.06 149.88,86.97 200.95,155.94 42.16,61.74 65.25,134.13 79.05,207.12 29.83,27.1 65.64,57.52 67.11,101.15 2.93,32.39 -23.29,56.94 -47.35,74.07 -69.86,44.9 -151.74,65.25 -232.16,81.78 -109.38,21.23 -220.22,33.46 -331.17,41.88 -110.94,2.64 -221.98,-0.69 -332.63,-8.51 -72.39,-6.95 -145.28,-16.24 -214.15,-40.8 -25.15,-10.66 -52.44,-0.3 -73.87,13.99 -66.23,47.94 -89.81,144.99 -52.92,218.07 33.16,67.11 101.16,108.89 169.74,133.05 142.73,49.99 296.33,44.22 445.14,38.06 62.71,-6.17 126.2,-9 188.03,-22.21 21.92,-13.01 17.41,-45.79 29.06,-66.53 28.27,-6.55 61.63,4.8 70.24,34.93 6.16,44.71 -8.71,97.73 -49.7,121.7 -18.19,9.3 -39.43,8.42 -59.09,11.25 -30.23,78.47 -80.03,152.43 -155.07,194.01 -80.32,47.84 -177.27,49.01 -267.76,42.46 -116.42,-7.73 -228.54,-64.28 -305.44,-151.74 -48.52,-53.71 -82.37,-118.97 -109.27,-185.69 -21.33,-60.46 -46.08,-121.7 -46.18,-186.76 4.69,-139.71 55.96,-277.26 141.27,-387.71 101.16,-125.33 245.26,-210.44 396.12,-262.59 76.12,-28.08 157.42,-35.9 236.47,-52.53 75.13,-20.45 149.39,-48.23 214.35,-92.07z"/>
   <path class="fil12" d="M7170.04 3194.42c60.46,-13.02 123.17,-4.9 180.99,15.84 22.21,122.1 44.52,244.29 73.67,365.02 -64.28,-5.48 -130.41,-5.09 -191.95,16.53 -64.18,22.41 -124.35,54.79 -181.97,90.5 -34.34,-123.76 -62.02,-249.18 -89.42,-374.6 61.64,-50.19 128.85,-98.42 208.68,-113.29zm-112.6 516.55c108.1,-72.39 237.92,-130.51 371.07,-108.1 32.68,115.34 64.77,230.98 103.41,344.56 -122.97,-13.79 -253.78,12.72 -347.99,96.67 -54.78,-105.96 -85.7,-221.6 -126.49,-333.13zm131.97 363.16c62.52,-55.86 141.56,-93.72 225.51,-101.36 42.06,-3.62 84.33,-0.29 126.4,2.45 43.43,117.11 88.34,233.92 142.34,346.72 -115.93,2.64 -234.8,41.19 -318.93,123.37 -67.61,-118.67 -118.48,-245.56 -174.63,-369.62l-0.69 -1.56zm341.34 301.72c51.76,-20.26 107.81,-21.82 162.21,-29.75 55.08,100.48 109.57,201.93 181.18,292.03 -100.86,43.64 -199.77,99.6 -268.16,187.85 -85.7,-111.54 -155.16,-234.41 -231.47,-352.4 43.24,-44.81 96.95,-78.56 156.24,-97.73zm90.69 472.63c67.9,-88.15 165.83,-146.85 268.75,-185.59 67.7,91.76 145.18,175.41 226.68,255.14 -110.36,33.27 -212.79,101.26 -272.66,201.35 -83.06,-82.58 -157.02,-173.95 -222.77,-270.9zm243.51 286.64c61.53,-98.9 165.14,-171.2 279.02,-194.39 34.92,24.07 68.38,50.39 103.21,74.75 -38.16,36.78 -80.71,70.73 -106.83,117.98 -38.06,58.51 -61.25,124.84 -77.49,192.44 -73.47,-54.98 -139.8,-119.94 -197.91,-190.78zm2731.1 1251.29c48.62,-79.25 142.44,-120.92 232.45,-127.48 80.42,3.72 160.05,19.67 238.81,36.2 -50.39,35.51 -101.36,72.79 -133.06,127.09 -25.63,37.46 -38.74,81.39 -51.16,124.53 -7.73,25.54 -13.21,51.66 -18.39,77.98 -97.15,-14.87 -195.87,-15.75 -293.89,-11.94 -21.04,-74.74 -14.68,-158.97 25.24,-226.38zm364.91 43.04c35.52,-56.84 93.34,-93.43 150.08,-126.3 150.27,37.37 298.49,87.46 434.08,163.28 -68.58,17.13 -135.69,45.5 -186.56,95.98 -42.95,42.65 -75.04,95.09 -97.93,150.96 -115.54,-41.78 -235,-74.75 -357.78,-84.73 2.25,-69.85 17.12,-141.27 58.11,-199.19zm460.31 117.8c48.62,-33.17 105.56,-50.29 163.28,-59.29 165.83,100.47 315.02,247.91 366.78,439.95 -70.54,-40.11 -149.2,-71.42 -231.77,-67.8 -73.67,-1.37 -144.01,26.91 -204.96,66.34 -51.85,-90.4 -139.41,-153.8 -230.69,-200.27 29.35,-69.75 70.05,-139.8 137.36,-178.93zm106.83 402.77c80.22,-55.67 183.83,-79.53 279.22,-53.8 55.17,13.01 105.75,39.71 153.5,69.75 26.21,159.66 7.33,326.17 -52.05,476.54 -27.88,-55.37 -63.1,-109.47 -116.13,-143.81 -71.71,-49.6 -162.31,-61.64 -247.52,-55.77 -5.77,-38.54 6.85,-76.5 8.61,-114.75 4.6,-60.56 -7.73,-120.63 -25.63,-178.16zm3.72 323.63c75.52,-8.8 155.65,-3.71 223.64,33.17 61.35,32.58 104.98,91.28 131.39,154.38 11.84,22.6 -1.95,46.27 -8.02,68.38l-357.77 0c-29.84,-13.3 -59.39,-27.49 -90.89,-36.19 42.26,-69.17 70.73,-145.19 101.65,-219.74z"/>
   <path class="fil13" d="M-0 6921.09c1.27,3.52 403.92,30.41 405.19,33.93 377.53,34.05 755.27,64.96 1132.7,100.18 66.14,122.98 175.32,214.94 292.43,287.34 137.65,83.35 288.12,144.4 443.08,187.05l-2273.4 0 0 -608.5zm3764.96 311.29c388.1,34.24 776.5,65.15 1164.7,98.91 790.29,64.96 1580.2,135.2 2370.59,198.3l-3561.61 0c24.85,-54.68 11.06,-115.93 -20.64,-164.26 29.45,-38.35 48.92,-83.94 46.96,-132.95z"/>
   <path class="fil14" d="M4310.97 1245.45l10.38 -4.22c11.7,0.1 23.34,0.2 35.03,0.2 -0.1,1.15 59.66,20.39 69.93,39.98 14.72,38.94 0.26,84.92 -33.66,109.09 -16.91,9.18 -37,8.14 -54.59,1.41 -22.39,-11.38 -34.87,-33.25 -45.72,-54.81 -3.4,-23.8 -7.94,-47.54 -8.25,-71.6 8.82,-6.84 17.85,-13.47 26.88,-20.05zm1.09 31.48c2.67,19.41 2.93,39.77 11.85,57.72 2.77,6 6.32,11.69 9.61,17.49 5.53,4.33 11.06,8.76 16.38,13.36 9.97,0.36 19.89,0.36 29.81,0.26l-1.15 -2.98c5.69,-4.59 11.22,-9.34 16.86,-13.93 -0.58,-2.25 -1.73,-6.68 -2.3,-8.93l7.2 -0.36c-0.26,-2.61 -0.78,-7.88 -1.04,-10.49l5.32 0.21c-0.1,-10.08 1.36,-20.26 -0.94,-30.12 -5.48,-7.67 -11.95,-14.46 -17.9,-21.71 -15.29,-6.06 -31.37,-9.81 -47.03,-14.67 -9.44,2.87 -20.87,5.59 -26.67,14.15z"/>
   <path class="fil15" d="M4302.81 1279.2c16.14,-29.76 55.16,-30.62 82.95,-1.75 5.95,7.25 12.42,14.04 17.9,21.71 2.3,9.86 0.84,20.04 0.94,30.12l-9.18 19.57c-5.64,4.59 -2.68,7.72 -8.37,12.31l-7.34 4.6c-9.92,0.1 -19.84,0.1 -29.81,-0.26 -5.32,-4.6 -10.85,-9.03 -16.38,-13.36 -3.29,-5.8 -6.84,-11.49 -9.61,-17.49l-21.1 -55.45z"/>
   <path class="fil14" d="M5820.65 830.35c17.54,-14.72 42.02,-9.55 62.79,-6.63 17.85,11.9 32.93,27.04 44.57,45.15 2.04,18.21 2.72,36.74 -1.04,54.8 -6.94,12.06 -13.68,24.17 -20.72,36.12 -10.7,10.33 -20.98,21.08 -31.63,31.47 -19.78,22.08 -53.18,15.87 -78.55,8.87 -13.83,-0.78 -27.66,-1.98 -41.18,-5.11 -1.72,-0.42 -5.12,-1.31 -6.84,-1.72 -7.04,-3.92 -14.09,-7.62 -21.19,-11.28 -3.65,-6.52 -7.31,-13.04 -11.01,-19.52 0.1,-4.38 0.16,-8.76 0.26,-13.1 8.35,-19.26 20.41,-36.38 33.98,-52.24 0.89,-2.19 2.71,-6.68 3.6,-8.88 19.78,-17.79 35.75,-39.51 57.41,-55.16 2.4,-0.68 7.15,-2.09 9.55,-2.77zm54.65 21.92c-13.99,-0.47 -28.03,-0.26 -41.96,1.46 -5.75,3.87 -11.43,7.73 -17.07,11.69 -1.2,1.36 -3.65,4.07 -4.91,5.43 -5.01,5.48 -10.17,10.86 -15.45,16.13 -8.4,8.72 -16.75,17.48 -25.15,26.2 -5.64,7.31 -11.59,14.41 -18.11,20.93 -3.34,9.29 -6.22,18.79 -8.09,28.55 32.2,9.15 76.34,16.12 100.68,15.45 2.34,-2.04 6.99,-6.16 9.34,-8.2 12.16,-8.3 20.72,-20.51 30.79,-31.05 4.07,-6.52 8.14,-13.1 12.48,-19.47 2.76,-37.39 4.65,-44.79 -22.55,-67.12z"/>
   <path class="fil15" d="M5875.3 852.27c27.2,22.33 25.31,29.73 22.55,67.12 -4.34,6.37 -8.41,12.95 -12.48,19.47 -10.07,10.54 -18.63,22.75 -30.79,31.05 -2.35,2.04 -7,6.16 -9.34,8.2 -24.34,0.67 -68.48,-6.3 -100.68,-15.45 1.87,-9.76 4.75,-19.26 8.09,-28.55 6.52,-6.52 12.47,-13.62 18.11,-20.93 8.4,-8.72 16.75,-17.48 25.15,-26.2 5.28,-5.27 10.44,-10.65 15.45,-16.13 1.26,-1.36 3.71,-4.07 4.91,-5.43 5.64,-3.96 11.32,-7.82 17.07,-11.69 13.93,-1.72 27.97,-1.93 41.96,-1.46z"/>
   <path class="fil15" d="M4549.68 1085.24c-21.6,-20.27 -26.76,-38.82 11.74,-47.92 26.41,-1.83 97.52,0.7 94.73,48.23 14.82,13.78 -52.62,54.96 -104.18,-0.16l-2.29 -0.15z"/>
   <path class="fil14" d="M4536.58 1112.43c-47,-55.44 -27.74,-86.17 25.05,-104.39 20.67,-2.61 42.28,-2.66 62.21,4.07 13.21,5.85 24.8,14.62 36.85,22.5 5.74,7.05 11.59,14.04 17.49,20.98 3.75,7.1 7.51,14.2 11.48,21.24 0.52,4.02 1.51,12.06 2.03,16.08 -42.37,31.74 -80.48,36.61 -134.24,33.3 -6.89,-4.65 -13.83,-9.29 -20.87,-13.78zm13.1 -27.19l2.29 0.15c31.27,43.03 94.97,11.2 104.18,0.16 2.79,-47.53 -68.32,-50.06 -94.73,-48.23 -28.79,10.31 -25.79,28.6 -11.74,47.92z"/>
   <path class="fil15" d="M4409.09 1698.76c4.8,-3.92 9.66,-7.78 14.56,-11.59 28.65,5.07 30.84,7.04 45.83,28.6 -0.73,7.31 -1.57,14.62 -2.61,21.87 -18.43,19.37 -39.09,44.58 -69.16,39.36 -0.94,-7.1 -1.88,-14.2 -2.71,-21.35l-3.86 0.1c-0.05,-13.2 -0.11,-26.35 0.41,-39.51 4.39,-6.05 8.67,-12.21 12.84,-18.37 1.15,0.21 3.5,0.68 4.7,0.89z"/>
   <path class="fil14" d="M4413.27 1661.91c9.18,-2.03 18.47,-4.38 27.87,-2.09 24.27,5.33 45.61,21.82 53.96,45.62 2.77,13.73 1.05,27.77 -0.31,41.49 -15.87,21.98 -34.86,41.81 -59.24,54.39 -13.46,4.9 -29.17,10.49 -42.95,3.65 -20.3,-9.86 -24.84,-34.24 -32.52,-53.24 -0.94,-17.06 -0.31,-34.34 6.79,-50.15 11.22,-17.75 26.82,-31.68 46.4,-39.67zm-21.72 54.33c-1.08,27.35 3.05,37.21 6.16,60.76 30.07,5.22 50.73,-19.99 69.16,-39.36 1.04,-7.25 1.88,-14.56 2.61,-21.87 -14.99,-21.56 -17.18,-23.53 -45.83,-28.6 -15.72,12.21 -19.8,12.1 -32.1,29.07z"/>
   <path class="fil14" d="M4823.67 745.75l5.06 10.01c0.85,11.66 1.69,23.27 2.64,34.92 -1.14,0 -15.46,61.13 -34.15,72.96 -37.61,17.84 -84.62,7.17 -111.46,-24.67 -10.53,-16.11 -11.13,-36.22 -5.85,-54.3 9.52,-23.24 30.3,-37.45 50.9,-50.03 23.44,-5.32 46.74,-11.78 70.7,-14.05 7.53,8.24 14.87,16.7 22.16,25.16zm-31.28 3.66c-19.13,4.23 -39.4,6.15 -56.57,16.5 -5.75,3.25 -11.13,7.25 -16.64,11 -3.87,5.87 -7.84,11.74 -11.98,17.42 0.44,9.96 1.25,19.85 2.16,29.72l2.87 -1.38c5.04,5.29 10.23,10.42 15.26,15.67 2.2,-0.76 6.52,-2.27 8.71,-3.02l0.95 7.15c2.58,-0.47 7.79,-1.42 10.37,-1.89l0.23 5.32c10.03,-0.93 20.29,-0.3 29.94,-3.39 7.2,-6.09 13.43,-13.09 20.18,-19.61 4.79,-15.73 7.23,-32.06 10.79,-48.06 -3.63,-9.18 -7.26,-20.36 -16.27,-25.43z"/>
   <path class="fil15" d="M4789.38 740.37c30.97,13.67 35,52.48 8.49,82.53 -6.75,6.52 -12.98,13.52 -20.18,19.61 -9.65,3.09 -19.91,2.46 -29.94,3.39l-20.26 -7.56c-5.03,-5.25 -7.91,-2.04 -12.95,-7.34l-5.18 -6.95c-0.91,-9.87 -1.72,-19.76 -2.16,-29.72 4.14,-5.68 8.11,-11.55 11.98,-17.42 5.51,-3.75 10.89,-7.75 16.64,-11l53.56 -25.54z"/>
   <path class="fil15" d="M5199.44 889.86c18.44,-23.17 36.51,-29.83 48.71,7.81 3.98,26.16 7.24,97.25 -40.36,98.34 -12.53,15.89 -59.06,-47.98 -8.32,-103.85l-0.03 -2.3z"/>
   <path class="fil14" d="M5171.27 879.02c51.43,-51.36 83.62,-34.66 106.08,16.47 4.28,20.39 6.09,41.92 1.01,62.34 -4.76,13.64 -12.55,25.9 -19.43,38.56 -6.55,6.29 -13.05,12.69 -19.48,19.13 -6.77,4.32 -13.54,8.65 -20.24,13.17 -3.97,0.85 -11.9,2.49 -15.86,3.34 -35.08,-39.65 -43.04,-77.24 -44.11,-131.08 4.07,-7.25 8.13,-14.54 12.03,-21.93zm28.17 10.84l0.03 2.3c-40.34,34.67 -3.43,95.57 8.32,103.85 47.6,-1.09 44.34,-72.18 40.36,-98.34 -12.62,-27.86 -30.6,-23.38 -48.71,-7.81z"/>
   <path class="fil15" d="M4567.67 1105.86c4.8,-3.91 9.66,-7.78 14.56,-11.59 28.65,5.07 30.85,7.04 45.83,28.6 -0.73,7.31 -1.57,14.62 -2.61,21.87 -18.42,19.37 -39.09,44.58 -69.16,39.36 -0.94,-7.1 -1.87,-14.2 -2.71,-21.35l-3.86 0.1c-0.05,-13.2 -0.11,-26.35 0.42,-39.5 4.38,-6.06 8.66,-12.22 12.84,-18.38 1.14,0.21 3.49,0.68 4.69,0.89z"/>
   <path class="fil14" d="M4571.85 1069.01c9.18,-2.03 18.47,-4.38 27.87,-2.09 24.27,5.33 45.62,21.82 53.97,45.62 2.76,13.73 1.04,27.77 -0.32,41.49 -15.86,21.98 -34.86,41.81 -59.24,54.39 -13.46,4.9 -29.17,10.49 -42.95,3.65 -20.3,-9.86 -24.84,-34.24 -32.52,-53.23 -0.94,-17.07 -0.31,-34.35 6.79,-50.16 11.22,-17.75 26.83,-31.68 46.4,-39.67zm-21.71 54.34c-1.09,27.34 3.04,37.2 6.15,60.75 30.07,5.22 50.74,-19.99 69.16,-39.36 1.04,-7.25 1.88,-14.56 2.61,-21.87 -14.98,-21.56 -17.18,-23.53 -45.83,-28.6 -15.72,12.21 -19.8,12.1 -32.09,29.08z"/>
   <path class="fil14" d="M7183.88 16.35c19.8,-7.48 39.82,-20.4 61.89,-15.11 15.64,3.4 30.61,9.22 45.79,14.28 18.9,18.14 36.36,37.79 47.24,61.89 17.9,52.23 6.09,108.58 -26.38,153.49 -23.12,45.34 -46.17,92.35 -81.61,129.45 -5.45,-0.22 -10.73,-0.45 -16.1,-0.68 -32.15,-59.98 -52.49,-113.71 -76.93,-174.72 -0.98,-3.77 -2.95,-11.26 -3.93,-15.04 -9.22,-26.9 -7.41,-56 -1.06,-83.28 10.5,-27.81 30.3,-49.8 51.09,-70.28zm31.36 27.66c-12.7,14.44 -25.92,28.34 -39.3,42.17 -5.36,35.59 -5.36,72.93 8.39,106.78 13.9,32.73 27.36,65.6 36.95,99.98 19.5,-10.05 27.28,-31.66 39.08,-48.74 6.87,-14.89 14.05,-29.62 21.31,-44.28 20.93,-30.69 26.45,-69.91 18.81,-105.88 -6.19,-21.01 -25.99,-33.33 -39.82,-49.05 -15.12,-0.9 -30.31,-1.28 -45.42,-0.98z"/>
   <path class="fil16" d="M7215.24 44.01c15.11,-0.3 30.3,0.08 45.42,0.98 13.83,15.72 33.63,28.04 39.82,49.05 7.64,35.97 2.12,75.19 -18.81,105.88 -7.26,14.66 -14.44,29.39 -21.31,44.28 -11.8,17.08 -19.58,38.69 -39.08,48.74 -9.59,-34.38 -23.05,-67.25 -36.95,-99.98 -13.75,-33.85 -13.75,-71.19 -8.39,-106.78 13.38,-13.83 26.6,-27.73 39.3,-42.17z"/>
   <path class="fil14" d="M7735.47 254.32c57.56,-15.32 129.18,-25.84 177.14,18.18 5.32,8.51 11.55,16.52 18.52,23.78 10.98,27.15 11.43,58.13 0.12,85.23 -9.66,13.94 -18.47,28.4 -28.3,42.18 -16.58,11.2 -31.89,26.64 -52.76,29.04 -33.09,4 -69.28,3.26 -97.63,-16.58 -1.2,-0.17 -3.54,-0.63 -4.74,-0.86 -9.72,-4.8 -19.72,-8.97 -29.9,-12.57 -27.53,-6.82 -38.15,-9.7 -73.28,-8.92 -5.89,2.46 -11.78,4.92 -17.6,7.32 -8.29,3.6 -16.58,7.09 -24.81,10.57 -16.41,14.12 -31.44,29.73 -43.9,47.45 -5.38,25.95 -35.04,14.4 -45.73,-1.26 1.94,-0.4 5.89,-1.2 7.83,-1.6 6.23,-19.61 11.43,-40.3 25.89,-55.74 11.38,-18.63 23.38,-36.81 35.44,-54.98 13.95,-13.21 24.87,-29.21 37.9,-43.27 32.87,-31.21 73.17,-53.28 115.81,-67.97zm11.26 29.95c-9.77,3.49 -19.55,6.86 -29.32,10.06 -14.69,8.41 -29.33,16.92 -44.53,24.36 -23.09,23.09 -50.53,43.27 -65.91,72.76 44.07,-13.38 92.66,-14.46 134.73,6.23 71.03,35.22 182.37,40.82 162.28,-80.08 -4.57,-7.26 -8.97,-14.63 -13.38,-21.95 -46.33,-35.61 -98.93,-20.07 -143.87,-11.38z"/>
   <path class="fil16" d="M7890.6 295.65c4.41,7.32 8.81,14.69 13.38,21.95 20.09,120.9 -91.25,115.3 -162.28,80.08 -42.07,-20.69 -90.66,-19.61 -134.73,-6.23 15.38,-29.49 42.82,-49.67 65.91,-72.76 15.2,-7.44 29.84,-15.95 44.53,-24.36 9.77,-3.2 19.55,-6.57 29.32,-10.06 44.94,-8.69 97.54,-24.23 143.87,11.38z"/>
   <path class="fil14" d="M7843.33 522.69c53.51,-10.61 99.11,5.33 139.48,4.75 15.54,7.43 30.86,15.2 45.44,24.46 7.31,6.12 14.8,12.01 22.46,17.78 15.09,17.15 26.81,36.7 35.96,57.56 3.2,25.67 1.71,52.13 -13.04,74.25 -16.74,11.55 -33.89,22.58 -52.24,31.5 -16.35,0.63 -33.04,2.63 -49.16,-1.15 -30.18,-11.83 -58.65,-33.03 -69.22,-64.93 -10.86,-25.55 -26.81,-49.1 -48.02,-67.11 -24.06,-20.35 -53.5,-32.35 -80.48,-47.9 -3.2,-1.2 -9.55,-3.66 -12.75,-4.86 27.04,-8.57 54.76,-14.92 81.57,-24.35zm4.4 34.13c35.9,20.4 61.68,53.67 82.31,88.71 10.58,20.75 19.5,44.76 40.93,56.82 19.49,7.03 40.53,3.31 59.68,-2.97 7.14,-8 14.69,-15.67 22.58,-22.92 3.54,-12.29 5.03,-24.93 5.43,-37.62 -6,-11.71 -12.18,-23.37 -19.38,-34.41 -7.94,-7.54 -15.83,-15.2 -23.61,-22.92 -12.17,-9.43 -25.95,-16.4 -40.41,-21.44 -41.61,-12.44 -76.76,-4.02 -127.53,-3.25z"/>
   <path class="fil16" d="M7975.26 560.07c14.46,5.04 28.24,12.01 40.41,21.44 7.78,7.72 15.67,15.38 23.61,22.92 7.2,11.04 13.38,22.7 19.38,34.41 -0.4,12.69 -1.89,25.33 -5.43,37.62 -7.89,7.25 -15.44,14.92 -22.58,22.92 -19.15,6.28 -40.19,10 -59.68,2.97 -21.43,-12.06 -30.35,-36.07 -40.93,-56.82 -20.63,-35.04 -46.41,-68.31 -82.31,-88.71 50.84,-0.77 85.87,-9.2 127.53,3.25z"/>
  </g>
 </g>
</svg>
