<?xml version="1.0" encoding="UTF-8" ?>
<!DOCTYPE svg PUBLIC "-//W3C//DTD SVG 1.1//EN" "http://www.w3.org/Graphics/SVG/1.1/DTD/svg11.dtd">
<svg width="1019pt" height="833pt" viewBox="0 0 1019 833" version="1.1" xmlns="http://www.w3.org/2000/svg">
<path fill="#fff" d=" M 627.79 231.27 C 630.04 231.02 632.35 229.98 634.62 230.51 C 635.85 231.64 635.64 233.51 636.15 234.99 C 633.94 232.65 630.93 231.56 627.79 231.27 Z" />
<path fill="#fff" d=" M 621.51 243.57 C 623.05 241.07 625.78 239.95 628.59 239.53 C 627.03 242.03 624.38 243.32 621.51 243.57 Z" />
<path fill="#fff" d=" M 608.30 252.35 C 609.92 249.59 611.70 246.93 613.41 244.23 C 613.85 246.75 615.01 249.42 617.52 250.49 C 622.12 252.58 627.57 251.09 631.56 248.33 C 630.66 249.86 629.84 251.44 629.01 253.00 C 622.11 252.67 615.21 252.19 608.30 252.35 Z" />
<path fill="#fff" d=" M 511.85 805.54 C 513.39 808.23 514.68 811.06 515.97 813.88 C 513.27 813.87 510.58 813.87 507.90 813.88 C 509.20 811.09 510.50 808.30 511.85 805.54 Z" />
<path fill="#fff" d=" M 361.98 812.52 C 364.63 812.74 367.76 812.19 369.92 814.11 C 372.02 815.93 371.50 819.78 368.97 820.96 C 366.78 821.92 364.30 821.52 361.98 821.67 C 361.97 818.61 361.97 815.56 361.98 812.52 Z" />
<path d=" M 412.86 9.35 C 424.59 8.26 436.30 6.95 448.05 6.07 C 451.79 5.86 456.47 5.74 458.93 9.12 C 460.79 12.67 460.37 16.86 460.54 20.74 C 468.32 26.68 469.46 37.15 472.71 45.74 C 523.15 44.94 573.64 44.97 624.04 47.46 C 639.43 48.20 654.81 49.44 670.09 51.48 C 679.32 52.84 688.61 54.37 697.43 57.55 C 700.97 59.02 704.91 60.54 707.08 63.92 C 708.66 67.24 708.71 71.02 709.25 74.60 C 710.30 87.03 710.22 99.54 709.72 112.00 C 709.10 122.89 708.53 133.85 706.19 144.53 C 705.75 147.02 704.17 149.48 704.96 152.05 C 706.88 157.59 710.00 162.99 709.82 169.02 C 709.40 197.69 707.02 226.38 709.00 255.04 C 708.68 259.42 713.16 261.66 714.62 265.36 C 717.80 272.87 715.08 282.47 707.98 286.73 C 709.06 327.82 705.73 368.88 705.96 409.97 C 706.10 411.96 705.66 414.27 707.06 415.94 C 710.18 420.09 713.97 423.97 715.59 429.03 C 717.46 434.63 716.85 441.41 712.81 445.93 C 710.72 448.66 707.47 451.18 707.68 454.96 C 707.96 485.30 709.81 515.65 708.87 546.00 C 802.91 546.00 896.96 546.00 991.00 546.00 C 991.00 550.66 991.00 555.33 991.00 560.00 C 882.67 560.00 774.33 560.00 666.00 560.00 C 666.19 480.33 666.41 400.66 666.04 320.99 C 665.92 312.65 665.00 303.85 660.21 296.76 C 656.89 291.22 650.58 287.63 648.88 281.13 C 648.24 276.81 652.54 274.50 655.53 272.42 C 656.43 270.65 654.57 269.32 653.10 268.85 C 646.07 266.16 638.44 265.94 631.04 265.18 C 606.67 263.85 582.20 264.59 557.91 266.97 C 553.41 267.66 548.74 267.95 544.48 269.69 C 542.89 270.39 543.13 272.59 544.59 273.27 C 547.60 275.13 551.18 277.99 550.35 281.99 C 548.67 287.50 543.28 290.48 540.11 295.00 C 534.62 302.07 532.67 311.24 532.97 320.04 C 533.04 400.57 532.90 481.10 532.83 561.63 C 522.29 561.63 511.75 561.63 501.22 561.63 C 502.53 479.10 500.04 396.57 500.84 314.04 C 500.95 303.02 500.88 292.00 500.84 280.98 C 500.62 272.60 500.63 264.11 498.66 255.91 C 496.36 247.76 491.81 240.31 485.93 234.26 C 482.12 230.29 476.60 228.15 473.62 223.36 C 470.41 218.32 469.68 212.18 469.58 206.33 C 469.39 190.50 469.70 174.60 467.67 158.86 C 465.54 143.61 461.37 128.67 455.79 114.33 C 453.81 109.01 450.92 103.82 450.68 98.04 C 450.36 94.43 453.55 91.63 452.98 88.00 C 452.70 77.34 452.68 66.67 452.36 56.01 C 452.22 51.42 452.21 46.79 451.18 42.29 C 438.17 42.39 425.16 42.00 412.14 42.23 C 410.91 58.88 410.48 75.60 410.80 92.28 C 413.82 95.19 414.22 99.71 412.27 103.35 C 405.19 119.17 399.59 135.75 397.09 152.94 C 394.40 170.81 394.18 188.91 393.02 206.91 C 392.76 211.34 392.29 215.99 389.79 219.79 C 386.34 225.21 381.23 229.25 376.85 233.86 C 371.37 239.27 366.62 245.59 364.12 252.94 C 360.09 264.84 359.13 277.54 359.16 290.03 C 359.56 368.70 359.34 447.37 359.23 526.04 C 359.35 537.70 359.51 549.35 358.98 561.00 C 250.99 561.00 142.99 561.00 35.00 561.00 C 35.00 556.33 35.00 551.66 35.00 547.00 C 128.68 547.00 222.37 547.00 316.05 547.00 C 315.32 523.66 316.76 500.31 316.29 476.97 C 316.09 469.76 316.68 462.32 314.72 455.32 C 310.64 450.81 306.66 445.45 306.95 439.03 C 307.34 431.29 310.03 423.06 316.35 418.14 C 316.24 410.09 315.29 402.09 315.01 394.05 C 314.97 376.03 315.45 358.02 315.23 340.00 C 315.04 324.86 315.44 309.69 314.16 294.59 C 314.25 289.81 309.77 287.01 308.18 282.85 C 305.39 277.56 305.76 270.99 308.89 265.93 C 310.65 261.94 314.89 258.77 314.21 254.02 C 313.74 229.55 312.47 205.04 313.90 180.57 C 314.56 172.44 315.20 164.11 318.35 156.49 C 315.19 151.27 315.07 144.95 314.39 139.05 C 312.81 116.74 313.67 94.36 313.90 72.03 C 314.00 67.82 314.67 63.06 318.06 60.14 C 321.41 56.88 326.02 55.51 330.50 54.64 C 348.99 50.99 367.89 50.33 386.64 48.89 C 387.61 43.86 388.52 38.80 389.91 33.86 C 390.72 31.13 391.90 28.06 394.71 26.83 C 397.28 25.74 400.10 25.44 402.82 24.88 C 402.51 20.52 402.02 15.54 404.86 11.85 C 406.95 9.78 410.13 9.78 412.86 9.35 M 414.94 21.74 C 415.15 24.34 415.52 26.93 415.95 29.51 C 426.41 29.92 436.88 28.96 447.32 28.49 C 447.86 25.16 448.27 21.80 448.38 18.42 C 437.22 19.23 426.00 20.02 414.94 21.74 M 459.14 32.25 C 457.28 34.95 462.44 32.75 459.14 32.25 M 398.21 34.23 C 396.89 38.91 395.96 43.68 394.99 48.44 C 396.46 48.36 397.93 48.28 399.41 48.20 C 399.88 43.07 399.72 37.58 402.59 33.06 C 401.13 33.46 399.67 33.85 398.21 34.23 M 476.18 57.87 C 478.45 67.10 481.24 76.42 480.92 86.02 C 480.74 91.84 478.09 97.14 475.38 102.15 C 476.31 104.10 477.92 106.34 476.74 108.55 C 475.86 111.14 472.58 112.11 470.18 111.16 C 467.66 110.38 466.61 107.74 465.32 105.71 C 471.44 119.57 475.56 134.27 478.49 149.11 C 481.99 167.51 481.57 186.33 481.76 204.97 C 481.96 209.18 481.73 213.95 484.47 217.44 C 487.69 220.25 491.47 222.38 494.45 225.48 C 504.00 235.28 510.93 248.09 512.07 261.88 C 513.59 276.54 512.92 291.31 513.10 306.02 C 512.18 387.14 514.50 468.26 513.60 549.38 C 515.94 549.38 518.29 549.38 520.64 549.39 C 520.70 497.24 520.74 445.09 520.79 392.94 C 520.97 367.63 520.50 342.32 520.86 317.00 C 520.64 303.93 525.98 290.82 535.51 281.83 C 529.59 276.14 529.84 265.40 536.54 260.46 C 541.91 257.67 548.07 257.00 553.95 255.95 C 568.95 253.71 584.10 252.94 599.24 252.38 C 603.36 243.71 609.09 235.70 616.56 229.60 C 621.77 225.44 628.10 221.56 635.04 222.25 C 639.87 222.70 643.52 227.13 643.76 231.85 C 644.26 239.59 640.94 246.88 637.77 253.74 C 645.09 254.57 652.55 255.51 659.37 258.46 C 664.68 260.60 668.26 266.39 667.88 272.10 C 667.95 275.81 666.01 279.12 663.77 281.93 C 669.39 287.44 673.75 294.34 675.86 301.95 C 678.93 312.34 678.13 323.31 678.29 334.00 C 678.67 404.67 678.22 475.33 678.39 545.99 C 684.57 546.00 690.75 546.00 696.93 546.00 C 697.58 515.34 695.54 484.70 695.67 454.05 C 695.34 448.88 698.08 444.22 701.38 440.48 C 702.87 438.65 704.94 436.63 704.30 434.03 C 702.82 427.73 695.73 424.39 695.14 417.77 C 693.83 408.59 694.13 399.31 694.05 390.07 C 694.35 357.72 696.35 325.38 695.98 293.02 C 696.11 289.36 695.15 285.66 695.80 282.03 C 696.74 277.65 702.87 277.20 703.61 272.76 C 704.14 270.42 701.99 268.81 700.81 267.13 C 698.38 264.35 697.01 260.78 696.88 257.11 C 694.73 228.10 697.10 199.03 697.60 170.01 C 697.72 164.16 694.03 159.23 692.48 153.78 C 691.41 149.60 693.34 145.55 694.38 141.59 C 695.80 135.44 696.31 129.14 696.86 122.87 C 697.92 107.13 698.39 91.31 697.22 75.57 C 696.81 73.25 697.05 70.56 695.60 68.58 C 692.47 66.62 688.70 66.11 685.16 65.35 C 671.36 62.93 657.35 62.04 643.40 60.87 C 587.75 57.14 531.93 57.14 476.18 57.87 M 464.63 58.12 C 464.70 60.97 464.76 63.82 464.85 66.67 C 466.93 67.53 468.93 68.59 470.85 69.79 C 469.77 65.89 468.85 61.96 467.75 58.07 C 466.97 58.08 465.41 58.11 464.63 58.12 M 392.78 60.79 C 391.32 69.71 389.79 78.65 389.55 87.71 C 390.38 83.76 390.81 79.55 393.14 76.13 C 394.47 74.11 396.66 72.94 398.60 71.59 C 398.70 67.88 398.80 64.17 398.91 60.46 C 396.87 60.57 394.82 60.68 392.78 60.79 M 338.20 65.59 C 334.56 66.26 330.71 66.53 327.39 68.30 C 325.84 68.84 326.30 70.72 326.11 71.95 C 325.98 85.64 325.46 99.33 325.71 113.02 C 325.89 124.05 325.43 135.16 327.22 146.08 C 327.85 150.49 332.83 154.15 330.58 158.84 C 328.15 164.22 326.97 170.05 326.52 175.92 C 324.23 202.90 326.20 229.99 326.41 257.01 C 326.53 263.28 321.19 267.52 319.40 273.13 C 318.21 277.20 321.25 280.52 323.20 283.72 C 325.46 289.39 325.46 295.63 326.16 301.62 C 328.03 331.73 327.31 361.91 327.20 392.05 C 327.34 402.29 329.09 412.64 327.44 422.84 C 326.88 426.88 322.13 428.11 320.91 431.78 C 319.96 434.40 318.98 437.18 319.21 440.01 C 319.89 443.94 323.99 445.99 325.12 449.73 C 326.98 455.28 327.48 461.17 327.93 466.98 C 329.46 493.63 327.45 520.32 328.25 546.99 C 334.58 547.01 340.92 546.99 347.26 547.00 C 346.85 524.66 347.08 502.31 347.09 479.97 C 347.20 420.63 347.33 361.29 346.96 301.95 C 346.77 283.08 346.65 263.52 353.81 245.73 C 358.05 235.19 366.17 226.99 374.22 219.27 C 376.78 216.56 380.13 213.92 380.49 209.92 C 381.21 201.98 381.47 194.00 381.90 186.04 C 382.95 162.76 385.30 139.18 393.62 117.24 C 391.42 117.41 388.85 117.53 387.39 115.55 C 385.00 113.10 386.12 109.53 386.99 106.68 C 378.25 93.04 382.16 76.21 384.43 61.29 C 368.99 62.39 353.51 63.25 338.20 65.59 M 464.98 75.64 C 464.94 81.74 465.42 87.86 464.91 93.95 C 466.33 94.80 467.74 95.64 469.15 96.50 C 471.02 93.00 472.55 89.27 472.90 85.28 C 470.63 81.78 468.14 78.39 464.98 75.64 M 397.00 98.40 C 397.55 98.19 398.66 97.78 399.22 97.57 C 398.29 92.69 398.37 87.71 398.60 82.77 C 397.89 87.96 397.35 93.17 397.00 98.40 M 465.09 104.13 C 463.51 107.09 468.36 104.36 465.09 104.13 M 627.79 231.27 C 630.93 231.56 633.94 232.65 636.15 234.99 C 635.64 233.51 635.85 231.64 634.62 230.51 C 632.35 229.98 630.04 231.02 627.79 231.27 M 621.51 243.57 C 624.38 243.32 627.03 242.03 628.59 239.53 C 625.78 239.95 623.05 241.07 621.51 243.57 M 608.30 252.35 C 615.21 252.19 622.11 252.67 629.01 253.00 C 629.84 251.44 630.66 249.86 631.56 248.33 C 627.57 251.09 622.12 252.58 617.52 250.49 C 615.01 249.42 613.85 246.75 613.41 244.23 C 611.70 246.93 609.92 249.59 608.30 252.35 Z" />
<path d=" M 557.43 72.54 C 582.68 72.41 608.24 72.32 633.09 77.41 C 638.31 78.93 645.00 80.01 647.62 85.41 C 650.55 94.53 651.59 104.48 649.53 113.91 C 648.05 120.83 643.59 127.38 636.89 130.12 C 629.94 132.88 622.28 131.68 615.00 132.04 C 580.60 131.72 546.19 130.84 511.87 128.40 C 507.45 127.79 502.78 128.04 498.62 126.25 C 495.87 123.63 495.18 119.64 494.33 116.09 C 492.46 105.33 491.97 93.88 495.70 83.45 C 497.13 79.34 500.64 75.97 505.14 75.68 C 522.43 73.12 539.98 72.95 557.43 72.54 M 506.56 87.79 C 504.41 96.97 504.81 106.63 506.46 115.86 C 518.89 117.14 531.40 117.37 543.88 118.07 C 571.60 119.06 599.35 120.14 627.10 119.70 C 631.19 119.93 635.43 117.81 636.82 113.78 C 639.47 106.30 638.52 97.98 636.36 90.49 C 632.42 88.04 627.55 87.91 623.09 87.07 C 596.15 84.32 569.02 84.38 541.98 85.03 C 530.15 85.58 518.25 85.82 506.56 87.79 Z" />
<path d=" M 339.91 618.30 C 352.43 618.30 364.95 618.30 377.46 618.30 C 377.46 621.77 377.45 625.24 377.50 628.72 C 364.97 628.83 352.44 628.74 339.91 628.77 C 339.91 625.28 339.91 621.79 339.91 618.30 Z" />
<path d=" M 893.33 617.97 C 905.85 617.96 918.37 617.97 930.89 617.97 C 930.88 621.45 930.88 624.94 930.89 628.43 C 918.37 628.44 905.85 628.43 893.34 628.44 C 893.32 624.95 893.32 621.46 893.33 617.97 Z" />
<path d=" M 248.41 642.61 C 257.41 640.53 267.00 641.10 275.70 644.21 C 289.74 649.42 300.99 662.07 303.82 676.87 C 305.94 687.68 304.56 699.38 298.98 708.98 C 292.75 719.69 282.13 728.01 269.92 730.59 C 258.23 733.06 245.41 731.42 235.27 724.90 C 226.06 719.00 218.74 709.85 215.84 699.23 C 212.12 685.71 214.81 670.51 223.26 659.29 C 229.29 650.95 238.46 645.07 248.41 642.61 M 251.48 655.72 C 244.26 657.73 237.68 662.21 233.47 668.45 C 227.42 677.23 226.46 689.01 230.18 698.90 C 234.32 708.68 243.52 716.48 254.17 717.93 C 265.82 719.96 278.51 715.00 285.27 705.21 C 292.62 694.72 292.98 679.71 285.96 668.97 C 278.74 657.94 264.25 652.21 251.48 655.72 Z" />
<path d=" M 799.48 642.69 C 808.95 640.44 819.11 641.09 828.18 644.62 C 841.41 649.94 852.02 661.86 855.05 675.89 C 857.18 685.60 856.41 696.04 852.37 705.17 C 846.45 718.13 834.22 728.31 820.08 730.84 C 808.61 732.96 796.16 731.14 786.32 724.66 C 777.38 718.80 770.26 709.87 767.36 699.51 C 763.61 686.24 766.06 671.30 774.12 660.08 C 780.09 651.44 789.36 645.29 799.48 642.69 M 803.40 655.59 C 795.87 657.56 789.00 662.23 784.70 668.75 C 778.76 677.63 777.90 689.45 781.79 699.31 C 785.92 708.66 794.69 716.18 804.91 717.81 C 816.42 720.08 829.10 715.49 836.12 706.01 C 843.67 696.00 844.51 681.47 838.38 670.58 C 831.65 658.68 816.67 652.18 803.40 655.59 Z" />
<path d=" M 82.16 643.40 C 98.73 643.41 115.29 643.40 131.85 643.40 C 131.86 647.84 131.86 652.29 131.85 656.73 C 125.85 656.73 119.85 656.73 113.85 656.73 C 113.83 681.04 113.85 705.35 113.84 729.67 C 109.28 729.66 104.73 729.66 100.18 729.67 C 100.17 705.35 100.18 681.04 100.17 656.73 C 94.17 656.73 88.16 656.73 82.16 656.73 C 82.16 652.29 82.16 647.84 82.16 643.40 Z" />
<path d=" M 145.80 643.41 C 156.03 643.77 166.43 642.44 176.51 644.63 C 185.50 646.54 192.49 654.84 193.05 663.98 C 193.76 670.78 190.93 677.61 185.94 682.21 C 194.31 685.97 199.97 694.81 199.66 704.00 C 199.75 712.90 194.55 721.47 186.80 725.75 C 181.48 728.95 175.12 729.73 169.03 729.67 C 161.28 729.65 153.54 729.68 145.79 729.65 C 145.81 700.90 145.80 672.16 145.80 643.41 M 159.13 656.74 C 159.13 663.55 159.13 670.37 159.13 677.18 C 164.52 676.98 170.57 677.60 175.19 674.28 C 180.02 670.90 181.12 662.52 176.00 658.93 C 170.94 655.91 164.75 656.91 159.13 656.74 M 159.13 690.71 C 159.13 699.25 159.13 707.79 159.13 716.33 C 165.89 716.09 173.09 717.18 179.45 714.33 C 186.08 711.15 188.15 701.37 182.85 696.08 C 176.75 689.71 167.13 691.00 159.13 690.71 Z" />
<path d=" M 323.15 643.40 C 327.66 643.40 332.18 643.40 336.70 643.41 C 336.71 662.85 336.69 682.29 336.70 701.73 C 353.30 682.31 369.84 662.84 386.42 643.40 C 388.34 643.40 390.27 643.40 392.20 643.41 C 392.19 672.16 392.22 700.92 392.19 729.67 C 387.56 729.66 382.93 729.66 378.31 729.66 C 378.30 710.51 378.32 691.36 378.30 672.21 C 361.81 691.35 345.39 710.55 328.90 729.68 C 326.98 729.66 325.06 729.66 323.15 729.66 C 323.14 700.91 323.14 672.16 323.15 643.40 Z" />
<path d=" M 437.36 643.40 C 458.32 643.41 479.27 643.39 500.23 643.41 C 500.22 672.16 500.23 700.91 500.22 729.66 C 495.70 729.66 491.19 729.67 486.67 729.66 C 486.67 705.27 486.68 680.89 486.66 656.50 C 474.75 656.51 462.83 656.50 450.92 656.51 C 450.91 680.89 450.93 705.28 450.91 729.67 C 446.39 729.66 441.87 729.66 437.36 729.66 C 437.36 700.91 437.36 672.16 437.36 643.40 Z" />
<path d=" M 521.98 643.41 C 526.50 643.40 531.01 643.40 535.53 643.41 C 535.53 662.85 535.53 682.29 535.53 701.73 C 552.13 682.31 568.67 662.83 585.27 643.40 C 587.18 643.40 589.10 643.40 591.03 643.41 C 591.03 672.16 591.03 700.91 591.03 729.66 C 586.40 729.66 581.77 729.66 577.15 729.66 C 577.13 710.52 577.16 691.37 577.13 672.22 C 560.67 691.35 544.22 710.49 527.79 729.65 C 525.85 729.65 523.91 729.65 521.98 729.67 C 521.98 700.91 521.97 672.16 521.98 643.41 Z" />
<path d=" M 612.84 643.41 C 622.77 643.73 632.83 642.57 642.66 644.42 C 651.68 646.00 659.03 653.89 659.98 662.99 C 661.04 670.08 658.23 677.38 653.00 682.23 C 659.44 685.22 664.51 691.08 666.05 698.07 C 668.51 707.99 664.18 719.09 655.59 724.66 C 650.23 728.47 643.51 729.69 637.05 729.67 C 628.98 729.66 620.91 729.66 612.85 729.66 C 612.84 700.91 612.85 672.16 612.84 643.41 M 626.18 656.74 C 626.17 663.55 626.17 670.36 626.18 677.18 C 631.56 676.98 637.61 677.60 642.23 674.29 C 647.04 670.91 648.15 662.60 643.10 658.97 C 638.04 655.89 631.81 656.93 626.18 656.74 M 626.18 690.72 C 626.17 699.25 626.17 707.79 626.17 716.33 C 632.93 716.09 640.14 717.18 646.50 714.33 C 653.12 711.13 655.17 701.41 649.91 696.10 C 643.81 689.71 634.18 690.99 626.18 690.72 Z" />
<path d=" M 684.63 643.41 C 689.14 643.40 693.66 643.40 698.19 643.41 C 698.18 654.70 698.18 665.99 698.18 677.28 C 710.10 677.28 722.02 677.28 733.94 677.28 C 733.94 665.99 733.93 654.70 733.94 643.41 C 738.46 643.40 742.98 643.40 747.50 643.41 C 747.50 672.16 747.49 700.91 747.50 729.66 C 742.98 729.66 738.46 729.66 733.94 729.66 C 733.94 716.64 733.94 703.63 733.94 690.61 C 722.02 690.61 710.10 690.60 698.18 690.61 C 698.18 703.63 698.18 716.65 698.18 729.66 C 693.66 729.66 689.14 729.67 684.62 729.66 C 684.63 700.91 684.63 672.16 684.63 643.41 Z" />
<path d=" M 874.58 643.41 C 879.09 643.40 883.61 643.40 888.13 643.40 C 888.14 662.85 888.13 682.30 888.14 701.75 C 904.70 682.31 921.27 662.87 937.82 643.42 C 939.75 643.40 941.69 643.40 943.63 643.40 C 943.64 672.15 943.64 700.91 943.64 729.66 C 939.00 729.66 934.37 729.67 929.74 729.66 C 929.75 710.50 929.75 691.35 929.74 672.20 C 913.30 691.35 896.82 710.47 880.40 729.65 C 878.45 729.65 876.51 729.65 874.58 729.66 C 874.58 700.91 874.58 672.16 874.58 643.41 Z" />
<path d=" M 359.60 800.35 C 363.54 800.33 367.49 800.33 371.44 800.35 C 371.44 800.92 371.44 802.07 371.44 802.65 C 368.28 802.65 365.13 802.65 361.98 802.66 C 361.97 805.14 361.97 807.63 361.97 810.13 C 365.42 810.36 369.59 809.91 372.11 812.81 C 374.77 815.66 373.99 820.68 370.71 822.72 C 367.33 824.64 363.29 823.75 359.60 823.94 C 359.59 816.07 359.60 808.21 359.60 800.35 M 361.98 812.52 C 361.97 815.56 361.97 818.61 361.98 821.67 C 364.30 821.52 366.78 821.92 368.97 820.96 C 371.50 819.78 372.02 815.93 369.92 814.11 C 367.76 812.19 364.63 812.74 361.98 812.52 Z" />
<path d=" M 379.37 800.43 C 380.01 800.41 381.28 800.37 381.92 800.34 C 384.44 805.65 386.73 811.06 389.18 816.40 C 391.44 811.12 393.32 805.68 395.78 800.50 C 396.41 800.42 397.68 800.27 398.32 800.20 C 395.11 807.70 392.19 815.35 388.66 822.70 C 386.22 826.08 381.48 824.25 379.38 821.45 C 381.37 818.97 382.91 822.26 385.03 822.42 C 386.58 822.31 387.19 820.68 388.10 819.70 C 385.20 813.27 382.27 806.85 379.37 800.43 Z" />
<path d=" M 402.77 800.35 C 407.08 800.33 411.39 800.33 415.70 800.35 C 415.71 800.92 415.71 802.07 415.71 802.65 C 413.95 802.64 412.19 802.64 410.45 802.66 C 410.44 809.74 410.44 816.82 410.45 823.91 C 409.85 823.93 408.66 823.96 408.06 823.98 C 408.01 816.87 408.05 809.76 408.03 802.66 C 406.28 802.65 404.53 802.64 402.78 802.65 C 402.78 802.08 402.77 800.93 402.77 800.35 Z" />
<path d=" M 460.64 800.39 C 461.73 800.36 462.82 800.33 463.92 800.32 C 460.15 803.87 456.34 807.39 452.56 810.92 C 456.63 815.31 460.83 819.59 464.82 824.06 C 464.07 824.01 462.55 823.89 461.79 823.83 C 458.02 820.49 454.85 816.50 451.28 812.94 C 451.28 816.60 451.28 820.27 451.28 823.94 C 450.68 823.94 449.48 823.94 448.88 823.94 C 448.87 816.07 448.88 808.21 448.87 800.34 C 449.48 800.34 450.68 800.34 451.28 800.34 C 451.28 803.28 451.28 806.22 451.28 809.17 C 454.41 806.25 457.55 803.35 460.64 800.39 Z" />
<path d=" M 477.36 800.35 C 477.95 800.34 479.13 800.34 479.72 800.33 C 479.73 803.63 479.73 806.92 479.74 810.23 C 483.74 810.23 487.74 810.23 491.75 810.23 C 491.75 806.92 491.75 803.62 491.74 800.32 C 492.54 800.34 493.34 800.36 494.15 800.40 C 494.09 808.24 494.14 816.09 494.12 823.94 C 493.53 823.94 492.34 823.94 491.75 823.94 C 491.75 820.14 491.75 816.33 491.74 812.54 C 487.74 812.54 483.73 812.53 479.74 812.54 C 479.73 816.34 479.73 820.14 479.73 823.95 C 479.13 823.95 477.95 823.94 477.35 823.93 C 477.35 816.07 477.35 808.21 477.36 800.35 Z" />
<path d=" M 529.58 800.35 C 535.16 800.33 540.75 800.33 546.35 800.35 C 546.34 808.21 546.35 816.08 546.34 823.94 C 545.75 823.94 544.57 823.94 543.97 823.94 C 543.97 816.82 543.97 809.70 543.97 802.59 C 539.96 802.58 535.96 802.58 531.96 802.59 C 531.94 809.71 531.97 816.83 531.94 823.96 C 531.35 823.95 530.17 823.94 529.58 823.93 C 529.58 816.07 529.58 808.21 529.58 800.35 Z" />
<path d=" M 579.49 800.35 C 583.80 800.33 588.11 800.33 592.43 800.35 C 592.42 800.92 592.42 802.07 592.42 802.65 C 590.66 802.64 588.91 802.64 587.16 802.66 C 587.16 809.75 587.16 816.85 587.16 823.94 C 586.56 823.94 585.36 823.94 584.76 823.94 C 584.75 816.85 584.75 809.75 584.75 802.66 C 582.99 802.64 581.24 802.64 579.50 802.65 C 579.49 802.07 579.49 800.92 579.49 800.35 Z" />
<path d=" M 598.55 800.37 C 599.15 800.35 600.34 800.32 600.94 800.31 C 600.96 803.25 600.96 806.21 600.97 809.16 C 604.11 806.23 607.25 803.29 610.38 800.35 C 611.19 800.35 612.79 800.34 613.59 800.34 C 609.82 803.88 606.02 807.39 602.23 810.92 C 606.31 815.27 610.41 819.59 614.48 823.94 C 613.69 823.94 612.11 823.94 611.32 823.94 C 607.87 820.27 604.42 816.60 600.97 812.94 C 600.96 816.61 600.97 820.29 600.95 823.97 C 600.35 823.96 599.15 823.94 598.55 823.93 C 598.55 816.07 598.56 808.22 598.55 800.37 Z" />
<path d=" M 627.34 800.65 C 633.16 798.20 640.59 800.83 643.29 806.60 C 646.23 812.36 643.85 820.13 638.05 823.08 C 632.38 826.22 624.51 824.13 621.34 818.44 C 617.53 812.27 620.53 803.20 627.34 800.65 M 628.43 802.77 C 621.41 805.23 619.87 815.77 625.92 820.11 C 631.38 824.79 641.04 821.23 641.91 814.02 C 643.76 806.61 635.37 799.64 628.43 802.77 Z" />
<path d=" M 652.06 800.33 C 655.79 800.57 660.61 799.37 663.25 802.79 C 665.28 805.45 664.14 809.12 661.67 811.06 C 665.66 812.39 667.63 817.40 665.04 820.90 C 662.12 825.07 656.40 823.74 652.06 823.94 C 652.06 816.06 652.05 808.20 652.06 800.33 M 654.38 802.57 C 654.36 805.14 654.36 807.72 654.38 810.31 C 656.12 810.10 657.99 810.26 659.67 809.60 C 662.01 808.60 662.68 805.06 660.62 803.44 C 658.70 802.42 656.44 802.74 654.38 802.57 M 654.38 812.52 C 654.36 815.57 654.36 818.61 654.37 821.67 C 656.82 821.50 659.50 822.00 661.75 820.78 C 664.00 819.51 664.44 816.11 662.59 814.31 C 660.40 812.19 657.13 812.69 654.38 812.52 Z" />
<path d=" M 421.87 800.34 C 422.46 800.34 423.65 800.34 424.24 800.34 C 424.24 806.47 424.24 812.59 424.24 818.72 C 429.62 812.46 434.89 806.12 440.34 799.92 C 440.56 807.92 440.39 815.94 440.44 823.95 C 439.82 823.95 438.59 823.94 437.97 823.94 C 437.97 817.90 437.98 811.86 437.97 805.83 C 432.60 811.99 427.40 818.30 421.93 824.36 C 421.81 816.35 421.90 808.35 421.87 800.34 Z" />
<path d=" M 500.48 824.10 C 504.23 815.99 507.98 807.88 511.96 799.89 C 515.82 807.92 519.59 815.99 523.26 824.11 C 522.66 824.04 521.45 823.89 520.85 823.81 C 519.23 821.46 518.30 818.71 517.02 816.18 C 513.61 816.18 510.21 816.18 506.80 816.18 C 505.54 818.71 504.55 821.38 503.06 823.79 C 502.42 823.87 501.13 824.02 500.48 824.10 M 511.85 805.54 C 510.50 808.30 509.20 811.09 507.90 813.88 C 510.58 813.87 513.27 813.87 515.97 813.88 C 514.68 811.06 513.39 808.23 511.85 805.54 Z" />
<path d=" M 554.83 800.34 C 555.42 800.34 556.60 800.34 557.20 800.34 C 557.20 806.47 557.19 812.59 557.20 818.72 C 562.58 812.46 567.85 806.11 573.29 799.92 C 573.52 807.92 573.35 815.93 573.40 823.95 C 572.78 823.94 571.55 823.94 570.93 823.94 C 570.92 817.90 570.93 811.87 570.92 805.83 C 565.55 811.99 560.35 818.30 554.88 824.37 C 554.76 816.36 554.86 808.35 554.83 800.34 Z" />
<path d=" M 35.00 805.00 C 131.67 805.00 228.33 805.00 325.00 805.00 C 325.00 809.66 325.00 814.33 325.00 819.00 C 228.33 819.00 131.67 819.00 35.00 819.00 C 35.00 814.33 35.00 809.66 35.00 805.00 Z" />
<path d=" M 701.00 806.00 C 797.67 806.00 894.33 806.00 991.00 806.00 C 991.00 810.33 991.00 814.66 991.00 819.00 C 894.33 819.00 797.67 819.00 701.00 819.00 C 701.00 814.66 701.00 810.33 701.00 806.00 Z" />
</svg>
