<?xml version="1.0" encoding="UTF-8"?>
<!DOCTYPE svg PUBLIC "-//W3C//DTD SVG 1.1//EN" "http://www.w3.org/Graphics/SVG/1.1/DTD/svg11.dtd">
<!-- Creator: CorelDRAW 2018 (64-Bit) -->
<svg xmlns="http://www.w3.org/2000/svg" xml:space="preserve" width="4.55cm" height="2.71954cm" version="1.1" style="shape-rendering:geometricPrecision; text-rendering:geometricPrecision; image-rendering:optimizeQuality; fill-rule:evenodd; clip-rule:evenodd"
viewBox="0 0 3553.59 2123.98"
 xmlns:xlink="http://www.w3.org/1999/xlink">
 <defs>
  <style type="text/css">
   <![CDATA[
    .fil0 {fill:black}
   ]]>
  </style>
 </defs>
 <g id="Слой_x0020_1">
  <metadata id="CorelCorpID_0Corel-Layer"/>
  <path class="fil0" d="M2529.1 5.66c-35.76,-10.19 -72.76,-0.8 -109.04,-5.66 -50.54,0.32 -100.59,7.4 -150.84,12.12 -25.81,3.02 -52.04,1.98 -77.62,7.27 -60.72,12.03 -121.07,25.48 -181.85,37.09 -18.4,3.11 -34.82,12.59 -50.24,22.7 -16.99,11.23 -37.61,13.64 -56.67,19.63 -18.31,4.96 -36.19,11.51 -54.21,17.41 -32.98,11.66 -69.36,12.7 -100.27,30.29 -41.19,22.46 -86.2,35.95 -130.22,51.52 -50.72,23.03 -94.46,58.13 -142.16,86.49 -9.63,6.08 -18.54,13.16 -27.93,19.67 -24.77,17.88 -54.21,28.73 -76.34,50.39 -20.15,19.48 -46.53,29.54 -70.02,44.02 -35.86,25.39 -74.03,47.56 -107.72,75.92 -13.69,10.61 -32.04,13.07 -45.53,24.2 -22.28,18.45 -49.07,30.15 -71.91,47.89 -1.74,-32.89 -14.53,-63.79 -17.65,-96.49 -0.85,-19.25 -11.42,-36.33 -24.34,-50.01 -23.97,-25.91 -49.07,-52.33 -80.63,-68.89 -30.67,-10.19 -62.8,-15.95 -94.79,-20.48 -0.14,-1.37 -0.38,-4.06 -0.47,-5.37l9.53 1.27 0.61 -3.21c-0.14,-1.79 -0.42,-5.33 -0.56,-7.12 7.83,-6.89 14.53,-25.91 27.88,-10.15 -3.35,-4.25 -10.05,-12.74 -13.4,-16.98 8.4,3.44 16.37,7.73 24.3,11.98l-4.48 6.28 5.52 -4.3c25.76,21.52 57.19,33.97 87.81,46.72 23.22,4.58 39.26,22.74 54.78,39.06l-0.76 -4.29c6.23,2.22 12.6,4.02 19.02,5.43 -1.89,-19.39 -7.88,-38.03 -12.7,-56.81 -9.86,-28.02 -25.81,-53.36 -39.3,-79.74 -10.1,-23.11 -11.18,-50.24 -27.75,-70.3 3.21,0.62 9.72,1.8 12.93,2.41 -0.85,-2.78 -2.5,-8.35 -3.35,-11.13 -6,0.71 -13.59,3.97 -16.42,-3.58 3.21,0.09 9.63,0.33 12.83,0.43 -0.05,-2.64 -0.19,-7.93 -0.23,-10.57 1.98,0.95 5.99,2.83 7.97,3.78 8.78,31.28 15.71,63.56 31.38,92.34 4.06,4.81 9.15,8.63 13.97,12.59 6.56,-6.18 14.91,-10.8 19.58,-18.68 5.71,-12.22 3.26,-26.19 6.42,-38.93 5.29,-12.27 14.11,-22.55 19.73,-34.59 4.58,-12.22 7.5,-25.1 13.73,-36.66 3.91,4.34 7.5,8.92 10.85,13.68 1.18,35.53 -15.29,67.42 -28.6,99.18 15.58,-33.74 42.66,-65.21 36.76,-104.98 9.25,6.32 19.63,10.9 28.08,18.35 22.17,5.66 37.55,23.63 54.17,38.12 -9.15,2.83 -18.26,6.08 -27.04,10 -36,14.77 -77.52,29.82 -95.74,67.19 -0.8,-4.53 -1.55,-9.01 -2.45,-13.49 -3.82,4.43 -7.83,8.87 -11.84,13.21 -4.3,13.12 -9.34,25.9 -13.17,39.2 16.14,0.85 16.04,-17.08 21.52,-27.74 1.84,1.51 5.52,4.53 7.36,6.04 14.82,-34.02 46.1,-56.57 79.65,-69.92 -11.89,30.29 -50.34,32.18 -65.82,59.36 -8.54,12.03 -6.93,27.32 -9.86,41.14 -5.71,5.99 -11.51,13.21 -10.34,22.17 1.98,23.54 6.42,47.32 1.37,70.77 0.09,21.33 8.35,42.33 2.69,63.65 12.03,-12.74 20.71,-28.07 30.76,-42.27 13.4,-19.21 37.18,-27.93 59.22,-31.75 0.94,3.25 2.83,9.72 3.82,12.97 15.62,-6.89 5.57,-26.61 -5.8,-32.46 -1.47,3.11 -4.43,9.43 -5.95,12.55 -29.02,7.36 -58.27,21.8 -70.91,50.72 -2.26,-14.01 -4.53,-28.22 -2.26,-42.42 5.04,-24.77 -14.58,-50.2 -1.66,-73.89 8.4,-19.34 10.62,-42.32 26.33,-57.7 15.71,-14.2 37.03,-21.94 49.21,-40.06 10.47,-15.43 26.7,-25.2 43.22,-32.93 7.59,9.11 17.79,19.58 12.5,32.55 -5.14,10.81 -14.81,19.02 -23.17,27.46 -16.04,7.93 -32.5,16 -44.87,29.39 24.3,-5.33 46.01,-17.65 67.48,-29.63 15.24,-8.92 28.5,4.48 39.06,13.87 6.75,12.89 13.16,26 17.23,40.02 5.47,20.75 20.38,37.13 33.45,53.5 5.56,-0.85 7.69,-3.96 6.32,-9.3 -6.23,-20.76 -17.27,-40.15 -18.35,-62.28 -11.23,-16.28 -11.13,-37.8 -24.2,-53.37 -7.65,-2.83 -15.76,-6.84 -15.85,-16.18 -4.39,-34.11 -31.66,-57.18 -55.68,-78.7 -28.64,-24.72 -66.71,-33.07 -99.45,-50.72 -30.77,-12.46 -65.12,-7.08 -96.97,-1.7 -29.25,4.35 -55.15,19.35 -79.36,35.58 -26.19,21.56 -57.23,39.35 -72.8,71.01 -9.63,24.34 -30.01,42.09 -41.1,65.68 -5.99,10.8 -8.17,22.98 -12.22,34.54 -39.58,20.1 -86.72,15.66 -128.67,6.08 -27.22,-5.66 -54.97,-17.46 -83.09,-10.05 -24.72,7.03 -40.72,28.16 -59.74,43.88 -12.03,9.53 -15.71,25.05 -24.25,37.18 -7.46,12.41 -23.41,13.83 -35.53,19.67 -33.55,9.82 -69.13,11.99 -103.9,12.18 -8.07,3.02 -13.16,10.52 -18.83,16.65 4.81,4.39 9.53,8.82 14.3,13.21 -15.43,-1.27 -31.19,-8.16 -46.34,-6.42 -19.67,18.26 -33.45,42.28 -53.08,60.68 -21.66,18.17 -36.95,42.71 -49.45,67.75 -5.71,16.37 -13.64,35.01 -5.14,51.91 0.89,15.85 0.89,33.03 9.72,46.85 9.67,16.47 25.57,27.7 37.13,42.7 3.59,5.47 9.86,7.69 15.19,10.9l0.76 -5.19c2.6,2.83 5.1,5.71 7.6,8.59 -6.32,-1.75 -12.79,-3.31 -19.25,-4.91 7.41,8.35 15.62,15.71 27.56,14.39 -2.6,1.85 -7.78,5.52 -10.38,7.31 13.3,9.72 28.12,16.94 43.73,21.99 18.64,5.9 35.44,19.25 55.87,17.5 12.22,-0.9 23.87,2.97 35.76,4.58 5.75,1.08 13.3,-1.7 16.47,5.42 12.22,-1.46 25.14,0.24 35.15,7.93 11.18,6.51 14.77,20.1 24.63,28.12 22.17,20.24 43.55,41.48 67.56,59.64 6.46,5.29 14.77,7.03 22.6,9.11 -39.91,9.39 -74.97,36.76 -117.2,35.24 -12.32,0.05 -24.11,-4.06 -35.57,-8.11 -40.06,-15.47 -79.31,-33.64 -115.22,-57.33 -22.04,-14.95 -46.15,-26.42 -71.2,-35.34 -33.03,-13.73 -70.26,-24.77 -105.88,-14.82 -22.84,5.52 -36.19,26.33 -54.73,38.97 -16.14,11.09 -22.98,30.15 -35.95,44.02 -17.12,14.15 -33.88,30.05 -43.6,50.34 -2.83,18.92 15.72,30.63 27.28,42.52 14.1,16.46 35.62,24.49 48.59,42.08 6.37,16.66 11.28,34.11 14.3,51.71 0.47,36.28 4.2,72.85 -1.33,108.95 -3.25,18.17 6.13,36.66 -0.61,54.45 -6.71,21.7 -1.18,44.78 4.34,66.06 27.45,21.56 66.1,15.38 97.9,8.49 31.99,-5.33 63.27,-14.87 91.54,-31.04 16.75,-10.48 37.7,-12.65 52.6,-26.19l-6.42 9.2c34.3,-17.27 72.57,-8.02 109.09,-10.9 14.44,-0.52 27.65,5.94 41.71,7.73 23.92,11.19 51.24,17.75 70.4,36.99 15.75,13.59 34.11,24.34 47.28,40.86 11.84,9.2 22.97,19.44 31.98,31.52 12.74,17.13 33.22,26.66 43.93,45.63 15.57,28.92 42.56,48.69 67.38,69.17 47.42,26.89 88.71,62.43 133.29,93.42 84.89,52.99 185.52,67.75 279.42,97.48 31.47,14.67 67.28,20 96.01,40.25 38.17,27.41 75.4,56.24 114.52,82.43 27.08,12.97 46.95,36.66 73.84,49.78 32.27,18.92 68.74,28.4 102.43,44.35 77.71,24.91 158.58,40.29 234.31,71.25 60.82,25.28 121.83,52.04 176.09,89.83 16.75,8.78 34.26,16.04 51.47,23.92 34.87,13.83 72.14,20 107.44,32.42 25.81,8.49 53.03,10.14 79.97,11.51 35.57,6.46 71.95,9.34 108.14,8.21 34.54,-6.61 69.08,-13.64 103.75,-19.58 10.38,-1.42 19.35,-6.75 28.08,-11.99 9.39,-6.23 21.14,-3.73 31.66,-3.68 -3.5,1.13 -10.52,3.44 -14.01,4.62l-0.28 5.04c30.2,-4.43 60.3,-10.14 89.75,-18.26 25.01,-6.23 43.69,-24.91 65.3,-37.74 20.62,-11.94 33.69,-32.69 53.46,-45.77 40.67,-29.96 79.41,-64.31 103.33,-109.55 15.66,-4.06 32.7,1.03 48.84,-1.74 -13.35,-11.47 -31.52,-0.43 -47.23,-2.69 10.33,-30.48 17.17,-62.66 34.16,-90.4 11.61,-19.54 19.63,-40.72 28.97,-61.29 16.98,-26.05 31.71,-53.46 46.33,-80.87 11.32,-21 7.31,-47.99 23.69,-66.53 7.08,-2.88 9.11,5.62 13.21,9.44 8.92,8.82 24.16,10.24 29.87,22.51 10.99,18.97 12.74,41.57 19.96,62.05 11.89,33.64 24.16,67.56 28.12,103.23 1.65,21.51 20.52,37.08 19.72,59.17 -20.1,-6.51 -41.48,-6 -62.05,-9.96 2.31,-9.11 7.31,-16.98 13.64,-23.78 2.79,6.89 5.14,14.06 8.25,20.9 1.47,0.33 4.39,1.04 5.85,1.42 0.19,-11.66 -2.83,-22.84 -6.51,-33.69 3.63,-2.93 7.31,-5.81 10.95,-8.69 -3.35,0.71 -10.05,2.08 -13.4,2.79 -5.19,-14.72 -3.26,-33.4 -15.62,-44.59 1.27,18.97 5.71,37.51 9.86,56 -4.1,4.39 -8.21,8.78 -12.36,13.21 -4.15,-19.53 -4.48,-40.01 -12.13,-58.65 -2.92,20.57 6.42,40.67 3.91,60.91 -10.24,-13.21 -6.51,-35.2 -19.29,-48.45 0.47,21.05 7.88,40.91 13.3,61.01 -3.06,1.37 -9.15,4.2 -12.17,5.61 -0.57,-9.3 -0.99,-18.58 -1.18,-27.79l-7.36 -1.51c1.18,9.01 2.26,18.12 3.5,27.18 -19.35,4.58 -37.66,12.22 -53.56,24.3 -10.71,3.11 -20.42,9.86 -31.71,10.85 -16.13,-1.14 -31.89,-4.96 -48.07,-5.52 10.42,9.44 24.44,12.41 37.32,17.04l-1.89 5.33c31.9,-0.85 63.27,-7.78 93.76,-16.7 25.99,-10.34 55.48,-19.02 82.99,-9.3 19.91,6.84 19.63,32.98 36.14,43.88 19.15,12.03 33.36,32.61 56.81,36.95 56.57,13.83 126.02,5.38 164.05,-43.13 21.94,-21.42 31.47,-52.98 57.42,-70.59 17.55,-18.07 45.48,-24.91 56.19,-49.45 -9.63,7.6 -18.45,16.23 -28.64,23.12 7.31,-13.4 16.32,-25.81 22.93,-39.58 2.64,2.22 8.02,6.69 10.72,8.92 -2.22,-9.58 -4.58,-18.97 -6.84,-28.5 3.2,0.52 9.62,1.6 12.83,2.12 -3.82,-12.97 -18.92,-31.8 -3.96,-42.56 -2.55,-1.65 -7.74,-4.91 -10.34,-6.56 -1.32,-23.17 -6.65,-46.1 -14.48,-67.9 -0.52,-13.12 3.63,-26.89 10.57,-37.84 15.71,-14.72 36.33,-24.87 46.99,-44.49 6.65,-3.45 13.35,-6.85 20.06,-10.1 14.95,1.03 32.17,2.55 43.5,-9.39 40.67,-35.05 84.51,-77.05 88.94,-133.91 2.83,-12.97 -2.55,-25.71 -4.34,-38.41l-4.15 1.37c-0.05,-3.4 -0.14,-10.29 -0.19,-13.73 -18.45,-15.34 -31.71,-35.81 -49.78,-51.34 -29.77,-21.65 -55.4,-48.69 -76.02,-79.17 -10.95,-18.63 -35.38,-29.44 -34.58,-53.98 6.32,-14.39 12.78,-30.19 26.51,-39.02 6.23,-4.96 12.59,-10.05 16.89,-16.85 -1.89,-5.38 -3.68,-10.71 -5.52,-16.04 1.98,-8.11 12.03,-8.02 18.02,-11.51 0,-15.71 3.16,-32.88 -6.98,-46.33 -14.67,-30.39 -48.6,-42.6 -78.56,-52.18 -31,-7.84 -58.27,-39.59 -52.14,-72.66 4.62,-40.58 4.15,-85.78 -20.62,-120.32 -16.66,-17.03 -31.38,-37.79 -53.64,-47.8 -38.5,-10.42 -79.74,-16.98 -119.09,-7.17 -18.96,6.37 -38.78,9.06 -58.36,12.83 -19.2,3.58 -36.76,12.69 -55.72,17.27 -0.99,2.17 -3.02,6.51 -4.01,8.68 -7.46,2.22 -14.96,4.25 -22.46,6.33 -1.37,-47.42 -14.11,-93.14 -22.04,-139.52 -2.92,-46.71 -13.49,-92.52 -28.64,-136.68 -9.53,-38.22 -24.77,-74.55 -36.14,-112.16 -10.66,-23.07 -19.67,-47.23 -35.67,-67.38 -5.38,-11.56 -14.82,-20.38 -22.04,-30.71 -6.13,-9.49 -11.27,-19.77 -18.87,-28.27 -5,-4.91 -13.54,-3.49 -17.98,-9.06 -17.83,-22.32 -27.18,-50.58 -47.51,-71.01 -6.75,-7.55 -13.02,-15.52 -20.43,-22.46 -7.17,-2.69 -8.92,-9.2 -8.96,-16.33 -1.65,0.33 -5,0.99 -6.7,1.37 -12.41,-15.1 -33.5,-23.82 -37.51,-44.68 -11.42,-5.33 -21.94,-12.31 -32.5,-19.11 0.94,-2.32 2.83,-6.94 3.77,-9.25 -1.98,1.32 -5.99,3.96 -8.02,5.28 -6.98,-6.98 -14.49,-13.4 -21.14,-20.71 -25.95,-14.49 -48.08,-37.14 -78.56,-42.28zm-144.99 10.24c-14.72,7.73 -29.58,15.29 -43.65,24.3 -34.49,18.59 -72.43,29.58 -106.77,48.41 -20.48,15.52 -38.03,34.49 -57.66,51.06 -19.86,20.67 -49.07,28.54 -69.5,48.5 -14.77,16.71 -33.64,29.25 -47.28,47.05 -16.14,21.09 -42.23,30 -61.05,48.07 -41.76,38.97 -78.23,85.17 -99.6,138.44 -2.64,0.76 -7.84,2.17 -10.43,2.88 4.06,-18.88 9.72,-37.37 16.94,-55.3 3.06,-5.71 6.04,-11.42 8.82,-17.17 -7.31,3.3 -15.81,6.37 -16.52,16l-2.36 -0.71c-3.82,15.24 -6.84,30.71 -12.17,45.53 -2.83,11.89 -6.79,23.55 -8.36,35.72 -3.82,4.39 -7.73,8.68 -11.79,12.93 1.79,-0.51 5.37,-1.51 7.21,-1.98 -1.46,3.87 -4.34,11.61 -5.8,15.47 -2.12,1.23 -4.48,1.99 -7.03,2.27l-1.27 3.11c0.99,1.79 2.92,5.43 3.91,7.27 1.84,10.19 1.65,20.57 2.31,30.9 3.2,-6.61 5,-13.73 5.56,-21 2.64,-25.52 14.54,-48.64 19.59,-73.6 2.22,2.41 4.39,4.86 6.56,7.41 -2.36,24.25 -7.84,48.17 -16.47,71.01 -8.35,21.8 -11.28,45.48 -22.88,66.06 -12.83,27.51 -32.09,51.71 -41.47,80.87 -7.46,26.05 -17.94,51.53 -19.44,78.89 -1.27,26.62 -7.59,53.37 -3.02,79.93 -14.2,31.23 -11.09,65.77 -11.14,99.13 4.72,52.04 6.33,104.32 8.87,156.55 3.68,34.11 6.75,68.37 7.84,102.77 0.57,9.43 4.15,18.3 8.11,26.8l-5.33 -1.18c1.13,9.77 3.2,19.67 1.84,29.58 -4.43,30.2 -0.71,60.96 -6.94,90.97 -7.83,46.95 13.97,91.25 16.14,137.54 5.48,46.99 9.58,94.36 7.65,141.69 -1.66,24.11 4.1,47.89 9.81,71.15 1.23,28.69 16.37,53.93 25.72,80.44 2.97,25.62 21.09,45.67 29.58,69.36 7.36,20.53 19.58,38.73 28.78,58.41 -4.15,0.61 -8.35,1.03 -12.55,1.27 -21.05,-36.62 -45.82,-72.24 -57.05,-113.62 -3.83,-10.57 -4.77,-23.16 -14.3,-30.62 0.9,-2.26 2.69,-6.75 3.54,-9.01l-10.42 7.08c1.47,-4.43 4.48,-13.3 5.99,-17.74 -2.08,1.46 -6.23,4.39 -8.3,5.9 -1.13,-5.99 -2.31,-11.99 -3.54,-17.88 -5.76,-3.39 -11.47,-6.94 -17.18,-10.47 2.36,7.36 4.48,14.72 6.42,22.27 1.75,-1.28 5.29,-3.87 7.03,-5.14 -1.7,6.56 -3.35,13.16 -4.9,19.86l9.48 -7.13c-8.4,19.54 6.04,36.62 10.99,54.64 4.06,14.72 13.26,28.08 12.89,43.79 1.08,2.74 3.16,8.16 4.25,10.9 -7.69,-0.95 -15.33,-2.36 -22.7,-5 -44.92,-16.6 -92.81,-22.74 -138.06,-38.45 -60.82,-17.31 -120.27,-38.92 -178.78,-62.8 -52.84,-26.85 -106.3,-52.61 -159.43,-78.84 1.89,-12.83 13.97,0.14 20.57,-0.24 -0.85,-17.22 -8.92,-32.65 -23.5,-42.13 -11.99,11.09 -7.69,26.56 -3.26,40.25 -9.71,-4.43 -19.58,-8.49 -29.54,-12.37 2.31,-3.77 4.63,-7.54 6.89,-11.23 -3.87,-4.96 -7.78,-9.76 -12.03,-14.39 1.13,4.06 3.35,12.17 4.43,16.23 -4.53,3.07 -8.92,11.28 -14.82,2.5 -7.02,-11.09 -6.04,-26.04 -15.71,-35.91 -4.58,3.16 -8.82,6.84 -13.21,10.43 -3.25,-5.76 -6.56,-11.47 -9.81,-17.18 -20.67,11.7 -39.78,-10 -52.33,-24.3 34.77,8.49 67.56,23.22 101.87,33.21 -5.62,-4.15 -11.32,-8.21 -17.13,-12.07 7.98,1.84 15.9,3.68 23.88,5.33 -0.24,2.22 -0.76,6.56 -0.99,8.78 0.66,-2.22 2.03,-6.7 2.74,-8.92 26.09,6.75 52.37,12.84 78.75,18.35 7.93,0.9 16.71,4.39 24.11,-0.47 -2.64,-9.76 -13.87,-11.23 -21.65,-15.24 -21.66,-10 -45.48,-13.97 -67,-24.25 -42.66,-20.34 -88.56,-32.27 -131.69,-51.57 -36.95,-17.23 -77.05,-25.81 -114.51,-41.67 -7.22,-2.5 -14.72,-3.91 -22.18,-5.56 -47.47,-26.33 -101.58,-36.38 -152.68,-53.42 -36.99,-5.71 -62.1,-37.7 -98.85,-44.35 -2.26,2.08 -6.79,6.27 -9.01,8.35 -21.7,-8.25 -35.2,-28.4 -56.52,-36.9 -19.92,-11.18 -37.47,-28.07 -46.1,-49.59 -4.43,-3.58 -8.87,-7.21 -13.26,-10.9 35.76,11.09 70.21,25.86 106.07,36.62 63.65,23.31 129.57,40.2 192.22,66.06 29.35,7.36 56.48,20.76 85.21,29.82 72.76,24.06 145.99,46.95 216.66,76.77 59.64,19.72 119.28,44.35 183.16,44.44 -1.6,-3.54 -4.81,-10.52 -6.42,-14.01 7.31,0.57 14.54,1.75 21.85,1.37 -22.13,-11.37 -45.72,-19.3 -69.88,-25.1 -121.4,-30.29 -240.49,-68.84 -358.82,-109.28 -17.22,-6.46 -34.26,-14.01 -52.47,-17.22 -33.69,-6.23 -65.35,-20.05 -98.7,-27.51 -0.66,-4.2 -1.28,-8.4 -1.93,-12.51 8.21,-2.31 11.89,-9.01 14.35,-16.41 7.17,10.24 14.81,20.19 24.01,28.73 -1.18,-27.27 -19.82,-47.7 -35.67,-67.9 -6.28,-7.17 -12.7,-21.28 -23.93,-13.26 -6.84,-6.56 -13.26,-19.63 -23.4,-9.67 -5.24,-7.17 -10.72,-14.11 -16.33,-20.95 -3.35,0.76 -6.75,1.61 -10.19,2.45 -6.04,-5.28 -12.31,-10.28 -19.01,-14.77 9.81,21.51 25.57,39.96 36.57,61.01 -0.19,2.64 -0.66,8.02 -0.85,10.71 10.33,4.53 16.71,13.49 22.7,22.6 1.22,-1.98 3.77,-5.94 5.05,-7.88 8.59,12.45 18.49,23.92 28.16,35.53 -12.55,-2.31 -25.39,-4.06 -37.7,-7.69 -63.89,-18.73 -127.06,-39.68 -189.82,-61.85 23.92,-5.95 44.59,11.28 67.38,14.95 28.27,5.05 54.02,21.8 83.37,19.25 -5.42,-5.33 -10.52,-11.84 -18.17,-14.06 -23.59,-8.26 -46.9,-17.13 -70.26,-26.05 2.79,-1.7 8.31,-5.14 11.04,-6.89 -18.96,-18.54 -44.87,-26.04 -67.8,-38.26 -26.33,-13.64 -57.51,-21.56 -77,-45.34 -21.99,-6.18 -40.9,-19.53 -61.85,-28.26 -23.36,-11.89 -49.68,-15.38 -73.7,-25.48 19.21,-2.55 38.64,-3.16 57.71,-6.7 14.95,-4.06 33.83,8.16 43.22,-9.25 -3.45,-0.71 -10.29,-2.12 -13.73,-2.79 -0.52,-3.35 -1.66,-10.09 -2.22,-13.45 -4.39,-3.16 -8.73,-6.42 -13.03,-9.71 5.57,-20.81 26.62,-28.12 45.34,-32.56 3.92,-5.38 7.74,-10.76 11.47,-16.18 -11.98,0.28 -24.01,-0.71 -35.67,-3.63 -2.41,-7.93 -5.66,-15.52 -7.36,-23.64 11.55,-25.34 37.84,-38.22 58.22,-55.34 23.17,-13.03 45.58,-29.87 72.47,-33.83 -9.25,12.17 -20.57,22.65 -30.25,34.58 -12.45,15.81 -30.43,25.72 -44.07,40.44 3.77,0.18 11.28,0.66 15.05,0.89 34.63,-10.9 57.61,-41.75 90.5,-56.19 17.31,-6.27 30.24,-19.72 45.63,-29.21 46.66,-25.62 79.92,-68.51 120.93,-101.58 11.8,-14.72 31.04,-18.35 44.55,-30.63 37.13,-30.29 69.97,-65.39 105.83,-97.2 25.71,-21.51 50.48,-44.21 74.97,-67.14 18.54,-17.83 42,-29.96 58.04,-50.44 50.11,-46.42 101.44,-92.1 158.96,-129.28 26.7,-20.76 57.37,-35.53 83.61,-56.95 20.14,-16.94 43.88,-28.64 65.21,-43.88 33.59,-27.7 72.8,-47.37 110.26,-69.21 36.52,-15.52 70.86,-36.19 109.18,-47.09 30.38,-9.63 56.75,-28.5 86.95,-38.55 32.37,-11.51 66.29,-18.02 98.47,-30.15 19.11,-7.27 40.21,-5.48 59.64,-11.47 39.5,-11.94 75.54,-34.73 116.82,-40.77 59.36,-8.25 114.38,-34.16 173.45,-43.6 25.85,-3.87 51.62,-8.49 77.66,-10.19 26.94,-2.03 53.18,-9.25 80.12,-10.57zm211.14 74.78c26.81,14.68 45.07,39.97 68.23,59.22 16.42,16.85 37.51,28.22 53.56,45.44 13.68,14.87 24.16,32.37 38.5,46.67 13.49,12.93 25.14,28.35 43.13,35.48 9.9,19.29 21.8,37.65 34.58,55.16 4.01,8.91 8.92,17.41 12.88,26.37 13.41,44.3 30.91,87.47 39.35,133.15 1.93,15 9.91,28.21 13.3,42.89 7.41,22.93 9.15,47.13 9.34,71.1 1.84,26.76 9.06,53.04 8.07,80.07 -2.88,28.78 5.9,56.95 6.79,85.68 9.57,58.88 11.09,118.57 10.09,178.07 5.38,31.52 -3.07,63.09 1.22,94.65 -1.37,61.95 -21.46,121.69 -25.52,183.45 -0.8,38.17 -7.46,75.97 -8.26,114.19 0.14,32.55 -5.85,64.59 -14.77,95.78 -10.15,-4.29 -20.24,-8.78 -30.63,-12.36 2.18,-0.9 6.47,-2.64 8.64,-3.5 7.5,1.94 13.4,7.41 20,11.09 0.09,-4.62 0.19,-13.91 0.24,-18.54 -11.09,-5.76 -22.7,-10.24 -34.16,-15.01 -0.71,5.85 -2.17,12.03 1.89,17.23 1.03,3.25 -0.09,5.94 -3.3,8.02 -0.8,2.79 -2.46,8.36 -3.31,11.09 4.91,0.8 9.77,1.65 14.68,2.55l-0.52 -7.31c8.78,5.24 17.65,10.38 26.66,15.15 -13.4,28.21 -15.85,60.11 -26.7,89.27 -15.15,33.12 -29.49,66.72 -48.08,98.14 -19.72,31.28 -29.16,67.61 -45.96,100.45 -27.79,47.75 -54.82,96.77 -93,137.31 -39.54,35.24 -76.06,76.29 -125.31,98.23 -31.42,10.34 -59.93,27.27 -90.21,40.29 -29.21,8.4 -59.17,13.83 -88.71,21 -37.6,2.41 -75.35,-2.17 -113.05,0 -30.81,4.34 -54.35,-20.43 -83.47,-25.2 -22.08,-10.71 -40.72,-27.69 -61.81,-40.29 18.54,-0.19 37.09,0.33 55.63,-0.43 40.91,-1.22 76.96,26.43 118.09,22.32 38.32,-4.25 71.06,-25.99 104.18,-43.73 46.53,-17.88 94.18,-35.77 133.72,-67 18.83,-17.69 32.56,-39.77 47.89,-60.34 24.63,-31.28 44.87,-65.73 65.58,-99.7 22.88,-44.44 33.64,-94.36 36.62,-144 2.64,-43.74 13.3,-87.66 5.85,-131.5 -4.06,-22.79 -19.39,-40.86 -31.71,-59.69 -27.6,-43.69 -62.23,-83.7 -80.11,-132.91 3.91,1.09 11.75,3.31 15.66,4.39 22.36,4.58 29.02,29.92 46.8,41.57 10.71,5.99 8.07,19.34 12.93,28.87 33.64,31 53.18,77.19 95.97,97.95 15,5.04 34.02,13.64 47.99,1.79 22.27,-19.48 27.6,-50.11 35.76,-77.1 18.21,-67.23 35.67,-137.39 23.78,-207.37 -10.14,-47.42 -1.98,-95.88 5.57,-143.01 9.63,17.32 12.74,36.9 20.34,54.97 12.78,1.37 26.8,8.07 38.64,-0.09 -19.63,-8.07 -50.3,-9.3 -50.3,-38.03l13.26 9.67c-4.25,-3.91 -8.54,-7.83 -13.12,-11.37 -1.51,-7.4 -4.06,-14.43 -8.3,-20.66 1.22,-1.23 3.77,-3.68 5,-4.86l-5.42 1.93c-0.47,-32.8 3.3,-65.39 4.43,-98.14 -1.14,-79.13 -2.93,-158.91 -21.66,-236.19 -7.02,-28.03 -0.8,-56.95 -4.48,-85.26 -6.46,-39.31 -14.39,-78.56 -28.78,-115.79 -9.49,-25.62 -10,-56.43 -30.57,-76.54 0.05,33.27 22.22,60.97 24.01,93.76 2.03,30.67 14.68,59.07 19.21,89.27 5.75,34.34 -1.51,69.31 3.87,103.71 6.56,48.69 17.22,97.01 19.02,146.26 0,36.52 0.8,73.09 -0.47,109.61 -4.16,38.78 -5.38,77.85 -9.34,116.63 -6.89,38.74 -6.79,78.56 0.56,117.2 9.82,61.05 -5.14,122.2 -21.13,180.8 -5.8,22.51 -9.39,45.96 -19.82,66.95 -6.14,13.3 -22.17,12.08 -34.3,14.96 -27.22,-13.35 -44.07,-39.02 -65.87,-58.88 -21,-22.6 -27.18,-55.44 -52.42,-74.45 -21.32,-23.17 -47.47,-42.98 -79.13,-48.51 -8.92,-2.22 -15.57,4.29 -20.38,10.72 11.7,10.8 22.36,23.35 27.79,38.55 8.59,25.76 29.16,44.63 40.91,68.79 19.58,21.05 38.03,43.31 54.07,67.23 17.88,31.42 11.75,68.89 8.92,103.15 -5.43,47.32 -6.23,95.78 -21.51,141.4 -19.92,68.8 -67.19,124.42 -110.51,179.72 -36.28,45.48 -94.74,61.05 -145.32,84.83 -37.14,12.46 -68.37,41.52 -108.66,44.17 -32.75,1.79 -62.28,-15.29 -94.04,-20.19 -30.86,-7.98 -64.5,3.16 -93.8,-11.75 -23.03,-9.72 -46.48,-24.07 -55.87,-48.55 1.23,-1.18 3.68,-3.58 4.91,-4.77 -13.64,-7.88 -10.38,-23.68 -9.76,-36.89 -8.78,-9.49 4.62,-15.95 3.58,-25.72 0.76,-26.75 -1.27,-53.83 4.29,-80.25 6.04,-10.95 16.04,-18.88 23.03,-29.07 10.33,-13.87 16.28,-30.43 26.23,-44.54 10.9,-11.7 22.36,-22.93 34.68,-33.12 34.87,20.1 68.37,52.14 111.45,48.74 5.33,-19.06 4.39,-38.69 1.32,-58.03 -11.99,-14.87 -24.72,-29.44 -40.1,-40.96 -18.64,-5.29 -30.48,18.26 -47.66,13.87 -17.79,-11.94 -28.59,-35.49 -52.28,-37.04 -19.25,5.19 -27.89,26.14 -38.17,41.38 -3.31,11.23 -7.31,22.17 -10.28,33.55 -17.37,17.08 -26.33,40.43 -43.41,57.61 -2.36,11.84 -5.43,23.59 -9.58,35.01 -9.2,9.86 -20.34,22.98 -35.29,14.82 -24.54,-14.25 -27.6,-46.76 -29.3,-72.33 -5.38,-22.6 -6.71,-45.91 -4.77,-69.03l-8.92 0.43c2.26,-0.47 6.75,-1.41 9.01,-1.93 0.94,-22.93 0.61,-45.86 1.13,-68.8 -2.45,-0.24 -7.41,-0.66 -9.9,-0.85 2.45,-0.18 7.31,-0.61 9.76,-0.8 0.71,-48.6 5.85,-97.1 3.59,-145.75 -3.87,0.14 -11.61,0.38 -15.53,0.47 5.38,-1.93 10.76,-3.68 16.23,-5.19 2.6,-29.44 -2.17,-58.51 -6.61,-87.43 6.65,-24.11 8.02,-49.12 5,-73.89 -3.3,2.22 -9.91,6.65 -13.21,8.87 -1.23,0.33 -3.73,0.9 -4.96,1.18 -1.98,10.72 -5.19,21.09 -7.17,31.85 -3.02,6.32 -3.02,13.4 -3.49,20.29l5.42 -1.6c-0.89,9.34 0.38,18.78 4.02,27.51 -4.35,32.69 -1.7,65.54 3.63,97.95 1.65,-0.51 4.91,-1.55 6.51,-2.08 -9.77,6.84 -5.71,14.25 1.27,20.95 -2.73,0.28 -8.16,0.9 -10.9,1.18 1.23,8.4 2.55,17.17 9.91,22.46 -1.65,-0.19 -4.91,-0.57 -6.51,-0.76 -3.02,20.38 -3.91,41 -4.58,61.62 3.02,-0.8 9.06,-2.41 12.07,-3.21 -3.73,3.35 -7.54,6.79 -11.13,10.43 4.85,32.93 -3.83,65.96 -1.14,98.85 7.27,24.91 9.2,51 7.17,76.86 15.66,21.8 16.37,57.28 46.61,65.68 -10.09,7.46 -22.03,11.47 -34.73,10.05 -14.01,-25.71 -27.41,-51.95 -37.18,-79.6 -4.96,-21.94 -15.38,-42.08 -20.81,-63.88 -11.99,-38.22 -9.11,-78.75 -14.62,-118.05 -5.1,-30.44 -1.47,-61.34 1.46,-91.77 9.25,-102.91 7.13,-206.33 1.03,-309.29 -6.94,-34.11 -10.33,-68.79 -12.74,-103.47 0.24,-37.93 -0.09,-75.87 -3.77,-113.62 2.26,-26.99 5,-54.07 12.36,-80.16 8.45,-29.49 10.01,-60.44 19.16,-89.69 4.29,-16.75 15,-30.96 19.53,-47.61 11.51,-41.43 25.62,-82.29 44.45,-120.98 28.78,-47.75 36.37,-106.11 71.48,-150.42 13.45,-16.47 24.06,-35.53 40.72,-49.12 19.16,-15.66 35.29,-35.39 58.32,-45.67 23.78,-11.18 38.17,-34.02 57.99,-50.3 16.41,-13.49 29.11,-31.04 46.9,-42.94 36.19,-26.14 63.41,-63.32 101.68,-86.58 23.03,-8.49 45.34,-18.77 65.25,-33.21 24.06,-18.26 53.69,-26.37 83.09,-30.76 0.9,7.07 1.23,14.2 1.7,21.32 1.98,-7.78 3.5,-15.66 4.06,-23.63 44.73,-2.41 91.77,5.71 129.04,31.79zm-1501.78 31.1c-3.45,13.16 -5.57,26.7 -9.96,39.63 -5,12.84 -19.2,20.9 -19.96,35.49 -2.17,14.2 -2.31,30.29 -14.86,39.87 -8.55,-16 -20.15,-31.38 -21.9,-49.97 -1.84,-17.93 -9.38,-34.4 -17.31,-50.35 26.37,-12.03 54.88,-18.82 83.99,-14.67zm-102.96 50.81c11.42,30.63 17.32,63.6 34.87,91.63 17.88,31.04 28.03,65.44 36.24,100.12 -5.38,-2.31 -10.8,-4.62 -16.23,-6.93 -5.85,-6.23 -10.85,-13.31 -17.36,-18.92 -47.32,-22.74 -96.77,-42.23 -139.19,-73.85 0,-3.16 0.05,-9.53 0.05,-12.69 7.55,-10.19 15.62,-20 24.58,-28.92 6.42,19.34 4.49,40.77 12.32,59.59 2.97,-23.07 -6.04,-45.39 -5,-68.32 2.83,-7.17 8.82,-12.46 13.45,-18.35 4.25,24.06 3.54,49.21 11.56,72.52 0.43,-24.72 -7.31,-48.6 -8.4,-73.23 5.47,-9.71 13.59,-17.65 20.95,-25.85 11.93,19.91 5.14,45.01 10.42,66.95 3.4,-23.36 -0.14,-47.89 -6.84,-70.49 10.29,-4.72 19.34,3.4 28.59,6.75zm-148.25 156.13c27.22,6.79 55.02,10.15 83.04,8.5 33.17,10.71 61.48,34.49 82.1,62.18 -16.14,-2.45 -31.09,-9.2 -46.05,-15.38 -27.79,-11.32 -58.17,-14.63 -85.83,-26.47 -20.81,-8.49 -42.37,-15.05 -64.07,-20.8 9.71,-4.25 19.67,-12.03 30.81,-8.02zm-92.48 17.69c21.7,1.28 45.2,-6.04 65.21,5.38 12.13,6.27 25.62,8.16 38.97,9.49 40.34,14.58 79.88,31.14 121.07,43.17 7.17,11.32 16.66,20.38 29.73,24.34 21.38,5.52 36.14,24.77 43.08,44.73 5.24,26.99 19.25,51.9 18.73,80.07 -39.68,26.42 -77.19,55.82 -115.79,83.8 -36.24,28.02 -74.64,53.12 -110.83,81.3 -66.76,28.4 -116.3,85.12 -180.38,118.52 -6.32,-18.4 -20.19,-32.65 -31.19,-48.26 -54.83,-49.55 -116.26,-90.92 -174.1,-136.69 -27.98,-15.19 -59.97,-19.25 -90.69,-25.67 -28.36,-11.28 -56.71,-22.74 -86.01,-31.42 21.84,-0.33 43.6,0.71 64.03,9.15 24.06,1.47 46.24,10.62 69.59,15.29 2.45,-5.94 11.7,-12.74 4.39,-18.4 -18.07,-24.68 -41.85,-44.02 -63.51,-65.31 -12.74,-14.2 -23.87,-29.81 -36.19,-44.44 25.34,13.35 45.01,34.49 67.85,51.06 20.34,8.4 23.36,32.46 37.13,47.28 17.79,18.63 33.08,40.15 54.4,55.01 9.49,3.21 21.8,10.86 30.2,1.23 10.52,7.4 9.82,21.56 17.65,30.81 18.45,19.82 39.96,36.33 61.39,52.8 26.47,25.34 50.87,53.64 82.24,73.22 5,3.92 11.28,1.85 16.65,0.47 -13.73,-14.34 -31.19,-24.25 -45.63,-37.79 -27.93,-24.16 -50.01,-54.64 -80.73,-75.59 -14.2,-9.06 -24.82,-22.51 -38.93,-31.66 -0.61,-4.39 -1.22,-8.73 -1.84,-13.07 -2.55,0.09 -7.59,0.33 -10.14,0.47 6.61,-22.41 -4.96,-45.48 -1.37,-68.42 -0.09,-18.96 17.08,-37.18 7.84,-55.77 -9.58,13.59 -11.28,30.81 -18.78,45.53 -22.41,-22.7 -46.52,-43.55 -70.82,-64.12 6.79,18.92 25.33,28.36 38.45,42.27 9.67,9.06 17.89,20.81 31.34,24.54 -0.8,3.44 -2.45,10.33 -3.26,13.72 2.55,18.26 2.26,36.76 3.82,55.11 -17.88,-8.59 -32.46,-22.27 -44.92,-37.41 -25.57,-26.57 -46.95,-56.9 -73.89,-82.24 -12.69,-13.87 -28.08,-25.15 -39.73,-40.01 21.61,6.42 36.42,32.55 61.24,24.11 -12.41,-11.99 -26.42,-22.08 -41.04,-31.19 8.87,-5.48 18.07,-10.42 27.13,-15.52 8.73,6.51 17.31,13.16 26.04,19.67l3.31 -7.08c0.09,2.03 0.28,6 0.37,7.98 23.36,6.27 41.95,22.41 63.98,31.14 5.62,5.19 11.75,9.77 18.92,12.55 -7.03,-11.89 -18.12,-20.75 -24.44,-33.12 -17.04,-12.59 -33.51,-26.7 -45.53,-44.3 20.62,-7.22 42.37,-10.48 62.8,-18.26 25.67,-8.96 48.27,-24.82 69.12,-41.95 6.14,-0.38 12.27,-0.76 18.35,-1.08 21.52,14.95 44.12,30.43 58.04,53.12 -35.82,-0.43 -71.2,-10.28 -107.11,-7.31 8.16,3.45 16.52,6.79 25.43,7.41 30.62,3.59 60.91,9.86 91.67,11.61 11.61,-0.43 4.81,-13.73 1.6,-19.16 -14.86,-27.18 -43.78,-41.09 -65.3,-62.04 21.71,7.65 40.2,22.13 56.71,37.79 13.3,16.71 23.26,36.09 38.69,51.1 19.11,18.87 33.5,41.71 52.23,60.96 10.47,16.09 29.68,35.67 49.59,21.32 3.12,-18.02 6.13,-36.14 7.36,-54.4 -4.15,0.09 -8.35,0.14 -12.6,0.24 0.09,5.38 0.28,16.14 0.43,21.52 -0.89,-5.52 -1.74,-10.99 -2.45,-16.47 5.14,-17.41 3.26,-35.95 -3.39,-52.71 -18.69,10.62 -6.89,32.09 -10.9,48.84 1.7,12.5 3.16,25.1 2.36,37.79 -22.98,-21.75 -43.17,-46.19 -66.15,-68.04 3.58,-20.05 -7.69,-39.07 -5.48,-59.03 5.33,-13.87 14.39,-26.66 12.27,-42.32 -2.83,3.49 -5.71,6.94 -8.63,10.42 -1.85,6.19 -3.78,12.46 -5.76,18.69 -2.26,-4.86 -6.75,-14.63 -9.01,-19.53 -0.89,25.62 -2.64,52 5.33,76.81 -19.67,-20.67 -33.5,-47.23 -58.18,-62.85 -12.03,-8.97 -26.42,-13.5 -40.34,-18.69 -4.62,-5.19 3.21,-8.73 5.81,-12.46 13.45,-13.83 33.83,-25.1 53.36,-17.93 35.53,10.57 71.68,21.42 109.14,19.86zm-447.24 186.9c16.47,17.17 34.35,33.03 54.17,46.33 -1.28,-4.15 -3.73,-12.45 -4.96,-16.6 7.65,8.44 15.9,16.23 23.83,24.34l-3.07 5.29c-12.55,-2.45 -27.93,-1.94 -38.08,-10.24 -9.86,-25.72 -37.04,-37.84 -50.91,-60.72 7.17,2.36 14.06,5.8 19.02,11.61zm6.61 45.81c0,-3.87 0.05,-11.61 0.09,-15.43 4.15,6 18.02,8.78 15.19,17.88 -19.39,3.73 -39.91,-0.66 -59.82,0.95 1.93,-9.3 3.82,-18.54 5.56,-27.79 11.94,9.82 26.1,16.04 38.97,24.39zm15.33 47.52c-1.6,1.22 -4.81,3.63 -6.37,4.85 8.82,6.98 18.17,13.45 25.66,21.85 25.53,35.01 67.57,51.62 96.4,83.37 -5.99,-2.22 -12.69,-3.02 -18.12,-6.7 -23.31,-20.43 -48.32,-38.97 -71.3,-59.88 -20.29,-16.52 -37.37,-39.06 -63.41,-46.61 6.89,7.45 14.2,14.43 20.94,22.03 -18.02,-8.73 -31.14,-24.2 -40.01,-41.85 18.78,7.54 36.8,16.89 56.19,22.93zm125.79 92.19l-8.25 -16.66c12.41,9.06 24.3,19.02 37.98,26.23 -18.92,-21.04 -39.68,-40.34 -59.87,-60.11 -6.89,-5.38 -13.35,-11.32 -19.77,-17.31 15.58,2.31 29.07,10.42 40.82,20.48 -5.33,-2.22 -16,-6.7 -21.33,-8.92 19.72,22.78 44.87,40.39 69.31,57.7 15.85,6.75 29.35,17.27 42.7,27.89 -0.47,-3.02 -1.37,-9.11 -1.84,-12.13 14.72,7.08 23.45,20.86 34.54,32.04 10.28,10.85 25.81,14.06 36.62,24.2 11.84,10.76 25.01,19.96 36.57,30.9 4.15,10.48 -4.35,20.38 -14.87,21.05 -17.46,2.5 -28.78,16.94 -43.03,25.81 -2.6,-12.65 -9.34,-24.02 -15.85,-35.01 -20.86,-21.94 -46.19,-39.87 -62.94,-65.44 -13.78,-14.91 -33.21,-23.45 -51.19,-32.41 -16.18,-21.71 -39.07,-37.14 -58.04,-56.25 -14.29,-14.81 -32.88,-25.14 -45.34,-41.66 37.89,21.75 67.19,55.72 103.8,79.6zm-30.95 -35.39c-17.22,-10.9 -33.59,-23.68 -46.71,-39.39 19.29,7.97 33.17,24.16 46.71,39.39zm2793.78 62.52c-1.08,6.23 -2.08,12.5 -2.97,18.82 -5.47,-6.65 -10.95,-13.26 -16.7,-19.63 0.8,3.16 2.31,9.44 3.11,12.59 -3.3,-0.05 -9.86,-0.09 -13.12,-0.09 -0.8,16.42 15.1,26.38 23.17,38.93 9.34,14.11 26.37,22.79 30.71,40.02 -2.03,-0.05 -6.13,-0.14 -8.16,-0.24 -14.77,-20.53 -30.15,-40.67 -44.3,-61.58l-6.04 -0.33 -1.27 5.99c6.13,24.07 26.51,40.77 42.37,58.79 -4.01,1.85 -7.97,3.78 -11.99,5.67 -6.98,-17.6 -19.63,-32.18 -33.92,-44.3 3.92,18.44 11.99,35.72 23.17,50.86 -7.17,4.81 -14.29,9.82 -21.75,14.3 1.08,3.11 2.08,6.18 3.11,9.34 17.23,-11.13 33.32,-24.96 53.18,-31.09 11.42,-2.97 22.93,-5.61 34.26,-8.82 -3.45,-3.87 -10.34,-11.61 -13.78,-15.47 3.25,2.83 9.76,8.44 13.02,11.28 -0.66,-3.73 -1.89,-11.13 -2.55,-14.86 7.17,6.61 15.24,12.07 23.31,17.46 -0.85,1.46 -2.5,4.34 -3.35,5.8 -13.83,0.52 -28.87,-0.47 -40.53,8.4 -10.95,7.88 -23.92,11.43 -36.8,14.72 -16.04,8.78 -26.99,29.3 -47.89,27.04 4.01,-2.74 12.07,-8.25 16.09,-10.99 -3.16,-1.89 -6.28,-3.68 -9.49,-5.48 -15.19,10.38 -22.88,28.27 -38.45,38.22 -15.29,10.43 -28.5,23.41 -40.62,37.33 0.47,1.27 1.46,3.77 1.93,5.05 4.06,-2.64 8.07,-5.24 12.03,-7.84 17.6,-18.02 36.66,-34.45 57.18,-49.02 24.11,4.77 47.99,10.57 71.2,18.78 -22.03,-2.41 -45.77,-3.68 -66.06,6.93 -16.8,9.02 -31.8,21.47 -43.27,36.76 -13.45,18.02 -35.29,27.27 -48.78,45.34 -11.66,16.56 -29.02,30.44 -31.8,51.76 10.95,2.79 21.56,6.98 30.34,14.25 -25.67,-2.79 -51.43,-3.68 -76.96,1.46 -5,3.87 -10.57,9.86 -17.42,9.25 -5.05,-6.51 0.85,-15.19 1.14,-22.32 2.41,-8.63 13.4,-11.04 17.12,-18.88 -0.9,-10.28 -10.24,2.22 -14.95,2.83 1.55,-49.83 7.31,-99.51 4.29,-149.38 0.05,-41.28 -8.87,-81.72 -12.65,-122.67 13.97,-4.67 28.36,-7.88 42.98,-9.53 4.67,27.13 15.76,52.94 17.7,80.63 0.94,15.38 4.62,30.44 8.78,45.3 -2.45,1.84 -4.96,3.73 -7.46,5.67 5.9,6.7 12.08,13.68 14.01,22.74 -3.02,-3.87 -9.15,-11.65 -12.18,-15.52 -2.22,4.43 -4.25,8.96 -6.27,13.59 -4.67,-7.26 -9.49,-14.39 -14.35,-21.46 10.43,-3.45 3.92,-13.26 5.52,-20.81l7.92 17.98c2.36,-5.9 5.76,-11.84 4.67,-18.35 -7.92,-13.16 -17.6,-25.15 -27.93,-36.43 4.06,12.13 7.78,24.35 11.32,36.62 -2.83,-0.14 -8.55,-0.52 -11.37,-0.66l10 13.64c-3.44,-0.19 -10.28,-0.61 -13.68,-0.8 6.38,9.82 13.26,19.25 19.91,28.92l-15.75 -5.99c12.22,15.05 22.83,31.28 32.65,47.98 3.49,0.71 10.52,2.03 14.06,2.74 -3.82,10.1 -8.21,20 -12.79,29.87 -1.79,-3.12 -3.63,-6.18 -5.47,-9.2 2.08,-1.7 6.23,-5.1 8.3,-6.75 -17.31,-21.38 -29.06,-48.08 -51.24,-64.97 4.01,12.22 15.62,21.61 15.43,35.05 -0.76,9.82 6.7,17.04 11.84,24.49 -0.9,3.59 -2.79,10.72 -3.73,14.3 5.61,-2.64 21.37,6.89 12.41,12.37 -8.02,3.87 -3.87,13.45 -2.6,19.91 -8.49,-15.47 -17.03,-31.99 -32.23,-41.9 1.23,3.68 3.68,11 4.91,14.68 -0.8,8.16 2.03,15.38 7.46,21.46 1.46,1.04 4.48,3.07 5.99,4.06 4.34,7.02 5.95,14.58 1.28,21.94 -0.28,-3.58 -0.8,-10.76 -1.09,-14.39 -3.58,-2.97 -10.85,-8.92 -14.48,-11.93 -0.85,9.43 -1.28,19.58 3.02,28.35 3.26,3.68 6.46,7.46 9.58,11.28 29.68,-27.27 50.01,-64.45 57.99,-103.85 -7.88,-39.91 -27.18,-78.56 -23.49,-120.22 6.65,19.91 4.25,41.24 9.49,61.43 2.41,3.07 4.81,6.18 7.21,9.34 3.92,13.07 12.98,24.39 14.25,38.31 -0.09,12.93 -1.93,25.76 -2.03,38.74 11.99,-3.12 9.15,-16.85 11.32,-25.95 4.25,-21.75 -7.27,-41.75 -15.62,-60.96 -7.84,-15.52 -8.68,-33.12 -11.37,-49.97 -1.79,-19.15 -17.04,-33.64 -18.88,-52.84 0.19,-10.15 -8.78,-14.3 -15.85,-19.21 19.4,-8.92 40.72,-11.51 61.48,-15.52 29.82,-5.38 59.5,-15.14 90.17,-12.55 14.82,2.64 28.64,9.1 43.03,13.45zm-2946.8 131.31c20.34,14.62 45.67,25.33 57.37,48.97 -30.38,-2.88 -60.3,-9.72 -90.73,-12.13 12.31,15.33 33.64,14.2 49.45,23.93 21.51,13.4 47.89,5.94 71.43,11.6 19.86,5.14 40.39,7.22 60.68,9.3 47.42,-5.8 95.69,1.37 142.3,-11.37 -11.56,22.46 -33.78,36.38 -47.51,57.23 -1.89,2.17 -5.61,6.51 -7.5,8.68 6.56,9.01 16.75,14.16 25.52,20.53 -1.84,2.97 -5.61,8.92 -7.5,11.89 -2.36,0.85 -7.13,2.5 -9.49,3.3 -2.97,7.03 -5.94,14.01 -8.92,21.09 3.54,-0.38 10.61,-1.13 14.2,-1.51 -2.6,3.63 -5.14,7.31 -7.79,10.99 -24.25,7.08 -48.74,16.28 -74.45,14.49 -23.74,3.49 -47.51,6.88 -71.62,5.9 -3.45,2.31 -10.34,6.84 -13.83,9.11 7.59,6.08 14.95,12.55 21.37,19.86 19.59,-0.66 40.16,1.51 56.29,13.59 25.39,1.84 45.63,18.92 65.49,33.03 -21.04,-0.75 -42.79,-1.7 -63.13,4.96 -24.49,9.91 -45.67,27.51 -72.14,32.46 -31.42,6.27 -60.16,21 -89.55,33.26 -16.89,9.06 -27.65,27.65 -47.37,31.85 -30.25,10.52 -70.92,21.94 -94.93,-6.61 -1.51,-23.55 -0.52,-47.28 -4.01,-70.68 14.2,-39.39 7.73,-81.11 9.86,-121.92 12.46,1.37 24.02,6.98 31.52,17.18 3.83,11.89 3.16,25.38 9.77,36.43 5.52,8.54 12.45,16.04 17.93,24.63 4.1,11.37 5.14,23.63 8.63,35.29 1.74,-9.3 2.64,-18.73 3.91,-28.03 7.27,-19.06 -5.04,-38.6 -0.23,-57.99 7.17,-31.99 -20.11,-56.24 -34.4,-81.82 -16.66,-10.85 -32.51,-23.21 -51.52,-30 -13.5,-12.32 -32.51,-22.88 -39.64,-39.35 2.17,-1.89 6.51,-5.62 8.68,-7.5 13.35,5.81 25.29,14.68 39.64,18.02 -10.1,-11.37 -22.98,-19.67 -33.55,-30.52 -5.9,6.27 -9.44,18.21 -20.11,16.18 -5.8,-2.41 -10.52,-6.75 -15.66,-10.34 -2.45,-7.13 -5.19,-14.2 -8.11,-21.13 11.23,-23.07 35.76,-33.27 53.5,-50.16 0.14,-1.98 0.47,-6 0.62,-8.02 0.95,1.79 2.88,5.33 3.82,7.08 9.3,-3.68 18.35,-7.69 26.14,-13.92 12.88,-3.63 25.62,-8.07 38.97,-9.3 35.15,-2.4 66.86,14.96 96.58,31.48zm3024.51 -18.4c-8.63,0 -17.23,-0.62 -25.72,-1.84 1.28,10.38 0.71,20.9 1.6,31.33 3.92,10.95 9.63,21.28 12.46,32.69 -30.63,-8.96 -59.07,-24.96 -91.21,-28.97 10.19,-8.25 19.73,-19.15 33.55,-20.81 13.97,-1.08 23.45,-12.07 35.53,-17.55 11.28,-2.31 25.81,-5.85 33.78,5.14zm-2662.14 -5.19c-10.57,8.4 -22.51,14.95 -34.82,20.48 9.25,-10.38 19.34,-22.32 34.82,-20.48zm2589.91 74.12c8.49,20.62 21.51,39.16 37.32,54.88 12.88,12.55 17.88,30.71 30.25,43.74 -3.96,-15.85 -12.88,-29.82 -18.17,-45.16 13.35,10.67 19.06,27.51 31.23,39.26 -2.31,-13.59 -9.39,-25.48 -14.91,-37.84 12.17,10.8 21.28,24.34 32.13,36.38 0,-22.93 -18.87,-39.21 -28.16,-58.79 9.3,9.9 17.93,20.85 30.15,27.37 11.74,12.07 21.28,25.9 30.29,40.1 -1.6,-8.82 -3.39,-17.65 -4.58,-26.47 6.75,11.18 13.3,22.84 23.88,31 -2.36,-7.79 -5.05,-15.43 -8.07,-22.88 5.38,2.74 16.09,8.21 21.47,10.95 -2.17,-6.51 -4.39,-12.97 -6.7,-19.34 6.75,3.11 13.45,6.42 20.29,9.39 -0.71,1.89 -2.12,5.71 -2.83,7.64 4.1,-0.05 12.37,-0.05 16.47,-0.05 6.04,11.7 8.35,24.91 4.43,37.75 -9.91,5.8 -21.52,8.02 -24.96,-6.23 -9.49,27.79 -42.51,8.78 -63.04,16.18 -26,7.46 -52.85,0.66 -79.27,3.07 17.79,12.88 40.62,8.54 61.05,11.61 23.78,3.25 47.47,-1.09 71.24,-0.9 3.87,7.55 7.98,15.01 12.27,22.36 -2.97,-0.99 -8.96,-2.88 -11.94,-3.87 -0.47,21.89 -21.38,37.98 -18.26,60.53 3.02,19.48 14.11,37.42 12.64,57.76 -4.67,-12.32 -9.05,-24.82 -16.37,-35.82 3.58,35.01 13.07,70.07 36.47,97.34 -3.02,0.33 -9.06,0.9 -12.08,1.23 -9.82,-22.36 -17.55,-45.53 -26.99,-67.99 -2.83,-8.63 -7.17,-16.71 -14.91,-21.8 6.7,25.58 13.82,51.2 24.95,75.31 2.93,4.25 5.71,8.54 8.45,12.97 -2.31,-1.08 -6.89,-3.2 -9.2,-4.29 -9.06,-15.66 -14.63,-33.26 -25.91,-47.7 -0.38,18.45 9.34,34.45 16.47,50.77 -19.63,-1.28 -39.35,-0.9 -59.03,-0.57 5.29,-8.25 10.42,-16.56 15.57,-24.82 5.24,5.71 5.29,19.86 14.77,19.49 1.7,-1.75 5.09,-5.24 6.84,-6.98 4.95,2.78 9.95,5.52 14.95,8.3 -4.01,-16.89 -10.05,-34.07 -23.31,-46.01 -0.19,4.06 -0.57,12.18 -0.75,16.28 -1.7,-0.85 -5.19,-2.5 -6.94,-3.35 13.21,-33.64 9.86,-70.63 13.3,-105.98 -6.51,0.8 -13.02,1.51 -19.59,2.32 -11.51,33.4 -12.36,69.17 -21.84,102.95 -13.02,28.03 -45.44,36.33 -72,46.15 -1.22,-2.5 -3.73,-7.55 -5,-10.05l0.8 9.34c-27.27,-2.17 -52,11.51 -78.7,14.16 -27.51,3.2 -53.84,12.69 -81.39,15.43 -19.06,-1.42 -38.36,3.02 -55.92,10.19 9.3,1.56 18.54,3.35 27.65,5.95 13.73,-3.5 27.98,-4.43 41.67,-8.07 36.47,-9.9 75.44,-8.02 110.93,-21.99 17.12,-7.6 36.47,-1.42 54.17,-6.51 21.8,-6.61 42.32,-17.18 60.11,-31.42 -4.77,8.59 -10.28,16.7 -15.95,24.72 1.93,0.05 5.81,0.14 7.74,0.19 18.59,-6.19 39.06,3.02 58.55,1.37 32.6,-2.79 63.46,9.2 94.88,15.66 6.13,5.43 12.83,10.15 19.77,14.49 0.57,0.85 1.79,2.64 2.41,3.49 -33.69,-17.36 -75.91,-28.07 -111.59,-10.76 -1.55,13.45 14.58,18.97 23.07,26.61 32.84,17.46 57.14,46.48 79.22,75.64 -22.03,-18.69 -46.33,-34.92 -65.68,-56.57 -11.89,-12.7 -28.5,-18.78 -43.78,-26.19 -43.41,-19.82 -93.8,-31.47 -140.46,-16.09 -31.66,10.48 -69.03,6.61 -96.73,26.66 43.93,-3.26 87.15,-12.79 130.13,-22.13 43.22,-1.47 84.55,15.29 123.47,32.65 16.47,9.82 27.08,26.56 42.7,37.55 17.46,16.42 36.99,30.34 55.49,45.53 5.9,0.38 11.8,0.47 17.69,0.28l-2.12 3.91c8.63,2.97 17.12,6.28 25.76,9.34 -33.92,-50.86 -77.14,-95.22 -126.26,-131.59 10.9,-0.24 21.94,-1.51 32.69,0.56 39.4,10.71 75.91,31.15 116.49,37.47 4.91,12.22 14.2,22.88 15.34,36.43 0.28,9.71 -3.5,18.87 -6.65,27.93 -7.41,12.37 -9.53,27.46 -19.49,38.31 -17.12,19.4 -38.64,34.87 -61.62,46.62 -12.84,7.59 -28.12,3.06 -42.09,2.31 10.71,-6.09 21.47,-11.99 32.18,-18.02 5.05,-2.6 10,-5.24 15,-7.79 9.96,-4.06 19.59,-8.82 29.02,-13.92 5.24,-3.82 10.67,-7.45 15.47,-11.8 -24.68,11.47 -48.93,23.93 -72.75,37.09 -6.7,3.39 -13.54,6.51 -20.34,9.72 -19.3,-7.98 -36.19,-21.52 -56.67,-26.62 -7.6,-6.13 -14.35,-17.98 -25.24,-9.86 6.79,13.02 21.47,17.79 32.04,26.89 8.49,7.36 17.03,14.72 25.76,21.89 -2.55,5.05 -5.14,10.1 -7.54,15.33l-11.42 -3.3 8.96 8.82c-1.79,1.7 -5.38,5.14 -7.17,6.84 -16.42,7.93 -31.42,19.44 -41.33,34.97 -14.01,18.68 -8.4,43.5 -12.83,65.16 5.42,27.46 19.86,52.23 27.56,79.08 -21.85,-14.3 -41.38,-32.65 -66.63,-41 -28.5,-14.77 -61.24,-13.26 -91.63,-21.19 11.23,-15.76 27.74,-25.52 43.27,-36.33 11.42,-12.22 20.48,-26.61 34.53,-36.28 17.88,-12.45 18.35,-35.72 23.07,-54.87 -16.23,2.78 -22.74,20.29 -34.26,30.29 -22.03,21.33 -48.31,40.53 -79.73,43.98 -4.43,5 -6.89,16.41 -16.75,6.51l3.35 5.56c-10.01,0.09 -19.92,1.98 -29.87,1.33 -41.76,-9.44 -80.83,-27.18 -120.98,-41.33 -24.44,-5.29 -47.75,-14.34 -71.48,-21.65 -7.36,-4.62 -15.9,-6.84 -23.74,-10.57 14.77,-54.54 28.17,-109.51 41.76,-164.34 3.68,-3.07 7.46,-5.9 11.32,-8.59 54.54,-9.2 112.2,-19.91 165.76,-0.09 58.32,20.15 105.07,62.14 155.32,96.49 5.05,3.68 9.11,8.59 11.42,14.44 1.89,-7.41 9.86,-9.63 14.72,-14.49 -40.2,-26.18 -74.64,-60.01 -113.75,-87.66 -24.35,-14.81 -48.6,-31.57 -77.52,-35.81 -0.09,3.16 -0.24,9.44 -0.33,12.59 -7.27,-2.36 -14.95,-4.91 -15.1,-14.1 -3.02,-0.38 -9.01,-1.14 -12.03,-1.51 2.93,2.79 8.73,8.4 11.61,11.18 -17.5,-2.17 -35.2,-5.8 -52.89,-3.3 -30,3.82 -62.47,3.39 -88.41,21.28 -1.42,-0.32 -4.16,-0.99 -5.52,-1.32 -2.79,-5.57 -3.54,-11.51 -2.36,-17.83 7.74,-3.35 15.05,-7.36 21.94,-12.13 -5.28,0.99 -15.9,2.97 -21.18,3.96 2.64,-45.86 3.49,-91.86 4.39,-137.82 3.68,-34.77 10.09,-69.21 16.33,-103.61 2.4,-12.78 18.44,-13.3 26.04,-21.84 37.37,-3.12 75.49,1.7 109.7,17.46 18.64,10.05 41.29,11.84 57.33,26.7 20,16.42 50.01,8.82 68.27,27.84 -0.19,-0.8 -0.47,-2.45 -0.66,-3.31 -3.35,-1.89 -10.14,-5.66 -13.54,-7.54 2.93,-2.45 8.82,-7.41 11.75,-9.91 -4.96,-1.22 -9.91,-2.45 -14.91,-3.68 -16.08,-15.43 -37.41,-23.59 -55.86,-35.76 -32.5,-20.76 -71.01,-27.32 -106.54,-40.91 10.01,-13.16 19.4,-26.85 30.01,-39.5 17.18,-15.95 36.8,-29.58 50.63,-48.83 19.11,-26.75 55.44,-45.44 88.04,-34.63zm25.24 7.98c3.73,8.44 8.02,16.75 11.18,25.47 -7.88,-8.59 -13.73,-18.73 -19.44,-28.78 2.08,0.8 6.18,2.45 8.26,3.31zm113.99 69.21c-6.27,1.46 -8.68,-1.14 -7.13,-7.79 6.19,-1.6 8.54,0.99 7.13,7.79zm28.73 206.1c-3.06,2.31 -3.06,2.31 0,0zm-1462.52 36.33c-3.97,5.47 -7.36,5.23 -10.19,-0.8 4.2,-5.61 7.6,-5.33 10.19,0.8zm1509.79 41.24l3.21 -7.74c9.96,12.55 25.48,17.83 37.41,27.98 -7.02,-2.97 -13.63,-6.7 -20.24,-10.38 -17.79,-11.18 -39.77,-11.18 -58.36,-20.43 8.87,-1.51 17.7,-0.14 26.38,1.65 -1.51,-7.64 -3.45,-15.1 -5.14,-22.65 5.48,10.53 10.47,21.38 16.75,31.57zm-2271.33 261.77c0.71,3.11 2.17,9.38 2.88,12.55 7.93,4.62 14.39,11.09 19.77,18.45 -5.71,-0.28 -11.47,-0.57 -17.22,-0.85 -4.62,-11.37 -9.91,-22.55 -13.45,-34.3 1.98,1.03 5.99,3.11 8.02,4.15zm1743.59 -4.06l3.31 10.05c1.32,0.8 3.87,2.5 5.14,3.31l2.12 1.37c4.11,-0.33 12.32,-0.9 16.42,-1.22 19.72,19.96 50.58,21.09 75.31,32.13 23.12,10.19 45.63,24.45 71.24,26.81l-3.16 4.34c4.1,-0.05 12.31,-0.19 16.41,-0.24l-3.49 4.58c19.72,1.22 39.2,5.56 59.12,4.81 -4.86,6.19 -9.58,12.65 -13.92,19.35 -2.12,0.47 -6.42,1.46 -8.54,1.93 11.23,2.83 25.43,0.95 32.93,11.89 -10.09,0 -20.19,-1.46 -30.25,-0.57 -10.38,6.32 -2.83,18.26 -2.22,27.51 -10.8,-12.78 -22.51,-24.72 -34.91,-35.86 -24.16,-16.85 -52.23,-26.66 -78.19,-40.25 -19.06,-9.96 -39.68,-16.89 -61.19,-18.97 -1.93,2.41 -5.81,7.13 -7.74,9.53 -1.09,-2.6 -3.31,-7.74 -4.43,-10.29 -14.06,-7.03 -28.83,-12.41 -43.31,-18.45 -5.52,-9.24 6.37,-22.17 9.34,-31.75zm-759.31 59.83c15.85,7.31 28.54,-8.87 41.99,-14.49 16.94,4.67 28.98,19.35 37.75,33.79 8.73,13.77 1.55,30 2.6,45.06 -2.97,-0.09 -8.92,-0.24 -11.89,-0.33 -3.83,-2.69 -7.55,-5.38 -11.28,-8.17 -0.66,-3.91 8.68,-17.27 -0.43,-11.65 -0.43,2.26 -1.33,6.83 -1.74,9.1 -21.42,-7.45 -41.1,-19.58 -56.95,-35.86 -10.9,-11.65 -26.23,-16.84 -39.07,-25.85 0,8.87 0.28,17.79 -0.19,26.7 -4.67,5 -10.71,8.3 -16.33,12.22 1.61,1.7 4.81,5.14 6.47,6.83 -2.83,-2.83 -5.62,-5.61 -8.45,-8.35 -7.92,6.37 -15.9,13.35 -18.4,23.69 -14.15,14.25 -22.22,33.07 -36.23,47.47 3.44,1.7 6.94,3.44 10.42,5.19l-16.89 -5.61 7.22 16c-2.41,-4.2 -5,-8.3 -7.69,-12.32 -10.53,13.92 -5.85,31.23 -6.09,47.23 2.03,20.67 -4.96,40.77 -5.61,61.34 0.05,20.86 -9.01,40.53 -7.36,61.62 3.77,4.15 7.5,8.35 11.28,12.55 -15.1,-7.73 -28.31,-18.12 -41.1,-29.16 -17.83,-28.78 -34.59,-58.32 -49.35,-88.79 7.88,-3.4 16.89,-3.83 24.25,-8.12 11.99,-9.71 30.63,-2.22 41.19,-14.62 13.07,-14.58 26.33,-34.07 22.27,-54.54 1.6,0.75 4.77,2.17 6.32,2.88 6.61,-15.01 13.64,-29.96 24.87,-42.04 14.72,-16.04 16.98,-38.55 26.66,-57.28 6.7,-13.17 18.92,-21.8 29.72,-31.29 15.95,10.01 25.24,28.03 42.04,36.8zm1085.49 -21.05c-17.98,25.67 -46.01,41.1 -65.39,65.4 -7.13,9.29 -19.92,5.9 -29.44,3.3 0.8,-8.54 7.83,-14.25 12.41,-20.86 7.46,-3.54 14.72,-7.4 21.85,-11.56 10.09,-6.89 21.8,-10.61 33.45,-13.87 8.3,-8.35 17.03,-16.32 27.13,-22.41zm-191.33 61.39c18.69,6.09 33.83,19.02 49.64,30.15 25.15,18.92 42.71,45.53 65.49,66.9 9.91,8.68 22.6,14.58 29.82,26.14 6.51,10.33 12.22,21.18 18.5,31.71 1.32,-5.85 4.91,-12.08 1.65,-17.93 -17.88,-39.54 -53.88,-67.76 -70.82,-107.91 18.82,3.12 38.41,3.59 55.91,12.08 43.92,13.3 88.23,26.85 129.42,47.56 7.12,3.07 13.54,10.05 13.35,18.21 -9.34,28.87 -30.2,52.66 -55.63,68.79 -31.19,19.68 -44.92,55.96 -72.09,79.65 -6.7,6.56 -16.18,7.93 -24.91,10.01 -2.97,-24.11 -1.98,-50.2 -13.97,-72 -2.12,25.38 9.44,50.24 4.58,75.39 0.28,1.14 0.9,3.45 1.23,4.58 -6.37,1.84 -12.55,4.1 -18.83,6.32l-0.94 -4.06c-11.09,3.73 -22.93,2.97 -34.45,3.07l0.38 -10.47c-4.53,4.25 -9.72,8.21 -15.62,3.3 -3.07,-0.76 -9.2,-2.31 -12.27,-3.07 -6.32,-4.06 -12.74,-7.97 -18.26,-13.02 -1.84,-31.94 -5.8,-64.73 -20,-93.8 0.9,24.63 11.04,48.45 6.98,73.32 2.31,4.86 4.43,9.82 6.42,14.91 -12.64,-8.36 -20,-22.09 -30.01,-33.08 -2.12,-11.74 -5.9,-23.07 -9.15,-34.49 -2.45,-0.85 -7.36,-2.45 -9.81,-3.31 -8.36,-20.29 -22.6,-40.53 -17.65,-63.6 -7.73,-25.99 -8.44,-53.31 -12.59,-80.02 -4.34,-11.14 -8.3,-22.42 -12.83,-33.46 1.51,-12.74 -5.43,-23.54 -10.95,-34.3 28.07,5 50.53,24.11 77.42,32.41zm239.13 53.04c-34.4,-8.17 -69.08,-16.61 -101.73,-30.29 34.82,6.7 73.32,5.57 101.73,30.29zm-341.41 125.5c3.02,6.27 0.85,8.73 -6.47,7.41 -2.08,-6.27 0.05,-8.73 6.47,-7.41zm-1034.3 135.04c0.09,15.53 -14.58,-6.83 0,0zm-1266.24 -1921.38c-7.78,4.21 -15.24,8.88 -22.7,13.73 1.66,4.25 3.31,8.5 4.91,12.74 9.34,-6.18 17.23,-14.63 17.79,-26.47zm1600.58 25.91c-15.33,1.14 -23.12,15.29 -32.88,25.05 -13.68,10.38 -29.21,18.07 -44.31,26.23 -16.04,6.23 -29.58,17.13 -44.87,24.96 6.19,-9.34 12.84,-18.26 19.3,-27.37 -4.21,0.62 -12.7,1.85 -16.89,2.45 -17.5,12.98 -33.64,27.6 -48.27,43.69 5.71,-10.95 12.41,-21.33 17.51,-32.56 -16.14,4.48 -30.63,13.68 -40.06,27.7 -26.62,25.95 -49.92,55.21 -77.76,79.93 20.9,-34.16 54.21,-59.5 70.91,-96.3 -26.66,7.13 -40.1,31.99 -58.08,50.3 9.15,-19.2 29.96,-32.27 31.38,-54.97 -20.94,5.57 -32.36,24.21 -45.81,39.35 -36,46.66 -77.76,88.52 -117.4,132.07 1.8,2.17 5.43,6.51 7.22,8.73 16.42,-10.72 28.03,-27.08 44.17,-38.12 -10.24,18.07 -33.22,26.7 -39.59,46.76 -2.5,11.94 11.13,6.51 15.01,1.27 18.68,-15.52 36.56,-31.9 54.17,-48.55 -10.53,12.64 -19.3,27.04 -32.89,36.85 -10.38,7.17 -13.45,20.05 -14.48,31.9 9.34,-6.52 17.74,-14.2 25.99,-21.99 10.76,7.03 19.3,-5 27.98,-9.9 50.06,-40.48 95.78,-85.97 142.16,-130.56 10.52,-6.98 19.77,-15.85 31.19,-21.42 19.82,-18.54 42.89,-32.46 66.34,-45.72 6.94,-3.21 13.73,-6.61 20.38,-10.24 5.66,-8.78 11.84,-17.18 18.17,-25.48 11.13,5.71 15.57,-7.88 21.42,-14.06zm-126.78 80.68c-0.66,2.5 -1.98,7.41 -2.64,9.91 -8.4,1.13 -3.96,-13.78 2.64,-9.91zm426.21 -69.69c-3.68,7.17 -6.79,14.25 -10.29,21.7 -2.41,-6.27 -4.85,-12.5 -7.26,-18.73 -1.47,3.87 -2.97,7.73 -4.49,11.61 1.75,6.98 3.12,14.01 4.44,21.04 2.31,-0.99 6.89,-3.06 9.19,-4.1 2.45,4.72 7.36,14.2 9.82,18.92 -0.38,-16.85 -0.75,-33.64 -1.41,-50.44zm16.42 3.59c-6.19,10.57 -6.61,23.02 -9.39,34.72 -3.97,6.84 6.65,7.69 10,10.15 1.42,-14.96 0.57,-29.96 -0.61,-44.87zm18.16 14.67c-9.71,6.51 -8.92,18.69 -11.28,28.83 4.91,3.59 9.77,7.31 14.63,11.04 -0.09,-13.35 -0.76,-26.7 -3.35,-39.87zm-132.25 49.35c-29.49,-7.59 -51.71,14.77 -76.34,25.72 -23.93,6.42 -46.38,17.22 -66.96,31 -36.89,20.53 -76.91,45.58 -92.9,86.68 32.18,-17.27 49.07,-54.59 84.08,-67.38 24.77,-12.65 47.04,-30.96 74.36,-38.12 12.84,-3.5 23.74,-11.14 34.11,-19.06 12.97,-10.05 31.9,-6.56 43.65,-18.83zm128.15 8.12c-14.06,-2.6 -28.92,-3.26 -42.51,1.98 14.16,8.02 29.77,12.97 45.01,18.35 7.46,2.73 13.73,-3.68 17.13,-9.39 -2.03,-9.58 -12.08,-9.15 -19.63,-10.95zm-612.38 1.93c-11.37,7.13 -20.9,16.84 -32.41,23.78 -34.3,13.45 -67.71,29.3 -100.27,46.53 -0.19,-3.54 -0.52,-10.67 -0.71,-14.25 -20.1,5.71 -29.54,25.15 -43.46,38.74 -17.03,11.42 -35.95,19.82 -52.84,31.61 3.68,-8.4 7.46,-16.89 10.52,-25.43 -15.38,10.76 -25.34,26.99 -39.2,39.45 -1.04,-3.73 -3.02,-11.09 -4.06,-14.77 -2.17,1.84 -6.51,5.62 -8.68,7.46 1.55,-6.32 3.31,-12.69 3.16,-19.21 -13.4,-1.84 -18.12,12.03 -25.39,20.34 -15.66,23.69 -33.97,45.58 -52.61,67 -2.22,-23.97 -0.14,-48.27 -5.33,-71.91 -0.43,-6.28 -5.29,-10.29 -9.53,-14.25 -0.43,32.04 6.7,64.08 1.84,96.16 -8.49,-20.8 -4.01,-44.78 -13.07,-65.77 -3.83,22.7 0.99,45.48 0.85,68.27l-7.92 3.73c3.02,2.08 5.94,4.2 8.92,6.37 0.24,11.18 0.43,22.41 1.98,33.55 8.02,-13.64 6.89,-29.63 8.54,-44.68 4.25,23.4 1.93,47.47 4.72,71.1 7.08,-17.08 7.79,-35.48 7.74,-53.69 -0.52,-6.51 5,-11.13 7.78,-16.37 3.26,0.52 9.82,1.61 13.07,2.12 7.02,-4.81 13.92,-9.81 20.75,-14.86 6.51,0.24 14.06,1.79 19.3,-3.16 16.98,-14.67 27.98,-34.82 44.25,-50.16 -7.83,16.42 -23.73,28.69 -26.37,47.47 35.1,-15.91 42.98,-60.35 76.29,-78 -9.71,14.2 -20.71,27.46 -31.61,40.77 -9.15,6.75 -13.26,16.61 -12.26,28.03 38.74,-20.81 56.48,-64.41 87.66,-93.61 -6.75,13.87 -15.1,27.37 -27.56,36.9 -5.14,11.65 -12.36,22.27 -17.55,33.97 40.53,-16.47 52.33,-64.03 82.8,-91.59 22.65,-14.24 47.66,-23.87 70.44,-37.89 -29.49,37.46 -56.71,77.67 -92.52,109.51 19.02,-31.75 44.35,-59.4 65.16,-90.07 -4.1,1.7 -8.21,3.5 -12.31,5.33 -10.62,13.16 -25.24,22.46 -35.53,36.05 -18.92,19.21 -33.45,41.9 -49.54,63.41 -3.44,5.57 -5.37,11.94 -8.02,17.98 11.7,-0.57 20.8,-8.16 28.97,-15.66 -3.12,6.32 -16.47,12.88 -3.96,19.53 23.3,-13.97 40.25,-35.81 59.02,-54.92 30.06,-41.24 67.94,-77.76 88.94,-124.89zm-790.02 0.14c-4.62,-1.55 -13.97,-4.67 -18.59,-6.23 1.13,12.26 2.97,24.49 5.05,36.66 9.81,-7.27 12.64,-18.92 13.54,-30.43zm-369.02 7.5c-9.44,4.54 -18.35,10.76 -22.51,20.81 2.6,2.45 5.33,4.72 8.16,6.79 7.98,-7.26 13.78,-16.65 14.35,-27.6zm-136.69 2.45c-5.23,3.54 -10.47,7.17 -15.76,10.81 0.52,4.25 0.99,8.54 1.42,12.78 4.43,-2.64 8.82,-5.29 13.16,-7.92 0.47,-5.24 0.85,-10.48 1.18,-15.67zm2081.14 164.95c-22.6,-42.7 -52.09,-85.49 -96.11,-108.19 -1.46,1.84 -4.34,5.52 -5.8,7.36 24.06,24.01 49.49,47.42 68.04,76.25 3.39,-0.09 10.24,-0.28 13.68,-0.38 5.47,10.86 11.13,21.66 16.79,32.42 0.85,-1.89 2.55,-5.56 3.4,-7.46zm-2270.58 -93.09c-20.15,1.99 -40.48,1.37 -60.58,-1.13 0.62,7.69 1.27,15.47 1.79,23.22 10.29,15.38 29.54,16.37 45.82,20.71 1.37,-0.71 4.15,-2.12 5.52,-2.83 1.46,-13.54 5.47,-26.56 7.45,-39.97zm2104.63 10.1c-25.29,0.71 -50.2,-11.8 -75.4,-5 -24.82,5.48 -50.39,5.29 -75.44,8.96 -25.34,7.55 -54.17,7.93 -74.74,26.66 -22.03,20.85 -62.85,10.05 -78.09,39.39 -10.61,23.07 -31.47,38.69 -44.73,59.97 -7.17,11.47 -17.65,20.24 -28.97,27.5 -33.5,18.69 -50.95,54.83 -68.56,87.2 -6.51,9.01 -15.24,16.14 -21.94,25.05 -14.67,15.81 -33.26,26.42 -50.49,39.02 -8.59,19.39 -19.2,38.49 -35.1,52.98 0.99,3.16 2.88,9.44 3.82,12.6 -17.12,38.49 -22.84,81.86 -15.62,123.43 2.6,14.2 11.89,27.51 8.73,42.42 -1.41,13.83 -1.46,27.93 0.8,41.67 17.12,15.57 16.98,40.01 24.72,60.3 7.55,23.92 22.74,45.06 41.48,61.48 31.19,21.42 70.86,22.32 107.29,20.71 20.1,-0.62 42.28,5.85 60.16,-6.51 24.44,-11.61 30.33,-39.92 40.96,-62.24 4.58,-20.53 12.97,-45.48 -1.18,-64.12 -16.28,-22.74 -36,-44.21 -45.25,-70.96 -2.74,-34.02 6.37,-69.78 28.5,-96.3 10.29,-16.32 25.29,-28.83 35.91,-44.82 11.46,-18.69 -6.89,-44.02 9.43,-60.68 17.56,-19.11 26.62,-44.82 46.86,-61.62 15.95,-9.01 35.43,-4.71 52.28,-0.7 43.59,15.29 82.99,40.67 118.42,69.97 13.87,11.37 30.29,19.67 42.32,33.26 8.5,10.95 12.51,24.58 19.68,36.38 12.97,23.12 35.95,40.91 40.58,68.32 -2.5,4.62 -5.33,9.06 -8.59,13.3 -10.62,-21.38 -24.26,-41.05 -42.99,-56.1 -2.22,2.87 -4.38,5.71 -6.6,8.63 23.54,12.55 31.56,39.12 49.45,57.14 5.33,6.74 14.39,5.99 21.99,4.81 9.67,-5.28 7.41,-17.03 7.92,-26.09 1.98,-1.93 5.9,-5.75 7.88,-7.65 -13.07,-22.32 -35.95,-37.6 -46.05,-61.76 -10.47,-28.98 -30.52,-54.64 -56.57,-71.25 -21.42,-16.18 -42.23,-33.17 -64.12,-48.78 -37.14,-20.9 -78.52,-37.33 -121.78,-36.9 -9.49,0.14 -18.03,5.1 -24.59,11.7 -22.51,22.32 -37.74,50.35 -54.82,76.72 -6.94,16.18 -4.39,34.68 -6.75,51.85 -31,33.64 -62.52,72.85 -65.21,120.55 -14.1,-13.49 -28.07,-27.27 -40.1,-42.7 12.55,7.78 24.68,16.13 36.9,24.39 -9.91,-17.83 -24.3,-32.7 -38.74,-46.95 -5.29,-5.75 -12.83,-8.11 -20.19,-10 4.15,4.39 8.49,8.63 12.93,12.78 2.6,6.28 5.33,12.51 8.26,18.69 -3.35,12.5 9.71,19.91 14.58,29.77 -7.13,-3.59 -14.3,-6.98 -21.61,-10.24 5.33,10.15 10.9,20.15 16.46,30.2l-11.23 -1.32c4.06,7.31 5.1,16.79 11.75,22.46 14.25,12.55 27.56,26.14 41.71,38.78 17.93,4.3 28.92,20.01 33.36,37.04 -28.83,-18.35 -50.49,-46.8 -82.15,-60.91 12.46,35.86 51.01,49.35 77.52,72.57 2.03,-1.93 6.08,-5.85 8.11,-7.79 7.22,21.19 -1.89,42.52 -7.31,62.9 -4.2,14.39 -9.2,30.62 -23.41,38.26 -14.58,10.66 -33.26,5.14 -49.83,4.53 -20.86,-1.51 -43.27,3.54 -62.61,-6.56 -20.57,-10.48 -39.35,-27.37 -47.47,-49.45 14.39,11.89 24.49,28.87 41.66,37.32 16.56,8.07 34.26,13.87 52.56,16.37 -9.82,-15.66 -23.31,-28.6 -32.46,-44.68 21.51,5.56 30.57,28.45 48.22,40.1 -16.47,-26.94 -39.73,-49.07 -59.73,-73.42 -15.25,-16.14 -27.6,-35.81 -46.9,-47.56 5.57,10.29 12.18,20 17.79,30.29 -3.78,-0.8 -11.43,-2.5 -15.2,-3.35 8.07,16.33 17.55,31.85 28.12,46.72 -12.27,-11.37 -23.83,-23.5 -35.72,-35.3 -0.33,4.86 -0.99,14.58 -1.33,19.49 -11.23,-8.21 -15.19,-22.23 -21.99,-33.74 -9.44,-15.43 -7.03,-34.01 -11.75,-50.86 -4.25,-20.57 -15.95,-39.54 -15.33,-60.96 2.69,-31.52 -1.37,-63.75 9.34,-94.17 20.9,-59.22 73.37,-98.33 108.8,-148.16 16.52,-31 37.8,-58.98 60.45,-85.64 19.77,-18.54 29.77,-44.92 50.54,-62.61 24.44,-27.93 59.11,-42.89 90.5,-61.24 27.98,-17.31 60.95,-22.93 92.71,-29.25 41.81,-8.82 84.89,-6.61 127.11,-2.36 14.39,3.25 33.27,3.49 41.05,18.35 12.27,21.65 30.06,39.54 42.7,60.82 19.44,15.52 35.43,35.53 46.8,57.65 4.77,8.59 10.72,17.23 8.82,27.79l4.3 -5.05c12.03,31.1 22.08,63.7 21.8,97.34 1.32,62.38 15.76,123.06 30.25,183.4 6.7,47.56 5.23,95.93 9.24,143.77 -23.87,-17.79 -40.29,-45.58 -68.5,-57.14 -0.47,4.29 -1.42,12.88 -1.89,17.17 18.92,13.3 33.92,31.09 51.33,46.15 4.77,5.8 12.26,6.13 19.2,6.27 -0.99,19.58 -4.15,38.93 -5.9,58.46 -16.89,-15.33 -32.93,-31.52 -48.6,-48.13 17.7,2.31 30.58,14.58 45.3,23.26 -9.06,-14.81 -23.36,-25.2 -35.72,-37.09 -14.81,-12.45 -27.22,-28.45 -45.39,-36.32 0.09,4.34 0.24,13.07 0.33,17.41 -20.24,-14.68 -35.76,-37.74 -60.63,-44.78 0.14,5.23 0.28,10.52 0.43,15.81 28.97,21.84 52.61,51.62 86.91,65.54 22.04,15.62 40.72,35.72 57.28,56.95 -0.09,9.76 0.05,19.48 -0.09,29.3 -26.85,-30.34 -54.54,-60.11 -84.93,-86.96 -18.02,-16.52 -34.59,-35.53 -56.86,-46.47 18.78,35.15 49.45,61.1 80.25,85.45 0.9,1.79 2.69,5.33 3.59,7.08 24.68,8.25 39.49,31.94 57.56,49.35 2.64,23.73 0.9,47.75 0.33,71.62 -15.05,-22.93 -37.03,-39.73 -55.16,-60.01 -14.81,-13.45 -25.38,-34.82 -46.09,-39.45 0.62,4.15 1.84,12.51 2.45,16.66 23.07,18.12 37.98,45.63 64.64,59.31 12.93,6.04 19.68,20.24 33.22,25.28 0.32,5.76 0.66,11.7 1.18,17.56 16.37,-57.09 2.12,-117.34 11.66,-175.43 7.74,-40.91 -0.9,-82.28 0.85,-123.47 -0.42,-53.46 -18.35,-104.42 -29.67,-156.08 -2.79,-8.4 10.8,-17.36 -1.7,-22.51 -9.24,-55.54 -5,-114 -28.35,-166.55 -15.19,-25.58 -27.84,-52.66 -46.24,-76.2 -9.76,-26.61 -18.54,-58.17 -45.39,-72.8 -19.11,-8.4 -38.83,-18.44 -60.3,-17.27zm90.97 79.13c-13.07,-15.71 -25.34,-32.27 -35.48,-50.01 16.75,12.41 29.54,30.01 35.48,50.01zm-431.49 451.87c2.08,5.67 4.1,11.42 6.08,17.18 -8.07,-7.65 -15.57,-15.9 -22.7,-24.49 5.57,2.36 11.13,4.81 16.61,7.31zm-836.6 -522.83c-9.67,0.8 -19.72,0.89 -28.87,4.53 -0.71,3.54 -2.03,10.61 -2.69,14.15 13.54,-0.66 25.24,-6.42 31.57,-18.68zm1538.72 8.54c-15.19,-11.47 -30.57,8.4 -29.25,23.11 4.06,11 17.46,11.75 26.37,16.94 2.55,-1.93 7.65,-5.75 10.19,-7.69 4.81,-11.93 -1.33,-22.36 -7.31,-32.36zm-246.53 119.89c-37.08,-42.51 -74.5,-86.01 -121.12,-118.48 8.3,32.61 44.49,47.47 57.84,77.76 6,-2.83 12.13,-0.9 17.88,1.55 -3.58,0.05 -10.71,0.09 -14.24,0.09 3.58,3.21 10.76,9.67 14.34,12.93 9.11,12.18 23.36,18.07 34.73,27.65 11.8,11.42 20.53,25.72 33.83,35.67 -3.91,-14.48 -13.45,-26.23 -23.26,-37.18zm-78.56 -52.61c-16.94,-21.57 -38.36,-39.26 -60.49,-55.25 1.89,9.25 1.98,20.1 11.13,25.48 3.58,9.25 10.14,16.52 17.98,22.36 27.27,26.75 47.56,60.77 79.97,81.96l0.76 -0.19c4.1,13.16 15.01,21.94 23.45,32.18 10.76,12.5 17.65,27.89 28.83,40.06 -8.44,-28.54 -27.98,-52.04 -45.01,-75.91 -7.46,-9.11 -12.88,-22.22 -25.91,-24.16 1.14,-0.8 3.4,-2.41 4.48,-3.25 -11.74,-14.44 -21.46,-30.53 -35.2,-43.27zm-47.61 -0.14c-17.79,-16.71 -31.04,-37.74 -50.06,-53.12 4.81,20.42 21.05,35.01 32.37,51.9 14.49,21.51 37.04,35.34 54.31,54.35 7.03,7.69 15.47,13.97 24.06,19.87 0.9,0.85 2.64,2.55 3.5,3.35 3.82,4.34 7.69,8.59 11.65,12.79 20.38,16.89 35.63,39.11 56.11,56.1 -17.27,-22.74 -34.78,-45.39 -54.45,-66.1 -24.87,-27.32 -50.2,-54.21 -77.48,-79.13zm-54.83 7.55c-22.46,-19.4 -40.72,-43.69 -65.68,-60.11 8.82,32.18 42.98,46.62 56.67,75.16 16.71,11.42 26.24,39.77 49.92,35.29 -0.47,2.55 -1.41,7.6 -1.89,10.15 2.31,-0.85 6.98,-2.64 9.3,-3.5 -0.8,9.39 7.46,13.26 13.73,17.94 10.14,10.14 20.48,20.24 32.27,28.54 -12.13,-17.31 -28.03,-31.47 -40.77,-48.32 -3.83,-3.82 -7.6,-7.69 -11.37,-11.56 -12.84,-15.66 -27.22,-30 -42.19,-43.59zm54.21 16.37c-24.34,-28.07 -51.52,-53.74 -80.21,-77.14 1.6,19.48 16.56,32.84 29.58,45.62 0.56,-3.02 1.7,-9.01 2.26,-12.03l0.09 16.09 10.05 -6c-3.39,2.97 -6.7,6 -10,9.06 16.23,16.85 33.88,32.46 48.12,51.15 0.9,-0.85 2.69,-2.55 3.59,-3.4 5.37,19.16 31.38,16.37 36.62,35.95 24.01,23.03 47.47,47.04 66.05,74.69 -15.95,-27.65 -35.34,-53.36 -57.37,-76.39 -2.97,-3.12 -5.95,-6.18 -8.92,-9.2 -10.62,-18.12 -25.86,-32.93 -39.87,-48.41zm-1661.45 -65.67c-2.6,-1.61 -7.78,-4.77 -10.42,-6.33 6.75,7.6 14.16,14.49 21.37,21.52 -11.46,0.62 -24.72,-3.73 -35.48,2.03 0.09,0.99 0.33,3.02 0.43,4.01 19.06,0.38 38.03,2.41 57,4.06 -10.05,-9.53 -21.38,-17.65 -32.89,-25.28zm667.26 84.69c-1.55,-24.82 -0.19,-51.14 -10.8,-74.26 -5.1,7.22 -7.5,17.46 -17.08,20.38 0.37,23.17 5.23,46.05 5.47,69.26l-8.73 1.37c3.39,2.55 6.79,5.09 10.14,7.69 5.1,15.1 -6.93,34.92 5.67,46.76 1.74,-9.15 2.88,-18.3 4.29,-27.45 3.68,9.49 3.31,21.18 12.32,27.83 1.37,-20.94 1.32,-42.04 -0.09,-62.94l8.78 -1.41c-3.31,-2.41 -6.61,-4.81 -9.96,-7.22zm884.49 -40.39c-9.39,-7.27 -16.75,-16.66 -25.01,-25.15 26.37,50.44 71.57,86.91 112.86,124.61 -26.28,-35.57 -55.06,-69.64 -87.85,-99.46zm-13.16 26.99c-13.59,-13.49 -23.97,-30.2 -39.64,-41.52 13.73,27.46 36.33,48.98 52.47,74.93l26.7 16.09c-7.5,-21.33 -25.15,-33.92 -39.54,-49.49zm-910.35 -13.4c-0.51,4.34 -1.51,12.93 -2.03,17.22 -5.94,-1.51 -11.89,-3.02 -17.93,-4.29 4.81,5.48 12.08,5.9 18.78,7.08 0.14,8.96 0.47,17.93 0.99,26.89l-5.56 1.04c-0.85,-8.31 -2.03,-16.56 -3.63,-24.77 -2.55,12.41 -2.12,25.15 -3.64,37.74 -4.06,-8.96 -6.94,-18.54 -13.26,-26.23 -1.55,20.94 0,41.9 3.31,62.66 1.65,1.6 4.9,4.86 6.56,6.46 3.25,-14.82 1.27,-29.92 1.84,-44.87 9.49,12.03 5.71,28.69 10.05,42.65 3.12,-13.78 1.18,-27.89 0.99,-41.81 3.4,7.74 6.61,15.62 10.19,23.31 3.87,-27.65 0.14,-56.19 -6.66,-83.09zm572.71 46.14c-6.56,-14.95 -21.13,-28.87 -38.69,-26.47 2.88,5.94 5.85,11.89 8.82,17.79 4.67,3.92 9.25,7.88 13.73,12.03 5.43,-0.95 10.8,-2.08 16.14,-3.35zm-21.89 2.45c-6.79,-6.94 -13.83,-13.64 -21.38,-19.82 -4.72,13.12 3.68,24.53 11.18,34.35 3.4,-4.91 6.79,-9.77 10.19,-14.54zm-1907.36 -11.47c-2.88,7.79 -3.35,15.9 -0.38,23.78 -2.08,3.77 -4.15,7.5 -6.32,11.28 1.13,2.79 3.39,8.4 4.52,11.18 10.05,-7.84 20.86,-14.54 31.24,-21.8 -9.82,-7.98 -20.1,-15.39 -29.06,-24.45zm609.65 95.64c-5.43,-27.46 1.65,-56 -4.15,-83.13 -0.19,28.92 -4.06,57.57 -5.1,86.44 2.31,-0.85 6.94,-2.45 9.25,-3.31zm714.87 -63.79c-2.64,-5.14 -5.29,-10.24 -7.98,-15.33 -0.62,5.24 -1.74,15.81 -2.36,21.09 -3.3,-4.01 -6.51,-8.12 -9.77,-12.13 -5.14,2.93 -10.42,5.71 -15.81,8.4 1.85,15.62 -6.23,35.91 5.43,48.22 5.62,-10.24 5.1,-22.13 5.67,-33.4 0.94,7.92 0.28,19.25 11.84,14.67 0.76,-6.79 1.18,-13.64 1.37,-20.47 2.45,4.15 4.86,8.35 7.22,12.55 1.51,-7.93 2.83,-15.76 4.39,-23.59zm-341.84 6.56c-22.74,15.9 -46.01,31.19 -67.56,48.79 -8.78,6.04 -8.4,17.98 -11.61,27.13 4.2,9.15 4.58,21.75 15,26.42 2.17,-14.72 -6.51,-31.04 1.65,-44.59 21.09,-18.97 42.61,-37.7 62.52,-57.76zm652.11 3.54c-20.29,11.47 -42.42,21.99 -58.55,39.3 0,13.36 19.73,-2.26 22.84,-4.34 -1.22,3.73 -3.77,11.23 -5.05,14.96 -19.58,8.73 -22.84,31.14 -32.08,48.17 15.29,6.52 26.51,-7.02 37.89,-14.86 16.09,-12.5 33.55,-23.07 49.59,-35.62 6.61,-4.72 7.27,-13.49 10.52,-20.29 -0.94,-1.89 -2.83,-5.71 -3.77,-7.6 -8.25,2.74 -16.28,6.32 -23.74,10.95 1.56,-3.54 4.67,-10.57 6.23,-14.06 -11.89,3.44 -21.23,11.46 -29.35,20.53 -2.74,-2.03 -5.52,-4.02 -8.26,-5.95 12.22,-9.3 24.63,-18.73 33.74,-31.19zm1042.31 5.94c-12.74,4.29 -25.62,10.1 -33.88,21.23 13.16,-3.59 23.74,-12.55 33.88,-21.23zm-778.13 0.14c-37.8,15.81 -52.99,56.62 -77.76,86.16 -15.76,14.63 -15.76,38.22 -30.39,53.79 -20.53,44.87 -36.42,91.96 -50.06,139.43 -8.68,23.3 -10.28,49.12 -3.96,73.22 15.43,-15.57 7.65,-39.77 15.06,-58.74 15.94,-47.09 26.56,-95.92 45.71,-141.78 3.87,-14.82 19.54,-23.03 21.61,-38.74 1.7,-13.87 12.22,-22.79 20.94,-32.5 18.69,-27.6 34.63,-57.42 58.84,-80.83zm794.22 11.23c-2.12,3.26 -2.12,3.26 0,0zm-2339.84 7.08c-18.02,-0.76 -37.22,-9.96 -54.54,-1.13 19.63,4.58 39.68,6.79 59.36,11.09 26.47,5 54.07,2.73 79.88,11.32 10.8,3.54 22.17,2.87 33.26,4.1 21.84,9.82 37.84,29.25 51.47,48.31 0.85,5.24 1.7,10.53 2.5,15.81 16.8,11.79 25.67,30.76 40.39,44.54 9.77,9.58 16.09,21.94 25.1,32.18 2.55,-1.75 7.65,-5.24 10.19,-6.98 -15.62,-28.6 -44.87,-47.51 -57.14,-78.14 -13.97,-28.45 -35.2,-57.13 -67.23,-66.01 -40.16,-10.9 -82.01,-11.89 -123.24,-15.1zm837.21 -3.96c-37.09,18.31 -71.49,42.98 -100.17,72.85 14.63,-7.31 26.66,-18.59 39.87,-28.08 20.24,-14.72 41.66,-27.98 60.3,-44.78zm1715.28 62.51c-10.85,-5.94 -23.59,-19.58 -36,-8.87 -8.49,10.61 -10.9,25.76 -6.37,38.64 20.76,5.94 35.48,-12.88 42.37,-29.77zm-1250.82 -18.5c-14.39,3.78 -28.73,9.2 -39.63,19.77 -18.59,16.41 -46.57,22.22 -59.78,44.49 28.5,-4.06 57.38,-14.16 78.09,-34.92 6.23,-10.42 13.97,-19.82 21.32,-29.35zm-847.64 45.77c-6.51,-3.11 -14.2,-2.17 -21.18,-3.87 -5.95,6.94 -11.84,14.2 -14.77,23.03 2.55,6.23 5.81,12.07 8.78,18.12 7.69,3.58 15.47,6.98 23.5,9.76 7.03,-5.85 18.88,-8.3 21.75,-17.74 -4.48,-10.57 -10.09,-20.95 -18.07,-29.3zm283.19 4.77c-27.93,12.03 -50.72,32.65 -75.77,49.45 -14.63,11.89 -31.43,21.19 -44.5,34.97 15.48,-7.88 29.3,-18.4 43.69,-28.03 25.62,-18.59 52.99,-35.1 76.58,-56.38zm-450.6 82.53c-8.73,-13.03 -14.81,-28.46 -27.88,-37.94 5.33,20.86 19.06,38.03 27.98,57.38 11.04,11.09 19.21,25.43 33.32,33.07 -7.31,-19.77 -22.98,-34.53 -33.41,-52.51zm-56.05 -1.42c-10.38,-11.37 -26.66,-11.51 -40.77,-13.83 -30.52,-2.87 -62.37,-7.27 -91.96,3.45 8.4,1.51 16.98,1.98 25.43,1.93 35.95,-1.33 71.81,3.25 107.29,8.44zm2127.05 -7.65c-10.28,2.6 -20.99,4.96 -29.44,11.89 10.53,-0.75 20.81,-3.06 30.96,-5.85 -0.38,-1.51 -1.14,-4.53 -1.51,-6.04zm19.82 13.73c-12.93,-8.63 -26.89,4.11 -37.93,10.01 13.3,-0.38 25.81,-5 37.93,-10.01zm-2100.52 29.07c-47.84,-22.6 -101.39,-29.49 -153.77,-31.57 -16.8,-0.85 -34.26,-2.08 -50.35,4.15 61.53,4.06 123.66,9.39 182.88,27.55 19.96,5.29 34.73,20.67 53.88,27.37 -5.47,-14.2 -20.29,-20.57 -32.65,-27.5zm2413.06 -16.85c-10.76,0.38 -24.72,3.31 -22.08,17.22 4.86,13.54 18.64,11.94 28.73,5.48 -1.79,-7.69 -2.31,-15.9 -6.65,-22.7zm-306.92 8.02c-11.8,-15.52 -32.04,-8.3 -47.23,-2.92 4.39,3.49 8.78,7.08 13.16,10.71 4.72,-0.76 9.39,-1.41 14.11,-1.98l-0.52 -2.22c-3.82,-1.42 -11.42,-4.29 -15.24,-5.75 11.84,1.41 23.73,3.16 35.72,2.16zm-2791.95 -2.54c-4.96,1.6 -9.9,3.25 -14.91,5 0.14,6 0.38,12.03 0.57,18.07 5.19,-7.45 9.95,-15.19 14.34,-23.07zm2918.02 5.56c-2.88,-0.43 -8.63,-1.32 -11.56,-1.79 -5.19,3.3 -10.61,6.37 -15.38,10.38 -1.27,6.51 -1.13,13.22 -1.27,19.92 12.88,5.66 27.37,9.48 39.49,0.14 0.14,-4.02 0.33,-12.03 0.43,-16.05 -3.91,-4.2 -7.79,-8.4 -11.7,-12.59zm-2384.1 50.77c-6.51,-8.31 -16.61,-12.55 -25.1,-18.5 -7.46,2.03 -14.91,3.96 -22.46,5.94 -3.12,4.1 -6.32,8.21 -9.53,12.37 6.08,8.78 13.16,16.89 17.98,26.47 10.67,1.79 22.18,2.74 31.99,-2.55 7.08,-5.47 6.27,-15.81 7.13,-23.73zm2101.8 43.22c-5.71,-10.43 -12.03,-21.05 -22.6,-27.13 -3.68,5.8 -7.31,11.7 -10.85,17.65 11.94,3.63 17.03,14.34 21.61,24.87 4.91,-4.29 10.48,-8.63 11.84,-15.38zm-1002.25 -13.03c-7.98,17.08 -14.06,35.25 -18.64,53.56 -7.74,64.54 -7.74,129.84 -1.74,194.53 13.59,74.93 21.8,151.23 44.3,224.26 1.98,8.45 7.97,14.82 13.73,21 -6.61,-36.14 -19.25,-71.24 -20.53,-108.33 -3.5,-80.92 -25.76,-159.9 -26.61,-241.05 -1.98,-27.41 -2.36,-54.97 1.08,-82.29 4.81,-20.19 15.57,-40.58 8.4,-61.67zm1017.26 37.85c-3.87,-5.48 -7.74,-10.9 -11.89,-16.14 -1.47,11.28 4.06,26.7 -9.49,32.69 0.99,7.69 2.03,15.43 3.02,23.22 5.81,-1.55 11.66,-2.83 17.37,-4.67 -0.62,-3.02 -1.79,-9.01 -2.41,-12.03 0.85,-1.74 2.45,-5.23 3.26,-7.03 -3.92,-4.48 -7.88,-8.96 -11.89,-13.35 3.02,-0.66 9.01,-1.98 12.03,-2.68zm-657.17 35.67c-14.81,-3.07 -22.6,-18.12 -35.43,-25.1 6.08,14.86 13.26,29.63 25.05,40.91 21.89,22.08 40.01,48.26 65.68,66.33 14.48,13.92 25.47,31.1 39.63,45.39 -3.3,-6.98 -6.65,-13.96 -9.77,-20.99 16.09,1.84 22.88,17.93 35.3,26.09 -9.44,-18.4 -25.01,-32.6 -37.98,-48.41 -29.63,-31.79 -57.33,-65.58 -89.08,-95.3l-2.45 4.25 9.06 6.84zm-1807.47 -23.59c-10.15,4.91 -18.78,12.27 -25.86,21.05 3.83,1.79 7.6,3.77 11.56,5.14 6.89,-7.41 10.85,-16.89 14.3,-26.19zm1587.98 22.93c-6.94,-3.31 -13.92,-6.61 -20.94,-9.77 1.74,6.23 3.58,12.41 5.56,18.64 5.33,-2.64 10.28,-5.9 15.38,-8.87zm299.95 5.57c-7.13,1.6 -14.01,4.39 -21.09,6.51 0.52,2.12 1.55,6.42 2.12,8.59 8.78,12.69 18.12,25.1 25.29,38.83 -21.76,-15.66 -35.72,-39.68 -57.61,-55.35 17.37,30.44 37.37,60.21 66.2,80.92 13.68,8.87 24.53,21.13 34.78,33.69l0.7 -8.92c2.93,0.57 8.73,1.66 11.66,2.22 -0.43,-2.02 -1.27,-6.04 -1.74,-8.02 15.57,-4.53 2.83,-16.09 -2.03,-23.82 2.12,-2.5 6.42,-7.5 8.59,-10.01 -20.29,-23.5 -44.12,-43.6 -66.86,-64.64zm721.75 10.05c-2.92,2.74 -2.92,2.74 0,0zm-2022.2 3.45c-31,15.43 -54.97,40.86 -82.95,60.77 -32.84,26.66 -67.15,51.33 -101.92,75.35 34.26,-11.18 61.2,-35.81 89.03,-57.46 32.75,-25.24 64.41,-51.85 95.83,-78.65zm1005.51 15.33c-8.11,-2.22 -16.33,-4.39 -24.49,-6.51l-0.76 6.79c-6.65,-0.47 -13.3,-0.9 -20,-1.18 9.11,8.92 19.34,17.37 23.36,30.06 9.53,-7.88 16.04,-18.45 21.89,-29.16zm17.31 32.09c0.9,-11.99 6.79,-24.26 1.8,-36.05 -7.03,13.92 -15.25,29.44 -11.23,45.57 3.96,20.57 3.25,43.04 14.72,61.39 7.74,14.63 7.88,32.98 20.71,44.78 11.28,11.09 16.23,26.62 27.22,37.85 3.82,15.43 13.3,28.45 20.19,42.6 8.54,18.07 24.53,34.26 44.59,38.36 11.18,-0.43 22.09,-3.5 32.94,-5.9 22.36,-4.62 37.89,-25.91 61.39,-27.13 24.63,0.18 51.24,-15.53 72.8,3.3 16,-2.03 28.83,8.17 42.42,14.63 0.14,3.44 0.38,10.24 0.52,13.68 4.06,-2.78 7.98,-5.66 11.8,-8.59 -2.12,-9.11 -11.8,-12.26 -19.44,-15.33 -36.14,-10.47 -61.67,-40.1 -93.61,-58.22 -14.2,-2.03 -25.24,8.63 -36.71,15.14 -19.82,13.4 -40.29,26.38 -63.32,33.55 -23.45,-13.64 -43.13,-34.67 -54.83,-59.21 -6.69,-14.49 -19.63,-24.59 -27.12,-38.5 -10.72,-19.11 -23.31,-37.09 -37.37,-53.93 -1.13,-16.23 -10.99,-31.48 -7.46,-47.99zm226.48 160c8.21,10.28 16.89,20.29 27.22,28.54 -29.16,3.45 -60.63,5 -85.54,22.41 -11.51,8.73 -26.51,10.38 -40.39,12.79 -17.04,-0.71 -30.29,-12.98 -40.34,-25.58 14.86,5.24 29.25,17.6 45.72,10.52 37.08,-4.76 56.1,-45.38 93.32,-48.69zm461.5 -111.78c-20.43,-21.94 -48.55,-41.33 -79.41,-41.61 -25.47,5.8 -51.52,3.73 -77.43,4.25 23.83,7.54 49.31,6.7 73.66,2.55 20.62,-4.58 40.43,6.27 56,18.68 23.69,18.59 38.74,45.53 50.91,72.47 6.18,24.45 1.51,50.16 6.08,74.88 4.01,20 1.22,40.34 2.41,60.49 5.05,20.8 5.19,42.32 9.11,63.31 16.14,-46.47 1.13,-95.26 5.61,-142.77 0.66,-42.09 -21.8,-80.17 -46.95,-112.25zm75.96 -14.95c-10.09,-10.57 -21.23,-22.17 -36.61,-23.68 20.34,33.69 51.95,57.84 78.75,85.96 13.54,13.92 28.16,27.04 46.85,33.55 -5.05,-15.62 -18.73,-25.39 -29.44,-36.85 -19.39,-20.1 -40.77,-38.26 -59.55,-58.98zm-2473.22 -13.78c-1.56,-3.21 -4.72,-9.58 -6.28,-12.78 -20.19,2.22 -40.86,1.46 -60.77,5.75 -7.08,1.33 -9.67,7.41 -9.43,13.97 18.06,2.55 36.28,-2.12 54.16,1.32 2.27,2.69 6.79,8.12 9.07,10.86 4.58,-6.28 9.05,-12.7 13.26,-19.11zm1673.8 7.36c-6.61,17.55 1.14,35.62 0.28,53.64 -1.74,47.04 -8.4,93.9 -8.11,141.03 7.64,61.01 2.45,122.48 -0.05,183.63 7.4,-14.48 9.81,-30.71 10.42,-46.76 1.18,-40.96 6.61,-81.91 2.88,-122.86 -5.43,-31.29 -0.71,-63.04 -0.47,-94.56 1.93,-11.61 -0.24,-25.81 9.25,-34.45 0.28,-1.37 0.89,-4.1 1.22,-5.47 -0.85,-2.74 -1.7,-5.48 -2.6,-8.16 -1.13,-0.76 -3.39,-2.22 -4.57,-2.97 1.13,-21.38 -1.33,-42.79 -8.26,-63.08zm-1778.36 9.01c-1.79,0.94 -3.63,1.93 -5.57,2.92 2.6,2.13 7.69,6.42 10.29,8.55 -10.38,1.84 -20.95,3.02 -31.28,5.24 18.82,9.29 34.96,22.64 52.46,33.97l-10.61 -16.94c8.12,5.33 16.18,10.8 24.72,15.38 -10.38,-13.35 -24.2,-23.36 -36,-35.34 11.89,0.8 24.58,19.39 35.53,8.87 5.43,1.7 10.76,3.44 16.09,5.19 -11.98,-10.85 -24.16,-21.7 -38.26,-29.81 4.77,8.11 10.1,15.85 14.96,23.87 -11.24,-6.56 -21.85,-14.11 -32.32,-21.89zm68.46 13.02c-12.32,-0.66 -21.66,-9.72 -33.17,-13.12 12.27,15.9 32.04,21 50.72,24.87 -4.77,-5.19 -9.77,-11.66 -17.55,-11.75zm726.04 3.87c-36.89,15.06 -71.24,35.86 -105.36,56.25 37.09,-14.49 71.91,-34.73 105.36,-56.25zm2331.21 37.09c-7.27,-9.01 -10.85,-22.08 -21.46,-27.7 -1.47,2.12 -4.39,6.37 -5.85,8.49 -1.93,2.22 -5.85,6.61 -7.83,8.78 4.34,12.55 5.52,25.71 5.33,38.97 8.5,12.46 18.12,24.3 29.44,34.35 -1.93,-7.46 -5.75,-22.36 -7.69,-29.82 8.11,8.55 14.39,19.11 24.11,26.1 -5.75,-16.94 -17.46,-30.77 -25.81,-46.34 13.68,11.66 25.58,25.1 37.61,38.41 0.14,-20.99 -18.07,-34.49 -27.84,-51.24zm-1749.11 -15.71c-8.73,-0.8 -17.5,-1.7 -26.29,-2.45 -3.82,6.18 -5.66,14.48 -12.64,18.12 -37.23,18.73 -79.08,24.77 -120.22,27.41 56.29,12.69 118.29,1.37 165.85,-31.61 -1.65,-2.88 -5.05,-8.59 -6.7,-11.47zm1531.03 22.41c-1.79,0.14 -5.33,0.47 -7.12,0.62 0.43,1.93 1.27,5.75 1.7,7.69 5.8,0 7.64,-2.74 5.42,-8.3zm-281.87 49.83c-15.52,-16.04 -27.88,-36.43 -48.74,-46.15 3.77,9.86 6.65,20.62 13.87,28.69 18.4,22.22 36.43,46 61.8,60.77 10.71,6.46 18.69,16.47 29.25,23.16 -14.1,-25.66 -37.51,-44.35 -56.19,-66.48zm-266.72 3.02c-12.26,-24.68 -40.96,-39.73 -67.99,-38.83 -15.24,1.46 -30.43,4.53 -44.73,10.05 -9.86,5.19 -17.55,13.59 -26.85,19.77 -26.24,12.78 -22.79,47.79 -43.93,65.67 0.28,10.62 -1.93,21 -4.72,31.24 -1.89,16.89 -6.13,33.45 -8.07,50.29 2.26,28.27 -3.91,56.52 0.09,84.74 4.62,25.43 -3.02,51.24 1.65,76.67 5.29,33.07 9.82,66.86 22.46,98.1 11.51,19.48 15.52,42.6 28.69,61.24 3.87,6.89 12.07,3.92 18.07,2.64 6.51,6.75 12.64,17.37 23.68,15.25 16.75,-1.28 36,0.89 50.16,-9.86 25.2,-24.49 41.33,-56.76 50.91,-90.26 11.84,-39.54 37.33,-73.37 47.94,-113.33 7.31,-24.06 20,-47.18 19.4,-72.99 -0.95,-30.48 -5.19,-61.01 -15.39,-89.83 -7.97,-22.6 -8.25,-48.74 -24.11,-67.9 -8.54,-11.37 -20.67,-19.86 -27.27,-32.65zm-21.18 14.77c24.3,19.54 39.06,48.22 51.57,76.1 8.49,34.87 18.17,70.54 13.45,106.78 -1.89,27.18 -15.52,51.24 -23.22,76.86 -7.92,27.51 -26.94,50.2 -34.86,77.81 -11.66,28.54 -18.59,60.68 -40.35,83.75 -9.38,10.76 -24.72,10.99 -37.79,13.16 -32.32,-38.69 -29.82,-92.1 -49.21,-136.45 -5.1,-28.21 -10.19,-56.57 -10.34,-85.35 4.67,-41.43 12.65,-82.29 23.12,-122.63 8.17,9.63 4.39,21.71 2.12,32.56 3.59,5.75 3.12,11.7 -0.43,17.36 1.33,46.05 1.7,92.29 -0.61,138.29 2.36,-2.6 4.01,-5.57 4.86,-8.82 -2.83,-42 -0.38,-84.22 -1.23,-126.26l6.27 0.66c-1.51,-0.47 -4.48,-1.46 -5.99,-1.98 1.98,-6.94 3.4,-14.01 6.51,-20.48l-7.69 -0.51c4.29,-10.76 8.4,-21.57 10.14,-33.03l-5.85 8.92c-1.85,-4.2 -3.64,-8.4 -5.43,-12.59 13.59,-27.79 23.41,-59.31 47.09,-80.5 9.77,0.47 20.43,2.22 28.83,-4.06 8.5,-6.51 20.95,-7.17 29.02,0.43zm752.8 -17.88c5.47,-11.47 -0.62,-23.12 -8.64,-31.38 -0.51,3.87 -1.55,11.61 -2.08,15.43 3.5,5.33 6.7,10.95 10.72,15.95zm-2406.94 -8.78c-26.23,2.93 -51.71,10.09 -77.33,16.28 -19.44,4.72 -39.68,3.91 -59.31,7.78 32.13,9.49 65.92,1.23 97.1,-7.92 13.97,-3.21 27.22,-8.87 39.54,-16.14zm2133.89 17.88c-13.45,-6.32 -27.74,-10.76 -42.32,-13.64 10.57,11.99 26.7,17.69 42.32,13.64zm-187.36 28.97c-15.24,-15.19 -27.22,-34.45 -46.85,-44.49 7.74,17.03 15.47,34.68 29.77,47.42 17.88,16.89 32.09,39.87 56.95,47.13 -7.84,-20.53 -25.81,-34.07 -39.87,-50.06zm-793.24 -32.61c-6.75,-1.65 -13.54,-3.25 -20.34,-4.76 -6.18,7.97 -15.9,14.86 -15.29,26.14 2.08,4.1 6.23,12.32 8.3,16.42 10.53,-11.51 20.67,-23.59 27.32,-37.8zm791.44 62.52c-15.76,-15.57 -26.23,-37.42 -47.23,-46.9 5.94,27.22 26.94,47.51 46.61,65.63 19.77,7.83 29.73,28.16 47.56,38.69 -9.71,-23.26 -31.42,-38.22 -46.95,-57.42zm-1874.67 -31.8c-80.63,-1.65 -161.36,21.19 -241.72,5.94 -4.62,-1.32 -8.54,1.7 -12.93,2.88 33.07,10.38 68.32,9.63 102.58,10.29 39.54,1.18 78.08,-9.63 117.58,-9.3 12.41,0.94 23.87,-3.97 34.49,-9.82zm2063.31 25.81c-19.59,-5.94 -39.35,-11.55 -59.59,-14.48 8.44,16.33 27.79,17.83 43.69,21.99 5.99,-0.52 10.66,-5.14 15.9,-7.5zm-1002.5 -0.37c-3.35,0.99 -10.05,2.92 -13.45,3.91 14.49,-1.41 10.99,7.65 9.39,14.95 -2.26,1.85 -6.84,5.48 -9.11,7.31 -1.14,16.75 6.18,32.51 5.47,49.26 0,12.98 -0.51,25.95 -0.66,38.93 5.28,1.18 10.47,2.6 15.62,4.15l-11.18 1.09c0.24,3.58 0.66,10.8 0.89,14.39 3.73,0.38 11.18,1.14 14.91,1.56 2.6,-22.32 0,-44.5 -4.48,-66.34 -2.6,7.03 -5.14,14.25 -8.17,21.23 1.33,-7.22 2.64,-14.35 5.1,-21.19 -0.24,-8.96 -1.32,-17.88 -1.13,-26.8 -0.28,-14.25 -1.33,-28.4 -3.21,-42.46zm497.59 11.13c-5.85,-3.45 -11.61,-7.13 -17.65,-10.15 -11.04,4.06 -20.24,11.47 -30.29,17.42 5.19,-0.71 15.57,-2.03 20.76,-2.69 -2.03,2.6 -6.04,7.83 -8.07,10.47 2.93,10.34 2.46,20.71 -2.54,30.34 -0.47,17.08 4.29,38.26 -11.61,50.53 1.65,35.15 9.25,69.69 12.59,104.7 1.37,25.15 -1.84,52.85 15.29,73.74 30.1,-32.6 36.9,-80.16 36.01,-123.05 2.45,-7.22 5.14,-14.3 8.54,-21.05 2.03,-30.1 4.1,-60.68 -2.97,-90.26 -2.55,-15.14 -13.16,-26.85 -20.05,-40.01zm0.8 109.41c-3.16,21.05 -1.8,42.47 -4.58,63.6 -1.66,10.81 5.61,21.14 2.35,31.94 -4.01,18.31 -5.28,39.16 -20.05,52.66 -5.23,-29.96 0.8,-60.87 -6.84,-90.45 -3.87,-15.52 -6.94,-31.23 -8.68,-47.13 11.51,-19.11 15.2,-41.29 13.07,-63.27 14.01,14.48 21.37,33.07 24.72,52.65zm345.8 -46.57c-23.59,-22.88 -40.58,-52.14 -66.81,-72.19 4.67,10.66 10.53,20.95 14.16,32.09 11.84,14.67 21.99,34.02 41.61,38.97 4.43,3.73 8.92,7.31 13.41,10.99 -1.33,8.63 -2.36,17.36 -3.21,26.14 -20.43,-22.6 -38.31,-47.18 -57.47,-70.78 -4.06,-5.8 -10.33,-9.11 -16.41,-12.26 4.34,28.12 26.47,48.26 43.31,69.59 6.85,10.38 21.61,10.24 28.22,20.76 -0.33,5.23 -0.95,15.66 -1.22,20.9 -16.09,-16.23 -30.67,-33.84 -45.25,-51.34 -11.84,-14.53 -18.88,-34.16 -36.85,-42.6 10.71,19.16 17.5,40.67 31.94,57.52 -2.17,-0.95 -6.61,-2.83 -8.78,-3.83 -5.67,-9.67 -13.54,-17.83 -23.07,-23.68 19.29,37.03 48.27,67.19 73.84,99.75 1.7,6.23 3.54,12.45 6.04,18.45 3.87,-43.31 11.98,-86.16 16.56,-129.42 -2.5,2.74 -7.5,8.21 -10,10.95zm-51.53 27.22c17.08,12.93 30.58,29.68 45.39,44.96 -0.89,4.91 -2.73,14.72 -3.68,19.63 -16.61,-19.01 -29.58,-41.14 -48.13,-58.46 2.12,-2.12 4.25,-4.15 6.42,-6.13zm210.29 -69.92c-17.79,-8.21 -36.66,-15.1 -56.48,-15.38 5.67,3.73 11.42,7.31 17.18,10.95 4.06,10.05 11.09,18.5 16.56,27.84 7.5,-3.45 14.82,-7.27 21.71,-11.84 -6.79,-3.07 -13.68,-6.09 -20.57,-9.01 5.43,-0.66 16.23,-1.93 21.61,-2.55zm-2072.08 27.84c-18.88,-5.24 -37.18,-12.65 -56.48,-16.47 53.83,25.05 111.83,39.91 169.62,52.84 61.2,15.72 123.52,27.32 186.42,33.46 100.68,6.56 201.09,19.29 302.16,16.98 12.5,-1.03 25.53,-1.89 36.76,-7.92 -103.57,2.08 -206.81,-8.78 -309.94,-16.42 -53.84,-4.53 -107.3,-13.26 -160.28,-23.88 -56.06,-12.83 -113.14,-21.7 -168.26,-38.59zm1323.15 6.75c-16.61,-10.19 -36.47,-18.97 -56.34,-14.44 -16.09,1.04 -18.26,22.6 -33.51,25.39 -25.57,9.34 -50.1,-9.39 -75.44,-9.91 -5.81,1.23 -14.91,0.52 -16.18,8.21 -15.81,49.22 -2.69,100.88 0.19,151.04 0.76,33.55 14.11,65.73 10.71,99.51 -3.82,34.63 -2.97,69.74 2.64,104.13 3.96,20.43 17.36,36.94 35.15,47.32 14.16,-2.22 28.93,-1.09 42.56,-6.14 22.97,-8.68 47.32,-14.06 68.46,-27.18 14.96,4.62 33.13,13.73 46.67,0.9 14.86,-26.28 23.73,-56.19 25.34,-86.35 1.84,-36.95 -21.85,-71.15 -14.91,-108.33 2.41,-16.37 12.5,-30.43 15.62,-46.66 4.06,-21.19 16.04,-40.06 18.54,-61.58 0.8,-14.86 -1.89,-29.58 -5.71,-43.84 -1.32,18.02 3.45,37.37 -5.8,54.03 -13.3,22.64 -15.52,49.4 -25.43,73.46 1.56,13.68 -1.84,26.99 -4.67,40.25 2.55,23.55 11.09,46.05 14.11,69.59 1.89,30.44 -4.34,64.36 -27.13,86.25 -10.24,0.71 -20.86,-1.32 -30.86,1.89 -25.81,10.48 -52.47,18.73 -78.94,27.51 -3.54,-4.34 -6.94,-8.78 -10.19,-13.3 6.42,-4.34 3.07,-11.09 0.99,-16.71 8.59,6 16.7,12.55 25.52,18.21 -22.93,-33.55 -46.19,-68.17 -77.09,-94.88 3.54,6.47 7.21,12.89 11.04,19.25 -1.37,1.55 -4.06,4.77 -5.38,6.37 12.22,21.19 28.45,39.68 41.71,60.16 -3.83,-4.72 -11.47,-14.2 -15.29,-18.92 -2.22,5.05 -4.34,10.14 -6.65,15.24 -3.35,-7.31 -8.92,-11.8 -16.7,-13.45 6.56,9.96 14.24,19.11 21.32,28.69 2.36,-3.63 4.67,-7.21 7.03,-10.71 6.18,7.27 13.02,13.97 19.49,20.95 -9.15,1.84 -18.02,6.65 -27.6,6.27 -5.62,-3.31 -10.85,-7.22 -16.18,-10.95 -7.84,-23.97 -15.19,-48.55 -14.82,-74.08 -3.54,-37.23 3.59,-74.5 -3.2,-111.5 7.17,12.18 14.25,24.96 25.58,33.83 16.75,12.08 27.36,30.1 40.39,45.72 -0.71,-4.62 -2.08,-13.83 -2.79,-18.4 7.41,5.61 14.3,11.89 21.8,17.36 -17.65,-24.11 -25.52,-54.02 -45.95,-76.25 -13.87,-15.43 -23.59,-36 -43.17,-45.2 4.29,9.25 9.06,18.26 13.64,27.37 -0.43,2.93 -1.37,8.68 -1.79,11.56 -3.68,-4.96 -7.46,-9.86 -11.32,-14.58 -3.4,-17.12 -5.43,-34.45 -7.93,-51.66 0.57,-39.54 -10.9,-80.82 2.45,-119.09 21.42,0.66 39.54,17.41 61.67,14.01 23.16,-0.52 40.06,-17.23 56.38,-31.34 20.66,0.28 39.02,11.32 57.65,19.02 15.06,5.94 25.95,21.33 43.41,20.53 -13.45,-14.06 -33.26,-17.98 -49.07,-28.59zm-1512.06 34.82c-5.52,-16.37 -14.91,-32.37 -30.34,-41.14 6.08,16.09 15.24,31.99 30.34,41.14zm-255.16 3.21c-7.13,-11.94 -15.53,-35.11 -33.36,-25.76 5.95,9.58 11.89,19.16 17.46,28.97 3.96,-0.8 11.89,-2.41 15.9,-3.2zm2245.94 16.14c-10.24,-11.47 -11.13,-27.6 -16.71,-41.33 -8.21,36.28 10.34,71.81 24.16,104.42 15.62,22.83 30.95,50.11 58.97,59.07 12.41,5.47 28.27,1.98 36.76,-8.69 4.48,-8.78 4.1,-19.06 5.76,-28.59 -1.09,-0.19 -3.31,-0.62 -4.39,-0.8 -4.58,12.55 -5.05,31.94 -21.8,34.3 -9.01,-0.66 -17.03,-5.52 -25.43,-8.54 -3.54,-8.02 -7.27,-15.9 -10.38,-24.06 14.25,3.87 18.59,24.68 34.4,22.65 2.55,0.99 7.65,2.92 10.19,3.91 -3.39,-5.62 -6.79,-11.18 -10.24,-16.66 3.91,1.14 11.7,3.4 15.57,4.53 -24.68,-34.35 -52.04,-66.76 -74.97,-102.33 -2.88,-5 -8.11,-7.79 -12.78,-10.81 6.94,24.77 19.34,47.18 35.38,67.19 -16.56,-16.66 -29.11,-36.62 -44.49,-54.26zm-1953.56 -22.93c-4.96,-14.11 -18.4,-17.37 -31.9,-18.26 0.24,7.08 -0.38,15.52 6.09,20.19 10.19,9.34 19.48,19.67 26.42,31.71 5.9,-0.71 11.7,-1.33 17.5,-1.93 -2.83,-5.38 -5.75,-10.76 -8.68,-16.09 2.45,-2.36 4.91,-4.77 7.31,-7.08 9.39,15.29 18.73,30.57 28.4,45.67 -3.3,-19.82 -14.81,-37.09 -27.46,-52.23 3.16,-0.24 9.44,-0.62 12.6,-0.8 0.8,5.1 1.55,10.24 2.26,15.43 16,15.2 24.3,36.66 41.24,50.91 6.32,6.23 12.12,12.93 18.44,19.11 -5.37,-22.55 -18.21,-42.08 -27.98,-62.75 20.05,24.11 34.16,52.33 50.3,79.08 8.96,-9.53 17.97,-0.62 26.56,3.59 -0.09,-5.24 -0.28,-10.43 -0.52,-15.62 -23.78,-22.13 -30.34,-56.9 -54.92,-78.71 -1.93,1.42 -5.85,4.2 -7.78,5.57 -12.89,-6.08 -26.57,-10.95 -37.51,-20.38 -7.88,0.94 -15.85,1.55 -23.82,2.41 -2.03,-1.84 -6.08,-5.57 -8.12,-7.41l2.88 14.06c-2.83,-1.6 -8.49,-4.86 -11.32,-6.46zm146.5 10.28c-32.03,-8.49 -64.78,-15.24 -97.53,-20.53 31.29,10.85 64.12,20.62 97.53,20.53zm-459.46 2.74c-5.38,-11.7 -12.37,-23.93 -25.81,-27.41 3.73,12.55 12.03,24.77 25.81,27.41zm-36.57 -18.83c-9.49,0.99 -19.3,-1.65 -28.64,1.47 -3.31,-1.09 -6.61,-2.08 -10.01,-3.07 -0.09,3.02 -0.33,9.06 -0.47,12.13 11.23,8.02 13.49,29.81 29.54,28.4 -3.02,-8.02 -5.47,-16.23 -7.97,-24.44 5.94,8.16 11.93,17.65 23.11,18.54 -1.84,-6.98 -4.06,-13.83 -6.27,-20.67 5.57,8.4 11.94,16.42 20.86,21.51 -0.9,-6.94 -1.93,-13.78 -3.12,-20.57 -5.9,-4.1 -11.51,-8.68 -17.03,-13.3zm-182.83 -2.55c0.75,12.18 3.35,24.11 5.09,36.2 -3.06,-1.66 -9.11,-4.91 -12.17,-6.56 -8.07,12.32 -13.12,26.24 -9.86,41.19 12.7,5.1 19.11,23.64 34.63,18.45 6.37,3.02 12.78,5.94 19.06,8.87 0.43,-3.68 1.23,-10.99 1.61,-14.67 9.9,3.16 17.6,2.08 17.41,-10.19 4.58,2.83 9.2,5.66 13.78,8.4 0,-20.38 -19.29,-33.03 -31.23,-47.28 -3.07,1.23 -6.14,2.5 -9.3,3.82 -6.7,-5.14 -14.11,-9.15 -21.94,-12.31 -1.94,-8.78 -3.87,-17.55 -7.08,-25.91zm34.96 71.77c-7.03,3.77 -14.24,-7.55 -12.64,-13.68 6.61,-2.03 16.04,6.84 12.64,13.68zm3204.23 -65.02c-16.04,0 7.21,14.25 0,0zm-3120.24 12.03c-5.75,-6.08 -11.61,-12.03 -17.79,-17.69 -1.23,3.35 -3.68,10.01 -4.91,13.35 -5.75,-3.07 -11.61,-5.9 -17.55,-8.59 6.32,18.59 17.69,34.82 29.21,50.53 3.16,0.9 9.39,2.69 12.55,3.59 -5.23,-12.03 -12.83,-23.03 -16,-35.91 8.97,7.31 14.25,17.6 20.34,27.13 16.08,-4.67 1.51,-19.72 -0.85,-29.02 8.35,6.65 16.52,13.73 26.18,18.35 -4.34,-12.07 -11.13,-24.2 -22.32,-31.19 -2.22,2.36 -6.65,7.08 -8.87,9.44zm2427.84 32.27c-11.09,-14.44 -20.34,-31.04 -36.09,-41 17.69,31.19 39.12,61.81 66.71,84.97 -8.73,-15.66 -20.34,-29.39 -30.62,-43.97zm-640.18 20.57c-17.6,-18.12 -32.23,-39.68 -53.55,-53.65 1.41,5.95 0.33,13.31 5.19,17.94 30.52,35.57 59.45,72.89 94.74,103.9 15.81,14.72 25.85,34.63 42.89,48.17 -7.36,-16.23 -21.19,-28.5 -27.51,-45.25 12.07,7.08 20.05,18.88 30.2,28.27 -21.05,-40.96 -54.64,-73.56 -81.16,-110.74 16.99,11.99 27.84,30.67 45.25,42.13 16.71,10.48 26.71,27.89 41.1,40.86 -10.09,-22.17 -27.83,-39.35 -42.94,-58.08 -12.07,-13.4 -22.51,-28.97 -37.51,-39.35l-4.15 0.28c-0.71,3.49 -2.12,10.42 -2.83,13.92 -6.65,-6.61 -13.54,-13.02 -21.14,-18.5 -0.38,11.32 6.13,20.67 11.42,30.1zm-1806.39 -12.13c-8.92,-16.42 -17.74,-33.88 -33.74,-44.59 -0.47,3.3 -1.37,9.86 -1.79,13.16 -3.35,-0.28 -10.05,-0.85 -13.35,-1.13 8.49,17.69 21.99,32.32 31.14,49.68 5.76,-5.9 11.7,-11.66 17.74,-17.13zm1954.79 -8.4c4.76,-4.43 -2.08,-13.26 -7.5,-10.1 -4.1,4.29 1.93,13.64 7.5,10.1zm-164.95 34.16c-14.25,-15.47 -25.91,-34.21 -44.97,-44.31 5.71,15.48 15.01,29.11 25.81,41.52 -8.73,-5.9 -16.61,-12.97 -26.14,-17.55 0.62,5.04 1.85,15.05 2.45,20.1l-6.75 1.6c3.5,4.81 6.94,9.67 10.43,14.54 -2.55,0.56 -7.65,1.74 -10.24,2.36 15.85,37.08 49.92,61.15 77.57,88.89 -5.9,-15.57 -20.53,-26.09 -24.77,-42.32 10.66,7.84 19.25,18.07 29.35,26.56 -4.91,-10.14 -10.99,-19.72 -15.57,-30.05 15.76,9.38 24.82,26.18 39.82,36.38 -17.27,-28.27 -39.39,-53.23 -60.44,-78.66 21.33,18.54 40.77,39.12 60.77,59.03 -14.43,-29.21 -37.41,-52.7 -57.32,-78.08zm157.54 16.14c-11.89,-20.06 -25.91,-42.14 -48.74,-50.63 5.76,22.41 14.3,45.48 35.63,57.56 -4.81,-8.96 -10.38,-17.65 -15.57,-26.37 10.05,5.76 19.15,12.93 28.69,19.44zm-289.94 -49.6c-1.84,0.14 -5.52,0.52 -7.31,0.66l0.14 3.83c1.84,-0.19 5.48,-0.57 7.31,-0.8l-0.14 -3.68zm259.17 73.56c-14.95,-23.22 -33.88,-45.11 -57.46,-59.88 15.71,22.88 35.62,42.9 57.46,59.88zm718.64 -37.23c-7.26,-3.54 -14.62,-7.02 -22.08,-10.28l5.67 11.09c-3.91,-1.27 -11.8,-3.77 -15.71,-5 5.66,6.33 11.42,12.55 16.98,19.02 3.54,-0.76 10.71,-2.31 14.3,-3.07 -3.31,-2.83 -6.65,-5.61 -9.96,-8.35 2.69,-0.85 8.12,-2.55 10.8,-3.4zm-4.48 25.24c-9.67,-5.33 -19.82,-9.86 -30.53,-12.59 7.79,8.87 17.88,19.11 30.53,12.59zm-1922.98 59.93c-7.08,-29.87 -26.04,-56.95 -52.42,-72.95 13.17,27.13 33.51,49.83 52.42,72.95zm24.82 -53.51c-6.13,-8.02 -11.79,-17.46 -22.79,-19.29 1.51,4.39 4.58,13.16 6.09,17.55 -1.09,-0.52 -3.21,-1.55 -4.3,-2.08 -7.73,-13.68 -22.41,-14.53 -36.7,-15.1 14.62,21.84 24.63,47.13 43.78,65.63 4.29,0.09 12.79,0.24 17.08,0.33 -2.88,-18.12 -14.54,-32.7 -21.57,-49.12 19.02,19.49 28.88,45.72 46.29,66.53l2.88 -11.66c6.08,6.51 11.98,13.12 18.26,19.44 0,-6.46 -0.24,-12.93 -0.62,-19.34 6.75,4.06 13.59,7.97 20.57,11.56 -1.79,-15.9 -13.16,-27.65 -22.55,-39.64 33.26,4.54 65.06,17.18 98.61,19.68 -31.19,-11.94 -64.54,-15.2 -97.34,-20.24 -9.39,-12.74 -24.16,-16.47 -37.37,-23.36 -2.6,-0.24 -7.74,-0.66 -10.34,-0.9zm1887.78 12.27c-7.88,-5.05 -15.76,-10.15 -23.82,-14.91 6.27,9.57 6.27,27.32 21.28,26.56 -2.64,-2.12 -7.92,-6.42 -10.57,-8.59l-0.62 -2.36c3.45,-0.19 10.34,-0.52 13.73,-0.71zm-1106.62 89.69c-7.13,-18.54 -9.49,-39.77 -22.7,-55.34 18.87,67.33 32.93,136.73 32.18,206.94 0.14,25.1 -5.05,50.3 -0.66,75.35 11.98,-75.21 8.92,-152.92 -8.82,-226.95zm1099.35 -20.57c-3.44,-4.39 -10.57,-8.59 -16.09,-6.18 -1.37,6.89 14.77,15.19 16.09,6.18zm8.12 20.29c-11.09,-7.31 -21.94,-15.89 -35.34,-18.4 3.26,2.78 9.72,8.35 12.98,11.09 -4.77,2.79 -9.67,5.37 -14.54,8.07 10.61,8.17 23.36,12.64 36.8,12.51 -4.01,-2.22 -8.07,-4.25 -12.13,-6.19 -2.22,-2.31 -6.61,-6.89 -8.82,-9.15 5.29,0.52 15.81,1.56 21.05,2.08zm193.78 5.67c-12.32,-10.71 -26.75,-18.88 -43.74,-16.52 -6.42,4.34 -13.02,8.36 -19.58,12.6l7.55 0.61c-0.09,6.75 -0.09,13.54 -0.14,20.38 -2.93,-0.51 -8.69,-1.55 -11.61,-2.08 3.16,9.67 8.11,19.77 2.12,29.63 15.85,9.49 30.71,23.64 50.01,24.63 11.7,-13.64 21,-29.25 22.17,-47.61 -2.41,-7.21 -4.77,-14.34 -6.79,-21.65zm-2662.47 -19.44c-14.91,5.71 -30.39,11.13 -43.41,20.66 -2.93,11.42 -0.33,28.55 11.89,33.6 13.92,6.27 26.61,15.14 41.52,19.01 7.08,-9.01 17.98,-17.79 17.89,-30.06 -5.57,-8.92 -13.59,-15.99 -20.48,-23.92 -8.5,-1.03 -15.47,-5.9 -22.41,-10.61 5.09,-2.88 10.09,-5.76 15,-8.68zm1651.77 52.23c-9.95,-14.67 -20.62,-29.16 -34.11,-40.81 2.6,6.71 5.48,13.36 8.17,20.06 1.7,0.42 5.19,1.27 6.93,1.7 -3.77,2.69 -7.69,5.52 -11.37,8.44 6.47,6.27 12.98,12.84 17.13,21 -12.74,-8.82 -20.53,-23.22 -34.35,-30.63 10.05,16.47 20.57,32.7 30.86,48.98 16.7,15.19 31.57,32.27 47.74,47.98 -2.54,-4.52 -7.64,-13.53 -10.19,-18.07l10.28 -0.47c-9.86,-19.77 -29.67,-35.06 -31.09,-58.18zm947.34 -23.3c5.75,-4.15 5.8,-7.79 0.24,-10.85 -5.76,4.1 -5.85,7.73 -0.24,10.85zm-980.79 0.33c-2.03,-2.08 -2.03,-2.08 0,0zm-277.76 113.37c-10.15,-41.56 -24.3,-82.99 -48.08,-118.9 1.84,45.53 23.07,86.25 37.04,128.67 2.45,6.08 6.61,11.23 10.33,16.56 1.28,-8.73 3.91,-17.69 0.71,-26.33zm277.76 -113.37c2.03,1.98 2.03,1.98 0,0zm-1849.28 -1.42c-11.66,5.67 -25.34,10.53 -30.9,23.41 -5.43,13.97 -22.6,9.96 -34.45,11.84 12.69,19.11 20,48.22 45.72,53.27 15.71,-3.44 24.16,-19.34 29.39,-33.17 6.51,-18.83 -0.09,-38.88 -9.77,-55.35zm1713.91 23.41c-10.01,-3.73 -19.73,-8.26 -29.49,-12.59 3.82,9.34 8.35,18.44 13.54,27.17 -7.84,1.14 -15.85,1.89 -23.83,2.69 12.79,9.44 34.45,23.31 47.14,7.41 -6.98,-0.95 -12.08,-4.01 -15.29,-9.3 2.12,-5.42 4.77,-10.52 7.93,-15.38zm-224.45 6.18c-20.9,4.06 -40.43,20 -41.75,42.23 5.8,10.62 13.83,20.15 16.23,32.37 18.35,10.1 23.31,31.9 24.82,51.2 -23.35,2.36 -20.05,-32.46 -39.44,-36.8 -1.98,3.44 -6,10.33 -8.02,13.73 -6.94,-8.54 -14.2,-16.75 -21.99,-24.58 -6.84,3.63 -13.49,7.5 -20.19,11.55 7.65,9.96 17.65,17.79 25.24,27.79 8.63,13.59 15,28.45 22.27,42.84 -13.64,-19.67 -25.67,-40.48 -40.67,-59.21 -7.6,4.33 -8.54,12.74 -8.25,20.66 -1.94,2.97 -5.81,8.92 -7.74,11.89 -2.03,-1.74 -6.08,-5.19 -8.11,-6.89 -2.45,4.91 -4.86,9.86 -7.27,14.91 8.87,10.81 17.03,22.23 22.79,35.01 19.34,40.58 40.62,80.11 61.05,120.13 1.55,-6.13 2.97,-12.51 0.62,-18.59 -14.2,-46.99 -40.62,-88.89 -59.64,-133.86 18.54,20 28.97,45.82 41.43,69.74 13.54,28.17 28.54,55.92 37.32,86.06 1.14,-1.55 3.5,-4.62 4.62,-6.13 2.45,8.21 4.96,16.47 7.6,24.72 5.09,-13.26 1.22,-27.37 -0.85,-40.77 -5.62,-29.92 -18.78,-57.46 -27.75,-86.3 11.7,17.83 19.02,38.12 30.25,56.24 11.09,17.94 16.04,38.74 19.11,59.36 0.47,6.37 4.15,11.66 7.54,16.89 1.23,-12.22 0.47,-24.44 0.57,-36.62 20.43,15.14 19.58,42.94 29.96,63.98 2.92,-14.77 1.22,-29.68 -0.19,-44.5 6.04,-13.4 5.8,-27.69 3.91,-41.99 7.79,8.92 11.09,20.43 15.05,31.38 6.52,20.67 18.21,39.21 22.7,60.58 2.08,-7.31 3.5,-14.72 4.81,-22.08 7.74,-0.28 15.43,-0.57 23.07,-0.95 -0.52,-7.12 -0.47,-14.48 -3.73,-20.99 -15.2,-35.63 -22.74,-73.85 -36.71,-109.89 -10.76,-33.03 -26.05,-64.45 -35.67,-97.85 -19.11,-34.3 -28.17,-74.27 -52.99,-105.27zm1834.33 8.68c-6.33,-1.46 -8.87,1.14 -7.65,7.84 6.42,1.55 8.96,-1.09 7.65,-7.84zm-1473.19 40.81c-0.05,-6.46 -3.11,-9.76 -9.15,-10 0.28,2.55 0.85,7.59 1.14,10.14 2.03,-0.05 6.04,-0.09 8.02,-0.14zm-1446.58 -2.22c-6.7,-2.73 -13.3,-5.94 -20.48,-7.54 -3.87,3.77 -7.26,8.11 -10.8,12.36 4.48,5.33 8.68,10.85 12.6,16.56 1.32,-1.56 3.96,-4.67 5.28,-6.19 4.1,-0.32 8.17,-0.56 12.22,-0.85 0.28,-3.59 0.89,-10.76 1.18,-14.35zm1989.7 -4.67c-3.73,2.41 -7.22,5.05 -10.61,8.02 7.17,8.25 18.35,16.52 16,29.02 -3.83,24.34 -21.42,42.75 -36.52,60.96 -12.46,14.35 -22.88,31.66 -40.58,40.25 -17.42,11.84 -38.17,16.14 -57.47,23.69 -14.53,4.96 -15.29,24.49 -29.02,31.09 -14.16,7.27 -26.42,17.6 -40.06,25.72 -20,6.83 -39.31,15.66 -59.64,21.42 -13.83,3.21 -20.1,18.35 -33.4,22.88 -9.67,6.51 -21.19,2.08 -31.71,0.9 -37.41,-5.48 -70.3,-33.88 -109.7,-26.29 -26.8,4.1 -37.55,35.86 -35.53,59.59 7.84,28.78 21.57,55.72 28.36,84.83 1.79,-2.03 5.28,-6.08 7.02,-8.11 7.08,10.47 16.23,19.25 24.68,28.64 22.03,5.33 44.3,0.57 66.15,-2.79 24.07,-0.75 47.47,-6.46 70.35,-13.49 39.02,-8.54 70.26,-35.76 98.89,-62.04 25.2,-25.15 62,-39.35 77.33,-73.42 9.06,-21.18 24.45,-38.22 37.8,-56.62 -6.09,0.62 -12.18,1.47 -18.26,2.36 -7.08,9.58 -15.01,18.54 -23.12,27.32 -12.27,13.78 -16.52,32.75 -29.25,46.24 -21.05,21.94 -48.93,35.53 -70.54,56.86 -13.73,13.45 -30.39,23.11 -46.24,33.78 -15.29,10.9 -34.77,10.99 -51.76,17.88 -28.07,3.3 -56.29,5.33 -83.84,12.07 2.59,-9.53 -2.79,-16.65 -8.92,-22.84 -21.46,-22.27 -37.13,-49.59 -59.97,-70.67 -7.41,-21.19 2.55,-46.19 24.3,-53.69 0.43,3.87 1.37,11.65 1.79,15.52 19.21,20.24 34.97,43.83 55.87,62.37 14.86,5.9 24.06,19.16 33.07,31.66 -3.96,-25.24 13.07,-1.32 23.03,-0.09 4.81,1.7 9.67,3.4 14.48,5.1 -8.4,-14.58 -21.09,-25.86 -32.17,-38.31 4.2,3.06 8.21,6.27 12.17,9.63 18.12,6.75 28.41,24.01 43.17,35.43 -3.25,-8.73 -8.92,-16.14 -15.05,-22.93 -22.03,-24.96 -44.96,-49.16 -66.72,-74.41 8.92,1.22 17.79,2.64 26.7,4.01 -0.18,23.41 23.69,37.28 43.08,44.26 9.76,8.49 18.21,18.63 29.44,25.33 -11.74,-20.57 -31.7,-34.53 -44.63,-54.17 11.75,9.63 21.47,21.66 34.59,29.58 12.32,7.5 21.05,19.87 34.4,25.91 -16.37,-24.44 -39.02,-43.74 -57.85,-66.15 0.09,-1.55 0.38,-4.67 0.52,-6.23 12.55,22.6 39.21,28.5 58.36,43.6 -7.64,-18.02 -24.68,-29.12 -38.36,-42.14 -5.42,-2.69 -4.48,-7.78 -3.25,-12.55 10.9,10.05 19.96,22.93 34.3,28.45 13.96,5.19 21.42,19.44 34.63,25.95 -7.08,-17.23 -23.54,-27.6 -33.03,-43.22 15.14,5.8 29.58,13.3 44.49,19.77 -11.47,-18.4 -29.25,-31.28 -43.41,-47.42 2.83,-2.03 8.45,-6.08 11.23,-8.16 5.48,7.69 10.1,16.09 16.61,22.97 8.87,6.09 19.34,9.39 29.06,13.78 -10.61,-15.05 -25.01,-26.7 -37.7,-39.82 5.99,-1.37 11.94,-2.6 17.93,-3.82 3.06,7.78 7.92,14.67 13.3,21.13 2.64,-0.28 8.02,-0.85 10.71,-1.13 5.71,4.62 11.61,9.11 17.83,13.02 -6.13,-15.66 -20.24,-25.67 -31.99,-36.9 11.28,-9.57 23.64,-17.74 36.52,-24.95 12.18,-6.75 18.4,-20.25 29.87,-27.84 12.03,-6.94 26.56,-6.61 38.97,-12.46 17.36,-7.92 34.07,-19.01 44.44,-35.34 16.14,-25.48 42.89,-44.07 52.14,-73.65 4.81,-16.89 2.55,-38.97 -13.3,-49.36zm-249.17 245.78c6.37,3.82 0.57,15.71 -5.99,9.81 -7.13,-3.91 -0.66,-15.76 5.99,-9.81zm-150.89 0.7c-0.24,3.59 -0.71,10.76 -0.9,14.35 -5.14,-5.38 -10.09,-10.99 -15.1,-16.47 4.01,0.52 11.99,1.6 16,2.12zm31.23 27.84c-8.07,-7.27 -15.85,-14.91 -22.41,-23.64 12.27,2.5 21.47,10.57 22.41,23.64zm-21.75 113.67c-13.21,-3.87 -22.08,-14.44 -30.53,-24.58 10.99,7.17 23.45,12.93 30.53,24.58zm-292.63 -358.07c-3.68,-4.25 -14.95,-5.99 -16.23,1.28 1.23,9.19 22.04,9.86 16.23,-1.28zm0.95 22.79c-7.41,-3.21 -14.86,-6.42 -22.22,-9.82 -0.24,2.83 -0.71,8.5 -0.95,11.32 7.27,1.09 14.49,2.41 21.66,3.83 0.37,-1.33 1.13,-4.02 1.51,-5.33zm932.66 31.33c-14.43,-10.47 -29.96,-19.29 -45.9,-27.22 10.52,15.05 25.81,30.01 45.9,27.22zm-7.27 15.76c-12.69,-8.35 -26.09,-15.71 -40.1,-21.46 5.43,6.04 11.47,11.51 17.93,16.51 -1.93,1.84 -3.91,3.73 -5.94,5.67 -4.48,-2.12 -13.54,-6.27 -18.02,-8.35 6.51,15.24 23.92,19.39 38.55,22.22 -3.31,-4.15 -6.65,-8.21 -10.01,-12.27 4.39,-0.57 13.16,-1.74 17.6,-2.31zm-45.15 4.1c-1.46,0.52 -4.43,1.51 -5.94,1.98 12.37,11.66 25.43,27.08 44.68,22.98 -12.12,-9.48 -26.04,-16.27 -38.74,-24.96zm-1195.61 37.89c-5.47,-11.61 -12.36,-22.41 -19.11,-33.27 -3.45,5 -6.89,10.19 -10.29,15.39 4.86,5.8 10.95,10.8 14.63,17.55 17.74,36.66 33.64,74.31 52.71,110.26 1.03,-3.82 1.89,-7.69 2.55,-11.56 -6.94,-35.15 -25.34,-66.34 -40.49,-98.37zm1224.49 -2.03c-10.67,-10.42 -24.82,-16.08 -38.26,-21.94 7.59,13.59 22.65,22.13 38.26,21.94zm-1264.17 -13.77c-3.58,1.46 -7.17,2.92 -10.8,4.48 -1.7,-1.98 -5.1,-6 -6.79,-7.98 -0.71,3.35 -2.12,10.1 -2.83,13.45 13.4,34.73 34.87,65.54 52.8,97.95l3.58 0.7c0.24,-3.44 0.62,-10.33 0.8,-13.77 4.81,5.99 9.15,12.69 16.23,16.27 -3.16,-18.35 -12.84,-34.53 -21.66,-50.62 -10.61,-20.05 -20.57,-40.48 -31.33,-60.49zm-7.5 47.88c-10.38,-16.09 -13.78,-37.84 -29.54,-49.54 -2.78,7.79 1.93,14.91 4.29,22.04 11.7,29.39 24.68,58.6 43.31,84.31 2.55,-20.8 -9.86,-38.79 -18.07,-56.81zm1264.12 -27.98c-9.63,-6 -19.53,-11.51 -29.16,-17.46 -2.17,1.85 -6.42,5.57 -8.54,7.46 11.23,6.19 24.39,17.13 37.7,10.01zm-1317.25 4.1c-4.77,-7.36 -8.26,-16.47 -16.8,-20.15 -10.47,11.09 1.28,21.42 7.27,31 14.58,21.19 24.63,45.06 38.26,66.81 0.52,-10.29 -0.19,-20.53 -1.74,-30.67 4.06,6.7 8.11,13.3 12.26,19.96 0.14,-3.58 0.47,-10.8 0.62,-14.43 -11.51,-25.39 -22.98,-52.23 -42.23,-72.66 0.57,5 1.74,15.1 2.36,20.15zm-836.08 -13.3c-2.41,0.61 -7.31,1.84 -9.72,2.45 -12.13,8.25 -23.87,17.03 -35.38,26.18 -2.03,7.36 -3.92,14.77 -5.71,22.27 3.4,0.05 10.19,0.19 13.59,0.24 10.43,19.06 35.15,16.75 53.18,23.78 8.02,-6.38 15.24,-13.54 21.65,-21.42 -2.22,-14.2 -9.25,-26.56 -16.52,-38.64 2.88,-0.85 8.59,-2.5 11.47,-3.35 -5.28,-0.19 -10.57,-0.33 -15.9,-0.33 -5.52,-3.78 -11.09,-7.46 -16.65,-11.18zm832.68 83.37c-4.29,-28.69 -15.24,-58.74 -36.47,-79.17 -2.31,16.66 9.06,30.1 15.58,44.4 6.79,11.66 10.38,25.58 20.9,34.78zm1322.86 -49.12c-14.77,-16.04 -35.06,-24.63 -56.86,-24.16 18.59,8.73 37.18,18.07 56.86,24.16zm-1363.02 24.39c1.7,-18.83 -3.96,-36.38 -14.86,-51.57 -13.64,1.27 -32.56,-3.54 -37.42,13.91 -3.35,-2.68 -6.75,-5.33 -10.24,-7.88 -0.9,8.02 8.02,37.89 14.16,15.29 10.05,17.5 29.35,26.43 48.36,30.25zm1349.47 -4.34c-16.42,-8.3 -33.74,-15.29 -51.57,-20.05 14.44,12.5 34.63,17.93 43.5,36.43 4.67,-5 19.15,-9.72 8.07,-16.37zm-1818.66 80.49c-4.02,-0.52 -12.08,-1.6 -16.09,-2.12 -0.8,4.96 -1.61,10.01 -2.5,15.06 1.84,-0.2 5.47,-0.66 7.31,-0.9 1.51,2.74 4.53,8.11 6.04,10.85 6.75,-6.56 12.27,-14.39 5.24,-22.88zm1248.03 69.69c-19.44,-23.26 -37.99,-47.32 -56.67,-71.24 -5.67,3.58 -11.42,7.17 -17.23,10.71 8.36,25.24 25.91,45.82 43.6,65.11 15.62,4.62 22.32,21.47 36.85,28.27 -7.69,-11.84 -17.08,-22.46 -25.48,-33.74 21.94,3.87 27.93,27.6 44.4,39.25 -5.99,-14.29 -16.04,-26.23 -25.47,-38.36zm1143.52 -46.19c-3.12,3.16 -3.12,3.16 0,0zm-447.95 33.26c3.73,-5.94 2.41,-9.53 -3.87,-10.76 -3.63,5.99 -2.35,9.58 3.87,10.76zm-1743.26 2.22c-10.52,2.83 -21.33,5.95 -29.11,14.2 3.44,0.52 10.33,1.55 13.78,2.08l-8.02 3.91c1.14,1.6 3.45,4.81 4.62,6.42 7.55,-7.83 17.93,-14.77 18.73,-26.61zm1888.02 76.53c0.09,-24.87 -5.1,-49.64 -21.71,-68.98 -3.35,17.08 8.82,32.93 6.89,50.39 4.91,6.18 9.77,12.45 14.82,18.58zm97.34 -51.85c-0.99,-5.52 -5.19,-9.39 -8.87,-13.12 4.81,33.97 12.07,67.85 17.5,101.63 1.6,-0.8 4.86,-2.41 6.46,-3.16 -3.64,-28.69 -7.74,-57.32 -15.1,-85.35zm-51.39 -7.78c-4.62,31 6.46,61.43 7.31,92.38 4.01,-3.21 7.5,-6.98 10.99,-10.61 -4.43,-9.86 -9.11,-21.9 -5.1,-32.51 3.78,7.97 4.86,17.31 11.99,23.59 -2.08,-21.23 -4.2,-42.75 -10.42,-63.18l-6.89 -6.46c-1.98,12.97 8.92,30.06 1.32,41 -2.45,-14.86 -4.29,-29.92 -9.2,-44.21zm46.19 83.75c-9.2,-25.72 -5.94,-54.4 -16.47,-79.46 -2.55,27.56 3.64,54.96 7.98,82.05 -7.36,-6.79 -13.54,-14.72 -20,-22.27 1.08,11.32 2.59,22.7 4.34,34.02 2.03,-3.16 6.04,-9.49 8.07,-12.64 5.48,4.86 10.95,9.91 16.42,14.86 2.12,-3.11 6.42,-9.25 8.59,-12.31 -2.26,-1.09 -6.7,-3.21 -8.92,-4.25zm-59.83 -71.15c-2.97,-0.19 -8.92,-0.52 -11.89,-0.71 2.41,13.49 4.43,27.08 7.17,40.58 2.18,7.08 10.1,5.14 15.34,3.35 -4.29,-14.25 -7.6,-28.73 -10.62,-43.22zm123.77 49.16c-2.03,-9.9 0,-23.35 -9.82,-29.68 0.57,10.48 2.79,21.42 9.82,29.68zm-14.72 8.78c-3.2,-13.82 -3.58,-29.21 -13.35,-40.39 1.04,12.55 3.39,25.01 5.99,37.37 1.85,0.75 5.52,2.26 7.36,3.02zm-385.62 -10.71c-3.16,3.12 -3.16,3.12 0,0zm288.38 2.36c-1.46,-0.05 -4.43,-0.14 -5.9,-0.14l-2.83 -0.52c-4.39,0.38 -7.46,2.97 -9.3,7.79 6.7,3.96 9.53,13.07 16.61,16.23 1.79,-1.04 5.37,-3.12 7.17,-4.15 -1.84,-6.47 -3.78,-12.89 -5.76,-19.21zm-1816.44 35.91c-5.33,4.25 -10.53,8.78 -15.62,13.4 2.69,1.56 8.02,4.72 10.71,6.33 1.7,-6.56 3.44,-13.26 4.91,-19.73zm1210.8 62.38c-4.91,-16.56 -10.28,-33.78 -22.65,-46.43 3.59,16.75 8.17,35.62 22.65,46.43zm-39.25 1.03c-5.14,-16.7 -12.41,-32.6 -20.06,-48.22 3.12,16.94 5.48,36.85 20.06,48.22zm53.5 -15.9c-1.74,-11.23 -6.51,-21.94 -16.23,-28.4 1.84,9.3 4.62,18.4 7.08,27.65 2.31,0.18 6.89,0.56 9.15,0.75zm-38.26 16.66c-2.64,-15.52 -9.15,-30.96 -21.52,-41.19 5.1,14.63 11.37,29.25 21.52,41.19zm-1490.51 -31c-9.15,3.73 -14.2,11.74 -17.79,20.53 2.08,2.78 6.27,8.4 8.35,11.18 7.22,-9.11 8.96,-20.48 9.44,-31.71zm-255.97 9.34c-7.69,5.14 -15.14,11.09 -18.26,20.29 5.62,-0.89 11.14,-1.84 16.61,-2.78 0.62,-5.9 1.18,-11.7 1.65,-17.51z"/>
 </g>
</svg>
