<svg xmlns="http://www.w3.org/2000/svg" viewBox="0 0 48 48" width="528" height="528"><path d="M42 39L42 9C42 7.3 40.7 6 39 6L9 6C7.3 6 6 7.3 6 9L6 39C6 40.7 7.3 42 9 42L39 42C40.7 42 42 40.7 42 39Z"  fill="#1C9957"/><path d="M9 42L39 42C40.7 42 24 26 24 26 24 26 7.3 42 9 42Z"  fill="#3E7BF1"/><path d="M42 39L42 9C42 7.3 26 24 26 24 26 24 42 40.7 42 39Z"  fill="#CBCCC9"/><path d="M39 42C40.7 42 42 40.7 42 39L42 38.8 26.2 23 23 26.2 38.8 42Z"  fill="#EFEFEF"/><path d="M42 9C42 7.3 40.7 6 39 6L38.8 6 6 38.8 6 39C6 40.7 7.3 42 9 42L9.2 42 42 9.2Z"  fill="#FFD73D"/><path d="M36 2C30.5 2 26 6.5 26 12 26 18.8 33.7 21.3 35.3 31.9 35.4 32.5 35.4 33 36 33 36.6 33 36.6 32.5 36.7 31.9 38.3 21.3 46 18.8 46 12 46 6.5 41.5 2 36 2Z"  fill="#D73F35"/><path d="M39.5 12C39.5 13.9 37.9 15.5 36 15.5 34.1 15.5 32.5 13.9 32.5 12 32.5 10.1 34.1 8.5 36 8.5 37.9 8.5 39.5 10.1 39.5 12Z"  fill="#752622"/><path d="M14.5 12.5L14.5 14.6 17.5 14.6C17.1 15.9 16 16.8 14.5 16.8 12.7 16.8 11.2 15.3 11.2 13.5 11.2 11.7 12.7 10.2 14.5 10.2 15.3 10.2 16.1 10.5 16.6 11L18.2 9.4C17.2 8.5 15.9 8 14.5 8 11.5 8 9 10.5 9 13.5 9 16.5 11.5 19 14.5 19 19.3 19 20.1 14.7 19.7 12.5Z"  fill="#FFF"/></svg>