<svg xmlns="http://www.w3.org/2000/svg" width="40" height="40" viewBox="0 0 400 400"><style>.a{fill:#FFF}</style><defs><linearGradient id="b" gradientUnits="userSpaceOnUse" x1="60" y1="340" x2="340" y2="60"><stop offset="0" stop-color="#FFD521"/><stop offset="0.5" stop-color="#F50000"/><stop offset="1" stop-color="#B900B4"/></linearGradient></defs><polygon points="0 400 400 400 400 0 0 0 " fill="url(#b)"/><path d="M256 60l-112 0c-46 0-84 38-84 84l0 112c0 46 38 84 84 84l112 0c46 0 84-38 84-84l0-112c0-46-38-84-84-84zm-56 68c-40 0-72 32-72 72 0 40 32 72 72 72 40 0 72-32 72-72 0-40-32-72-72-72zm0 116c-24 0-44-20-44-44 0-24 20-44 44-44 24 0 44 20 44 44 0 24-20 44-44 44zm112 12c0 31-25 56-56 56l-112 0c-31 0-56-25-56-56l0-112c0-31 25-56 56-56l112 0c31 0 56 25 56 56l0 112 0 0z" class="a"/><circle cx="272" cy="128" r="17" class="a"/></svg>