<svg xmlns="http://www.w3.org/2000/svg" width="100" height="100" viewBox="0 0 5000 5000"><path fill="#fff" d="M17 2660c-63-642 186-1293 597-1787 48 0 97-1 145 8 17 46 29 95 40 143 7-30 15-61 23-91 53 55 132 95 150 176 35 25 71 49 108 73 43 40 87 80 131 120-30 62-60 126-91 188-33-42-56-91-60-146-9 16-27 48-36 64-132-108-269-210-402-318-49 62-96 127-144 191 142 120 329 176 465 305-7 17-23 53-31 72 38 17 70-3 101-26-15 40-11 100-71 104 14 13 43 40 57 54-43-16-86-35-134-39-62-25-122-55-179-91 0-74-15-148-34-220-66 85-112-19-103-81-14-10-44-31-59-42-15-2-45-6-60-8-33 16-67 32-102 46 119-32 68 123-20 107 17 17 35 35 52 53-27 60-53 122-78 184-30 25-62 51-86 83 18-13 56-42 75-56 74 27 149 55 225 78 30 63 69 124 76 196 18 0 57 0 76 1-27 22-56 52-95 42-104-12-202-50-305-68-1-49-1-98-3-148-28 37-56 75-86 112 12 7 37 20 49 27-20 68-39 138-43 210 187 48 392 27 570 111 57 13 111 34 151 79 17-21 35-42 52-64 176 6 353 27 517 92 81-47 156 23 228 53-184 48-372 10-558 15-16-15-48-45-65-60 2-16 6-48 8-64-28 35-48 80-85 108-36 8-72-11-107-17-136 24-275 4-411-7-115-48-238 16-358-6 19 64 27 131 42 196 41 12 84 7 126 6 31 19 63 39 94 58-7 14-22 42-30 56 46-3 93-7 140-9-46 25-100 35-151 45l65 38c-79-22-165 7-224 64-6 53 9 106 28 156 87 8 175 17 262 33 33-21 67-42 99-65 77-56 173-73 264-94-12 61-26 122-39 183-124 44-249 89-376 127-53 15-105 38-148 74 26 52 49 106 70 160 152-65 305-130 459-194 25 48 51 96 77 144-123 78-253 147-381 217-18 12-36 25-55 37 31 49 59 102 105 140 109-62 210-137 316-205 36-21 71-42 107-64 41 35 83 70 126 104-137 127-296 229-431 359 40 48 82 95 124 142 159-141 308-294 461-441 17 16 35 33 53 51-4 50-6 100-6 151-106 134-227 256-341 386l8 26c46 38 95 75 142 113 97-112 166-245 263-358 45 38 92 75 139 112-50 115-138 252-212 353 58 39 121 71 184 104 83-130 121-286 218-409 58 9 117 17 177 22-57 160-111 322-175 481 68 16 136 35 203 56 66-174 91-361 154-537 50-60 136-79 199-127-26 240-78 477-104 717 74 5 148 11 222 18 18-283 34-566 42-849-4-145 107-256 139-393 35 389 47 780 69 1171-3 101 124 53 186 61 15-14 30-30 45-46-2-110-35-217-49-325-49-343-117-683-168-1026-12-70-1-141 15-210 90 155 130 335 143 513 7 102-15 203-12 305 30 86 164 51 178 144 54 186 103 374 154 561 88-15 180-38 247-104-72-87-104-198-146-301-41-106-87-210-123-319 89 14 209 1 257 94 89 144 159 300 242 449 67-37 134-77 200-118-142-224-272-387-406-617 41-14 53-80 95-97-3-5-10-15-14-20-40 1-72 23-98 55-42-123-81-247-127-370 95 84 165 191 252 283 116 123 206 268 330 385 18 84 54 163 102 235 18-3 54-9 72-13-67 34-182 51-173 148 26 35 67 56 102 83-394 257-851 425-1321 452-631 36-1272-180-1746-595-495-423-799-1051-858-1699 4-10 12-29 17-39zm648-1840c20-25 42-51 63-76 416-404 969-663 1544-727 298-39 603-3 888 80-9 21-28 63-38 84 33-25 63-52 95-80 157 56 310 124 463 191 633 327 1103 948 1257 1644 96 427 77 880-56 1300-85 257-214 499-368 722-44 55-88 110-135 164-5-35-9-70-14-106-22-20-45-41-68-61 100-29 146-125 197-207-21-15-64-47-86-64 32-3 64-7 97-11-17-31-34-62-50-94-2 28-3 57-5 86-19-2-58-7-78-9-5-14-15-42-20-56-6 10-18 30-25 39-109-55-210-126-299-211-38-41-100-42-149-63-11-57-76-77-108-122-72 45-136-36-198-61 111 14 227-9 334 26 4-5 12-16 16-21 58 35 119 66 182 93-3 15-11 47-16 63 12-12 36-37 48-49 79 46 164 84 249 120-29 27-58 55-87 83 5 4 16 12 22 17 26-33 52-66 79-99 70 43 145 76 217 114l93-209c-180-82-379-118-552-217 46-50 97-96 150-140 151 44 309 73 462 116 33-61 46-130 61-197-145-47-299-61-450-74 4-64 6-129 6-194 154-12 308 24 461 5 19-72 14-130 8-202-168-5-336 28-504 18-34-49-52-107-77-160 188-36 379-56 568-92-11-64-23-127-35-192-220 37-433 105-653 142 28-67 56-135 92-200 169-52 338-108 505-168-23-61-49-122-73-183-154 62-304 136-460 196-21-52-47-104-65-158 140-84 290-151 423-246-27-51-54-102-81-154-159 92-308 203-466 299-48-34-96-70-144-105 169-120 320-265 494-379-57-42-105-94-154-146-72 62-142 128-210 196-3-20-11-61-14-81-3 30-5 60-8 90-12-4-35-13-47-18l40 24c-63 79-137 150-222 207-22-37-44-76-67-113 94-177 249-310 367-471-46-37-93-75-143-108-46 37-88 80-133 119-27 13-55 27-82 41-34-37-71-72-108-106 12-15 37-44 49-59 9 14 27 42 36 56-14-68 15-134 36-198-65-29-131-58-197-87-40 83-79 168-132 245-24-63-57-122-132-133-11 54-25 107-39 161 19-8 59-25 79-34 18 16 36 33 55 50-17 65-35 129-51 195-22-14-68-42-91-56 11 14 35 43 47 58-7 33-16 67-24 101-9-36-19-71-28-108-27-23-53-47-71-79l48 28 31-42c-15-13-46-39-61-52 74-159 108-334 183-494-15 17-44 52-59 70-30-20-60-40-89-61-32 4-83-13-95 29-62 163-91 337-131 506-17-16-53-48-71-64-11 17-21 34-32 51 33 3 67 7 100 11-15 62-30 124-45 186-6-6-20-18-27-24-29 13-59 26-89 39 13 6 41 20 55 27l-43 62c-112-107-42-261-24-391 4-5 12-17 16-23 9 0 29 0 39 0 9-13 19-26 30-39-18 1-54 3-72 4 0-146 53-290 59-437-76 0-152-7-228-11-6 117-4 234-28 350 1 12 2 36 4 48 0 29 0 59 1 88-13-9-40-28-53-37l-6 15c17 9 53 27 71 37-46 85-40 52-21 122-10 8-31 24-41 33-49-11-99-20-146-37-31-198-13-402-40-601-66-33-148-2-215 19-39 101 81 450 63 601-53 34-113 58-170 87-30-109-133-556-187-627-76 10-147 45-218 73 75 201 158 399 235 600 7 11 24 33 32 44-41 53-82 108-121 163-24-23-48-47-72-71-93-214-209-418-326-621-63 40-128 80-192 121 115 171 230 343 344 516-60 24-118 52-175 84-144-132-257-296-389-441-55 55-104 120-172 162-46-3-81-38-121-57zm1853-421c-9-8-29-24-39-33-42 22 22 78 39 33zm-2125 1136c36-35 72-70 113-100-13 14-39 44-53 59 39 30 78 61 115 94-60-8-118-30-176-52zm255 101c-41 18-56 5-46-37 41-18 56-6 46 37zm-57 205c261 110 272 38 331 214-42 11-84 22-126 35-5-7-15-21-21-28 18-30 38-61 57-92-31-22-63-44-94-66-13 14-39 43-53 58 60 33 41 81 7 128-8-59-17-118-23-178-25-23-51-46-77-70zm-99 850c3-25 7-51 11-77 148 0 296-28 443-10 29 17 57 35 86 53 64-40 132-74 207-88-89 58-188 103-268 175-43 6-86 12-129 18 8-36 10-73 8-110-20 36-39 74-57 112-72 13-145 24-219 35-6-60-14-121-30-180-2 23-8 72-11 96l-40-25zm446-586c24-36 49-72 74-109 63 19 127 36 187 63 46 47 85 100 133 145-5 6-16 21-22 28-124-41-277-27-373-128zm2043-956c29-69 58-139 87-208 41 34 82 68 123 103-31 68-62 137-93 206-41-31-80-64-117-100zm-78 261c23-80 45-161 75-239 36 27 72 55 109 83-24 82-63 156-139 202 5-21 15-64 20-85-15 13-47 39-62 52l-3-12zm568-521c37-70 75-140 112-210 25 28 51 55 78 83-52 61-82 135-93 215-27 9-54 19-82 29 16-32 33-64 52-95-22-7-44-13-66-21zm-99 208c-8-12-25-36-34-48 79-22 112 54 152 106-14 12-42 36-56 48 8 22 15 45 23 68l-28-38c-23 32-47 64-70 96-4-2-13-6-18-8 19-47 39-95 57-144-31 25-62 50-93 76 21-41 49-84 10-124 13-8 42-24 56-33zm93-112c-34 11-48-2-40-40 35-10 48 3 40 40zm206-166c14-42 34-45 61-9-15 42-35 45-61 9zm-149 536c30-41 63-80 96-120 10 7 32 23 43 31-44 32-90 64-139 89zm-474 1694c152 45 245 47 354 183l44 15c1 13 4 40 6 54 13 0 39 0 53 0 172 120 342 243 500 383 7 60 29 118 65 168-15 142 127 108 157 237 21-10 31-40 95-76 48 25 28 95 6 133-46 106-148 169-224 251-28-30-57-61-85-91 51-57 104-113 156-170-111-133-260-229-364-368-79-67-165-129-236-207-126-149-371-364-528-510zm1006 696c21-29 93 30 67 58-34-5-57-24-67-58zm42 122c7-49 66-10 46 24-10 49-63 11-46-24zm-2887-2233c18-112 66-215 122-313 84-116 234-154 367-111 57 38 117 71 177 106-4-14-14-42-19-56 66-296 469-499 743-274-8 15-27 46-36 61 15-13 44-39 59-52 46 71 88 145 131 219-10 3-30 10-41 13 31 25 56 58 56 100 35 235 5 472-11 708-10 29-21 58-31 88 146-167 284-344 454-489 40-6 80 1 121 3 41-36 74-80 89-133 36-16 73-31 109-48 215-2 451 69 568 261 58 80 52 185 27 276-49 62-99 124-151 184 102 32 203 89 250 190 88 166 124 403-22 550-69 86-179 118-281 146-12-23-26-47-38-71-20 27-40 55-60 82-354-18-700-114-1020-264 173 280 328 573 443 883 23 71 33 145 49 218-7 7-23 23-32 31-114-52-237-2-331 70 2-146 12-295-18-439-63-309-163-505-271-690-96 366-127 774-376 1079-174 255-833 231-841-140-4-81 30-157 67-229-102 12-207 3-302-40-76-59-143-128-201-205-47-103-89-221-42-334 85-230 335-329 550-401 200-39 403-96 608-79-170-91-350-171-498-298 10-17 31-53 42-71-26 20-50 42-75 63-129-102-266-214-323-376-18-39-2-83 4-123 18 15 55 48 74 63-29-53-60-106-89-160z"/></svg>