<svg xmlns="http://www.w3.org/2000/svg" width="40" height="40" viewBox="0 0 400 400"><path d="M249 178l-98 0c-4 0-7 3-7 7 0 4 3 7 7 7l98 0c4 0 7-3 7-7 0-4-3-7-7-7zm93-10c0-1-1-1-1-2 0-1-1-3-3-4l-40-28 0-30c0-4-3-8-7-8l-47 0-40-27c-2-2-6-2-8 0l-40 27-47 0c-4 0-7 4-7 8l0 30-41 28c-2 1-3 3-3 6 0 0 0 0 0 0l0 157c0 2 1 4 3 5 1 2 3 2 5 2 0 0 0 0 0 0l269 0c4 0 7-3 7-7l0-157zm-44-16l23 16-23 16 0-32zm-98-68l18 12-37 0 19-12zm-83 27l166 0 0 83-56 39-22-18c0 0-1 0-1 0-2-2-6-2-8 0l-23 18-56-39 0-83zm-15 40l0 33-24-16 24-17zm-29 31l88 60-88 68 0-128zm14 136l113-88 113 88-226 0zm152-76l88-61 0 129-88-68zm10-102l-98 0c-4 0-7 3-7 7 0 4 3 8 7 8l98 0c4 0 7-4 7-8 0-4-3-7-7-7z" fill="#FFF"/></svg>