<svg xmlns="http://www.w3.org/2000/svg" width="200" height="200" viewBox="0 0 2000 2000"><circle cx="1000" cy="1000" r="1000" fill="rgba(45,11,55,0.75)"/><path d="M909 526c33-13 71-11 105-1 15 4 30 11 39 25 9 13 9 30 3 44-3 8-8 15-11 23-14 28-25 58-29 89-3 17-6 34-5 51 0 3 0 8 4 7 3-3 3-8 4-13 3-34 9-69 25-101 10-21 21-43 34-63 7-10 15-19 25-26 20-12 44-14 66-8 24 7 41 27 50 49 8 18 5 37 5 56-2 28 4 57 14 83 4 11 4 22 0 33 7 2 11-6 12-11 1-9-2-18-4-26-6-15-10-30-10-46 0-13 3-26 12-36 6-6 16-5 24-3 24 6 45 20 61 38 18 20 27 47 33 73 5 19 2 39 4 58 0 4 4 5 6 2 2-12 3-25 8-36 5-8 14-15 24-14 7 0 13 4 18 9 9 11 14 25 18 38 6 18 10 36 11 55 1 11 2 22-1 33-3 13-10 25-20 34-19 19-42 33-65 47-14 9-25 23-31 38-10 24-31 43-54 54-25 11-54 15-81 8-14-4-28-12-34-26-11-22-21-46-37-65-4-3-8-8-14-7-3 4-1 9 1 12 6 7 12 13 17 21 9 17 16 34 19 53 2 13-2 26-10 35-6 8-14 13-22 18-13 8-27 13-43 15-17 2-35 1-52-1-12-2-23-6-34-11-13-6-25-15-31-28-8-18-11-38-15-57 0-5-7-4-8 0-4 21 5 42 9 62 0 4 1 10-4 11-6 0-11-1-16-2-19-5-38-11-55-20-11-7-22-16-27-29-3-7-4-16-7-23 0-2-2-4-4-5-7 8-2 20-6 30-3 6-11 8-18 9-15 1-29-2-43-6-17-4-35-9-49-20-8-8-13-19-14-30-1-19 6-38 14-55 1-2 1-6-2-7-3-2-6 3-8 5-6 8-11 16-19 23-13 13-33 19-51 16-12-1-23-6-32-14-12-9-23-22-29-37-4-11-4-25 2-36 4-9 12-16 21-21 4-3 9-6 8-11-12-2-20 7-29 12-8 5-18 5-26 1-12-5-18-17-21-28-4-16-2-33 2-49 5-21 17-41 30-58 2-3 6-3 8-1 2 6 3 12 6 18 6 15 19 24 31 32 14 10 33 11 46 21 12 9 18 23 20 37 2 13 3 27 0 40-1 7-4 13-6 19 11-5 15-18 18-29 4-20 2-42-9-60-5-10-14-16-23-23-4-2-9-6-7-12 5-14 0-29-3-43-2-13-1-29 9-39 10-10 24-14 37-12 14 0 23 14 23 26-1 4 1 8 5 9 3 1 7-1 8-5 2-7 0-14-2-21-6-24-9-48-5-72 4-18 10-36 24-48 14-13 35-18 54-17 14 1 29 4 41 13 12 9 20 23 21 38 2 25 1 50-5 75-2 7-7 14-11 21-1 2-1 5-1 7 3 1 5 0 7-3 9-13 16-28 17-43 5-31-1-61 2-92 1-16 3-33 7-50 5-13 19-21 31-26zm-4 133c-4 10-7 20-10 30-6 22-12 44-15 66-4 32-2 65 9 95 8 22 28 37 47 49-16 8-30 21-39 37-2 3-5 7-9 6-13-1-26-4-39-5-10-1-19 2-29 2-1-8 1-16-1-24-2-11-8-22-18-29-11-8-24-12-37-16-3-1-5-3-5-6-3-13-7-26-17-34-5-4-10-8-16-6 2 7 8 9 12 14 6 8 8 18 5 27-2 6-8 10-12 14-2 2-1 5 0 7 1 0 3-1 4-1 23-11 51 0 65 19 8 10 7 24 3 35-3 12-14 18-20 27-3 4-6 8-5 13 5-4 8-8 12-12 11-11 27-17 43-18 17-1 35 0 52 6 3 1 4 5 4 8-2 16-2 31 0 47 0 8 1 16 4 23 1 2 4 3 5 0 1-7-1-14 0-22-1-24 2-50 15-72 13-21 39-33 63-27 12 2 25 5 38 5-8 14-11 30-6 45 5 18 17 33 30 46 2 2 4 3 7 3 1-2 1-5-1-7-6-10-13-20-18-30-6-12-8-27-4-40 7-23 26-41 47-53 22-13 49-14 74-12 14 1 29 5 41 13 13 8 22 21 27 35 10 29 1 61 11 90 1 3 3 6 6 8 3-5 1-11 0-16-2-13-2-26-1-39 1-16-2-32-6-48-1-3-1-6 1-8 5-5 12-5 19-6 15-3 31-10 41-23 9-10 15-23 16-36 1-7 3-14 1-21-4-1-6 3-7 7-5 17-13 34-26 46-11 10-27 15-42 13-9-2-15-9-21-14-13-9-27-17-43-19 5-9 9-20 8-31 0-16-5-30-13-43-6-13-13-27-11-41 0-6 4-12 4-18-3-3-5 1-7 3-7 11-8 26-6 38 2 14 9 27 10 40 2 15 1 32-9 44-8 7-19 11-29 12-28 2-56 13-75 34-3 3-6 8-11 7-13 0-26-2-39-4-23-4-45-12-62-28-12-12-19-28-22-44-6-27-5-56-2-84 3-21 6-41 12-61 1-6 4-12 3-18-2 0-5-1-6 2zm-102 72c1 10 7 20 9 30 4 14 1 29-8 40-4 5-6 12-2 17 3 5 11 2 13-2 9-14 12-30 9-46-3-13-9-26-17-37-1-2-2-2-4-2zm213-273c25-10 54-10 80-5 15 3 30 10 40 21 7 8 8 19 15 28 8 11 22 16 35 17 3 1 7-2 6-6-7-9-20-7-27-15-5-5-8-14-4-21 5-5 13-3 19-3 20 3 39 11 56 22 7 4 14 10 19 17 3 5 5 11 2 17-12 5-21-8-32-10-1 7 5 13 11 16 14 9 32 7 48 10 14 3 27 7 38 17 7 6 12 15 11 25 0 3-2 8-6 6-18-1-36 0-51 10-2 2-6 4-4 7 2 2 4 0 6 0 14-6 29-5 44-4 16 1 31 8 42 19 7 9-2 19 3 28 6-2 12-5 18-6 12-1 25 2 33 10 9 9 16 21 15 34-1 9-4 17-8 25-3 5-8 9-8 14 1 4 6 4 10 3 6-2 10-9 17-10 6 1 9 6 12 11 6 14 9 29 9 44 0 13-4 25-10 35-4-14-9-29-18-41-6-8-14-16-24-19-5-2-11-2-16 0-8 3-12 10-16 17-4-13-9-25-12-38-1-4-2-10 2-13 6-4 13-3 19-6 1-1 1-3 2-4-9-5-18 2-28 2-3 0-5-4-7-7-6-12-14-24-24-34-8-9-19-16-29-22-14-8-30-12-45-18-4-2-9-4-10-9-1-28-15-54-38-70-23-16-51-21-79-18-23 3-47 16-60 36 0-13-5-25-14-34-9-10-21-17-34-22-17-6-34-7-52-7-20-1-40 3-59 9-11 4-23 8-32 16-11 10-15 24-17 37-2 7-2 14-3 21-1 5-7 2-9-1-5-11-4-24-14-33-12-11-29-11-44-17-7-3-15-6-18-13-3-5-4-13 1-18 8-7 20-8 30-8 14 0 28 2 41 8 5 1 9 6 10 11 0 5-2 10-2 15 6 0 9-6 11-11 2-8-1-15-5-21-3-5-4-11-1-16 9-12 27-17 41-11 5 3 11 10 6 16-7 7-19 1-26 8 0 1 0 3 0 3 10 3 22 3 32-2 4-2 8-5 9-10 1-6-5-12-3-19 3-4 8-5 13-7 12-3 26-3 39-2 7 1 13 2 19 6 3 3 2 8-1 10-5 3-11 3-17 2-3 0-6-2-10-2-4 2 0 7 3 7 19 6 39 6 58 1 3 0 5-3 5-6-5-2-10 0-15 1-5 1-10-2-10-7 0-8 6-13 12-16zm254 661c11-3 21-9 31-15 42 23 83 45 125 66 10 4 20 9 30 12 6 1 11-5 15-9 4-4 11-5 17-2 5 3 6 9 6 14 2 23-8 46-25 61-6 5-14 11-22 10-5-2-9-6-10-11 0-6 3-12 1-17-1-5-6-8-10-10-22-14-45-24-68-36-43-20-85-40-128-60 13 0 25 0 38-3zm-647 27c36-19 72-39 108-58 27 13 57 15 87 12-59 27-118 54-176 82-23 11-46 22-68 35-5 3-12 6-13 13 0 6 4 13 0 19-2 4-6 8-11 8-10-2-17-9-24-16-12-13-20-30-21-49 0-6 0-13 5-19 2-3 7-3 11-3 9 1 12 11 20 13 4 0 7-2 11-3 24-10 47-22 71-34zm1034-580c10-2 20 1 28 8 11 8 17 20 23 32 8 17 18 33 23 50 4 11 4 23-1 32-6 12-18 20-29 26-23 11-45 20-68 30-46 20-93 41-139 61 4-18 2-36-1-53-3-13-6-26-13-37-5-7-12-11-17-17-1-8-2-17-5-25 52-31 105-61 158-91 13-7 26-14 41-16zm-1339 5c10-7 23-7 35-4 12 4 23 10 33 16 54 30 108 61 162 92-5 18-3 36 1 53 2 9 5 18 3 27-1 6-6 11-11 16-9 11-15 25-21 39-65-28-130-56-194-84-18-9-38-16-52-31-8-9-9-22-7-34 5-19 15-36 23-53 7-13 15-28 28-37zm365-24c16-13 38-19 58-15 18 3 34 13 51 19 10 4 22 3 32 10 4 3 8 9 5 14-3 2-7 1-11 0-15-3-32-3-47 0-16 3-30 13-41 23-15 14-21 33-24 52-1 11-3 22-1 33 1 6 2 12 2 19-10-4-22-6-33-4-17 3-32 16-37 32-4 13-3 26 1 39 3 10 5 21 2 32-2 5-8 8-14 7-11-3-20-10-28-17-8-6-12-16-12-25 0-10-2-20-6-29-10-16-12-35-9-54 2-18 14-35 31-43 11-6 24-6 34-14 7-4 11-12 13-20 5-22 16-44 34-59zm664 325c-14 2-26 10-36 20-8 10-16 21-19 33 7-1 10-9 14-14 9-12 23-23 39-24 6 0 13 3 18-1 5-2 7-9 3-13-5-4-13-2-19-1z" fill="#FFF"/></svg>