<svg xmlns="http://www.w3.org/2000/svg" width="40" height="40" viewBox="0 0 400 400"><rect width="400" height="400" fill="#D73F35"/><path d="M256 260c-2 0-5 2-5 4 0 3 2 5 4 6 49 5 75 21 75 30 0 12-49 30-130 30-81 0-130-18-130-30 0-9 26-25 75-30 2-1 4-3 4-6 0-2-3-4-5-4-49 6-83 22-83 40 0 19 48 39 139 39 91 0 139-20 139-39 0-18-34-34-83-40zm-57 55l71-103c27-36 23-94-8-125-17-17-39-26-63-26-24 0-46 9-63 26-31 31-35 89-8 125l71 103zm1-199c18 0 33 15 33 33 0 18-15 32-33 32-18 0-33-14-33-32 0-18 15-33 33-33z" fill="#FFF"/></svg>