<svg xmlns="http://www.w3.org/2000/svg" width="40" height="40" viewBox="0 0 400 400"><rect width="400" height="400" fill="#F58220"/><path d="M186 257c-21-2-41-7-58-20-2-2-4-4-6-6-7-7-8-15-2-23 5-7 13-9 22-5 1 1 3 2 5 3 31 21 74 22 105 1 3-2 6-4 10-5 8-2 15 0 19 7 4 7 4 15-1 21-9 8-19 15-31 19-11 5-23 7-35 8 2 2 3 3 4 4 16 16 32 33 48 49 6 5 7 12 4 19-3 7-11 11-18 11-5 0-8-3-11-6-13-12-25-24-37-37-3-3-5-3-8 0-12 13-25 26-37 38-6 5-13 6-19 3-7-3-11-10-11-17 0-5 3-9 6-12 16-16 32-32 48-48 1-1 2-2 3-4zm13-55c-38 0-70-33-70-71 0-40 32-71 71-71 39 0 71 32 71 72 0 38-32 70-72 70zm36-71c0-19-16-35-35-35-19 0-35 16-35 35 0 19 16 35 35 35 19-1 35-16 35-35z" fill="white"/></svg>