<svg xmlns="http://www.w3.org/2000/svg" width="40" height="40" viewBox="0 0 400 400"><rect width="400" height="400" fill="#409C00"/><path d="M299 101c-25-26-58-42-94-47l-3 23c31 4 59 18 81 40 22 22 36 48 41 78l22-4c-6-34-22-65-47-90zm-23 146c-10-9-21-9-31 0-7 7-14 15-21 22-2 2-4 2-6 1-5-3-10-5-15-8-21-13-38-30-54-49-7-9-14-19-19-31-1-2-1-4 1-6 7-6 14-14 21-21 10-10 10-21 0-32-5-5-11-11-17-17-5-5-11-11-17-17-10-9-22-9-31 0-7 7-14 15-22 22-7 6-10 14-11 23-1 16 3 30 8 44 11 29 27 54 47 78 26 31 58 56 95 74 17 9 35 15 54 16 13 1 24-3 33-13 6-7 13-13 20-20 9-9 9-21 0-31-12-12-23-23-35-35zm-12-48l23-4c-4-21-13-39-28-54-16-16-36-26-57-29l-3 23c16 2 32 10 44 22 11 11 19 26 21 42z" fill="#FFF"/></svg>