<svg xmlns="http://www.w3.org/2000/svg" width="40" height="40" viewBox="0 0 512 512"><path d=" M 264.42 64.29 C 285.26 64.02 306.10 64.20 326.94 64.00 C 328.26 88.35 336.93 113.11 354.61 130.41 C 372.64 148.33 397.97 156.63 422.75 159.40 C 422.78 180.88 422.69 202.36 422.80 223.84 C 399.96 223.03 377.08 218.35 356.31 208.66 C 346.92 204.50 338.23 198.98 329.62 193.42 C 329.54 239.93 329.85 286.45 329.34 332.95 C 328.20 357.05 319.73 380.79 305.20 400.06 C 289.02 421.94 264.97 437.74 238.63 444.41 C 212.76 450.78 184.68 448.87 160.35 437.76 C 121.65 420.86 93.22 382.18 89.54 340.00 C 89.21 331.63 88.94 323.23 89.50 314.87 C 92.43 287.22 105.40 260.71 125.50 241.49 C 152.33 215.29 191.92 202.35 228.96 209.21 C 229.47 232.88 228.38 256.56 228.36 280.24 C 213.62 275.66 196.83 276.41 183.29 284.21 C 166.65 293.75 154.61 312.47 155.87 332.00 C 154.49 361.53 182.66 388.50 212.10 385.97 C 228.71 385.70 244.67 376.81 254.27 363.36 C 258.52 356.92 262.98 349.96 263.06 341.98 C 264.11 319.35 264.27 296.69 264.00 274.05 C 264.37 204.13 263.81 134.20 264.42 64.29 Z" fill="#fff" /></svg>
