<svg xmlns="http://www.w3.org/2000/svg" width="40" height="40" viewBox="0 0 400 400"><rect width="400" height="400" fill="#1DA1F2"/><path d="M154 302c94 0 146-79 146-146 0-2 0-5-1-7 10-7 19-16 26-26-9 4-19 6-29 8 10-7 18-17 22-29-10 6-21 10-32 13-10-10-23-17-38-17-28 0-51 23-51 52 0 4 0 8 1 11-42-2-80-22-106-53-4 7-6 16-6 26 0 17 9 33 22 42-8 0-16-2-23-6 0 0 0 0 0 1 0 24 18 45 41 50-4 1-9 2-13 2-4 0-7-1-10-1 7 20 26 35 48 35-18 14-40 22-64 22-4 0-8 0-12 0 23 14 50 23 79 23z" fill="white"/></svg>