<svg xmlns="http://www.w3.org/2000/svg" width="40" height="40" viewBox="0 0 412.3 412.3"><path fill="#fff" d="M189.1 76.8c2.1-2 3.6-2.2 11-2 3.9.1 9.6.6 12.7.9 15.7 2 28.4 5.8 42.3 12.6 13.6 6.7 22.4 13 33.9 24.5 10.9 10.9 16.9 19.2 23.3 32 8.9 17.8 13.9 39.1 14.8 62.4.3 8 .1 9.8-1.7 12.1-3.5 4.4-11.1 3.6-13.7-1.3-.8-1.7-1.1-3.1-1.3-9.4-.5-9.8-1.2-16.2-2.5-23.7-5.4-29.7-19.6-53.4-42.3-70.4-18.9-14.2-38.5-21.1-64.1-22.6-8.6-.5-10.1-.9-12.1-2.4-3.6-2.8-3.8-9.6-.3-12.7zm54.3 58.7c-9.2-5.5-22.7-9.6-35-10.6-4.5-.3-7-1.2-8.7-3.2-2.6-3-2.8-7-.6-10.3 2.3-3.7 6-4.3 16.9-2.6 27.6 4 49 16.9 63.1 37.7 7.8 11.8 12.8 25.6 14.5 40.4.5 5.4.5 15.3-.1 17-.6 1.5-2.5 3.6-4.1 4.5-1.8.9-5.6.8-7.7-.3-3.5-1.8-4.6-4.6-4.6-12.3 0-11.8-3-24.2-8.3-33.9-6-11-14.7-20.1-25.4-26.4zm15.4 60.7c-2.7 2.5-7.7 2.6-10.7.2-2.2-1.6-2.8-3.3-3.3-8-.6-6.3-1.7-10.6-3.6-14.7-4-8.6-11.1-13.1-23-14.5-5.6-.7-7.3-1.4-9.1-3.5-3.3-4-2.1-10.4 2.5-12.8 1.8-.8 2.5-.9 6.3-.7 2.4.2 5.9.6 7.8 1 8.9 1.9 15.8 5.3 21.7 10.8 7.6 7.2 11.7 15.8 13.5 28.3 1.3 8.1.8 11.3-2.1 13.9zm68.1 119.7c-3.4 8.7-16.5 25-25.7 32-8.3 6.3-14.2 8.7-21.9 9-6.4.4-9-.2-17.2-3.6-64-26.3-115-65.7-155.6-119.8-21.2-28.2-37.3-57.5-48.3-87.9-6.4-17.7-6.8-25.4-1.5-34.5 2.3-3.8 12-13.3 19.1-18.6 11.7-8.7 17.1-12 21.5-12.9 2.9-.6 8.1-.1 11.4 1.1 1.6.5 4 1.8 5.4 2.7 8.7 5.7 32.8 36.6 40.7 52 4.5 8.8 6 15.3 4.6 20.1-1.5 5.2-3.9 7.9-14.7 16.6-4.3 3.6-8.4 7.2-9 8.1-1.7 2.4-3 7-3 10.3.1 7.6 5 21.4 11.5 32 5 8.3 13.9 18.9 22.8 27 10.5 9.5 19.7 16 30.1 21.2 13.3 6.6 21.5 8.3 27.4 5.6 1.5-.7 3.1-1.6 3.6-2 .5-.5 4-4.7 7.8-9.5 7.4-9.3 9.1-10.8 14.1-12.5 6.5-2.2 13-1.6 19.6 1.8 5 2.6 16 9.4 23 14.3 9.3 6.5 29.2 22.7 31.9 25.9 4.7 5.9 5.5 13.3 2.4 21.6z"/></svg>