<svg xmlns="http://www.w3.org/2000/svg" width="40" height="40" viewBox="0 0 400 400"><rect width="400" height="400" fill="#4D76A1"/><path d="M192 288l16 0c0 0 5-1 7-3 3-3 2-7 2-7 0 0 0-21 10-24 10-4 22 20 35 29 10 7 18 5 18 5l35 0c0 0 18-1 9-16 0-1-5-11-26-30-22-20-19-17 8-52 16-22 22-35 20-41-2-5-14-4-14-4l-39 1c0 0-3-1-5 1-2 1-4 4-4 4 0 0-6 16-14 31-18 29-25 31-28 29-6-4-5-17-5-26 0-29 5-41-8-45-5-1-8-1-19-1-14-1-26 0-33 3-4 2-7 7-5 7 2 1 8 2 11 6 4 6 4 18 4 18 0 0 3 34-5 38-6 3-13-3-29-30-8-14-14-29-14-29 0 0-1-3-3-4-2-2-6-3-6-3l-37 0c0 0-6 1-8 3-2 2 0 7 0 7 0 0 29 68 62 103 16 16 42 31 65 30z" fill="white"/></svg>