<svg xmlns="http://www.w3.org/2000/svg" width="40" height="40" viewBox="0 0 40 40"><path fill="#fff" d="M28.6 21.4c-0.06,-0.03 -2.38,-1.17 -2.79,-1.32 -0.54,-0.19 -0.97,-0.18 -1.32,0.35 -0.11,0.15 -1.15,1.48 -1.24,1.48 -1.11,0 -5.01,-3.55 -5.16,-4.41 0,0 0.93,-1.1 1.09,-1.43 0.21,-0.41 0.24,-0.7 0.02,-1.12 -0.05,-0.11 -1.03,-2.47 -1.14,-2.72 -0.25,-0.6 -0.58,-0.88 -1.04,-0.88 -0.55,0 -1.66,0.22 -2.11,0.5 -0.55,0.35 -1.49,1.47 -1.49,3.44 0,1.77 1.12,3.44 1.6,4.07 0.01,0.02 0.04,0.05 0.07,0.1 1.84,2.69 4.15,4.69 6.48,5.63 1.49,0.59 2.95,1.12 4.55,0.96 1.06,-0.1 2.61,-1.01 2.98,-2.04 0.31,-0.85 0.39,-1.78 0.19,-2.12 -0.14,-0.23 -0.38,-0.34 -0.69,-0.49zm-7.35 -18.28c-8.61,0 -15.63,6.96 -15.63,15.51 0,2.77 0.74,5.48 2.15,7.85l-2.69 7.91c-0.11,0.32 0.2,0.63 0.52,0.53l8.26 -2.62c2.25,1.2 4.81,1.84 7.39,1.84 8.62,0 15.63,-6.96 15.63,-15.51 0,-8.55 -7.01,-15.51 -15.63,-15.51zm0 27.79c-2.43,0 -4.78,-0.7 -6.81,-2.03 -0.1,-0.07 -0.23,-0.09 -0.35,-0.05l-4.14 1.32 1.34 -3.94c0.04,-0.13 0.02,-0.27 -0.06,-0.38 -1.54,-2.11 -2.36,-4.6 -2.36,-7.2 0,-6.77 5.56,-12.28 12.38,-12.28 6.83,0 12.38,5.51 12.38,12.28 0,6.77 -5.55,12.28 -12.38,12.28z"/></svg>