<?xml version="1.0" encoding="UTF-8"?>
<!DOCTYPE svg PUBLIC "-//W3C//DTD SVG 1.1//EN" "http://www.w3.org/Graphics/SVG/1.1/DTD/svg11.dtd">
<!-- Creator: CorelDRAW 2018 (64-Bit) -->
<svg xmlns="http://www.w3.org/2000/svg" xml:space="preserve" width="4.65679cm" height="3.4795cm" version="1.1" style="shape-rendering:geometricPrecision; text-rendering:geometricPrecision; image-rendering:optimizeQuality; fill-rule:evenodd; clip-rule:evenodd"
viewBox="0 0 1329.3 993.24"
 xmlns:xlink="http://www.w3.org/1999/xlink">
 <defs>
  <style type="text/css">
   <![CDATA[
    .fil0 {fill:#0D0D0D}
   ]]>
  </style>
 </defs>
 <g id="Слой_x0020_1">
  <metadata id="CorelCorpID_0Corel-Layer"/>
  <path class="fil0" d="M982.39 1.64c13.95,-6.6 26.33,8.05 30.11,20.04 -0.31,11.22 7.98,20.49 6.81,31.72 -11.43,8.12 -15.55,22.73 -19.64,35.42 4.82,2.75 9.7,5.67 14.86,7.88 9.61,-14.38 30.17,-2.11 37.21,9.57 10.84,14.38 13.8,41.29 -7.32,47.84 -25.31,7.85 -50.71,17.84 -77.72,17.44 -7.32,4.26 -32.07,5.95 -18.12,14.97 -29.93,6.74 -49.63,35.46 -61.22,62.37 -2.62,13.61 -17.3,17.95 -18.76,32.58 34.67,11.36 73.9,16.79 102.4,40.88 -52.76,-18.15 -105.59,-39.44 -161.52,-45.09 -24.32,3.05 -49.46,1.88 -73.64,7.45 3.33,6.3 -9.37,3.79 -10.84,5.99 -16.57,6.86 -35.77,7 -51.26,16.88 -5.28,3.45 -16.6,-0.79 -17.12,6.88 -14.68,5.11 -27.43,14.23 -41.86,19.83 1.1,4.94 19.84,5.6 16.64,13.57 -11.91,-5.94 -25.72,-2.36 -38.55,-2.94 -6.6,-1.4 -13.54,11.79 -13.18,-0.72 -8.42,-0.01 -31.07,-5.38 -19.78,6.54 -19.61,0.31 -38.9,3.34 -57.72,8.66 -5.55,-0.63 -1.97,9.54 -7.98,7.47 -7.94,-4.29 -16.24,-0.67 -24.36,1.15 -30.96,8.01 -58.63,24.81 -81.06,47.03 2.24,-14.18 15.15,-22.6 24.13,-32.08 -7.19,1.29 -13.96,9.17 -21.1,4.02 -7.05,1.81 -13.79,4.63 -20.79,6.58 3.03,-5.91 10.94,-5.99 15.85,-9.67 -6.79,1.1 -16.87,0.55 -18.11,9.34 -19,2.23 -36.81,9.8 -52.64,20.33 -14.3,-0.45 -25.28,12 -36.27,19.93 -15.68,15.49 -39.65,21.7 -51.06,41.31 -0.15,12.88 -11.43,23.51 -18.22,34.89 -6.72,5.94 0.29,-8.55 -1.03,-12.46 -27.5,31.65 -51.42,69.91 -50.5,113.31 0.63,9.66 -1.36,19.19 1,28.74 -5.31,-0.07 -8.93,-5.32 -10.25,-9.99 -5.11,5.22 3.73,18.99 -3.9,18.98 -6.1,-5.38 -7.95,2.96 -11.09,6.9 -7.74,1.9 -4.1,-8.85 -4.63,-13.74 -7.88,6.44 2.73,23.48 -9.44,26.58 -1.2,29.4 22.96,49.38 34.05,74.12 9.45,15.08 27.25,25.61 44.55,27.37 -2.04,-1.6 1.95,-23.94 5.07,-14.38 3.4,-16.58 15.25,-31.13 32.71,-33.69 21.14,-8.84 43.91,5.06 55.96,21.78 11.68,21.15 8.01,44.94 -5.22,63.96 22.79,9.17 49.04,2.48 73.03,5.45 18.75,5.71 23.54,-16.62 34.44,-26.18 10.55,-7.08 -5.13,-16.26 1.27,-24.92 13.1,-16.46 18.93,-39.34 36.1,-52.19 20,-3.82 38.8,-23.83 59.73,-14.36 11.76,3.98 29.23,13.98 20.81,28.5 -4.73,6.54 3.19,13.42 9.46,14.42 14.65,3.45 30.22,8.15 41.94,17.64 5.66,11.02 21.02,1.8 27.34,11.87 4.7,2.97 5.35,12.16 11.33,12.68 6.93,-20.78 9.09,-48.19 32.31,-57.56 11.39,-6.49 23.1,-0.44 31.45,7.5 18.61,9.92 40.56,20.39 46.96,42.39 6.31,10.16 9.35,35.04 -9.39,32.63 -13.89,1.01 -16.03,16.38 -24.64,24.43 -8.3,2.73 -9.5,21.97 1.41,19.03 16.04,-1.18 31.03,-8.45 47.25,-8.96 -5.65,-21.06 -6.63,-44.94 6.48,-63.44 -6.04,-4.3 -17.96,1.63 -19.73,-7.02 9.57,-0.5 18.35,-4.46 27.58,-6.59 -6.84,-6.13 -6.72,-15.55 -7.04,-24.09 8.21,2.49 12.97,10.67 20.36,14.5 9.97,-7.1 16.39,-19.37 28.03,-23.78 1.64,9.95 -4.09,17.33 -8.5,25.44 4.83,-2.36 9.99,-2.38 14.97,-0.53 19.71,-3.12 1.04,3.45 4,6.99 23.71,11.85 35.14,42.09 28.32,67.16 15.8,-7.62 33.3,-10.94 48.91,-18.91 -7.77,-24.19 -9.13,-51.13 1.1,-75.05 13.97,-15.67 33.62,-27.45 55.15,-27.75 8.54,1.58 18.23,7.15 24.69,-2.3 11.6,-10.18 -1.7,8.16 -0.28,13.56 4.84,7.43 11.76,-0.2 17.17,-2.62 9.91,-5.49 22.73,3.91 32.26,-3.65 23.69,-33.56 46.07,-69.05 58.14,-108.57 -18.73,29.27 -34.87,61.34 -59.89,85.84 -6.62,7.07 -0.84,-5.44 1.06,-7.05 2.33,-5.45 9.3,-11.12 6.01,-17.41 -5.53,-19.29 -7.61,-39.34 -12.31,-58.83 -8.16,6.82 1.57,26.19 0.71,38.74 2.18,10.45 0.55,21.27 3.56,31.67 -12.81,-16.51 -9.35,-41.36 -13.87,-60.91 -0.1,-7.05 -6.28,-24.65 6.75,-20.68 -0.83,-4.91 3.05,-15.39 6.26,-6.32 0.59,26.22 8.94,51.83 12.95,77.76 36.82,-50.17 60.23,-109.06 79.53,-167.86 -7.18,-15.54 -11.49,-33.76 -11.15,-51.34 -6.15,-4.27 8.95,-22.37 3.83,-2.13 2.93,16.28 3.45,32.96 7.94,48.96 12.77,-29.7 14.83,-63.74 26.28,-94.33 -8.38,-22.43 6.32,-43.57 8.24,-65.44 -5.21,-5.08 -7.74,8.75 -11.18,10.92 -8.6,11.05 -13.43,27.19 -23.15,35.94 1.78,-9.54 13,-16.94 8.98,-27.12 1.63,-7.82 1.69,-16.42 7.42,-22.59 -1.8,-5.09 0.75,-8.83 4.18,-12.48 -0.94,-3.69 -6.21,-6.19 -10.13,-6.53 -7.18,-0.56 -11.24,-10.96 -19.35,-5.22 -16.12,5.18 -29.02,19 -45.87,21.89 -4.15,-6.39 -12.7,-6.29 -19.29,-4.2 -49.65,8.89 -96.75,28.57 -142.76,48.83 -44.32,21.62 -87.6,46.79 -123.78,80.67 -37.66,34.67 -61.84,80.47 -87.23,124.23 -6.79,16.1 -17.6,31.13 -19.35,48.87 -5.9,0.95 -5.58,-7.86 -4.14,-11.81 9.49,-31.97 33.06,-58.26 45.22,-88.71 -20.53,26.13 -42.19,51.45 -64,76.48 9.88,-21.26 30.52,-36.97 41.18,-58.16 8.85,-14.62 -5.04,-31.89 3.67,-47.13 2.47,-4.34 4.55,-9.43 9.83,-10.94 -0.08,4.78 -0.33,9.61 -0.14,14.45 6.29,-0.16 -2.88,-17.16 5.75,-15.25 3.69,-1.92 7.12,-22.63 6.89,-1.69 1.24,8.38 1.97,-2.71 3.19,-5.51 3.43,-10.02 0.32,16.45 1.4,15.73 -3.98,16.07 -18.33,27.56 -24.56,42.82 6.18,-1.44 7.21,-9.38 11.18,-13.54 37.82,-46.79 74.45,-96.58 126.42,-128.88 -3.34,11.63 -19.03,14.89 -24.72,25.11 63.96,-45.12 138.01,-73.12 210.89,-100.25 8.56,-8.67 21.74,-5.57 32.12,-10.06 13.55,-5.12 27.96,-7.08 41.97,-10.37 19.15,-9.6 38.09,-20.02 55.36,-32.75 19.92,-22.84 39.51,-46.47 52.88,-73.88 10.13,-27.24 25.01,-52.84 29.79,-81.89 1.38,-7.2 4.63,-16.21 13.56,-12.9 14.53,-24.26 48.02,-12.13 63.34,4.96 11.44,8.2 5.55,23.29 5.28,34.97 -13.27,9.87 -19.44,25.53 -24.43,40.68 3.22,-1.64 6.35,-0.29 9.19,1.46 -1.19,-3.54 -5.21,-11.1 0.65,-11.92 12.93,5.69 27.08,2.43 40.4,-0.25 12.7,3.07 9.9,17.22 16.43,25 -10.06,35.76 -47.69,56.24 -83.04,58.28 -34.56,13.39 -66.8,36.1 -89.12,65.95 -16.96,40.05 -28.12,82.27 -41.54,123.64 -7.23,35.09 -16.45,69.82 -29.78,103.11 -8.32,27.44 -14.01,55.61 -25.49,82.12 19.14,1.63 22.45,-20.31 38.55,-25.64 26.05,-7.42 56.54,-25.88 82.07,-7.3 20.55,8.13 41.81,36.65 21.27,55.2 2.06,12.15 -6.35,22.1 -6.6,33.29 15.95,-5.08 34.38,-4.73 47.02,7.8 8.06,9.21 18.17,25.47 7.61,36.51 -0.55,14.42 2.65,37.25 -12.09,46.65 -21.71,1.82 -46.63,5.37 -65.69,-7.45 -5.69,-0.49 -16.34,2.26 -11.13,11.09 -3.87,27.03 4.22,54.92 -3.17,81.34 -20.38,25.19 -49.5,43.27 -80.62,52.17 -38.38,13.63 -76.75,26.93 -116.51,35.86 -38.04,5.75 -73.97,23.86 -112.46,25.7 -41.96,6.53 -83.92,12.98 -125.67,20.46 -4.88,-3.45 -2.81,-4.76 6.23,-3.92 89.96,-12.69 177.15,-38.07 264.92,-60.64 52.02,-17.48 109.46,-27.8 151.91,-65.28 -0.57,-7.12 -1.04,-14.19 -1.41,-21.27 5.47,4.4 2.49,11.81 3.17,17.9 10.84,-2.45 11.35,-29.09 -1.81,-25.85 -66.71,54.8 -155.25,66.55 -235.98,88.68 31.52,-16.39 70.17,-21.85 104.63,-33.74 47.34,-14.91 97.37,-33.44 131.18,-71.28 2.81,-7.52 4.39,-15.54 2.97,-23.59 -11.16,6.87 -17.44,16.73 -16.52,30.1 -6.09,-7.43 -1.18,3.78 -6.33,6.01 0.94,-5.8 -3.39,-18.11 5.35,-17.28 1.23,-8.33 -5.48,-0.63 -8.83,1.28 -8.7,4.6 -5.24,16.97 -9.58,24.5 -0.59,-5.18 0.16,-9.75 -0.1,-14.78 -5.61,-6.17 -1.74,28.59 -10.17,18.58 -0.09,2.98 -0.59,5.95 -3.31,7.7 -1.01,-7.41 2.58,-14.5 1.66,-21.89 -9.2,4.34 -1.63,19.33 -10.08,22.57 0.58,-5.48 1.82,-10.81 1.89,-16.29 -7.7,0.69 -1.38,13.85 -6.96,18.76 -1.32,-5.85 0.39,-11.28 1.4,-16.87 -8.91,3.4 -3.25,16.13 -8.17,22.7 -5.28,-3.22 5.83,-22.07 -4.59,-17.19 -8.07,2.41 -0.59,14.33 -7.8,18.04 0.02,-5.02 1.2,-9.91 1.97,-14.84 -7.38,2.07 -1.14,14.64 -6.57,18.9 -0.89,-5.63 -1.01,-10.83 -1.87,-16.32 -4.1,5.06 -2.69,13.47 -5.52,19.72 -7.91,3.38 -1.5,-11.32 -2.91,-15.63 -4.7,6.31 -3.45,14.76 -5.34,22.05 -7.35,-3.73 0.4,-14.44 -1.35,-21.17 -11.73,2.99 -0.67,22.72 -10.23,25.68 -0.62,-7.32 1.46,-14.37 1.71,-21.61 -6.75,3.83 -1.43,13.31 -5.21,18.85 -3.78,-3.95 3.87,-23.9 -9.66,-14.73 -10.64,0.98 -5.33,15.08 -10.8,21.84 -6.13,-2.51 4.91,-20.06 -4.75,-15.81 0.38,6.43 -0.4,13.01 -2.73,19.04 -10.03,2.54 7.83,-24.61 -4.36,-16.77 -3.31,6.71 -2.11,16.66 -6.59,23.92 -4.72,-3.89 5.93,-23.53 -5.15,-19.39 1.58,6.8 1.09,14.41 -3.77,19.82 -3.87,-5.04 -0.06,-12.04 -0.13,-17.93 -47.16,17.76 -96.07,30.58 -146.3,35.88 0.81,12.13 1.77,24.28 3.2,36.4 9.09,2.68 21.57,-4.38 28.77,2.78 -9.88,4.22 -24.32,-3.94 -31.21,6.36 -1.19,-12.06 -19.59,-0.27 -27.04,-2.95 -11.96,-4.35 -6.91,7.01 -10.66,12.11 6.77,-16.75 -22.39,-13.34 -18.74,-0.85 -4.96,1.52 -2.75,-6.12 -5.75,-8.39 -4.03,3.63 -4.63,24.08 -6.96,5.02 -8.71,-3.65 -25.33,-3.38 -32.42,5.86 -10.04,-12.42 -29.22,1.9 -42.28,-0.03 -78.25,5.18 -160.31,19.84 -236.78,-3.87 91.11,13.02 183.81,6.8 274.62,-6.32 2.41,-11.37 -0.64,-26.18 1.75,-39.06 -18.55,3.36 -37.21,-0.69 -55.96,3 -26.15,0.33 -51.68,8.71 -78.1,6.15 -13.11,-1.45 -25.71,6.62 -38.78,3.9 -31.11,-3.18 -62.18,4.75 -92.96,-1.15 -17.54,-2 -35.49,2.89 -52.64,-2.72 -33.81,-3.51 -67.64,-6.24 -100.68,-14.86 -7,10.47 -0.89,26 -6.06,35.85 -1.9,-12 0.39,-23.91 2.09,-35.71 -14.9,-1.82 -1.96,22.6 -11.27,25.91 -1.07,-10.95 2.76,-21.56 2.08,-32.4 -6.96,4.41 -1.18,16.46 -7.09,20.37 -1.48,-7.74 7.52,-24.37 -6.51,-20.49 -0.8,10.02 -0.84,-0.49 -5.6,0.37 -1.96,7.79 -1.4,16.46 -4.94,23.85 -0.67,-8.55 -0.36,-17.08 0.98,-25.57 -7.33,6.43 -0.22,20.74 -6.2,27.11 -3.46,-9.01 -0.62,-18.71 -0.67,-28.03 -8.71,3.66 -2.57,19.71 -8.07,27.71 -1.26,-9.65 -0.73,-19.31 -1.09,-28.96 -7.19,8.23 0.11,22.92 -7.36,31.4 -0.49,-4.87 -1.07,-9.71 -1.7,-14.52 -5.21,3.67 1.39,14.62 -5.22,18.59 -5.13,-2.25 4.83,-18.52 -4.39,-13.88 -2.47,7.26 -0.77,16.43 -3.47,24.3 11,3.38 21.75,8.24 33.42,8.79 23.42,2.44 45.32,12.14 68.81,14.39 28.11,11.45 59.1,14.55 89.34,15.29 -0.05,-4.03 -6.59,0.54 -7.64,-3.03 41.99,1.63 83.84,6.84 125.97,5.96 6.28,-0.11 23.3,4.46 3.79,3.9 -32.26,0.02 -64.44,-2.84 -96.69,-4.52 -39.2,2.14 -79.56,-1.75 -116.55,-15.28 -6.75,-0.45 -16.46,-6.02 -19.59,2.48 -8.23,-0.24 -14.9,4.22 -21.72,7.94 2.59,-7.43 12.1,-7.69 16.77,-13.25 -9.21,-5.47 -14.3,2.46 -23.12,-2.46 -14.62,-0.4 -27.61,10.73 -41.44,14.45 8.23,-7.99 20.42,-10.42 30.74,-14.98 16.87,0.68 -0.46,-9.99 -3.83,-5.6 -29.69,-1.9 -55.74,-18.1 -84.42,-24.66 -10.21,-1.61 -13.63,-7.9 -11.16,-17.13 -6.92,-5.49 -10.24,8.32 -16.79,4.15 -22.77,-8.8 -46.18,-21.85 -63.01,-40.45 -5.32,-8.73 4.93,-5.73 6.36,0.08 12.91,13.78 31.05,26.64 50.08,32.85 -2.31,-17.28 4.1,-33.84 2.65,-51.13 -5.27,-4.26 -10.92,-8 -16.75,-11.4 7.26,7.59 2.35,17.49 1.32,26.56 1.95,5.62 -1.01,11.02 -2.27,16.47 -0.56,-4.99 -1.22,-9.95 -1.98,-14.88 -3.03,5.44 -4.79,11.16 -8.04,2.63 0.03,15.61 -2.31,-1.81 -1.06,-8.78 -4.89,3.89 -2.01,20.84 -6.57,7.93 -6.05,10.38 -1.11,-10.78 -2.84,-12.61 -5.64,3.98 -1.59,22.87 -4.77,2.81 0.19,-5.3 -13.6,9.6 -4.46,-8.8 -3.97,2.56 -0.43,9.49 -3.19,13.38 0.02,-8.49 -7.9,-14.77 -5.34,-23.55 1.78,-3.04 -3.39,-6.4 -4.17,-2.19 2.47,10.54 0.82,21.59 -3.32,31.49 -6.77,2.32 -3.21,-11.6 -6.17,-13.42 -0.94,-30.84 -6.67,-63.57 7.96,-92.21 -18.46,3.36 -34.22,18.5 -53.79,17.61 -16.03,-4.38 -23.19,-20.28 -29.89,-33.94 -5.63,-15.78 8,-28.55 16.55,-39.95 -4.93,-9.66 -20.25,-7.54 -27.02,-16.98 -15.04,-15.19 0.2,-38.79 18.78,-41.78 9.92,-5.77 30.98,2.57 30.5,-14.92 6.43,-12.5 -10.4,-11.05 -16.2,-17.45 -12.15,-13.15 -13.13,-32.84 -13.63,-49.74 4.9,-26.25 36.34,-36.34 59.09,-41.12 23.03,-5.24 42.54,11.73 64.38,13.93 17.15,-30.81 35.24,-62.31 61.74,-86.07 31.97,-32.15 71.3,-55.6 112.48,-73.97 43.4,-24.73 93.9,-28.97 141.67,-39.67 33.3,-13.56 69.37,-18.03 104.82,-22.05 9.01,-15.2 16.55,-31.21 26.81,-45.66 34.67,-36.24 78.14,-62.39 122.67,-84.71 32.79,-15.1 69.66,-15.95 104.79,-20.72 29.29,-15.26 57.26,-33.62 81.5,-56.17 7.8,-6.42 5.54,-18.12 11.78,-25.73 18.67,-33.3 20.04,-88.07 65.1,-97.47zm-1.19 6.99c-11.58,3.88 -23.9,12.29 -23.1,25.9 3.25,22.78 -18.52,34.73 -23.75,54.71 2.33,-1.12 8.85,-7.12 6.61,-0.98 -2.39,18.5 -16.25,33.26 -22.2,49.31 -13.82,14 -28.79,26.99 -44.7,38.57 -4.89,8.81 7.23,15.33 10.99,22.75 8.27,-0.05 13.56,-8.43 19.65,-13.03 3.62,-0.67 6.18,6.28 9.8,3.2 12.52,-11.95 29.08,-17.77 45.01,-23.63 16.45,-8.44 34.45,-12.43 52.54,-9.49 14.13,-6.84 29.72,-12.16 40.32,-24.38 2.49,-14.43 -8.89,-34.64 -25.05,-34.39 1.22,15.65 -21.16,1.42 -28.79,-0.88 1.6,7.2 -0.49,16.72 5.95,22.02 5.08,0.46 14.31,-3.9 12.1,4.11 -15.87,9.92 -27.63,-14.06 -24.57,-26.88 -1.63,-16.32 8.86,-31.99 18.68,-44.59 -6.11,-8.45 -4.39,-19.76 -3.02,-29.7 0.96,-13.68 -15.84,-18.38 -26.45,-12.6zm261.07 88.09c-13.13,3.87 -22.33,15.6 -23.34,29.05 -12.69,37.11 -25.2,75.59 -51.38,105.85 -12.53,19.31 -34.91,30.2 -46.2,50.21 -7.5,4.52 -16.5,8.3 -21.05,16.09 9.47,-0.68 19.26,4.42 27.01,10.33 1.86,-2.93 3,-8.8 7.49,-5.81 3.45,2.17 -5.95,22.53 1.62,13.1 21.54,-32.91 55.32,-54.92 86.4,-77.99 6.42,-3.5 12.23,-9.75 20.11,-9.3 -4.66,11.02 -21.12,13.3 -24.87,23.25 17.32,-3.09 33.69,-10.27 51.21,-12.43 19.71,-3.6 35.3,-17.7 47.55,-32.72 3.05,-2.36 3.01,-3.87 -0.15,-4.55 -0.03,-6.99 4.63,-13.96 1.25,-20.71 -3.99,-12.08 -21.55,-6.84 -28.83,-1.49 2.36,14.97 -21.67,11.16 -27.46,1.08 -0.33,6.51 -1.32,12.95 -1.82,19.42 0.94,2.96 7.75,11.97 1.13,9.97 -3.85,-1.78 -8.27,-4.42 -8.49,-9.16 -3.97,-28.46 7.21,-57.6 28.33,-76.84 0.05,-18.84 -22.66,-27.3 -38.51,-27.38zm-400.66 89.56c-5.4,2.9 -11.3,4.75 -17.2,6.25 0.59,-2.51 0.98,-4.91 -2.49,-3.6 -38.56,4.49 -80.33,5.64 -114.08,27.31 -17.39,11.2 -38.34,16.71 -53.26,31.67 0.35,2.79 1.44,5.39 2.06,8.11 -14.77,13.59 -33.75,24.52 -43.45,42.6 6.65,3.61 -0.78,10.3 3.19,13.65 16,-6.32 31.61,-15.71 49.38,-16.56 -7.03,-6.31 -11.46,-14.8 -15.97,-22.95 2.83,-4.06 4.78,0.92 6.92,3.01 -0.18,-3.24 -0.51,-9.69 -0.69,-12.93 5.86,3.77 8.46,7.19 4.96,-1.66 5.95,2.25 5.19,-0.82 3.08,-5.27 13.24,-4.07 20.04,15.71 17.65,26.22 -7.86,0.67 -7.35,-10.24 -13.1,-13.18 1.83,7.24 6.91,13.47 7.12,21.13 -7.41,-3.18 -11.57,-28.38 -9.29,-5.2 -9.21,-3.46 -1.37,5.07 1.02,9.15 47.07,-12.95 95.81,-24.86 145.08,-22.31 14.1,0.34 27.63,5.66 41.58,6.16 -3.17,-12.97 -4.5,-26.34 -4.6,-39.64 0.83,-5.41 4.43,0.13 4.76,2.7 0.74,13.35 1.85,26.94 5.8,39.76 4.79,0.99 5.5,-3.56 6.81,-6.97 6.06,-16.37 20.73,-33.76 15.8,-50.96 -8.57,6.34 -14.36,16.35 -6.57,26.96 -5.25,0.19 -4.88,-6.88 -6.35,-10.45 -7.13,5.3 0.45,16.09 0.23,23.33 -4.11,0.32 -4.82,-4.58 -6.92,-7.11 0.14,3.28 0.43,9.84 0.56,13.12 -5.84,-3.58 -4.21,-12.13 -6.39,-17.56 1.5,-4.81 -6.66,-19.93 3.48,-18.68 -3.03,-8.31 3.17,-20.65 3.84,-2.64 6.83,-2.67 -2.7,-16.92 3.28,-16.15 -2.77,16.16 4.01,5.48 7.04,2.03 -3.26,-10.77 -6.65,-22.79 -16.48,-29.54 -4.95,2.42 -9.27,6.83 -15.19,6.39 -0.68,-2.2 2.69,-9.43 -1.61,-6.2zm58.04 19.54c-3.42,1.12 -5.73,3.96 -7.29,7.06 4.54,2.44 13.6,-10.21 7.29,-7.06zm-218.58 283.1c-3.32,8.77 6.23,3.61 0,0zm-605.36 61.6c-15.77,4.1 -31.56,11.67 -42.08,24.4 -7.98,15.96 6.93,30.14 7.42,46.14 21.93,10.38 41.27,25.11 61.46,38.64 3.08,-10.6 4.47,-26.01 18.08,-28.03 18.85,-16.03 13.72,-43.36 22.63,-64.6 -20.8,-11 -42.64,-26.05 -67.52,-16.55zm604.21 -51.52c0.16,2.61 0.49,7.85 0.65,10.46 -1.62,-0.19 -6.27,-5.23 -5.34,-1.42 -3.85,22.73 16.33,-7.44 4.69,-9.04zm-7.92 9.71c-0.32,4.69 -0.27,9.41 -0.27,14.14 6.97,-0.04 2.96,-15.61 0.27,-14.14zm-3.48 16.31c-4.02,11.74 8.35,-0.13 0,0zm-591.43 125.3c-4.08,12.15 -11.85,36.1 -28.57,29.4 -12.01,-3.46 -23.3,3.98 -35.18,4.64 -5.47,1.34 -5.35,8.77 -4.43,13.24 10.73,10.02 32.44,8.78 34.06,27.08 12.84,-6.22 26.52,-10.88 41.03,-10.24 0.29,-4.15 19.52,2.97 9.11,2.66 -28.11,-1.47 -55.18,13.84 -68.51,38.26 1.62,11.92 7.81,33.76 24.12,28.29 11.87,-8.67 23.54,-17.72 33.66,-28.4 4,-4.61 14.21,-2.2 13.71,-9.96 12.83,4.4 25.07,2.79 37.98,-2.05 -9.8,-25.67 -25.58,-49.65 -30.95,-76.76 -6.23,-4.42 -15.74,-2.68 -21.12,-9.43 -6.42,0.26 0.74,-10.36 -4.9,-6.74zm5.81 2.98c-0.33,2.53 3.65,5.35 5.98,3.99 0.31,-2.54 -3.65,-5.39 -5.98,-3.99zm1069.1 -57.13c-11.37,4.49 -25.25,4.06 -34.37,12.97 0.14,-1.03 0.43,-3.14 0.57,-4.17 -14.32,1.54 -19.15,15.86 -27.73,25.16 -9.33,8.75 -22.26,3.2 -32.54,0.03 -14.42,39.11 -36.43,76.22 -67.4,103.95 -5.21,-2.61 4.34,-11.21 5.9,-16.24 -10.4,-1.3 -16.37,7.62 -23.7,12.98 2.83,11.34 14.99,15.85 19.81,25.96 -1.87,3.19 -5.66,0.95 -8.51,1.11 0.41,4.79 1.25,14.36 1.68,19.15 11.5,-4.77 23.81,-9.62 36.51,-7.13 14.87,4.32 25.58,23.01 11.49,34.36 10.33,4.77 22.1,-3.03 32.41,-5.1 6.55,-2.51 17.02,-4.68 16.05,-13.47 3.01,-17.18 17.68,-29.55 23.76,-45.32 -18.36,4.34 -37.46,4.94 -56.11,2.46 -5.24,-1.73 -11.66,-3.07 -13.38,-9.14 26.81,5.98 59.29,8.25 82.62,-8.27 14.99,-0.97 28.42,9.52 41.24,16.42 -6.42,2.16 1.6,10.09 3.42,14.05 11.28,-1.28 22.14,0.44 32.13,6.03 13.98,2.02 33.28,4.34 42.63,-9.11 10.22,-13.46 0.47,-30.45 8.69,-44.51 -4.54,-19.8 -31.55,-30.94 -47.54,-18.07 2.83,2.45 7.74,3.22 8.31,7.53 -22.29,-14.33 -50.44,-14.95 -74.92,-6.13 -4.05,-2.45 -20.67,7.94 -19.18,-1.31 24.41,-5.66 50.22,-11.74 75.02,-5.32 -6.7,-24.19 9.2,-48.53 4.3,-72.09 -9.57,-11.07 -25.91,-21.61 -41.14,-16.76zm-673.8 107.75c-10.13,2.5 -19.18,8 -29.02,11.32 -17.29,14.6 -24.61,38.2 -27.01,59.98 -7.37,24.62 -20.23,49.26 -44.08,61.53 -27.86,16.35 -61.72,5.68 -90,-4.17 -2.98,5.61 -7.08,13.19 -1.51,18.67 11.46,9.51 24.86,17.61 39.7,20.44 27,2.87 54.02,-5.47 80.78,-3.71 19.92,5.33 38.55,14.28 58.77,18.59 23.27,-1.48 38.7,-22.05 59.52,-29.89 20.53,-5.92 35.68,-32.12 58.99,-24.4 25.97,4.87 33.53,32.25 49.81,49.04 12.14,-1.3 25.79,-5.58 35.15,-13.86 -2.59,-17.89 -8.77,-38.49 1.96,-54.84 6.61,-14.94 22.38,-20.43 34.52,-29.69 0.19,-7.15 -3.19,-13.58 -7.18,-19.19 -14.89,-11.31 -30.62,-21.76 -46.28,-31.76 -13.09,7.44 -24.25,20.79 -28.81,35.57 3.73,14.17 -10.09,18.8 -11.76,30.79 -5.14,2.61 -10.81,2.23 -16.36,1.97 3.65,7.8 -4.88,12.89 -4.07,1.82 -1.53,7.26 -7.18,12.12 -11.09,18.06 -4.03,-2.03 -7.64,-3.28 -6.58,2.95 -8.56,2.15 3.41,-20.39 -9.06,-10.9 6.39,10.11 -11.96,25.92 -7.24,3.43 -8.37,1.7 0.12,11.31 -5.41,16.53 -7.98,9.09 2.13,-17.48 -6.75,-10.59 -5.6,1.98 4.94,19.41 -4.52,12.68 -6.37,-2.97 -0.18,11.46 -6.83,10.09 -1.75,-20.32 -1.85,-0.56 -6.81,2.74 -0.15,-4.94 0.13,-9.64 0.13,-14.47 -9.01,-0.92 0.41,15.12 -3.98,18.5 -2.59,-1.71 -5.93,-11.56 -5.06,-3.68 1.04,5.52 -7.54,1.2 -8.07,8.06 4.45,-23.77 -11.86,0.71 -21.17,3.39 22.08,-24.1 51.18,-40.22 78.55,-56.95 2.47,-0.3 5,0.06 7.46,-0.49 3.56,-9.03 15.79,-5.04 22.71,-10.39 -9.02,-9.01 -10.05,-25.91 -27.84,-22.5 -7.18,-11.33 -20.29,-12.23 -30.47,-19.38 -16.76,-0.04 -37.34,-12.09 -34.83,-31.29 3.22,-13.45 -16.72,-17.42 -26.27,-13.99zm-230.52 21.82c-41.45,1.36 -53.34,70.45 -14.12,84.49 12.13,6.06 28.91,12.51 39.67,0.04 15.51,-17.49 26.6,-44.92 13.42,-67.09 -9.32,-10.58 -24.43,-20.8 -38.96,-17.44zm-112.55 22.01c-4.57,3.34 -9.37,6.33 -14.01,9.58 2.82,7.49 13.38,10.48 13.96,19.57 -0.51,22.37 33.26,14.61 38.78,2.3 -15.02,-7.16 -27.2,-18.47 -36.36,-32.2 -0.58,0.17 -1.78,0.56 -2.36,0.75zm-14.93 29.43c-2.07,4.35 -5.28,7.56 -10.36,7.64 4.76,7.42 -7.62,11.65 -1.06,19.58 14.25,23.76 37.24,40.38 57.16,59.07 12.62,-4.69 24.8,-10.82 38.43,-12.44 6.62,-1.65 4.94,-10.25 6.31,-15.5 -7.84,0.54 -19.14,7.93 -7.42,12.93 -13.45,-1.65 -25.83,-7.56 -38.22,-12.67 -14.2,-7.23 -21.26,-22.4 -27.72,-36.17 2.43,0.25 4.85,0.67 7.3,0.91 -6.18,-5.01 -15.35,-7.2 -17.58,-15.9 -1.61,-2.48 -3.13,-9.45 -6.85,-7.47zm798.82 -65.72c-16.84,2.52 -31.57,15.37 -38.37,30.71 -11.72,25.81 2.41,62.84 33.58,63.85 4.1,1.18 2.71,-2.47 2.32,-4.92 -11.33,-1.27 4.98,-12.42 6.27,-18.87 -7.19,2.77 -8.46,14.89 -18.32,14.3 4.98,-7.32 8.92,-17.87 17.3,-20.96 7.55,2.83 3.61,10.39 1.81,15.94 4.82,-2.25 5.62,-9.05 11.05,-10.59 -3.18,9.41 -9.27,17.09 -15.41,24.7 11.75,-1.13 11.24,-20.04 20.79,-24.54 3.75,4.83 3.89,-1.24 8.46,-0.96 0.42,5.48 3.63,8.89 -0.33,14.26 9.58,-6.69 17.23,-20.99 13.81,-31.59 -12.81,-2.8 -16.9,-18.75 -31.15,-17.21 -11.77,-3.54 -15.21,-17.02 -17.28,-27.64 9.52,1.32 13.29,12.47 20.42,17.96 -0.68,-8.29 3.99,-14.84 7.47,-21.81 -6.77,-3.59 -15.01,-4.79 -22.41,-2.63zm-518.41 55.37c-3.31,8.75 6.25,3.61 0,0zm549.1 -44.36c-2.42,10.85 10.95,-4.05 0,0zm-744.06 70.03c-0.77,9.8 8.2,1.75 0,0zm-42.66 12.74c-10.28,1.44 -13.12,10.56 -3.19,15.53 -9.44,-5.53 10.94,-18.13 3.19,-15.53zm-61.5 6.37c-1.69,8.28 0.99,16.64 2.19,24.81 4.62,-6 6.27,-23.26 -2.19,-24.81zm79.51 -0.9c-5.89,4.6 -18.51,4.6 -18.89,13.35 7.91,-4.82 16.74,-8.58 23.78,-14.64 -1.22,0.34 -3.67,0.97 -4.89,1.29zm16.06 2.08c-9.86,4.9 -20.98,8.34 -29.13,16.07 2.23,5.23 7.98,7.19 12.87,9.15 3.59,-4.04 -1.45,-9.01 -0.92,-13.62 5.68,-5.9 16.08,-5.22 20.2,-12.69 -0.75,0.27 -2.27,0.81 -3.02,1.09zm-87.58 8.5c-1.14,6.07 -2.01,12.11 -0.24,18.32 2.25,-5.32 7.38,-15.01 0.24,-18.32zm99.72 -8.15c-3.01,9.74 8.5,-1.41 0,0zm575.49 -47.83c-12.72,14.28 -42.32,-0.07 -48.38,20.95 -15.67,29.34 15.21,74.2 48.96,63.97 14.59,-13.27 26.44,-29.2 35.36,-46.79 -3.84,-16.04 -15.57,-41.96 -35.94,-38.13zm174.12 -12.59c2.99,2.64 4.75,8.07 9.22,8.06 4.32,-6.61 -5.14,-6.02 -9.22,-8.06zm-732.83 67.71c0.17,9.32 8.71,-1.53 0,0zm-109.93 13.3c-0.59,2.36 -0.67,4.83 -0.83,7.27 -1.29,24 4.8,-10.79 0.83,-7.27zm5.51 1.35c-3.2,2.65 -2.62,19.68 0.29,11.51 0.48,-2.37 2.26,-17.14 -0.29,-11.51zm78.37 -5.26c-5.87,2.73 -12.25,4.85 -17.27,9.18 2.87,1.07 5.76,2.21 8.72,3.08 -0.62,-9.31 10.93,-8.36 15.53,-13.39 -2.37,0.12 -4.69,0.48 -6.98,1.13zm-72.8 8.38c-3.69,6.96 -3.35,15.12 -3.87,22.79 4.64,-4.34 4.86,-20.83 3.87,-22.79zm987.05 -84.69c-3.55,12.46 -13.09,23.59 -9.86,37.3 -12.72,11.7 -27.12,24.47 -45.71,23.06 -28.66,-1.17 -49.65,22.75 -77.41,26.06 -26.25,7.32 -51.64,17.8 -78.48,22.89 -21.01,5.86 -41.86,14.08 -63.9,14.69 14.89,-8.14 33.02,-8.2 48.91,-14 11.89,3.51 7.81,-2.51 6.72,-6.73 6.65,4.93 13.89,1.14 20.85,-1.56 -10.56,-5.83 -24.73,-1.29 -36.32,-2.6 9.53,-8.05 23.14,-1.73 34.3,-3.09 6.16,0.15 12.6,6.23 17.47,-0.53 -10.36,-3.7 -23.72,-1.22 -33,-6.34 9.65,-0.75 19.24,1.78 28.89,1.03 -5.55,-5.3 -15.35,-2.17 -20.64,-7.01 15.74,1.41 36.13,-2.98 48.66,7.64 25.59,-7.1 50.78,-16.01 74.72,-27.58 -0.74,-4.69 -6.6,-6.68 -7.83,-11.33 -4.15,-8.69 3.95,-14.96 5.01,-22.81 -9.55,-3.71 -20.8,0.82 -29.37,4.26 -2.51,12.46 11.26,2.74 17.56,1.49 1.72,4 -2.32,3.92 -5.08,4.61 2.85,0.97 5.97,1.61 8,4.09 -13.31,0.19 -28.37,-2.92 -40.09,2.11 8.44,6.29 35.31,-5.22 42.28,6.38 -14.28,-1.4 -28.68,-2.44 -42.98,-1.07 11.5,7.1 27.97,-0.65 38.42,6.89 -14.05,-0.61 -28.23,-2.85 -42.19,-2.69 -8.56,8.49 -18.71,14.92 -29.02,21.01 10.15,4.12 23.65,0.43 32.86,6.2 -18.65,2.75 -36.62,-6.42 -55.29,-2.49 -0.32,-4.83 6.4,-3.99 8.79,-7.26 -16.35,2.76 -32.77,-0.5 -47.4,-7.89 -21.08,9.05 -44.73,20 -69.17,19.94 -11.72,30.67 -60.17,42.71 -80.42,13.54 -3.42,-4.47 -0.59,6.46 -5.02,5.61 -16.64,-0.39 -31.56,8.48 -47.51,10.52 -6.67,-7.52 1.8,9.92 0.01,11 -11.88,6.3 -22.34,16.01 -34.84,20.76 -7.45,-6.71 -18.02,7.46 -23.9,-2.48 -15.38,-7.63 -16.49,-26.86 -24.57,-40.23 -17.16,-12.31 -36.59,0.63 -54.04,4.06 -10.85,9.53 -21.99,19.24 -34.57,26.26 3.48,-7.15 11.99,-9.58 16.74,-15.67 -8.91,4.82 -19.01,9.73 -25.39,17.79 19.78,5.92 28.7,-18.45 46.21,-21.45 -8.31,8.7 -20.09,12.96 -28.65,21.43 18.37,1.66 36.19,7.14 55.05,6.61 -5.8,4.96 -24.23,1.96 -34.56,3.69 -44.33,1.26 -88.06,-5.94 -130.33,-19.44 -26.49,3.94 -53.59,7.84 -80.43,7.11 -14.27,-3.75 -25.69,-17.97 -41.51,-14.66 -17.37,-0.88 -39.45,1.12 -49.28,-16.44 6.2,5.08 14.93,0.18 19.47,6.3 26.3,2.35 -21.43,-8.54 7.07,-6.99 2.35,-1.54 13.75,0.16 12.01,-6.25 -7.06,-1.62 -15.44,7.93 -21.24,2.22 -6.84,7.64 -13.81,-4.52 -21.52,0.76 -12.04,7.33 -28.02,8.21 -38.5,17.68 70.56,25.19 146.39,28.36 219.98,39.82 118.64,15.87 238.89,12.87 357.19,-4.96 51.58,-2.95 103.47,-8.67 153.12,-23.62 52.9,-16.71 105.27,-35.35 156.63,-56.43 26.76,-17.64 58.64,-32.49 77.56,-58.03 -4.25,-10.56 -18.08,-8.9 -27.1,-12.63 -5.78,3.99 -7.98,15.22 -16.24,17.12 3.34,-5.76 7.5,-10.98 10.98,-16.66 -4,-0.62 -8.05,-1.69 -12.09,-1.01zm-982.1 86.78c3.98,9.27 -0.51,19.08 -1.21,28.59 6.36,-3.99 7.51,-23.38 1.21,-28.59zm108.54 -3.95c-3.4,1.19 -10.22,3.6 -13.62,4.81 -14.25,6.43 16.13,3.48 13.62,-4.81zm31.97 -2.43c-3.08,2.01 -1.37,5.88 -1.38,8.89 4.05,-2.24 10.52,-12.27 1.38,-8.89zm-153.43 17.24c-3.31,8.75 6.25,3.61 0,0zm96.42 -7.11c-11.88,7.37 9.63,2.79 0,0zm-70.85 15.4c-2.11,4.74 -6.52,15.57 -1.14,18.83 0.55,-5.84 3.83,-17.48 1.14,-18.83zm393.05 -34.39c-1.44,9.44 8.48,-1.04 0,0zm-5.04 2.36c-3.15,1.21 -3.09,9.02 1.34,6.12 -0.03,-2.37 3.35,-9.47 -1.34,-6.12zm-254.03 28.81c-2.51,1.86 -19.9,3.74 -9.92,6.6 7.01,2.65 21.29,-0.32 9.92,-6.6zm608.81 -49.42c1.04,4.31 5.28,7.34 9.73,6.16 -1.28,-4.63 -5.46,-5.72 -9.73,-6.16zm52.11 1.37c-3.17,1.97 -17.26,4.16 -9.33,6.36 4.11,-0.94 20.27,-9.26 9.33,-6.36zm-754.87 71.58c-0.14,8.34 0.24,15.16 8.12,18.93 0.86,-5.94 2.28,-11.8 2.48,-17.8 -8.43,-2.79 -1.78,8.34 -8.08,7.74 0.3,-3.46 2.17,-7.83 -2.53,-8.87zm548.93 -44.31c0.47,12.94 12.96,23.08 25.26,24.67 -9.77,-7.25 -20.64,-12.57 -25.26,-24.67zm-537.68 52.05c0.39,2.61 -2.86,15.73 4.46,14.08 2.09,-6.1 1.31,-11.65 -4.46,-14.08zm9.29 3.37c-4.67,4.44 -4.77,16.28 4.23,13.47 -1.24,-4.15 2.91,-17.33 -4.23,-13.47zm7.16 0.98c-7.41,11.37 5.39,23.97 17.27,24.72 2.23,-6.74 2.04,-13.96 1.93,-20.96 -5.99,-2.44 -12.7,-4.71 -19.2,-3.76zm464.77 -36.98c-0.47,13.58 15.03,-5.09 0,0zm-489.86 50.34c-4.21,6.42 -0.26,14.41 -0.01,21.37 15.46,9.73 33.45,13.35 50.43,19.44 4.94,-10.76 -3.15,-7.12 -7.52,-8.52 -0.85,-5.12 -0.21,-10.35 -0.34,-15.43 -6.06,-3.29 -12.43,-6.07 -18.79,-8.6 -2.85,7.75 -2.59,-8.12 -9.27,-3.14 0.04,12.37 -4.15,-8.02 -11.34,-2.84 -2.33,6.45 -1.48,-6.09 -3.16,-2.3zm57.45 -5.54c-0.16,6.72 -7.01,22.67 2.73,20.47 -0.86,-6.81 7.45,-22.9 -2.73,-20.47zm263.63 -22.59c-4.44,0.95 -27.49,12.93 -13.31,12.78 2.93,-4.82 21.8,-14.36 13.31,-12.78zm425.14 -34.7c-1.29,0.78 -7.07,0.15 -4.81,2.39 7.26,2.66 16.01,3.86 22.67,-0.9 -6.01,-0.27 -11.86,-1.56 -17.86,-1.49zm-171.51 72.58c-14.08,4.48 1.02,27.54 -2.27,38.35 19,-0.03 2.17,-29.98 2.27,-38.35zm-17.52 2.98c-0.58,12.2 -0.77,24.44 -0.55,36.67 21.97,4.16 8.04,-25.77 10.78,-37.86 -15.05,1.5 3.49,31.27 -7.6,34.08 0.61,-10.79 1.54,-26.42 -2.63,-32.89zm28.13 -2.14c-4.72,9.58 0.3,26.95 2.53,34.36 3.82,-8.5 1.7,-28.06 -2.53,-34.36zm15.53 -1.82c-1.24,11.69 -0.35,23.4 1.14,35.05 14.66,4.34 8.91,-12.18 8.98,-18.65 -4.03,0.39 0.95,7.52 -3.1,7.49 -4.96,-3.97 7.46,-28.89 -7.02,-23.88zm10.69 -1.02c1.4,10.88 1.18,21.85 2.61,32.75 5.83,6.73 12.84,-5.08 8.12,-10.78 -2.16,-7.88 6.37,-30.26 -10.73,-21.97zm11.97 -1c1.17,11.7 0.54,24.29 2.47,35.51 15.69,5.65 2.86,-24.62 8.42,-29.31 1.18,9.76 1.53,19.62 2.7,29.45 22.6,4.55 6.29,-23.6 10.19,-35.78 -6.85,-1.15 -15.91,1.33 -23.78,0.13zm160.49 -893.74c2.41,-1.37 -0.24,7.56 0.36,10.2 2,-3.34 3.13,-7.3 6.14,-9.97 0.47,3.99 -1.28,7.68 -2.35,11.42 5.07,-0.98 3.53,-7.79 6.15,-11.29 4.18,-0.29 8.83,-0.68 12.07,2.56 -2.65,6.39 -5.7,12.65 -7.66,19.31 -5.36,2.95 -1.46,-5.63 -2.02,-8.44 -4.35,3.44 -3.38,9.77 -6.91,13.75 -0.76,-26.96 -2.47,6.36 -8.56,-4.47 -1.58,1 -3.05,2.18 -4.56,3.23 1.13,-8.92 2.24,-18.81 7.33,-26.31zm21.73 10.01c5.69,-2.63 2.06,4.91 2.18,7.91 2.23,-0.69 4.44,-1.42 6.75,-1.93 -0.86,9.13 3.37,23.58 -8.08,27.36 0.27,-3.33 2.82,-9.07 -2.51,-5.65 -1.04,-6.35 3.44,-11.67 4.03,-17.83 -4.28,2.24 -2.9,9.37 -8.05,9.93 0.55,-6.91 2.6,-13.61 5.68,-19.79zm244.71 79.37c2.1,-1.8 3.07,2.66 5.34,2.02 8.7,-3.25 11.32,9.85 19.59,10.19 -0.31,7.58 -2.9,16.1 -10.52,19.58 -1.58,-3.84 6.57,-13.74 -0.58,-11.34 -5.2,-4.14 -10.66,3.13 -17.09,2.26 0.31,-9.66 -5.51,2.98 -8.58,4.6 -1.24,-10.67 4.61,-20.07 11.85,-27.3zm-269.17 24.67c7.33,-0.51 16.62,-1.8 22.69,3.58 -1.79,6.12 -6.19,11.38 -5.89,18.08 -3.68,-1.25 -4.94,-11.89 -7.92,-5.85 -2.14,8.38 -8.9,-8.01 -8.2,2.23 0.23,8.92 -6.24,1.56 -5.62,-3.86 -1.56,8.41 -8.09,8.01 -12.26,13.97 -0.37,-9.3 5.18,-14.38 8.99,-21.82 5.65,1.99 7.17,-1.33 8.22,-6.33zm25.21 5.36c3.32,-0.5 5.54,6.25 5.83,9.57 -5.57,2.98 -10.34,-6.39 -5.83,-9.57zm-46.77 9.12c6.09,-3.7 4.65,15.05 -1.28,8.35 0.12,-2.83 0.73,-5.59 1.28,-8.35zm-6.13 4.63c5.04,-2.92 1.57,13.63 -1.17,14.7 -4.82,-7.08 -11.04,13.37 -7.83,-7.61 -0.05,-5.65 8.18,-1.12 9,-7.09zm-15.75 5.95c7.93,4.89 -0.15,17.72 -7.77,19.8 -5.68,-11.64 4.98,-11.93 7.77,-19.8zm-10.96 15.44c2.58,-1.93 1.26,6.02 1.92,8.07 -5.03,2.55 -5.13,-6.39 -1.92,-8.07zm-103.64 42.37c3.61,2.36 10.9,10.15 2.9,12.32 -7.59,4.87 -7.99,-8.85 -2.9,-12.32zm-85.54 9.11c4.04,-1.3 11.22,0.49 5.69,4.86 -5.89,7.76 4.53,2.28 8.88,2.33 -4.05,5.28 -10.8,7.7 -16.9,9.83 -6.39,-4.46 -2.65,-13.35 2.33,-17.02zm-33.65 6.04c5.18,-1.58 4.57,5.4 6.2,8.55 -3.47,-1.58 -5.18,-5.1 -6.2,-8.55zm67.67 -0.11c3.83,-0.7 7.55,5.46 12.31,5.89 -2.46,7.13 -11.22,6.87 -17.13,4.25 -1.7,-4.32 2.1,-7.44 4.82,-10.14zm-82.49 8.36c7.98,2.21 9.29,15.94 12.78,23.68 -2.05,-1.67 -3.96,-3.48 -6.09,-5.02 0.08,2.97 7.34,10.37 1.15,8.63 -4.68,-6.65 -9.83,-13.6 -11.1,-21.83 7.47,4.54 5.28,1.02 3.26,-5.46zm8.58 -0.92c6.99,2.39 5.78,11.86 8.55,17.39 -4.95,-4.46 -8.48,-10.62 -8.55,-17.39zm5.26 -0.46c4.76,2.09 5.44,7.86 6.41,12.37 -3.81,-2.94 -4.91,-8.04 -6.41,-12.37zm613.79 -36.3c12.41,-4.53 -1.42,17.32 -4.36,13.88 2.57,-11.95 -3.75,1.86 -6.89,5.83 0.58,-3.85 1.86,-7.54 2.48,-11.36 -4.42,6.48 -9.82,10.75 -13.74,17.34 -0.3,-0.8 -0.91,-2.39 -1.21,-3.17 -4.58,7.7 -14.16,9.49 -21.26,14.12 1.48,-13.92 12.33,-17.32 22.42,-23.48 -2.97,12.39 2.68,2.27 7.53,-1.68 1.46,-7.57 9.49,-8.13 15.03,-11.48zm-70.54 6.65c3.62,2.77 4.1,8.29 4.62,12.61 -4.17,-2.79 -4.49,-8.1 -4.62,-12.61zm-329.42 31.37c3.12,1.44 0.22,6.64 -0.45,9.23 -3.09,-1.35 -1.49,-7.04 0.45,-9.23zm-63.08 6.78c5.93,-1.27 4.05,8.31 5.28,12.27 -2.88,1.87 6.55,15.45 -1.37,13.38 -2.56,-8.21 -6.41,-16.98 -3.9,-25.65zm380.84 -31.68c7.57,-1.01 4.35,7.49 4.06,11.88 -6.81,3.27 -3.17,-7.73 -4.06,-11.88zm-511.38 48.32c7.03,-0.38 14.1,0.11 21.14,0.17 -7.44,4.28 -30.15,19.19 -21.14,-0.17zm503.18 -44.03c7.65,2.28 5.22,10.46 2.63,15.87 -6.8,-1.89 -4.12,-10.77 -2.63,-15.87zm-8.23 2.99c7.78,-0.61 2.19,10.39 0.2,14.42 -7.67,-1.11 -8.35,9.65 -14.14,12.57 -5.88,-6.71 1.66,-19.81 10.3,-19.1 1.73,-2.35 2.41,-5.26 3.65,-7.89zm-371.88 39.21c6.97,-4.06 2.11,19.2 -1.32,8.53 0.01,-2.89 0.75,-5.72 1.32,-8.53zm350.29 -19.92c5.77,0.33 2.6,8.02 2.1,11.62 -6.46,3.64 -5.29,-8.77 -2.1,-11.62zm-7.75 7.89c6.79,-1.22 5.17,13.92 -2.66,9.12 -1.77,9.01 -12.01,11.66 -17.85,17.47 0.11,3.93 -1.96,5 -5.49,4.12 -1.27,6.03 -4.21,10.91 -9.48,14.45 -4.7,-8.68 1.31,-19.38 10.24,-19.68 0.94,-4.8 2.65,-7.2 6.86,-3.34 -0.96,-12.68 16.71,-9.3 18.38,-22.14zm-409.17 52.01c19.09,-1.82 39.19,-4.04 57.89,-1.24 -28.41,0.32 -54.23,12.12 -81.67,17.1 -27.76,11.22 -58.1,14.08 -85.36,26.75 -6.59,6.84 -24.36,-2.57 -12.45,-9.01 36.2,-22.07 80.6,-26.24 121.6,-33.59zm-45.3 28.04c4.14,-3.19 9.94,3.52 3.04,4.23 -8.22,2.88 5.44,2.19 4.52,6.79 -4.8,0.82 -9.11,2.53 -13.88,3.16 -4.21,-6.73 1.5,-11.47 6.32,-14.18zm217.5 -8.38c3.23,0.72 1.47,7.41 -1.12,7.76 -1.57,-2.26 -1.5,-6.26 1.12,-7.76zm-157.56 15.48c4.97,-0.13 3.31,8.13 1.25,11.58 2.61,0.48 8.26,-2.06 6.81,2.66 -6.28,1.67 -12.43,3.86 -18.69,5.55 -5.12,-9.75 3.94,-15.47 10.62,-19.8zm-178.32 31.09c10.72,0.95 5.89,9.61 -0.96,12.69 2.14,3.16 7.08,3.63 7.88,7.73 -9.92,2.96 -10.38,-9.8 -18.93,-10.34 6.83,0.59 8.99,-5.29 12.01,-10.08zm61.84 2.11c2.77,0.66 5.83,5.87 10.8,4.28 -3.86,8.06 -20.32,7.29 -10.8,-4.28zm152.55 -9.71c16.18,-6.46 -8.14,13.56 -7.18,2.14 2.35,-0.79 4.77,-1.45 7.18,-2.14zm208.17 -14.74c11.39,-3.44 2.87,3.68 -2.89,5.6 3.99,4.41 -9.02,22.86 -6.62,4.31 -3.47,-6.48 2.83,-10.21 9.51,-9.91zm-534.61 48.24c3.72,-2.4 4.05,3.27 5.53,5.49 -3.04,-0.58 -6.29,-1.13 -7.24,2.63 7.74,0.59 15.51,0.41 23.28,0.25 -6.71,4.32 -17.86,6.69 -26.13,3.4 -5.18,-6.5 0.61,-9.42 4.56,-11.77zm563.09 -45.24c8.61,4.2 -12.82,12.72 -15.01,18.29 1.63,-7.84 9.02,-13.34 15.01,-18.29zm-310.36 42.03c4.33,0.79 8.49,2.28 12.82,3.2 -4.1,4.76 -14.2,5.36 -12.82,-3.2zm257.91 -18.07c8.18,-3.09 7.85,15.38 1.37,15.83 -12.22,-6.3 -27.58,-2.29 -38.9,-9.44 12.63,-1.15 25.34,-2.57 37.53,-6.4zm-630.38 58.5c15.58,-6.3 7.36,0.68 3.08,0.96 -55.52,13.54 -103,48.9 -141.76,89.72 -21.33,35.34 -35.19,74.72 -51.35,112.55 -2,6.16 -3.65,-4.26 -7.87,-4.44 21.71,-96.63 101.85,-175.77 197.91,-198.8zm40.17 6.04c4.66,1.18 8.06,4.6 11.36,7.89 -5.42,5.86 -12.83,-1.51 -11.36,-7.89zm66.7 -4.21c11.25,3.83 -2.5,12.42 0,0zm393.61 -32.01c3.34,-0.09 5.49,3.77 8.43,5.18 -2.59,4.01 -5.43,7.83 -7.68,12.06 -7.29,-2.04 -3.95,-12.67 -0.74,-17.24zm183.84 -13.98c3.83,-2.36 7.12,4.28 4.05,6.71 -6.14,5.76 -12.04,11.81 -18.55,17.14 2.85,-8.77 8.9,-16.53 14.5,-23.85zm-472.5 53.66c3.65,-0.81 2.29,6.9 0.71,9.53 4.84,-0.81 20.42,4.23 2.54,4.48 -8.43,2.91 -9.51,-10.8 -3.24,-14.02zm515.79 -39.93c0.78,-0.14 2.36,-0.42 3.15,-0.57 -2.12,7.9 3.05,16.23 -0.86,23.58 -0.14,-7.73 -4.7,-15.24 -2.3,-23zm-118.24 14.16c4.67,-3.4 8.16,7.96 1.8,7.93 -7.58,4.3 -14.54,9.57 -21.84,14.29 2.41,-9.95 13.2,-15.46 20.04,-22.22zm-85.46 9.22c6.38,-1.77 -6.63,12.83 -11.91,14.52 0.11,-6.88 7.99,-9.92 11.91,-14.52zm199.62 -11.12c7.7,8.24 3.6,23.38 7.58,34.38 -8.64,7.95 -4.35,-17.24 -10.14,-18.43 0.61,11.25 2.36,22.49 2.73,33.8 -8.91,-9.39 -9.32,-28.07 -6.72,-40.04 7.44,6.63 5.53,-4.62 6.55,-9.71zm-381.89 40.85c4.86,-2.48 3.79,4.66 4.32,7.41 2.65,5.76 0.79,17.01 -6.1,18.91 -0.43,-8.78 -4.43,-18.74 1.78,-26.32zm-386.11 35.44c4.76,6.42 -14.11,17.6 -21.72,20.82 2.43,-9.49 14.32,-14.4 21.72,-20.82zm493.57 -35.69c6.47,-2.92 -2.37,6.53 -5.64,6.81 -0.22,-3.55 3.29,-4.95 5.64,-6.81zm-417.59 38.09c14.46,-4.83 -4.09,8.4 -10.55,7.27 -1.07,-5.58 7.38,-4.22 10.55,-7.27zm298.41 -24.87c9.82,1.31 3.94,14.4 4.81,21.71 -6.51,0.5 -6.71,7.03 -11.06,8.85 -1.98,-11.01 3.87,-20.35 6.25,-30.56zm-181.89 17.62c4.06,2.75 10.09,1.66 13.33,5.46 -4.33,-1.58 -18.88,10.48 -13.33,-5.46zm-86.38 11.15c11.59,-2.2 -5.81,9.98 0,0zm344.63 -26.14c10.81,-3.67 -4.97,3.97 1.69,8.48 6.19,6.95 -7.84,9.63 -9.91,3.85 -1.73,-5.68 3.99,-9.8 8.22,-12.33zm203.02 -15.72c2.25,-1.22 1.49,9.84 -1.38,12.06 -0.46,-4.04 -1.27,-8.55 1.38,-12.06zm-658.59 65.39c-0.3,7.1 -8.45,10.38 -12.73,15.14 -6.9,-7.25 9.09,-11.07 12.73,-15.14zm544.18 -44.71c4.97,-3.43 2.37,3.35 -0.82,3.98 -4.06,1.53 -2.81,7.94 -7.5,8.45 -6.92,-12.99 2.49,-8.75 8.32,-12.43zm203.94 -17.12c8.68,16.8 7.2,39.94 12.18,59.37 -10.98,-16.76 -6.45,-40.06 -12.18,-59.37zm-10.99 10.66c4.06,-1.53 1.71,12.63 2.74,13.27 4,18.3 5.25,37.33 11.01,55.21 -4.79,6.67 -7.74,-9.8 -7.94,-11.28 -2.86,-18.34 -11.36,-40.04 -5.81,-57.19zm-969.62 87.37c0.76,-0.13 2.29,-0.43 3.05,-0.58 0.31,12.75 -4.08,25.02 -4.22,37.75 -7.25,-4.42 -3.96,-15.4 -2.72,-22.39 2.36,-11.18 -7.17,7.61 -5.36,10.31 -4.05,4.82 -0.17,16.93 -6.89,18.43 -1.23,-13.57 0.41,-28.88 7.26,-40.83 4.28,1.19 10.31,4.77 8.87,-2.69zm10.32 -0.93c1.25,-0.16 3.78,-0.49 5.03,-0.65 -2.75,12.88 -5.84,26.05 -10.55,38.51 -2.26,-12.59 -0.39,-26.52 5.51,-37.86zm169.91 -14.16c7.12,-0.58 -3.37,20.95 -12.29,14.96 -4.88,-6.57 8.3,-10.4 12.29,-14.96zm214.25 -19.68c6.41,4.51 12.92,0.81 19.46,-1.36 -3.4,5.44 -9.52,8.34 -13.2,13.6 -4.48,-1.74 -8.95,-6.58 -6.26,-12.24zm512.24 -44.06c8.43,-0.06 -3.42,13.48 -7.75,16.57 0.55,-6.21 4.83,-11.32 7.75,-16.57zm-925.97 83.68c11.44,3.97 -0.61,17.05 -1.15,25.09 -1.23,3.86 -1.28,8.34 -4.48,11.25 -1.68,-12.3 1.98,-24.79 5.63,-36.34zm108.45 -9.01c2.23,0.69 6.65,0.53 4.72,4.04 -4.4,8.73 -6.28,21.71 -16.63,25 0.75,-10.42 6.65,-20.19 11.91,-29.05zm479.15 -41.31c2.11,3.83 3.99,24.27 2.07,30.91 -3.96,-6.82 -4.35,-21.12 -2.07,-30.91zm-595.65 53.77c1.97,-1.48 3.57,2.31 2.92,3.97 -1.63,11.48 -5.04,22.69 -6,34.31 -8.01,-4.46 -1.99,-15.82 -3.24,-23.12 -3.92,5.76 -3.71,13.09 -6.86,19.15 0.06,-12.26 -3.45,-32.64 13.18,-34.32zm702.3 -59.83c6.74,-1.43 -6.66,10.26 -1.21,15.85 4.18,8.41 -7.68,5.65 -6.64,-1.25 1.62,-5.28 4.95,-9.94 7.85,-14.59zm284.89 -24.7c0.76,-0.19 2.26,-0.58 3,-0.77 0.02,26.76 9.24,52.06 12.17,78.44 -10.13,-22.13 -17.65,-52.19 -15.16,-77.67zm-457.02 45.5c6.71,-2.48 -4.15,5.5 -6.05,7.78 -3.33,7.08 -11.47,-1.54 -6.39,-5.27 4.38,0.54 8.49,-0.76 12.44,-2.51zm57.03 -5.75c8.01,2.05 1.42,20.42 4.05,29.38 -4.49,-5.49 -2.58,-20.39 -4.05,-29.38zm-6.53 2.61c0.74,-0.19 2.2,-0.56 2.93,-0.77 -0.07,13.62 0.99,27.26 -0.04,40.87 -6.77,-9.98 -4.54,-27.13 -2.88,-40.11zm-599.15 53.23c7.29,7.08 -0.95,17.87 1.46,26.39 -8.26,-2.12 -1.68,-18.5 -1.46,-26.39zm916.22 -73.5c4.83,4.16 -8.55,15.27 -14.87,18.56 4.3,-6.59 7.53,-14.83 14.87,-18.56zm-326.76 29.94c0.71,-0.18 2.13,-0.59 2.85,-0.78 -0.41,12.47 1.3,24.82 1.48,37.29 -7.92,-8.28 -6.28,-24.85 -4.33,-36.51zm-319.63 29.55c1.23,-0.23 3.67,-0.69 4.89,-0.92 -5.56,12.77 -17.53,21.33 -24.11,33.6 -8.33,1.82 -2.4,-8.4 0.86,-10.8 7.28,-6.43 12.79,-14.11 18.36,-21.88zm59.77 -3.15c8.77,-5.09 1.94,11.03 -3.27,10.22 -8.45,1.05 -0.33,-8.26 3.27,-10.22zm667.47 -56.79c2.33,-0.4 4.98,-0.8 6.5,1.48 -0.31,26.82 5.49,53.24 7.01,80.01 -0.76,0.01 -2.29,0.04 -3.04,0.05 -5.78,-26.65 -13.26,-54.17 -10.46,-81.55zm-413.91 38.14c1.6,5.9 5.41,28.23 0.8,36.38 -3.13,-8.27 -6.39,-25.77 -0.8,-36.38zm-219.82 22.72c13.15,-1.69 -6.94,7.51 -3.64,13.86 -4.22,1.23 -7.92,-0.62 -10.3,-4.12 4.63,-3.27 9.05,-6.86 13.94,-9.73zm478.59 -36.84c5.98,12.67 -10.99,11.36 -18.1,15.57 3.75,-7.49 11.05,-11.65 18.1,-15.57zm-268.48 25.28c7.62,-2.7 -0.2,12.94 2.97,15.33 -2.6,5.98 6.55,21.67 -1.49,22.95 -3.04,-12.5 -4.2,-25.61 -1.48,-38.27zm-452.46 40.86c7.37,-1.12 3.38,6.27 1.73,9.94 -5.94,2.77 -1.58,-6.82 -1.73,-9.94zm865.29 -71.6c6.19,-0.92 9.02,6.52 5.03,10.9 0.45,20.21 5.7,40.09 9.52,59.94 -9.93,-2.43 -7.64,-21.87 -11.63,-30.67 -2.07,-13.08 -6.84,-27.08 -2.93,-40.17zm-487.05 50.66c2.76,1.54 4.41,4.19 5.83,6.92 -5.77,2.33 -6.13,-2.34 -5.83,-6.92zm477.44 -39.31c4.86,-1.6 7.29,5.72 5.06,9.44 2.83,24.12 7.03,48.09 10.51,72.17 -3.15,-0.78 -3.99,-3.93 -4.51,-6.69 -4.61,-24.73 -12.65,-49.7 -11.07,-74.93zm-317.12 35.17c8.06,-4.34 0.38,5.37 1.45,9.56 -7.06,4.24 -8.3,-9.14 -1.45,-9.56zm-94.77 9.41c3.91,1.18 1.79,9.64 2.81,13.74 -3.92,-1.19 -1.8,-9.65 -2.81,-13.74zm207.15 -13.72c7.73,-1.25 -24.75,24.53 -24.59,6.91 7.4,-3.55 17.11,-2.1 24.59,-6.91zm-338.08 39.9c18.4,-6.09 5.1,3.63 -1.72,4.57 -3.4,-2.45 -1.86,-3.99 1.72,-4.57zm536.41 -40.29c7.4,17.46 7.34,42.18 14.01,62.19 -0.76,-0.01 -2.29,0 -3.05,0 -4.18,-20.61 -9.73,-41.13 -10.96,-62.19zm-7.84 11.37c5.67,19 9.66,45.47 12.82,67.68 -8.48,-17.36 -14.52,-38.62 -17.38,-58.64 6.4,2.54 0.8,17.31 7.09,20.81 -0.64,-10 -1.99,-19.9 -2.52,-29.85zm-298.59 29.16c5.93,-0.71 7.91,5.48 7.32,10.28 -5.28,-0.4 -8.05,-5.34 -7.32,-10.28zm203.77 -11.68c5.03,-3.29 2.11,3.41 1.34,5.89 -4.19,3.18 -9.14,5.23 -13.31,8.48 1.5,-6.05 6.51,-11.36 11.97,-14.37zm-536.57 50.96c5.76,3.92 11.72,1.98 17.94,0.56 -4.69,4.98 -22.45,16.42 -17.94,-0.56zm-172.25 17.87c11.68,-5.15 -7.77,11.54 -10.73,7.41 -6.08,-8.14 6.5,-2.99 10.73,-7.41zm-64.54 8.97c3.35,1.64 5.68,16.2 14.5,12.65 0.6,7.1 1.12,14.54 4.94,20.79 -3.51,-7.72 0.09,-12.09 6.29,-13.68 0.54,4.56 1.61,13.68 2.15,18.25 3.51,-4.99 -0.69,-12.76 3.16,-17.16 -3.52,4.11 7.89,28.97 4.63,7.48 3.53,12.6 6.46,33.86 7.6,50.01 -13.37,2.53 -12.59,-15.25 -21.12,-21.04 -6.5,-7.97 -7.75,-19.27 -14.14,-27.52 0.4,3.36 1.66,19.15 -2.6,8.98 -1.96,-12.58 -13.07,-26.63 -5.41,-38.76zm6.56 13.53c-1.06,2.85 -0.74,6.51 0.8,9.16 2.3,-1.28 1.69,-8.32 -0.8,-9.16zm96.1 -22.52c4.13,-0.45 8.3,-0.77 12.48,-1.08 -0,5.65 -14.86,9.71 -12.48,1.08zm526.55 -43.9c2.32,-0.03 -6.89,10.42 -11.1,13.1 -5.25,6.09 -14.17,-2.96 -6.8,-7.12 1.07,12.48 12.93,-4.13 17.9,-5.97zm56.14 -2.16c4.21,4.09 8.18,8.43 14.23,4.33 -0.81,10.26 -21.77,7.19 -14.23,-4.33zm-540.36 48.95c4.53,3.69 9.61,1.95 14.61,0.4 -3.35,6.47 -16.49,11.63 -14.61,-0.4zm291 -24.7c3.57,0.94 -5.59,9.98 -10.14,8.91 -7.19,-6.38 7.03,-3.61 10.14,-8.91zm-94.35 9.89c11.99,-5.65 1.77,9.63 -5.24,6.9 -1.67,-4.45 1.33,-6.19 5.24,-6.9zm177.92 -15.67c5.69,10.23 1.4,29.26 2.08,43.43 -1.93,5.36 4.18,14.25 -2.04,18.23 -1.94,-20.45 -5.87,-41.47 -0.04,-61.66zm-561.93 54.24c15.59,-3.36 1.51,13.51 -3.6,19.15 -1.93,-8.02 -5.03,6.53 -11.09,2.67 2.99,-8.08 4.97,-19.43 14.69,-21.82zm-24.54 3.7c5.14,-1.38 9.99,3.52 13.95,-1.4 1.23,6.07 -11,24.55 -8.11,11.23 -3.87,3.15 -7.99,6.12 -5.38,-1.05 -8.42,5.24 -2.72,-4.82 -0.46,-8.78zm901.62 -78.77c1.82,0.92 3.5,2.18 5.05,3.58 -0.53,26.38 7.01,52.14 8.77,78.43 -8.84,-11.61 -7.43,-28.78 -11.46,-42.35 -0.83,-12.78 -9.66,-27.51 -2.36,-39.66zm-777.06 77.09c4.29,-0.25 8.24,-1.47 12.69,-1.26 -3.01,2.41 -13.62,8.37 -12.69,1.26zm761.95 -66.97c3.82,-0.61 7.45,1.02 10.65,2.98 -4.16,11.67 -0.47,23.83 2.16,35.45 3.69,12.43 0.69,25.61 3.86,38.15 -7.34,-6.23 -5.89,-17.7 -9.05,-26.1 -2.86,-16.74 -8.57,-33.36 -7.63,-50.49zm182.58 -13.11c16.72,-2.76 46.72,8.65 40.46,30.43 -3.57,-1.93 -3.78,-9.29 -6.56,-13.09 -12.01,7.54 -17.95,24.66 -30.75,29.1 4.26,-13.36 16.6,-24.93 29.07,-31.42 -7.6,-10.01 -29.31,-11.49 -32.09,2.91 -16.88,18.56 -30.33,40.86 -48.38,57.96 0.62,-11.92 -4.59,7.53 -9.07,1.97 14.9,-23.41 29.26,-47.72 48.74,-67.64 -6.57,-7.37 -1.22,-9.86 8.59,-10.22zm-5.73 16.11c-9.54,7.52 -16.11,18 -22.97,27.86 10.05,-6.97 16.75,-19.98 26.02,-28.85 -0.75,0.24 -2.28,0.74 -3.05,0.98zm-944.56 74.45c6.99,-1.86 3.22,11.36 4.65,13.58 -0.66,9.41 3.99,18.18 3.57,27.53 -2.73,5.06 -5.3,-0.77 -6.1,-3.8 -2.78,-12.15 -4.17,-24.9 -2.12,-37.3zm10.72 1.2c2.12,5.49 5.48,27.34 2.59,34.51 -3.07,-8.12 -7.94,-24.77 -2.59,-34.51zm914.31 -77.44c4.23,-3.2 2.78,2.01 1.24,4.2 -12.36,15.25 -21.52,32.81 -36.4,45.92 6.56,-19.16 19.49,-37.1 35.16,-50.12zm-931.22 82.64c2.66,7.69 2.78,27.17 6.15,39.58 -9.89,-9.09 -8.87,-27.17 -6.15,-39.58zm969.64 -84.43c1.26,-0.25 3.76,-0.73 5,-0.98 -13.99,16.48 -29.05,32.24 -41.75,49.78 5.36,-18.99 21.94,-35.66 36.75,-48.8zm-943.55 83.66c7,0.25 1.01,18.5 3.35,25.96 -6.62,-4.67 -7.26,-19.27 -3.35,-25.96zm482.43 -41.84c4.44,1.69 -3.51,8.23 -5.03,3.96 0.69,-2.23 3.01,-3.24 5.03,-3.96zm468.41 -40.53c4.45,-3.71 3.42,4.3 0.19,5.07 -8.3,7.62 -14.98,16.8 -23.02,24.64 4.12,-11.74 14.06,-21 22.82,-29.72zm-209.68 22.76c5.85,1.53 5.43,6.98 4.82,11.85 3.45,15.04 5.55,30.31 8.09,45.55 -8.33,-2.45 -5.45,-16.11 -8.55,-22.45 -0.3,-11.4 -9.21,-23.96 -4.36,-34.96zm-731.8 65.99c1.46,-1.06 5.12,13.68 -1.12,11.84 0.02,-3.82 -2.63,-9.19 1.12,-11.84zm129.11 -5.91c7.26,-0.17 14.55,-0.37 21.68,-1.97 -6.7,3.12 -19.2,14.49 -21.68,1.97zm593.22 -45.2c14,-1.96 3.28,19.26 7.49,25.85 -1.4,1.09 4.38,25.94 -1.02,14.77 -3.23,-13.24 -5.98,-26.91 -6.47,-40.62zm-115.01 13.37c4.1,1.03 4.14,5.13 4.2,8.67 -5.69,2.34 -3.4,-5.45 -4.2,-8.67zm108.8 -6.69c9.85,5.57 -0.85,25.45 4.43,35.83 -0.77,0.07 -2.34,0.19 -3.13,0.24 0.79,-11.66 -9.41,-25.82 -1.3,-36.07zm-360.36 32.17c6.52,2.87 12.67,5.82 20.14,2.58 -3.91,9.79 -19.29,9.26 -20.14,-2.58zm-322.29 32.19c10.35,-1.01 -2.55,23.14 12.53,16.82 3.79,3.44 10.73,4.72 12.09,9.9 -7.01,2.23 -13.63,5.85 -21.27,5.21 -11.53,-2.61 -16.82,9.1 -24.21,15.01 -4.51,-4.71 2.63,-12.15 4.62,-16.69 7.09,-9.14 -13.31,-3.23 -12.75,-12.17 7.29,-3.22 15.01,-3.42 22.42,-0.98 1.69,-5.9 3.61,-11.72 6.56,-17.1zm503.97 -39.74c7.17,-4.41 -11.88,21.35 -12.63,7.08 -1.33,-8.18 9.31,-1.83 12.63,-7.08zm167.23 -15.46c11.76,0.19 -0.73,16.97 3.01,22.7 -7.54,-4.13 -3.81,-15.62 -3.01,-22.7zm-621.94 59c14.07,5.33 9.67,20.66 13.34,32.75 -15.11,-0.89 -14.14,-20.87 -13.34,-32.75zm173.32 -14.06c5.79,-1.38 14.41,-1.32 13.68,6.28 -3.66,14.6 -8.54,28.99 -14.12,42.96 4.08,4.15 -9.58,21.45 -4.04,1.65 2.05,-12.08 8.39,-22.98 10.8,-34.92 -10.21,13.99 -14.79,31.64 -22.31,46.57 0.59,-17.55 9.34,-33.16 14.93,-49.4 -5.84,0.88 -5.39,8.73 -7.87,13.01 -6.42,13.82 -10.35,29.23 -17.06,42.54 0.1,-10.17 5.25,-19.4 6.2,-29.34 -6.72,9.35 -7.18,21.89 -12.95,31.74 -0.54,-11.68 7.14,-21.73 7.48,-33.06 -5.69,9.9 -10.76,20.22 -13.15,31.45 -5.23,-7.1 -2.64,3.84 -6.57,6.1 -0.04,-5.07 1.73,-9.87 2.28,-14.85 -3.98,2.79 -2.73,8.55 -6.04,11.71 2.34,-30.37 18.86,-61.42 48.73,-72.43zm-158.93 16.59c8.55,6.39 3.67,22.92 5.99,33.22 -8.41,-7.46 -9.27,-23.18 -5.99,-33.22zm47.35 -3.85c9.51,2.89 5.46,24.12 9.47,33.78 -5.82,7.2 -6.85,-10.29 -8.78,-12.34 0.2,-6.43 -6.21,-16.12 -0.68,-21.44zm553.9 -48.08c6.15,1.91 5.07,19.61 -1.98,21 0.13,-7.02 -0.47,-14.31 1.98,-21zm-585.46 52.32c0.8,-0.09 2.44,-0.27 3.26,-0.34 1.33,14.09 2.21,28.31 5.36,42.18 -9.66,-11.31 -6.89,-27.99 -8.62,-41.84zm-6.6 2.65c7.19,6.59 6.25,23.86 7.79,34.5 -9.24,-7.26 -9.55,-25.14 -7.79,-34.5zm26.08 -3.06c7.67,12.08 4.7,28.56 10.23,41.93 -13.19,-5.91 -7.74,-29.03 -10.23,-41.93zm20.8 -1.68c10.04,5.52 6.41,19.89 9.77,29.4 10.15,-2.59 -1.6,-23.12 7.57,-26.59 5.6,9.78 1.07,24.26 1.36,35.89 -4.18,7.02 -3.3,-3.15 -3.86,-7.92 -14.19,13.21 -14.19,-23.52 -14.84,-30.77zm-31.24 4.83c8.83,5.55 3.35,28.01 8.51,40 -10.7,-9.23 -6.28,-27.12 -8.51,-40zm198.8 -4.28c7.56,4.15 -2.49,9.58 0,0zm7.38 2.81c3.37,-1.17 5.4,6.19 2.53,7.31 -1.9,-1.75 -3.84,-4.72 -2.53,-7.31zm29.35 -3.68c5.83,3.26 3.23,11.59 8.06,15.99 -7.8,-0.01 -6.52,-11.44 -8.06,-15.99zm8.47 -0.24c6.12,-0.09 5.1,12.06 12.16,14.95 -7.49,-0.34 -11.22,-8.43 -12.16,-14.95zm-24.17 3.47c3.97,3.56 5.63,9.11 6.48,14.24 -3.85,-3.75 -6.83,-8.72 -6.48,-14.24zm8.71 -0.69c5.28,2.45 4.96,9.25 6.51,14.12 -5.28,-2.45 -4.96,-9.27 -6.51,-14.12zm-15.71 3.43c5.24,-1.69 4.09,5.49 5.78,8.62 -4.37,0.13 -5.18,-5.31 -5.78,-8.62zm44.49 -3.48c8.69,0.67 -1.34,10.96 0,0zm-376.69 47.78c2.9,1.6 5.77,3.6 9.29,2.52 7.7,1.43 14.03,10.26 22.39,6.4 4.65,7.15 12.62,1.4 6.81,11.26 5.76,-6.22 11.36,-14.21 20.21,-15.67 -3.11,9.78 -10.36,17.17 -17.54,24.13 4.42,-11.51 -5,-2.82 -10.65,-0.78 1.93,-3.9 4.2,-7.62 6.04,-11.55 -4.51,1.2 -5.71,6.64 -10.07,8.32 0.35,-4.26 4.31,-6.96 4.82,-11.14 -5.82,2.93 -9.22,11.79 -15.73,7.25 -6.39,-5.47 -17.5,-10.14 -15.57,-20.74zm1001.37 -85.02c15.11,-0.61 13.92,19.9 11.41,30.77 -1.71,11.08 -13.75,15 -23.66,14.42 5.87,-5.83 14.9,-7.72 20.07,-14.44 -2.61,-9.99 0.9,-23.27 -7.81,-30.75zm-573.79 54.44c9.69,-5.58 10.32,-1.18 8.56,5.08 4.54,-1.61 9,-3.62 13.8,-4.48 0.96,5.39 -5.27,6.85 -8.44,9.68 5.32,-0.32 10.14,-2.82 15.24,-4.16 3.86,6.07 9.94,10.26 13.93,16.24 6.39,10.31 -4.52,13.6 -10.78,17.54 -15.76,8.48 -26.12,23.58 -35.55,38.29 -7.37,1.54 0.35,-9.57 1.49,-13.4 -7.23,0.82 -15.72,1.45 -21.84,-3.35 3.97,-1.93 8.08,-3.52 12.04,-5.45 -1.76,-3.91 -12.3,-2.61 -7.48,-7.43 11.43,-4.88 23.83,-8.22 36.29,-6.87 -5.49,-7.66 -17.21,-0.28 -25.39,-1.58 1.61,-2.16 10.17,-4.97 3.91,-6.06 -3.77,-6.1 11.81,-2.82 11.67,-6.37 -6.34,-3.62 -13.31,0.63 -20.03,0.69 0.97,-6.9 22.26,-4.36 11.75,-10.69 3.83,-2.69 8.08,-4.66 12.19,-6.87 -3.55,-3.39 -21.85,7.32 -18.88,-2.04 -14.66,1.15 0.8,-9.03 7.51,-8.77zm29.79 20.02c-2.7,0.57 -8.08,1.69 -10.76,2.26 2.13,4.87 13.79,-3.77 16.95,2.59 7.63,6.79 0.63,-11.85 -6.2,-4.85zm-20.62 5.21c0.62,2.43 7.28,1.85 7.48,-0.65 -2.3,-1.1 -5.43,-0.83 -7.48,0.65zm-17.74 29.26c1.52,4.57 8.56,1.4 12.43,2.18 7.14,-7.4 -11.73,-0.06 -12.43,-2.18zm365.35 -80.55c6.31,-2.79 -2.07,6.2 -3.38,8.78 -0.8,-3.56 0.33,-6.77 3.38,-8.78zm-109.57 37.55c4.51,-3.63 5.16,7.28 -0.07,4.92 -6.04,1.86 -1.94,-2.67 0.07,-4.92zm7.18 4.8c5.49,1.14 -4.23,15.72 -11.23,14.62 -1.9,-7.3 6.88,-10.56 11.23,-14.62zm-161.6 17.68c8.38,-4.48 1.55,7.33 5.78,10.82 -2.58,13.01 11.23,23.62 24.66,25.08 0.11,3.55 -3.13,5.92 -4.48,8.96 7.04,-2.65 12.73,-19.31 20.87,-7.82 -0.97,7.06 8.71,4.35 3.89,12.13 -13.03,2.7 -21.69,0.27 -32.59,5.1 -0.37,-2.03 2.85,-9.69 -0.93,-5.68 -7.19,3.79 -11.35,-4.81 -9.84,-12.95 -9.43,13.74 -8.16,-8.34 -11.9,-16.21 -5.15,-7.4 1.02,-13.56 4.54,-19.45zm169.19 -14.77c8,3.29 -7.56,19.36 -14.69,20.15 2.01,-8.03 7.57,-15.82 14.69,-20.15zm-863.34 76.24c4.89,0.56 7.74,7.14 7.84,11.75 -6.85,0.61 -10.5,-5.76 -7.84,-11.75zm261.49 -3.26c13.74,4.69 27.71,9.63 42.56,7.48 30.16,-3.22 60.67,-4.94 90.12,-12.85 17.75,-9.94 2.71,8.27 -2.05,3.19 -23.42,5.68 -47.27,9.14 -71.24,11.35 -18.94,4.97 -44.73,4.62 -59.39,-9.17zm-297.7 29.84c-0.42,1.06 2.9,6.44 5.55,9.22 -7.48,9.9 -14.75,-4.21 -5.55,-9.22zm94.69 -4.67c2.5,0.17 3.08,6.85 0.65,7.48 -1.47,-2.09 -1.74,-5.2 -0.65,-7.48zm47.44 -2.39c1.56,0.15 0.33,11.05 -2.9,14.06 0.57,-4.63 -0.56,-10.48 2.9,-14.06zm-100.71 18.82c17.65,-9.83 6.67,21.69 -2.69,12.07 -0.55,-4.12 0.53,-8.55 2.69,-12.07zm919.44 -72.94c12.25,0.56 26.45,-2.81 37.59,2.02 -10.69,-1.68 -32.67,7.01 -37.59,-2.02zm166.8 -10.3c6.23,3.61 -3.33,8.76 0,0zm-160.14 17.8c11.37,-2.08 23.53,-4.4 34.95,-2.89 3.46,1.07 -1.58,3.15 -2.75,3.78 -16.05,1.34 -32.2,1.51 -48.24,2.89 -0.63,-5.07 11.96,-1.22 16.05,-3.77zm-17.98 7.53c7.72,0.54 19.01,-5.72 23.71,3.31 -7.54,-1.69 -17.68,0.21 -23.71,-3.31zm-402.87 37.27c2.91,-2.21 -1.39,3.85 -1.52,5.26 2.39,-1.28 4.61,-2.87 6.94,-4.26 -3.07,10.21 -15.95,13.58 -23.05,21.02 -2.49,-2.97 -6.07,-1.44 -9.29,-0.99 7,-9.02 18.18,-13.9 26.93,-21.02zm561.44 -48.55c0.4,-0.09 3.59,16.24 -2.71,19.09 -0.33,-6.45 0.78,-12.97 2.71,-19.09zm-550.75 54.45c12.57,-2.2 -2.23,5.76 -2.8,10.58 4.01,-3.55 20.42,-14.42 12.28,-4.59 -3.49,1.76 -17.26,16.55 -15.83,6.32 -3.91,3.4 -8.38,4.9 -13.4,2.84 4.16,-6.88 12.69,-11.16 19.74,-15.15zm615.75 -46.71c7.39,-8.14 17.36,8.49 8.61,10.52 -5.81,2.47 -9.11,-5.81 -8.61,-10.52zm-328.57 30.18c7.8,0.25 19.35,-3.51 25.43,3.27 -8.05,-2.26 -19.32,0.57 -25.43,-3.27zm-280.4 26.75c6.17,-3 -0.42,4.53 -2.31,6.22 -6.19,2.97 0.4,-4.52 2.31,-6.22zm8.78 -0.64c8.67,-3.31 -5.88,7.87 -7.3,8.63 0.51,-4.04 3.6,-7.21 7.3,-8.63zm-470.22 43.53c6.62,0.18 13.21,8.99 5.79,13.5 -8.7,3.87 -6.84,-9.41 -5.79,-13.5zm1024.8 -81.47c1.14,-2.34 5.89,16.48 -0.25,15.75 -0.04,-5.3 -0.05,-10.52 0.25,-15.75zm-5.13 1.71c5.58,2.63 5.88,17.61 -0.48,17.82 -0.06,-5.95 0.18,-11.92 0.48,-17.82zm72.4 -2.26c9.68,-4.54 4.51,7.99 0,0zm-79.13 7.9c6.86,2.56 3.12,14.47 1.48,18.2 -0.36,-4.54 -1.12,-13.65 -1.48,-18.2zm-108 11.53c6.22,2.33 -0.49,10.54 0.54,15.57 -7.92,2.71 -3.17,-11.96 -0.54,-15.57zm175.37 -13.14c8.6,0.07 0.54,9.41 0,0zm36.32 -3.24c10.43,-4.99 6.26,8.6 -1.56,7.02 -0.18,-2.48 -0.82,-5.35 1.56,-7.02zm-108.01 11.43c4.58,-2.35 -1.38,33.63 -1.64,8.47 0.01,-2.89 -1.46,-6.69 1.64,-8.47zm-6.53 7.47c3.47,0.23 0.22,9.67 0.38,13.47 -6.01,1.74 -2.13,-10.11 -0.38,-13.47zm-8.39 2.75c6.07,-3.96 1.88,17.59 -1.18,11.9 -2.43,-9.98 -0.68,9.64 -8,5.75 -6.18,-7.9 2.11,-14.99 9.19,-17.65zm-132.85 12.97c6.52,-1.94 0.35,10.17 -2.76,12.62 -0.96,-4.4 -0.21,-9.12 2.76,-12.62zm209.32 -12.94c6.72,0.96 16.73,0.03 18.57,8.58 -1.64,3.44 -2.66,7.05 -2.9,10.85 -7.26,-2.12 -26.18,-6.04 -16.36,-15.85 3.7,1.21 6.96,3.53 10.84,4.25 -2.61,-3.54 -6.73,-5.28 -10.15,-7.83zm-217.31 22.51c5.89,4.19 -6.78,5.91 0,0zm118.87 -9.91c6.1,-4.98 9.04,11.79 3.67,5.91 -5.28,-4.84 -0.12,9.78 -6.47,7.64 0.71,-4.45 -0.38,-10.07 2.8,-13.56zm-6.63 3.75c5.59,-3.9 -0.44,17.42 -3.02,10.48 0.47,-3.56 0.37,-7.74 3.02,-10.48zm-8.48 2.71c5.95,-3.02 2.03,7.92 1.81,11.29 -7.75,4.58 -8.71,-10.85 -1.81,-11.29zm-809.08 77c3.53,1.28 -14.74,7.32 -20.48,10.35 3.83,-7.38 13.6,-7.68 20.48,-10.35zm563.19 -45.53c1.58,4.37 7.68,22.29 0.61,28.35 -0.63,-9.44 -0.34,-18.93 -0.61,-28.35zm-497.91 61.25c9.34,-3.38 0.74,4.69 -3.91,4.88 -0.48,-2.83 1.68,-3.98 3.91,-4.88zm238.9 12.63c2.05,-1.5 5.18,-1.77 7.48,-0.65 -0.21,2.48 -6.87,3.06 -7.48,0.65zm144.39 -0.29c8.07,-4.79 4.64,5.51 0,0z"/>
 </g>
</svg>
